<?xml version="1.0" encoding="utf-8"?>
<!-- Generator: Adobe Illustrator 19.2.0, SVG Export Plug-In . SVG Version: 6.00 Build 0)  -->
<svg version="1.1" id="Layer_1" xmlns="http://www.w3.org/2000/svg" xmlns:xlink="http://www.w3.org/1999/xlink" x="0px" y="0px"
	 viewBox="0 0 617.6 42.6" style="enable-background:new 0 0 617.6 42.6;" xml:space="preserve">
<style type="text/css">
	.st0{clip-path:url(#SVGID_2_);}
	.st1{fill:#A9B35A;}
	.st2{clip-path:url(#SVGID_4_);}
	.st3{clip-path:url(#SVGID_6_);}
	.st4{display:none;}
	.st5{display:inline;stroke:#FFFFFF;stroke-width:2;stroke-miterlimit:10;}
	.st6{fill:#58595B;stroke:#FFFFFF;stroke-width:0.25;stroke-miterlimit:10;}
	.st7{fill:#58595B;}
</style>
<g>
	<defs>
		<path id="SVGID_1_" d="M109.5-138v13.6h4.7v2.2h-7V-138H109.5z M128.3-135.7H122v3.8h6.2v2.2H122v5.3h6.3v2.2h-8.7V-138h8.7
			V-135.7z M142.7-130.4h6.5v0.5c0,1.2-0.1,2.2-0.4,3.2c-0.3,0.8-0.7,1.6-1.4,2.4c-1.5,1.7-3.3,2.5-5.6,2.5c-2.2,0-4.1-0.8-5.7-2.4
			c-1.6-1.6-2.4-3.5-2.4-5.8c0-2.3,0.8-4.2,2.4-5.8c1.6-1.6,3.6-2.4,5.9-2.4c1.2,0,2.4,0.3,3.5,0.8c1,0.5,2,1.3,3,2.5l-1.7,1.6
			c-1.3-1.7-2.9-2.6-4.7-2.6c-1.7,0-3.1,0.6-4.2,1.7c-1.1,1.1-1.7,2.6-1.7,4.3c0,1.8,0.6,3.2,1.9,4.4c1.2,1.1,2.5,1.6,3.8,1.6
			c1.2,0,2.2-0.4,3.2-1.2c0.9-0.8,1.5-1.8,1.6-2.9h-3.9V-130.4z M164-126h-6.8l-1.8,3.8h-2.6l7.8-16.8l7.6,16.8h-2.6L164-126z
			 M163-128.2l-2.3-5.4l-2.5,5.4H163z M175.8-138v13.6h4.7v2.2h-7V-138H175.8z M188.3-138v15.8h-2.4V-138H188.3z M198-124.4h7.6v2.2
			H194l7.8-13.6h-6.5v-2.2h10.4L198-124.4z M220.8-126H214l-1.8,3.8h-2.6l7.8-16.8l7.6,16.8h-2.6L220.8-126z M219.8-128.2l-2.3-5.4
			l-2.5,5.4H219.8z M235.6-128.9l4.9,6.7h-2.9l-4.5-6.5h-0.4v6.5h-2.4V-138h2.8c2.1,0,3.6,0.4,4.5,1.2c1,0.9,1.5,2,1.5,3.5
			c0,1.1-0.3,2.1-1,2.9S236.6-129.1,235.6-128.9z M232.6-130.7h0.8c2.3,0,3.4-0.9,3.4-2.6c0-1.6-1.1-2.4-3.3-2.4h-0.9V-130.7z"/>
	</defs>
	<clipPath id="SVGID_2_">
		<use xlink:href="#SVGID_1_"  style="overflow:visible;"/>
	</clipPath>
	<g class="st0">
		<g>
			
				<rect x="24" y="-139.8" transform="matrix(0.7065 -0.7078 0.7078 0.7065 129.8477 34.1636)" class="st1" width="164.1" height="0.8"/>
		</g>
		<g>
			
				<rect x="25.9" y="-139.8" transform="matrix(0.7065 -0.7078 0.7078 0.7065 130.3768 35.4391)" class="st1" width="164.1" height="0.8"/>
		</g>
		<g>
			
				<rect x="27.7" y="-139.8" transform="matrix(0.7065 -0.7078 0.7078 0.7065 130.9058 36.7147)" class="st1" width="164.1" height="0.8"/>
		</g>
		<g>
			
				<rect x="29.5" y="-139.8" transform="matrix(0.7065 -0.7078 0.7078 0.7065 131.435 37.9906)" class="st1" width="164.1" height="0.8"/>
		</g>
		<g>
			
				<rect x="31.3" y="-139.8" transform="matrix(0.7065 -0.7078 0.7078 0.7065 131.9642 39.2665)" class="st1" width="164.1" height="0.8"/>
		</g>
		<g>
			
				<rect x="33.1" y="-139.8" transform="matrix(0.7065 -0.7078 0.7078 0.7065 132.4931 40.5417)" class="st1" width="164.1" height="0.8"/>
		</g>
		<g>
			
				<rect x="34.9" y="-139.8" transform="matrix(0.7065 -0.7078 0.7078 0.7065 133.0222 41.8176)" class="st1" width="164.1" height="0.8"/>
		</g>
		<g>
			
				<rect x="36.7" y="-139.8" transform="matrix(0.7065 -0.7078 0.7078 0.7065 133.5514 43.0935)" class="st1" width="164.1" height="0.8"/>
		</g>
		<g>
			
				<rect x="38.5" y="-139.8" transform="matrix(0.7065 -0.7078 0.7078 0.7065 134.0805 44.369)" class="st1" width="164.1" height="0.8"/>
		</g>
		<g>
			
				<rect x="40.3" y="-139.8" transform="matrix(0.7065 -0.7078 0.7078 0.7065 134.6095 45.6446)" class="st1" width="164.1" height="0.8"/>
		</g>
		<g>
			
				<rect x="42.1" y="-139.8" transform="matrix(0.7065 -0.7078 0.7078 0.7065 135.1387 46.9205)" class="st1" width="164.1" height="0.8"/>
		</g>
		<g>
			
				<rect x="43.9" y="-139.8" transform="matrix(0.7065 -0.7078 0.7078 0.7065 135.6679 48.1964)" class="st1" width="164.1" height="0.8"/>
		</g>
		<g>
			
				<rect x="45.7" y="-139.8" transform="matrix(0.7065 -0.7078 0.7078 0.7065 136.1969 49.4719)" class="st1" width="164.1" height="0.8"/>
		</g>
		<g>
			
				<rect x="47.5" y="-139.8" transform="matrix(0.7065 -0.7078 0.7078 0.7065 136.726 50.7475)" class="st1" width="164.1" height="0.8"/>
		</g>
		<g>
			
				<rect x="49.3" y="-139.8" transform="matrix(0.7065 -0.7078 0.7078 0.7065 137.2551 52.0234)" class="st1" width="164.1" height="0.8"/>
		</g>
		<g>
			
				<rect x="51.1" y="-139.8" transform="matrix(0.7065 -0.7078 0.7078 0.7065 137.7843 53.2993)" class="st1" width="164.1" height="0.8"/>
		</g>
		<g>
			
				<rect x="52.9" y="-139.8" transform="matrix(0.7065 -0.7078 0.7078 0.7065 138.3134 54.5748)" class="st1" width="164.1" height="0.8"/>
		</g>
		<g>
			
				<rect x="54.7" y="-139.8" transform="matrix(0.7065 -0.7078 0.7078 0.7065 138.8424 55.8504)" class="st1" width="164.1" height="0.8"/>
		</g>
		<g>
			
				<rect x="56.5" y="-139.8" transform="matrix(0.7065 -0.7078 0.7078 0.7065 139.3716 57.1263)" class="st1" width="164.1" height="0.8"/>
		</g>
		<g>
			
				<rect x="58.3" y="-139.8" transform="matrix(0.7065 -0.7078 0.7078 0.7065 139.9008 58.4022)" class="st1" width="164.1" height="0.8"/>
		</g>
		<g>
			
				<rect x="60.1" y="-139.8" transform="matrix(0.7065 -0.7078 0.7078 0.7065 140.4297 59.6774)" class="st1" width="164.1" height="0.8"/>
		</g>
		<g>
			
				<rect x="61.9" y="-139.8" transform="matrix(0.7065 -0.7078 0.7078 0.7065 140.9588 60.9533)" class="st1" width="164.1" height="0.8"/>
		</g>
		<g>
			
				<rect x="63.7" y="-139.8" transform="matrix(0.7065 -0.7078 0.7078 0.7065 141.488 62.2292)" class="st1" width="164.1" height="0.8"/>
		</g>
		<g>
			
				<rect x="65.5" y="-139.8" transform="matrix(0.7065 -0.7078 0.7078 0.7065 142.0171 63.5047)" class="st1" width="164.1" height="0.8"/>
		</g>
		<g>
			
				<rect x="67.3" y="-139.8" transform="matrix(0.7065 -0.7078 0.7078 0.7065 142.5461 64.7803)" class="st1" width="164.1" height="0.8"/>
		</g>
		<g>
			
				<rect x="69.1" y="-139.8" transform="matrix(0.7065 -0.7078 0.7078 0.7065 143.0753 66.0562)" class="st1" width="164.1" height="0.8"/>
		</g>
		<g>
			
				<rect x="70.9" y="-139.8" transform="matrix(0.7065 -0.7078 0.7078 0.7065 143.6045 67.3321)" class="st1" width="164.1" height="0.8"/>
		</g>
		<g>
			
				<rect x="72.7" y="-139.8" transform="matrix(0.7065 -0.7078 0.7078 0.7065 144.1335 68.6077)" class="st1" width="164.1" height="0.8"/>
		</g>
		<g>
			
				<rect x="74.5" y="-139.8" transform="matrix(0.7065 -0.7078 0.7078 0.7065 144.6625 69.8832)" class="st1" width="164.1" height="0.8"/>
		</g>
		<g>
			
				<rect x="76.3" y="-139.8" transform="matrix(0.7065 -0.7078 0.7078 0.7065 145.1917 71.1591)" class="st1" width="164.1" height="0.8"/>
		</g>
		<g>
			
				<rect x="78.1" y="-139.8" transform="matrix(0.7065 -0.7078 0.7078 0.7065 145.7209 72.435)" class="st1" width="164.1" height="0.8"/>
		</g>
		<g>
			
				<rect x="79.9" y="-139.8" transform="matrix(0.7065 -0.7078 0.7078 0.7065 146.2499 73.7105)" class="st1" width="164.1" height="0.8"/>
		</g>
		<g>
			
				<rect x="81.7" y="-139.8" transform="matrix(0.7065 -0.7078 0.7078 0.7065 146.779 74.9861)" class="st1" width="164.1" height="0.8"/>
		</g>
		<g>
			
				<rect x="83.5" y="-139.8" transform="matrix(0.7065 -0.7078 0.7078 0.7065 147.3082 76.262)" class="st1" width="164.1" height="0.8"/>
		</g>
		<g>
			
				<rect x="85.3" y="-139.8" transform="matrix(0.7065 -0.7078 0.7078 0.7065 147.8373 77.5379)" class="st1" width="164.1" height="0.8"/>
		</g>
		<g>
			
				<rect x="87.1" y="-139.8" transform="matrix(0.7065 -0.7078 0.7078 0.7065 148.3664 78.8134)" class="st1" width="164.1" height="0.8"/>
		</g>
		<g>
			
				<rect x="88.9" y="-139.8" transform="matrix(0.7065 -0.7078 0.7078 0.7065 148.8954 80.089)" class="st1" width="164.1" height="0.8"/>
		</g>
		<g>
			
				<rect x="90.7" y="-139.8" transform="matrix(0.7065 -0.7078 0.7078 0.7065 149.4246 81.3649)" class="st1" width="164.1" height="0.8"/>
		</g>
		<g>
			
				<rect x="92.5" y="-139.8" transform="matrix(0.7065 -0.7078 0.7078 0.7065 149.9538 82.6408)" class="st1" width="164.1" height="0.8"/>
		</g>
		<g>
			
				<rect x="94.3" y="-139.8" transform="matrix(0.7065 -0.7078 0.7078 0.7065 150.4827 83.916)" class="st1" width="164.1" height="0.8"/>
		</g>
		<g>
			
				<rect x="96.1" y="-139.8" transform="matrix(0.7065 -0.7078 0.7078 0.7065 151.0119 85.1919)" class="st1" width="164.1" height="0.8"/>
		</g>
		<g>
			
				<rect x="98" y="-139.8" transform="matrix(0.7065 -0.7078 0.7078 0.7065 151.541 86.4678)" class="st1" width="164.1" height="0.8"/>
		</g>
		<g>
			
				<rect x="99.8" y="-139.8" transform="matrix(0.7065 -0.7078 0.7078 0.7065 152.0701 87.7434)" class="st1" width="164.1" height="0.8"/>
		</g>
		<g>
			
				<rect x="101.6" y="-139.8" transform="matrix(0.7065 -0.7078 0.7078 0.7065 152.5991 89.0189)" class="st1" width="164.1" height="0.8"/>
		</g>
		<g>
			
				<rect x="103.4" y="-139.8" transform="matrix(0.7065 -0.7078 0.7078 0.7065 153.1283 90.2948)" class="st1" width="164.1" height="0.8"/>
		</g>
		<g>
			
				<rect x="105.2" y="-139.8" transform="matrix(0.7065 -0.7078 0.7078 0.7065 153.6575 91.5707)" class="st1" width="164.1" height="0.8"/>
		</g>
		<g>
			
				<rect x="107" y="-139.8" transform="matrix(0.7065 -0.7078 0.7078 0.7065 154.1865 92.8463)" class="st1" width="164.1" height="0.8"/>
		</g>
		<g>
			
				<rect x="108.8" y="-139.8" transform="matrix(0.7065 -0.7078 0.7078 0.7065 154.7156 94.1218)" class="st1" width="164.1" height="0.8"/>
		</g>
		<g>
			
				<rect x="110.6" y="-139.8" transform="matrix(0.7065 -0.7078 0.7078 0.7065 155.2447 95.3977)" class="st1" width="164.1" height="0.8"/>
		</g>
		<g>
			
				<rect x="112.4" y="-139.8" transform="matrix(0.7065 -0.7078 0.7078 0.7065 155.7739 96.6736)" class="st1" width="164.1" height="0.8"/>
		</g>
		<g>
			
				<rect x="114.2" y="-139.8" transform="matrix(0.7065 -0.7078 0.7078 0.7065 156.303 97.9492)" class="st1" width="164.1" height="0.8"/>
		</g>
		<g>
			
				<rect x="116" y="-139.8" transform="matrix(0.7065 -0.7078 0.7078 0.7065 156.832 99.2247)" class="st1" width="164.1" height="0.8"/>
		</g>
		<g>
			
				<rect x="117.8" y="-139.8" transform="matrix(0.7065 -0.7078 0.7078 0.7065 157.3612 100.5006)" class="st1" width="164.1" height="0.8"/>
		</g>
		<g>
			
				<rect x="119.6" y="-139.8" transform="matrix(0.7065 -0.7078 0.7078 0.7065 157.8904 101.7765)" class="st1" width="164.1" height="0.8"/>
		</g>
		<g>
			
				<rect x="121.4" y="-139.8" transform="matrix(0.7065 -0.7078 0.7078 0.7065 158.4193 103.0517)" class="st1" width="164.1" height="0.8"/>
		</g>
		<g>
			
				<rect x="123.2" y="-139.8" transform="matrix(0.7065 -0.7078 0.7078 0.7065 158.9484 104.3276)" class="st1" width="164.1" height="0.8"/>
		</g>
		<g>
			
				<rect x="125" y="-139.8" transform="matrix(0.7065 -0.7078 0.7078 0.7065 159.4776 105.6035)" class="st1" width="164.1" height="0.8"/>
		</g>
		<g>
			
				<rect x="126.8" y="-139.8" transform="matrix(0.7065 -0.7078 0.7078 0.7065 160.0067 106.8791)" class="st1" width="164.1" height="0.8"/>
		</g>
		<g>
			
				<rect x="128.6" y="-139.8" transform="matrix(0.7065 -0.7078 0.7078 0.7065 160.5357 108.1546)" class="st1" width="164.1" height="0.8"/>
		</g>
		<g>
			
				<rect x="130.4" y="-139.8" transform="matrix(0.7065 -0.7078 0.7078 0.7065 161.0649 109.4305)" class="st1" width="164.1" height="0.8"/>
		</g>
		<g>
			
				<rect x="132.2" y="-139.8" transform="matrix(0.7065 -0.7078 0.7078 0.7065 161.5941 110.7064)" class="st1" width="164.1" height="0.8"/>
		</g>
		<g>
			
				<rect x="134" y="-139.8" transform="matrix(0.7065 -0.7078 0.7078 0.7065 162.1231 111.982)" class="st1" width="164.1" height="0.8"/>
		</g>
		<g>
			
				<rect x="135.8" y="-139.8" transform="matrix(0.7065 -0.7078 0.7078 0.7065 162.6521 113.2575)" class="st1" width="164.1" height="0.8"/>
		</g>
		<g>
			
				<rect x="137.6" y="-139.8" transform="matrix(0.7065 -0.7078 0.7078 0.7065 163.1813 114.5334)" class="st1" width="164.1" height="0.8"/>
		</g>
		<g>
			
				<rect x="139.4" y="-139.8" transform="matrix(0.7065 -0.7078 0.7078 0.7065 163.7105 115.8093)" class="st1" width="164.1" height="0.8"/>
		</g>
		<g>
			
				<rect x="141.2" y="-139.8" transform="matrix(0.7065 -0.7078 0.7078 0.7065 164.2395 117.0849)" class="st1" width="164.1" height="0.8"/>
		</g>
		<g>
			
				<rect x="143" y="-139.8" transform="matrix(0.7065 -0.7078 0.7078 0.7065 164.7686 118.3604)" class="st1" width="164.1" height="0.8"/>
		</g>
		<g>
			
				<rect x="144.8" y="-139.8" transform="matrix(0.7065 -0.7078 0.7078 0.7065 165.2978 119.6363)" class="st1" width="164.1" height="0.8"/>
		</g>
		<g>
			
				<rect x="146.6" y="-139.8" transform="matrix(0.7065 -0.7078 0.7078 0.7065 165.827 120.9122)" class="st1" width="164.1" height="0.8"/>
		</g>
		<g>
			
				<rect x="148.4" y="-139.8" transform="matrix(0.7065 -0.7078 0.7078 0.7065 166.3558 122.1874)" class="st1" width="164.1" height="0.8"/>
		</g>
		<g>
			
				<rect x="150.2" y="-139.8" transform="matrix(0.7065 -0.7078 0.7078 0.7065 166.885 123.4633)" class="st1" width="164.1" height="0.8"/>
		</g>
		<g>
			
				<rect x="152" y="-139.8" transform="matrix(0.7065 -0.7078 0.7078 0.7065 167.4142 124.7392)" class="st1" width="164.1" height="0.8"/>
		</g>
		<g>
			
				<rect x="153.8" y="-139.8" transform="matrix(0.7065 -0.7078 0.7078 0.7065 167.9432 126.0148)" class="st1" width="164.1" height="0.8"/>
		</g>
		<g>
			
				<rect x="155.6" y="-139.8" transform="matrix(0.7065 -0.7078 0.7078 0.7065 168.4723 127.2903)" class="st1" width="164.1" height="0.8"/>
		</g>
		<g>
			
				<rect x="157.4" y="-139.8" transform="matrix(0.7065 -0.7078 0.7078 0.7065 169.0015 128.5662)" class="st1" width="164.1" height="0.8"/>
		</g>
		<g>
			
				<rect x="159.2" y="-139.8" transform="matrix(0.7065 -0.7078 0.7078 0.7065 169.5306 129.8421)" class="st1" width="164.1" height="0.8"/>
		</g>
		<g>
			
				<rect x="161" y="-139.8" transform="matrix(0.7065 -0.7078 0.7078 0.7065 170.0597 131.1177)" class="st1" width="164.1" height="0.8"/>
		</g>
		<g>
			
				<rect x="162.8" y="-139.8" transform="matrix(0.7065 -0.7078 0.7078 0.7065 170.5887 132.3932)" class="st1" width="164.1" height="0.8"/>
		</g>
		<g>
			
				<rect x="164.6" y="-139.8" transform="matrix(0.7065 -0.7078 0.7078 0.7065 171.1179 133.6691)" class="st1" width="164.1" height="0.8"/>
		</g>
		<g>
			
				<rect x="166.4" y="-139.8" transform="matrix(0.7065 -0.7078 0.7078 0.7065 171.6471 134.945)" class="st1" width="164.1" height="0.8"/>
		</g>
		<g>
			
				<rect x="168.2" y="-139.8" transform="matrix(0.7065 -0.7078 0.7078 0.7065 172.1761 136.2206)" class="st1" width="164.1" height="0.8"/>
		</g>
		<g>
			
				<rect x="170" y="-139.8" transform="matrix(0.7065 -0.7078 0.7078 0.7065 172.7052 137.4961)" class="st1" width="164.1" height="0.8"/>
		</g>
		<g>
			
				<rect x="171.9" y="-139.8" transform="matrix(0.7065 -0.7078 0.7078 0.7065 173.2343 138.772)" class="st1" width="164.1" height="0.8"/>
		</g>
		<g>
			
				<rect x="173.7" y="-139.8" transform="matrix(0.7065 -0.7078 0.7078 0.7065 173.7635 140.0479)" class="st1" width="164.1" height="0.8"/>
		</g>
		<g>
			
				<rect x="175.5" y="-139.8" transform="matrix(0.7065 -0.7078 0.7078 0.7065 174.2926 141.3235)" class="st1" width="164.1" height="0.8"/>
		</g>
		<g>
			
				<rect x="177.3" y="-139.8" transform="matrix(0.7065 -0.7078 0.7078 0.7065 174.8216 142.599)" class="st1" width="164.1" height="0.8"/>
		</g>
		<g>
			
				<rect x="179.1" y="-139.8" transform="matrix(0.7065 -0.7078 0.7078 0.7065 175.3508 143.8749)" class="st1" width="164.1" height="0.8"/>
		</g>
		<g>
			
				<rect x="180.9" y="-139.8" transform="matrix(0.7065 -0.7078 0.7078 0.7065 175.88 145.1508)" class="st1" width="164.1" height="0.8"/>
		</g>
		<g>
			
				<rect x="182.7" y="-139.8" transform="matrix(0.7065 -0.7078 0.7078 0.7065 176.4089 146.426)" class="st1" width="164.1" height="0.8"/>
		</g>
		<g>
			
				<rect x="184.5" y="-139.8" transform="matrix(0.7065 -0.7078 0.7078 0.7065 176.938 147.7019)" class="st1" width="164.1" height="0.8"/>
		</g>
		<g>
			
				<rect x="186.3" y="-139.8" transform="matrix(0.7065 -0.7078 0.7078 0.7065 177.4672 148.9778)" class="st1" width="164.1" height="0.8"/>
		</g>
		<g>
			
				<rect x="188.1" y="-139.8" transform="matrix(0.7065 -0.7078 0.7078 0.7065 177.9963 150.2534)" class="st1" width="164.1" height="0.8"/>
		</g>
		<g>
			
				<rect x="189.9" y="-139.8" transform="matrix(0.7065 -0.7078 0.7078 0.7065 178.5253 151.5289)" class="st1" width="164.1" height="0.8"/>
		</g>
		<g>
			
				<rect x="191.7" y="-139.8" transform="matrix(0.7065 -0.7078 0.7078 0.7065 179.0545 152.8048)" class="st1" width="164.1" height="0.8"/>
		</g>
		<g>
			
				<rect x="193.5" y="-139.8" transform="matrix(0.7065 -0.7078 0.7078 0.7065 179.5837 154.0807)" class="st1" width="164.1" height="0.8"/>
		</g>
		<g>
			
				<rect x="195.3" y="-139.8" transform="matrix(0.7065 -0.7078 0.7078 0.7065 180.1127 155.3563)" class="st1" width="164.1" height="0.8"/>
		</g>
		<g>
			
				<rect x="197.1" y="-139.8" transform="matrix(0.7065 -0.7078 0.7078 0.7065 180.6417 156.6318)" class="st1" width="164.1" height="0.8"/>
		</g>
		<g>
			
				<rect x="198.9" y="-139.8" transform="matrix(0.7065 -0.7078 0.7078 0.7065 181.1709 157.9077)" class="st1" width="164.1" height="0.8"/>
		</g>
		<g>
			
				<rect x="200.7" y="-139.8" transform="matrix(0.7065 -0.7078 0.7078 0.7065 181.7001 159.1836)" class="st1" width="164.1" height="0.8"/>
		</g>
		<g>
			
				<rect x="202.5" y="-139.8" transform="matrix(0.7065 -0.7078 0.7078 0.7065 182.2291 160.4592)" class="st1" width="164.1" height="0.8"/>
		</g>
		<g>
			
				<rect x="204.3" y="-139.8" transform="matrix(0.7065 -0.7078 0.7078 0.7065 182.7582 161.7347)" class="st1" width="164.1" height="0.8"/>
		</g>
		<g>
			
				<rect x="206.1" y="-139.8" transform="matrix(0.7065 -0.7078 0.7078 0.7065 183.2874 163.0106)" class="st1" width="164.1" height="0.8"/>
		</g>
	</g>
</g>
<g>
	<defs>
		<path id="SVGID_3_" d="M117.8-207.9h-6.3v3.8h6.2v2.2h-6.2v5.3h6.3v2.2h-8.7v-15.8h8.7V-207.9z M124.1-194.3v-15.8h3.3
			c1.6,0,2.8,0.2,3.8,0.5c1,0.3,1.9,0.8,2.7,1.6c1.6,1.5,2.5,3.4,2.5,5.9c0,2.4-0.9,4.4-2.6,5.9c-0.9,0.8-1.8,1.3-2.7,1.6
			c-0.9,0.3-2.1,0.4-3.7,0.4H124.1z M126.5-196.6h1.1c1.1,0,2-0.1,2.7-0.3c0.7-0.2,1.4-0.6,1.9-1.1c1.2-1.1,1.8-2.5,1.8-4.2
			c0-1.7-0.6-3.1-1.7-4.2c-1-1-2.6-1.4-4.6-1.4h-1.1V-196.6z M144.9-210.2v9.5c0,1.4,0.2,2.4,0.7,3c0.7,0.9,1.6,1.4,2.8,1.4
			c1.2,0,2.1-0.5,2.8-1.4c0.4-0.6,0.7-1.6,0.7-3v-9.5h2.4v10.2c0,1.7-0.5,3-1.6,4.1c-1.2,1.2-2.6,1.8-4.3,1.8s-3.1-0.6-4.3-1.8
			c-1-1.1-1.6-2.5-1.6-4.1v-10.2H144.9z M172.8-209.3v2.8c-1.4-1.2-2.8-1.7-4.3-1.7c-1.6,0-3,0.6-4.1,1.8c-1.1,1.2-1.7,2.6-1.7,4.3
			c0,1.7,0.6,3.1,1.7,4.2s2.5,1.7,4.1,1.7c0.8,0,1.6-0.1,2.1-0.4c0.3-0.1,0.7-0.3,1-0.6s0.7-0.5,1.1-0.8v2.9
			c-1.4,0.8-2.8,1.2-4.3,1.2c-2.3,0-4.2-0.8-5.8-2.4c-1.6-1.6-2.4-3.5-2.4-5.8c0-2,0.7-3.8,2-5.4c1.6-1.9,3.8-2.9,6.4-2.9
			C170.1-210.5,171.5-210.1,172.8-209.3z M188.7-198.2h-6.8l-1.8,3.8h-2.6l7.8-16.8l7.6,16.8h-2.6L188.7-198.2z M187.7-200.4
			l-2.3-5.4l-2.5,5.4H187.7z M203.5-201.1l4.9,6.7h-2.9l-4.5-6.5h-0.4v6.5h-2.4v-15.8h2.8c2.1,0,3.6,0.4,4.5,1.2
			c1,0.9,1.5,2,1.5,3.5c0,1.1-0.3,2.1-1,2.9S204.5-201.3,203.5-201.1z M200.5-202.9h0.8c2.3,0,3.4-0.9,3.4-2.6
			c0-1.6-1.1-2.4-3.3-2.4h-0.9V-202.9z"/>
	</defs>
	<clipPath id="SVGID_4_">
		<use xlink:href="#SVGID_3_"  style="overflow:visible;"/>
	</clipPath>
	<g class="st2">
		<g>
			
				<rect x="9.2" y="-223.7" transform="matrix(0.7065 -0.7078 0.7078 0.7065 184.8566 -1.0045)" class="st1" width="164.1" height="0.8"/>
		</g>
		<g>
			
				<rect x="11" y="-223.7" transform="matrix(0.7065 -0.7078 0.7078 0.7065 185.3856 0.271)" class="st1" width="164.1" height="0.8"/>
		</g>
		<g>
			
				<rect x="12.8" y="-223.7" transform="matrix(0.7065 -0.7078 0.7078 0.7065 185.9147 1.5466)" class="st1" width="164.1" height="0.8"/>
		</g>
		<g>
			
				<rect x="14.6" y="-223.7" transform="matrix(0.7065 -0.7078 0.7078 0.7065 186.4438 2.8225)" class="st1" width="164.1" height="0.8"/>
		</g>
		<g>
			
				<rect x="16.4" y="-223.7" transform="matrix(0.7065 -0.7078 0.7078 0.7065 186.973 4.0984)" class="st1" width="164.1" height="0.8"/>
		</g>
		<g>
			
				<rect x="18.2" y="-223.7" transform="matrix(0.7065 -0.7078 0.7078 0.7065 187.5019 5.3736)" class="st1" width="164.1" height="0.8"/>
		</g>
		<g>
			
				<rect x="20" y="-223.7" transform="matrix(0.7065 -0.7078 0.7078 0.7065 188.0311 6.6495)" class="st1" width="164.1" height="0.8"/>
		</g>
		<g>
			
				<rect x="21.8" y="-223.7" transform="matrix(0.7065 -0.7078 0.7078 0.7065 188.5603 7.9254)" class="st1" width="164.1" height="0.8"/>
		</g>
		<g>
			
				<rect x="23.6" y="-223.7" transform="matrix(0.7065 -0.7078 0.7078 0.7065 189.0893 9.2009)" class="st1" width="164.1" height="0.8"/>
		</g>
		<g>
			
				<rect x="25.4" y="-223.7" transform="matrix(0.7065 -0.7078 0.7078 0.7065 189.6184 10.4765)" class="st1" width="164.1" height="0.8"/>
		</g>
		<g>
			
				<rect x="27.2" y="-223.7" transform="matrix(0.7065 -0.7078 0.7078 0.7065 190.1476 11.7524)" class="st1" width="164.1" height="0.8"/>
		</g>
		<g>
			
				<rect x="29" y="-223.7" transform="matrix(0.7065 -0.7078 0.7078 0.7065 190.6767 13.0283)" class="st1" width="164.1" height="0.8"/>
		</g>
		<g>
			
				<rect x="30.8" y="-223.7" transform="matrix(0.7065 -0.7078 0.7078 0.7065 191.2058 14.3038)" class="st1" width="164.1" height="0.8"/>
		</g>
		<g>
			
				<rect x="32.6" y="-223.7" transform="matrix(0.7065 -0.7078 0.7078 0.7065 191.7348 15.5794)" class="st1" width="164.1" height="0.8"/>
		</g>
		<g>
			
				<rect x="34.4" y="-223.7" transform="matrix(0.7065 -0.7078 0.7078 0.7065 192.264 16.8553)" class="st1" width="164.1" height="0.8"/>
		</g>
		<g>
			
				<rect x="36.2" y="-223.7" transform="matrix(0.7065 -0.7078 0.7078 0.7065 192.7932 18.1312)" class="st1" width="164.1" height="0.8"/>
		</g>
		<g>
			
				<rect x="38" y="-223.7" transform="matrix(0.7065 -0.7078 0.7078 0.7065 193.3222 19.4067)" class="st1" width="164.1" height="0.8"/>
		</g>
		<g>
			
				<rect x="39.8" y="-223.7" transform="matrix(0.7065 -0.7078 0.7078 0.7065 193.8512 20.6823)" class="st1" width="164.1" height="0.8"/>
		</g>
		<g>
			
				<rect x="41.6" y="-223.7" transform="matrix(0.7065 -0.7078 0.7078 0.7065 194.3804 21.9582)" class="st1" width="164.1" height="0.8"/>
		</g>
		<g>
			
				<rect x="43.4" y="-223.7" transform="matrix(0.7065 -0.7078 0.7078 0.7065 194.9096 23.2341)" class="st1" width="164.1" height="0.8"/>
		</g>
		<g>
			
				<rect x="45.2" y="-223.7" transform="matrix(0.7065 -0.7078 0.7078 0.7065 195.4385 24.5093)" class="st1" width="164.1" height="0.8"/>
		</g>
		<g>
			
				<rect x="47" y="-223.7" transform="matrix(0.7065 -0.7078 0.7078 0.7065 195.9677 25.7852)" class="st1" width="164.1" height="0.8"/>
		</g>
		<g>
			
				<rect x="48.8" y="-223.7" transform="matrix(0.7065 -0.7078 0.7078 0.7065 196.4969 27.0611)" class="st1" width="164.1" height="0.8"/>
		</g>
		<g>
			
				<rect x="50.6" y="-223.7" transform="matrix(0.7065 -0.7078 0.7078 0.7065 197.0259 28.3366)" class="st1" width="164.1" height="0.8"/>
		</g>
		<g>
			
				<rect x="52.4" y="-223.7" transform="matrix(0.7065 -0.7078 0.7078 0.7065 197.5549 29.6122)" class="st1" width="164.1" height="0.8"/>
		</g>
		<g>
			
				<rect x="54.2" y="-223.7" transform="matrix(0.7065 -0.7078 0.7078 0.7065 198.0841 30.8881)" class="st1" width="164.1" height="0.8"/>
		</g>
		<g>
			
				<rect x="56" y="-223.7" transform="matrix(0.7065 -0.7078 0.7078 0.7065 198.6133 32.164)" class="st1" width="164.1" height="0.8"/>
		</g>
		<g>
			
				<rect x="57.8" y="-223.7" transform="matrix(0.7065 -0.7078 0.7078 0.7065 199.1423 33.4395)" class="st1" width="164.1" height="0.8"/>
		</g>
		<g>
			
				<rect x="59.6" y="-223.7" transform="matrix(0.7065 -0.7078 0.7078 0.7065 199.6714 34.7151)" class="st1" width="164.1" height="0.8"/>
		</g>
		<g>
			
				<rect x="61.4" y="-223.7" transform="matrix(0.7065 -0.7078 0.7078 0.7065 200.2006 35.991)" class="st1" width="164.1" height="0.8"/>
		</g>
		<g>
			
				<rect x="63.2" y="-223.7" transform="matrix(0.7065 -0.7078 0.7078 0.7065 200.7298 37.2669)" class="st1" width="164.1" height="0.8"/>
		</g>
		<g>
			
				<rect x="65" y="-223.7" transform="matrix(0.7065 -0.7078 0.7078 0.7065 201.2588 38.5424)" class="st1" width="164.1" height="0.8"/>
		</g>
		<g>
			
				<rect x="66.8" y="-223.7" transform="matrix(0.7065 -0.7078 0.7078 0.7065 201.7878 39.818)" class="st1" width="164.1" height="0.8"/>
		</g>
		<g>
			
				<rect x="68.6" y="-223.7" transform="matrix(0.7065 -0.7078 0.7078 0.7065 202.317 41.0939)" class="st1" width="164.1" height="0.8"/>
		</g>
		<g>
			
				<rect x="70.4" y="-223.7" transform="matrix(0.7065 -0.7078 0.7078 0.7065 202.8462 42.3698)" class="st1" width="164.1" height="0.8"/>
		</g>
		<g>
			
				<rect x="72.2" y="-223.7" transform="matrix(0.7065 -0.7078 0.7078 0.7065 203.3752 43.6453)" class="st1" width="164.1" height="0.8"/>
		</g>
		<g>
			
				<rect x="74" y="-223.7" transform="matrix(0.7065 -0.7078 0.7078 0.7065 203.9043 44.9209)" class="st1" width="164.1" height="0.8"/>
		</g>
		<g>
			
				<rect x="75.8" y="-223.7" transform="matrix(0.7065 -0.7078 0.7078 0.7065 204.4335 46.1968)" class="st1" width="164.1" height="0.8"/>
		</g>
		<g>
			
				<rect x="77.7" y="-223.7" transform="matrix(0.7065 -0.7078 0.7078 0.7065 204.9626 47.4727)" class="st1" width="164.1" height="0.8"/>
		</g>
		<g>
			
				<rect x="79.5" y="-223.7" transform="matrix(0.7065 -0.7078 0.7078 0.7065 205.4915 48.7479)" class="st1" width="164.1" height="0.8"/>
		</g>
		<g>
			
				<rect x="81.3" y="-223.7" transform="matrix(0.7065 -0.7078 0.7078 0.7065 206.0207 50.0238)" class="st1" width="164.1" height="0.8"/>
		</g>
		<g>
			
				<rect x="83.1" y="-223.7" transform="matrix(0.7065 -0.7078 0.7078 0.7065 206.5499 51.2997)" class="st1" width="164.1" height="0.8"/>
		</g>
		<g>
			
				<rect x="84.9" y="-223.7" transform="matrix(0.7065 -0.7078 0.7078 0.7065 207.0789 52.5752)" class="st1" width="164.1" height="0.8"/>
		</g>
		<g>
			
				<rect x="86.7" y="-223.7" transform="matrix(0.7065 -0.7078 0.7078 0.7065 207.608 53.8508)" class="st1" width="164.1" height="0.8"/>
		</g>
		<g>
			
				<rect x="88.5" y="-223.7" transform="matrix(0.7065 -0.7078 0.7078 0.7065 208.1372 55.1267)" class="st1" width="164.1" height="0.8"/>
		</g>
		<g>
			
				<rect x="90.3" y="-223.7" transform="matrix(0.7065 -0.7078 0.7078 0.7065 208.6663 56.4026)" class="st1" width="164.1" height="0.8"/>
		</g>
		<g>
			
				<rect x="92.1" y="-223.7" transform="matrix(0.7065 -0.7078 0.7078 0.7065 209.1954 57.6781)" class="st1" width="164.1" height="0.8"/>
		</g>
		<g>
			
				<rect x="93.9" y="-223.7" transform="matrix(0.7065 -0.7078 0.7078 0.7065 209.7244 58.9537)" class="st1" width="164.1" height="0.8"/>
		</g>
		<g>
			
				<rect x="95.7" y="-223.7" transform="matrix(0.7065 -0.7078 0.7078 0.7065 210.2536 60.2296)" class="st1" width="164.1" height="0.8"/>
		</g>
		<g>
			
				<rect x="97.5" y="-223.7" transform="matrix(0.7065 -0.7078 0.7078 0.7065 210.7828 61.5055)" class="st1" width="164.1" height="0.8"/>
		</g>
		<g>
			
				<rect x="99.3" y="-223.7" transform="matrix(0.7065 -0.7078 0.7078 0.7065 211.3118 62.781)" class="st1" width="164.1" height="0.8"/>
		</g>
		<g>
			
				<rect x="101.1" y="-223.7" transform="matrix(0.7065 -0.7078 0.7078 0.7065 211.8409 64.0566)" class="st1" width="164.1" height="0.8"/>
		</g>
		<g>
			
				<rect x="102.9" y="-223.7" transform="matrix(0.7065 -0.7078 0.7078 0.7065 212.37 65.3325)" class="st1" width="164.1" height="0.8"/>
		</g>
		<g>
			
				<rect x="104.7" y="-223.7" transform="matrix(0.7065 -0.7078 0.7078 0.7065 212.8992 66.6084)" class="st1" width="164.1" height="0.8"/>
		</g>
		<g>
			
				<rect x="106.5" y="-223.7" transform="matrix(0.7065 -0.7078 0.7078 0.7065 213.4281 67.8836)" class="st1" width="164.1" height="0.8"/>
		</g>
		<g>
			
				<rect x="108.3" y="-223.7" transform="matrix(0.7065 -0.7078 0.7078 0.7065 213.9573 69.1595)" class="st1" width="164.1" height="0.8"/>
		</g>
		<g>
			
				<rect x="110.1" y="-223.7" transform="matrix(0.7065 -0.7078 0.7078 0.7065 214.4865 70.4354)" class="st1" width="164.1" height="0.8"/>
		</g>
		<g>
			
				<rect x="111.9" y="-223.7" transform="matrix(0.7065 -0.7078 0.7078 0.7065 215.0155 71.7109)" class="st1" width="164.1" height="0.8"/>
		</g>
		<g>
			
				<rect x="113.7" y="-223.7" transform="matrix(0.7065 -0.7078 0.7078 0.7065 215.5446 72.9865)" class="st1" width="164.1" height="0.8"/>
		</g>
		<g>
			
				<rect x="115.5" y="-223.7" transform="matrix(0.7065 -0.7078 0.7078 0.7065 216.0737 74.2624)" class="st1" width="164.1" height="0.8"/>
		</g>
		<g>
			
				<rect x="117.3" y="-223.7" transform="matrix(0.7065 -0.7078 0.7078 0.7065 216.6029 75.5383)" class="st1" width="164.1" height="0.8"/>
		</g>
		<g>
			
				<rect x="119.1" y="-223.7" transform="matrix(0.7065 -0.7078 0.7078 0.7065 217.132 76.8138)" class="st1" width="164.1" height="0.8"/>
		</g>
		<g>
			
				<rect x="120.9" y="-223.7" transform="matrix(0.7065 -0.7078 0.7078 0.7065 217.661 78.0894)" class="st1" width="164.1" height="0.8"/>
		</g>
		<g>
			
				<rect x="122.7" y="-223.7" transform="matrix(0.7065 -0.7078 0.7078 0.7065 218.1902 79.3653)" class="st1" width="164.1" height="0.8"/>
		</g>
		<g>
			
				<rect x="124.5" y="-223.7" transform="matrix(0.7065 -0.7078 0.7078 0.7065 218.7194 80.6412)" class="st1" width="164.1" height="0.8"/>
		</g>
		<g>
			
				<rect x="126.3" y="-223.7" transform="matrix(0.7065 -0.7078 0.7078 0.7065 219.2484 81.9167)" class="st1" width="164.1" height="0.8"/>
		</g>
		<g>
			
				<rect x="128.1" y="-223.7" transform="matrix(0.7065 -0.7078 0.7078 0.7065 219.7774 83.1923)" class="st1" width="164.1" height="0.8"/>
		</g>
		<g>
			
				<rect x="129.9" y="-223.7" transform="matrix(0.7065 -0.7078 0.7078 0.7065 220.3066 84.4682)" class="st1" width="164.1" height="0.8"/>
		</g>
		<g>
			
				<rect x="131.7" y="-223.7" transform="matrix(0.7065 -0.7078 0.7078 0.7065 220.8358 85.7441)" class="st1" width="164.1" height="0.8"/>
		</g>
		<g>
			
				<rect x="133.5" y="-223.7" transform="matrix(0.7065 -0.7078 0.7078 0.7065 221.3647 87.0193)" class="st1" width="164.1" height="0.8"/>
		</g>
		<g>
			
				<rect x="135.3" y="-223.7" transform="matrix(0.7065 -0.7078 0.7078 0.7065 221.8939 88.2952)" class="st1" width="164.1" height="0.8"/>
		</g>
		<g>
			
				<rect x="137.1" y="-223.7" transform="matrix(0.7065 -0.7078 0.7078 0.7065 222.4231 89.5711)" class="st1" width="164.1" height="0.8"/>
		</g>
		<g>
			
				<rect x="138.9" y="-223.7" transform="matrix(0.7065 -0.7078 0.7078 0.7065 222.9521 90.8466)" class="st1" width="164.1" height="0.8"/>
		</g>
		<g>
			
				<rect x="140.7" y="-223.7" transform="matrix(0.7065 -0.7078 0.7078 0.7065 223.4811 92.1222)" class="st1" width="164.1" height="0.8"/>
		</g>
		<g>
			
				<rect x="142.5" y="-223.7" transform="matrix(0.7065 -0.7078 0.7078 0.7065 224.0103 93.3981)" class="st1" width="164.1" height="0.8"/>
		</g>
		<g>
			
				<rect x="144.3" y="-223.7" transform="matrix(0.7065 -0.7078 0.7078 0.7065 224.5395 94.674)" class="st1" width="164.1" height="0.8"/>
		</g>
		<g>
			
				<rect x="146.1" y="-223.7" transform="matrix(0.7065 -0.7078 0.7078 0.7065 225.0685 95.9495)" class="st1" width="164.1" height="0.8"/>
		</g>
		<g>
			
				<rect x="147.9" y="-223.7" transform="matrix(0.7065 -0.7078 0.7078 0.7065 225.5976 97.2251)" class="st1" width="164.1" height="0.8"/>
		</g>
		<g>
			
				<rect x="149.8" y="-223.7" transform="matrix(0.7065 -0.7078 0.7078 0.7065 226.1268 98.501)" class="st1" width="164.1" height="0.8"/>
		</g>
		<g>
			
				<rect x="151.6" y="-223.7" transform="matrix(0.7065 -0.7078 0.7078 0.7065 226.6559 99.7769)" class="st1" width="164.1" height="0.8"/>
		</g>
		<g>
			
				<rect x="153.4" y="-223.7" transform="matrix(0.7065 -0.7078 0.7078 0.7065 227.185 101.0524)" class="st1" width="164.1" height="0.8"/>
		</g>
		<g>
			
				<rect x="155.2" y="-223.7" transform="matrix(0.7065 -0.7078 0.7078 0.7065 227.714 102.328)" class="st1" width="164.1" height="0.8"/>
		</g>
		<g>
			
				<rect x="157" y="-223.7" transform="matrix(0.7065 -0.7078 0.7078 0.7065 228.2432 103.6039)" class="st1" width="164.1" height="0.8"/>
		</g>
		<g>
			
				<rect x="158.8" y="-223.7" transform="matrix(0.7065 -0.7078 0.7078 0.7065 228.7724 104.8798)" class="st1" width="164.1" height="0.8"/>
		</g>
		<g>
			
				<rect x="160.6" y="-223.7" transform="matrix(0.7065 -0.7078 0.7078 0.7065 229.3014 106.1553)" class="st1" width="164.1" height="0.8"/>
		</g>
		<g>
			
				<rect x="162.4" y="-223.7" transform="matrix(0.7065 -0.7078 0.7078 0.7065 229.8305 107.4309)" class="st1" width="164.1" height="0.8"/>
		</g>
		<g>
			
				<rect x="164.2" y="-223.7" transform="matrix(0.7065 -0.7078 0.7078 0.7065 230.3596 108.7068)" class="st1" width="164.1" height="0.8"/>
		</g>
		<g>
			
				<rect x="166" y="-223.7" transform="matrix(0.7065 -0.7078 0.7078 0.7065 230.8888 109.9827)" class="st1" width="164.1" height="0.8"/>
		</g>
		<g>
			
				<rect x="167.8" y="-223.7" transform="matrix(0.7065 -0.7078 0.7078 0.7065 231.4177 111.2579)" class="st1" width="164.1" height="0.8"/>
		</g>
		<g>
			
				<rect x="169.6" y="-223.7" transform="matrix(0.7065 -0.7078 0.7078 0.7065 231.9469 112.5338)" class="st1" width="164.1" height="0.8"/>
		</g>
		<g>
			
				<rect x="171.4" y="-223.7" transform="matrix(0.7065 -0.7078 0.7078 0.7065 232.4761 113.8097)" class="st1" width="164.1" height="0.8"/>
		</g>
		<g>
			
				<rect x="173.2" y="-223.7" transform="matrix(0.7065 -0.7078 0.7078 0.7065 233.0051 115.0852)" class="st1" width="164.1" height="0.8"/>
		</g>
		<g>
			
				<rect x="175" y="-223.7" transform="matrix(0.7065 -0.7078 0.7078 0.7065 233.5342 116.3608)" class="st1" width="164.1" height="0.8"/>
		</g>
		<g>
			
				<rect x="176.8" y="-223.7" transform="matrix(0.7065 -0.7078 0.7078 0.7065 234.0633 117.6367)" class="st1" width="164.1" height="0.8"/>
		</g>
		<g>
			
				<rect x="178.6" y="-223.7" transform="matrix(0.7065 -0.7078 0.7078 0.7065 234.5925 118.9126)" class="st1" width="164.1" height="0.8"/>
		</g>
		<g>
			
				<rect x="180.4" y="-223.7" transform="matrix(0.7065 -0.7078 0.7078 0.7065 235.1216 120.1881)" class="st1" width="164.1" height="0.8"/>
		</g>
		<g>
			
				<rect x="182.2" y="-223.7" transform="matrix(0.7065 -0.7078 0.7078 0.7065 235.6506 121.4637)" class="st1" width="164.1" height="0.8"/>
		</g>
		<g>
			
				<rect x="184" y="-223.7" transform="matrix(0.7065 -0.7078 0.7078 0.7065 236.1798 122.7396)" class="st1" width="164.1" height="0.8"/>
		</g>
		<g>
			
				<rect x="185.8" y="-223.7" transform="matrix(0.7065 -0.7078 0.7078 0.7065 236.709 124.0155)" class="st1" width="164.1" height="0.8"/>
		</g>
		<g>
			
				<rect x="187.6" y="-223.7" transform="matrix(0.7065 -0.7078 0.7078 0.7065 237.238 125.291)" class="st1" width="164.1" height="0.8"/>
		</g>
		<g>
			
				<rect x="189.4" y="-223.7" transform="matrix(0.7065 -0.7078 0.7078 0.7065 237.767 126.5666)" class="st1" width="164.1" height="0.8"/>
		</g>
		<g>
			
				<rect x="191.2" y="-223.7" transform="matrix(0.7065 -0.7078 0.7078 0.7065 238.2962 127.8425)" class="st1" width="164.1" height="0.8"/>
		</g>
	</g>
</g>
<g>
	<defs>
		<path id="SVGID_5_" d="M239.1,7.2V10c-1.4-1.2-2.8-1.7-4.3-1.7c-1.6,0-3,0.6-4.1,1.8c-1.1,1.2-1.7,2.6-1.7,4.3
			c0,1.7,0.6,3.1,1.7,4.2s2.5,1.7,4.1,1.7c0.8,0,1.6-0.1,2.1-0.4c0.3-0.1,0.7-0.3,1-0.6c0.4-0.2,0.7-0.5,1.1-0.8v2.9
			c-1.4,0.8-2.8,1.2-4.3,1.2c-2.3,0-4.2-0.8-5.8-2.4c-1.6-1.6-2.4-3.5-2.4-5.8c0-2,0.7-3.8,2-5.4C230.3,7,232.4,6,235,6
			C236.4,6,237.8,6.4,239.1,7.2z M244.4,14.2c0-2.2,0.8-4.1,2.5-5.7c1.6-1.6,3.6-2.4,5.9-2.4c2.3,0,4.2,0.8,5.8,2.4
			c1.6,1.6,2.4,3.6,2.4,5.8c0,2.3-0.8,4.2-2.4,5.8c-1.6,1.6-3.6,2.4-5.9,2.4c-2,0-3.9-0.7-5.5-2.1C245.3,18.8,244.4,16.7,244.4,14.2
			z M246.8,14.2c0,1.8,0.6,3.2,1.8,4.3c1.2,1.1,2.5,1.7,4,1.7c1.7,0,3.1-0.6,4.2-1.7c1.1-1.2,1.7-2.6,1.7-4.2c0-1.7-0.6-3.1-1.7-4.2
			c-1.1-1.1-2.5-1.7-4.2-1.7c-1.6,0-3,0.6-4.2,1.7C247.3,11.1,246.8,12.6,246.8,14.2z M269.5,6.3v13.6h4.7v2.2h-7V6.3H269.5z
			 M288.3,8.6h-6.3v3.8h6.2v2.2h-6.2v5.3h6.3v2.2h-8.7V6.3h8.7V8.6z M298.9,8.6v13.6h-2.4V8.6h-3.6V6.3h9.7v2.2H298.9z M310.2,6.3
			v15.8h-2.4V6.3H310.2z M318,6.3l4.4,11l4.4-11h2.6l-7.1,17l-6.9-17H318z M336.9,6.3v15.8h-2.4V6.3H336.9z M346.6,19.9h7.6v2.2
			h-11.5l7.8-13.6H344V6.3h10.4L346.6,19.9z M369.5,18.3h-6.8l-1.8,3.8h-2.6l7.8-16.8l7.6,16.8h-2.6L369.5,18.3z M368.5,16.1
			l-2.3-5.4l-2.5,5.4H368.5z M384.2,15.4l4.9,6.7h-2.9l-4.5-6.5h-0.4v6.5h-2.4V6.3h2.8c2.1,0,3.6,0.4,4.5,1.2c1,0.9,1.5,2,1.5,3.5
			c0,1.1-0.3,2.1-1,2.9S385.3,15.2,384.2,15.4z M381.2,13.6h0.8c2.3,0,3.4-0.9,3.4-2.6c0-1.6-1.1-2.4-3.3-2.4h-0.9V13.6z"/>
	</defs>
	<clipPath id="SVGID_6_">
		<use xlink:href="#SVGID_5_"  style="overflow:visible;"/>
	</clipPath>
	<g class="st3">
		<g>
			
				<rect x="157.8" y="-6.5" transform="matrix(0.7065 -0.7078 0.7078 0.7065 74.765 167.9301)" class="st1" width="164.1" height="0.8"/>
		</g>
		<g>
			
				<rect x="159.6" y="-6.5" transform="matrix(0.7065 -0.7078 0.7078 0.7065 75.2941 169.2056)" class="st1" width="164.1" height="0.8"/>
		</g>
		<g>
			
				<rect x="161.4" y="-6.5" transform="matrix(0.7065 -0.7078 0.7078 0.7065 75.8231 170.4812)" class="st1" width="164.1" height="0.8"/>
		</g>
		<g>
			
				<rect x="163.2" y="-6.5" transform="matrix(0.7065 -0.7078 0.7078 0.7065 76.3523 171.7571)" class="st1" width="164.1" height="0.8"/>
		</g>
		<g>
			
				<rect x="165" y="-6.5" transform="matrix(0.7065 -0.7078 0.7078 0.7065 76.8815 173.033)" class="st1" width="164.1" height="0.8"/>
		</g>
		<g>
			
				<rect x="166.8" y="-6.5" transform="matrix(0.7065 -0.7078 0.7078 0.7065 77.4104 174.3082)" class="st1" width="164.1" height="0.8"/>
		</g>
		<g>
			
				<rect x="168.6" y="-6.5" transform="matrix(0.7065 -0.7078 0.7078 0.7065 77.9395 175.5841)" class="st1" width="164.1" height="0.8"/>
		</g>
		<g>
			
				<rect x="170.4" y="-6.5" transform="matrix(0.7065 -0.7078 0.7078 0.7065 78.4687 176.86)" class="st1" width="164.1" height="0.8"/>
		</g>
		<g>
			
				<rect x="172.2" y="-6.5" transform="matrix(0.7065 -0.7078 0.7078 0.7065 78.9978 178.1355)" class="st1" width="164.1" height="0.8"/>
		</g>
		<g>
			
				<rect x="174" y="-6.5" transform="matrix(0.7065 -0.7078 0.7078 0.7065 79.5268 179.4111)" class="st1" width="164.1" height="0.8"/>
		</g>
		<g>
			
				<rect x="175.8" y="-6.5" transform="matrix(0.7065 -0.7078 0.7078 0.7065 80.056 180.687)" class="st1" width="164.1" height="0.8"/>
		</g>
		<g>
			
				<rect x="177.6" y="-6.5" transform="matrix(0.7065 -0.7078 0.7078 0.7065 80.5852 181.9629)" class="st1" width="164.1" height="0.8"/>
		</g>
		<g>
			
				<rect x="179.4" y="-6.5" transform="matrix(0.7065 -0.7078 0.7078 0.7065 81.1142 183.2384)" class="st1" width="164.1" height="0.8"/>
		</g>
		<g>
			
				<rect x="181.2" y="-6.5" transform="matrix(0.7065 -0.7078 0.7078 0.7065 81.6432 184.514)" class="st1" width="164.1" height="0.8"/>
		</g>
		<g>
			
				<rect x="183" y="-6.5" transform="matrix(0.7065 -0.7078 0.7078 0.7065 82.1724 185.7899)" class="st1" width="164.1" height="0.8"/>
		</g>
		<g>
			
				<rect x="184.8" y="-6.5" transform="matrix(0.7065 -0.7078 0.7078 0.7065 82.7016 187.0658)" class="st1" width="164.1" height="0.8"/>
		</g>
		<g>
			
				<rect x="186.6" y="-6.5" transform="matrix(0.7065 -0.7078 0.7078 0.7065 83.2306 188.3413)" class="st1" width="164.1" height="0.8"/>
		</g>
		<g>
			
				<rect x="188.4" y="-6.5" transform="matrix(0.7065 -0.7078 0.7078 0.7065 83.7597 189.6169)" class="st1" width="164.1" height="0.8"/>
		</g>
		<g>
			
				<rect x="190.2" y="-6.5" transform="matrix(0.7065 -0.7078 0.7078 0.7065 84.2889 190.8928)" class="st1" width="164.1" height="0.8"/>
		</g>
		<g>
			
				<rect x="192" y="-6.5" transform="matrix(0.7065 -0.7078 0.7078 0.7065 84.818 192.1687)" class="st1" width="164.1" height="0.8"/>
		</g>
		<g>
			
				<rect x="193.8" y="-6.5" transform="matrix(0.7065 -0.7078 0.7078 0.7065 85.3469 193.4439)" class="st1" width="164.1" height="0.8"/>
		</g>
		<g>
			
				<rect x="195.6" y="-6.5" transform="matrix(0.7065 -0.7078 0.7078 0.7065 85.8761 194.7198)" class="st1" width="164.1" height="0.8"/>
		</g>
		<g>
			
				<rect x="197.4" y="-6.5" transform="matrix(0.7065 -0.7078 0.7078 0.7065 86.4053 195.9957)" class="st1" width="164.1" height="0.8"/>
		</g>
		<g>
			
				<rect x="199.2" y="-6.5" transform="matrix(0.7065 -0.7078 0.7078 0.7065 86.9343 197.2712)" class="st1" width="164.1" height="0.8"/>
		</g>
		<g>
			
				<rect x="201" y="-6.5" transform="matrix(0.7065 -0.7078 0.7078 0.7065 87.4634 198.5468)" class="st1" width="164.1" height="0.8"/>
		</g>
		<g>
			
				<rect x="202.8" y="-6.5" transform="matrix(0.7065 -0.7078 0.7078 0.7065 87.9926 199.8227)" class="st1" width="164.1" height="0.8"/>
		</g>
		<g>
			
				<rect x="204.6" y="-6.5" transform="matrix(0.7065 -0.7078 0.7078 0.7065 88.5218 201.0986)" class="st1" width="164.1" height="0.8"/>
		</g>
		<g>
			
				<rect x="206.4" y="-6.5" transform="matrix(0.7065 -0.7078 0.7078 0.7065 89.0508 202.3741)" class="st1" width="164.1" height="0.8"/>
		</g>
		<g>
			
				<rect x="208.2" y="-6.5" transform="matrix(0.7065 -0.7078 0.7078 0.7065 89.5798 203.6497)" class="st1" width="164.1" height="0.8"/>
		</g>
		<g>
			
				<rect x="210" y="-6.5" transform="matrix(0.7065 -0.7078 0.7078 0.7065 90.109 204.9256)" class="st1" width="164.1" height="0.8"/>
		</g>
		<g>
			
				<rect x="211.8" y="-6.5" transform="matrix(0.7065 -0.7078 0.7078 0.7065 90.6382 206.2015)" class="st1" width="164.1" height="0.8"/>
		</g>
		<g>
			
				<rect x="213.6" y="-6.5" transform="matrix(0.7065 -0.7078 0.7078 0.7065 91.1672 207.477)" class="st1" width="164.1" height="0.8"/>
		</g>
		<g>
			
				<rect x="215.4" y="-6.5" transform="matrix(0.7065 -0.7078 0.7078 0.7065 91.6963 208.7526)" class="st1" width="164.1" height="0.8"/>
		</g>
		<g>
			
				<rect x="217.3" y="-6.5" transform="matrix(0.7065 -0.7078 0.7078 0.7065 92.2254 210.0285)" class="st1" width="164.1" height="0.8"/>
		</g>
		<g>
			
				<rect x="219.1" y="-6.5" transform="matrix(0.7065 -0.7078 0.7078 0.7065 92.7546 211.3044)" class="st1" width="164.1" height="0.8"/>
		</g>
		<g>
			
				<rect x="220.9" y="-6.5" transform="matrix(0.7065 -0.7078 0.7078 0.7065 93.2837 212.5799)" class="st1" width="164.1" height="0.8"/>
		</g>
		<g>
			
				<rect x="222.7" y="-6.5" transform="matrix(0.7065 -0.7078 0.7078 0.7065 93.8127 213.8555)" class="st1" width="164.1" height="0.8"/>
		</g>
		<g>
			
				<rect x="224.5" y="-6.5" transform="matrix(0.7065 -0.7078 0.7078 0.7065 94.3419 215.1314)" class="st1" width="164.1" height="0.8"/>
		</g>
		<g>
			
				<rect x="226.3" y="-6.5" transform="matrix(0.7065 -0.7078 0.7078 0.7065 94.8711 216.4073)" class="st1" width="164.1" height="0.8"/>
		</g>
		<g>
			
				<rect x="228.1" y="-6.5" transform="matrix(0.7065 -0.7078 0.7078 0.7065 95.4 217.6825)" class="st1" width="164.1" height="0.8"/>
		</g>
		<g>
			
				<rect x="229.9" y="-6.5" transform="matrix(0.7065 -0.7078 0.7078 0.7065 95.9292 218.9584)" class="st1" width="164.1" height="0.8"/>
		</g>
		<g>
			
				<rect x="231.7" y="-6.5" transform="matrix(0.7065 -0.7078 0.7078 0.7065 96.4583 220.2343)" class="st1" width="164.1" height="0.8"/>
		</g>
		<g>
			
				<rect x="233.5" y="-6.5" transform="matrix(0.7065 -0.7078 0.7078 0.7065 96.9874 221.5098)" class="st1" width="164.1" height="0.8"/>
		</g>
		<g>
			
				<rect x="235.3" y="-6.5" transform="matrix(0.7065 -0.7078 0.7078 0.7065 97.5164 222.7854)" class="st1" width="164.1" height="0.8"/>
		</g>
		<g>
			
				<rect x="237.1" y="-6.5" transform="matrix(0.7065 -0.7078 0.7078 0.7065 98.0456 224.0613)" class="st1" width="164.1" height="0.8"/>
		</g>
		<g>
			
				<rect x="238.9" y="-6.5" transform="matrix(0.7065 -0.7078 0.7078 0.7065 98.5748 225.3372)" class="st1" width="164.1" height="0.8"/>
		</g>
		<g>
			
				<rect x="240.7" y="-6.5" transform="matrix(0.7065 -0.7078 0.7078 0.7065 99.1038 226.6127)" class="st1" width="164.1" height="0.8"/>
		</g>
		<g>
			
				<rect x="242.5" y="-6.5" transform="matrix(0.7065 -0.7078 0.7078 0.7065 99.6329 227.8883)" class="st1" width="164.1" height="0.8"/>
		</g>
		<g>
			
				<rect x="244.3" y="-6.5" transform="matrix(0.7065 -0.7078 0.7078 0.7065 100.162 229.1642)" class="st1" width="164.1" height="0.8"/>
		</g>
		<g>
			
				<rect x="246.1" y="-6.5" transform="matrix(0.7065 -0.7078 0.7078 0.7065 100.6912 230.4401)" class="st1" width="164.1" height="0.8"/>
		</g>
		<g>
			
				<rect x="247.9" y="-6.5" transform="matrix(0.7065 -0.7078 0.7078 0.7065 101.2203 231.7156)" class="st1" width="164.1" height="0.8"/>
		</g>
		<g>
			
				<rect x="249.7" y="-6.5" transform="matrix(0.7065 -0.7078 0.7078 0.7065 101.7493 232.9912)" class="st1" width="164.1" height="0.8"/>
		</g>
		<g>
			
				<rect x="251.5" y="-6.5" transform="matrix(0.7065 -0.7078 0.7078 0.7065 102.2785 234.2671)" class="st1" width="164.1" height="0.8"/>
		</g>
		<g>
			
				<rect x="253.3" y="-6.5" transform="matrix(0.7065 -0.7078 0.7078 0.7065 102.8077 235.543)" class="st1" width="164.1" height="0.8"/>
		</g>
		<g>
			
				<rect x="255.1" y="-6.5" transform="matrix(0.7065 -0.7078 0.7078 0.7065 103.3365 236.8182)" class="st1" width="164.1" height="0.8"/>
		</g>
		<g>
			
				<rect x="256.9" y="-6.5" transform="matrix(0.7065 -0.7078 0.7078 0.7065 103.8657 238.0941)" class="st1" width="164.1" height="0.8"/>
		</g>
		<g>
			
				<rect x="258.7" y="-6.5" transform="matrix(0.7065 -0.7078 0.7078 0.7065 104.3949 239.37)" class="st1" width="164.1" height="0.8"/>
		</g>
		<g>
			
				<rect x="260.5" y="-6.5" transform="matrix(0.7065 -0.7078 0.7078 0.7065 104.924 240.6455)" class="st1" width="164.1" height="0.8"/>
		</g>
		<g>
			
				<rect x="262.3" y="-6.5" transform="matrix(0.7065 -0.7078 0.7078 0.7065 105.453 241.9211)" class="st1" width="164.1" height="0.8"/>
		</g>
		<g>
			
				<rect x="264.1" y="-6.5" transform="matrix(0.7065 -0.7078 0.7078 0.7065 105.9822 243.197)" class="st1" width="164.1" height="0.8"/>
		</g>
		<g>
			
				<rect x="265.9" y="-6.5" transform="matrix(0.7065 -0.7078 0.7078 0.7065 106.5114 244.4729)" class="st1" width="164.1" height="0.8"/>
		</g>
		<g>
			
				<rect x="267.7" y="-6.5" transform="matrix(0.7065 -0.7078 0.7078 0.7065 107.0404 245.7484)" class="st1" width="164.1" height="0.8"/>
		</g>
		<g>
			
				<rect x="269.5" y="-6.5" transform="matrix(0.7065 -0.7078 0.7078 0.7065 107.5694 247.024)" class="st1" width="164.1" height="0.8"/>
		</g>
		<g>
			
				<rect x="271.3" y="-6.5" transform="matrix(0.7065 -0.7078 0.7078 0.7065 108.0986 248.2999)" class="st1" width="164.1" height="0.8"/>
		</g>
		<g>
			
				<rect x="273.1" y="-6.5" transform="matrix(0.7065 -0.7078 0.7078 0.7065 108.6278 249.5758)" class="st1" width="164.1" height="0.8"/>
		</g>
		<g>
			
				<rect x="274.9" y="-6.5" transform="matrix(0.7065 -0.7078 0.7078 0.7065 109.1568 250.8513)" class="st1" width="164.1" height="0.8"/>
		</g>
		<g>
			
				<rect x="276.7" y="-6.5" transform="matrix(0.7065 -0.7078 0.7078 0.7065 109.6859 252.1269)" class="st1" width="164.1" height="0.8"/>
		</g>
		<g>
			
				<rect x="278.5" y="-6.5" transform="matrix(0.7065 -0.7078 0.7078 0.7065 110.2151 253.4028)" class="st1" width="164.1" height="0.8"/>
		</g>
		<g>
			
				<rect x="280.3" y="-6.5" transform="matrix(0.7065 -0.7078 0.7078 0.7065 110.7442 254.6787)" class="st1" width="164.1" height="0.8"/>
		</g>
		<g>
			
				<rect x="282.1" y="-6.5" transform="matrix(0.7065 -0.7078 0.7078 0.7065 111.2731 255.9539)" class="st1" width="164.1" height="0.8"/>
		</g>
		<g>
			
				<rect x="283.9" y="-6.5" transform="matrix(0.7065 -0.7078 0.7078 0.7065 111.8023 257.2298)" class="st1" width="164.1" height="0.8"/>
		</g>
		<g>
			
				<rect x="285.7" y="-6.5" transform="matrix(0.7065 -0.7078 0.7078 0.7065 112.3315 258.5057)" class="st1" width="164.1" height="0.8"/>
		</g>
		<g>
			
				<rect x="287.5" y="-6.5" transform="matrix(0.7065 -0.7078 0.7078 0.7065 112.8605 259.7812)" class="st1" width="164.1" height="0.8"/>
		</g>
		<g>
			
				<rect x="289.3" y="-6.5" transform="matrix(0.7065 -0.7078 0.7078 0.7065 113.3896 261.0568)" class="st1" width="164.1" height="0.8"/>
		</g>
		<g>
			
				<rect x="291.2" y="-6.5" transform="matrix(0.7065 -0.7078 0.7078 0.7065 113.9188 262.3327)" class="st1" width="164.1" height="0.8"/>
		</g>
		<g>
			
				<rect x="293" y="-6.5" transform="matrix(0.7065 -0.7078 0.7078 0.7065 114.4479 263.6086)" class="st1" width="164.1" height="0.8"/>
		</g>
		<g>
			
				<rect x="294.8" y="-6.5" transform="matrix(0.7065 -0.7078 0.7078 0.7065 114.977 264.8842)" class="st1" width="164.1" height="0.8"/>
		</g>
		<g>
			
				<rect x="296.6" y="-6.5" transform="matrix(0.7065 -0.7078 0.7078 0.7065 115.506 266.1597)" class="st1" width="164.1" height="0.8"/>
		</g>
		<g>
			
				<rect x="298.4" y="-6.5" transform="matrix(0.7065 -0.7078 0.7078 0.7065 116.0352 267.4356)" class="st1" width="164.1" height="0.8"/>
		</g>
		<g>
			
				<rect x="300.2" y="-6.5" transform="matrix(0.7065 -0.7078 0.7078 0.7065 116.5644 268.7115)" class="st1" width="164.1" height="0.8"/>
		</g>
		<g>
			
				<rect x="302" y="-6.5" transform="matrix(0.7065 -0.7078 0.7078 0.7065 117.0934 269.9871)" class="st1" width="164.1" height="0.8"/>
		</g>
		<g>
			
				<rect x="303.8" y="-6.5" transform="matrix(0.7065 -0.7078 0.7078 0.7065 117.6225 271.2626)" class="st1" width="164.1" height="0.8"/>
		</g>
		<g>
			
				<rect x="305.6" y="-6.5" transform="matrix(0.7065 -0.7078 0.7078 0.7065 118.1516 272.5385)" class="st1" width="164.1" height="0.8"/>
		</g>
		<g>
			
				<rect x="307.4" y="-6.5" transform="matrix(0.7065 -0.7078 0.7078 0.7065 118.6808 273.8144)" class="st1" width="164.1" height="0.8"/>
		</g>
		<g>
			
				<rect x="309.2" y="-6.5" transform="matrix(0.7065 -0.7078 0.7078 0.7065 119.2099 275.0899)" class="st1" width="164.1" height="0.8"/>
		</g>
		<g>
			
				<rect x="311" y="-6.5" transform="matrix(0.7065 -0.7078 0.7078 0.7065 119.7389 276.3655)" class="st1" width="164.1" height="0.8"/>
		</g>
		<g>
			
				<rect x="312.8" y="-6.5" transform="matrix(0.7065 -0.7078 0.7078 0.7065 120.2681 277.6414)" class="st1" width="164.1" height="0.8"/>
		</g>
		<g>
			
				<rect x="314.6" y="-6.5" transform="matrix(0.7065 -0.7078 0.7078 0.7065 120.7973 278.9173)" class="st1" width="164.1" height="0.8"/>
		</g>
		<g>
			
				<rect x="316.4" y="-6.5" transform="matrix(0.7065 -0.7078 0.7078 0.7065 121.3262 280.1925)" class="st1" width="164.1" height="0.8"/>
		</g>
		<g>
			
				<rect x="318.2" y="-6.5" transform="matrix(0.7065 -0.7078 0.7078 0.7065 121.8553 281.4684)" class="st1" width="164.1" height="0.8"/>
		</g>
		<g>
			
				<rect x="320" y="-6.5" transform="matrix(0.7065 -0.7078 0.7078 0.7065 122.3845 282.7443)" class="st1" width="164.1" height="0.8"/>
		</g>
		<g>
			
				<rect x="321.8" y="-6.5" transform="matrix(0.7065 -0.7078 0.7078 0.7065 122.9136 284.0198)" class="st1" width="164.1" height="0.8"/>
		</g>
		<g>
			
				<rect x="323.6" y="-6.5" transform="matrix(0.7065 -0.7078 0.7078 0.7065 123.4426 285.2954)" class="st1" width="164.1" height="0.8"/>
		</g>
		<g>
			
				<rect x="325.4" y="-6.5" transform="matrix(0.7065 -0.7078 0.7078 0.7065 123.9718 286.5713)" class="st1" width="164.1" height="0.8"/>
		</g>
		<g>
			
				<rect x="327.2" y="-6.5" transform="matrix(0.7065 -0.7078 0.7078 0.7065 124.501 287.8472)" class="st1" width="164.1" height="0.8"/>
		</g>
		<g>
			
				<rect x="329" y="-6.5" transform="matrix(0.7065 -0.7078 0.7078 0.7065 125.03 289.1227)" class="st1" width="164.1" height="0.8"/>
		</g>
		<g>
			
				<rect x="330.8" y="-6.5" transform="matrix(0.7065 -0.7078 0.7078 0.7065 125.559 290.3983)" class="st1" width="164.1" height="0.8"/>
		</g>
		<g>
			
				<rect x="332.6" y="-6.5" transform="matrix(0.7065 -0.7078 0.7078 0.7065 126.0882 291.6742)" class="st1" width="164.1" height="0.8"/>
		</g>
		<g>
			
				<rect x="334.4" y="-6.5" transform="matrix(0.7065 -0.7078 0.7078 0.7065 126.6174 292.9501)" class="st1" width="164.1" height="0.8"/>
		</g>
		<g>
			
				<rect x="336.2" y="-6.5" transform="matrix(0.7065 -0.7078 0.7078 0.7065 127.1464 294.2256)" class="st1" width="164.1" height="0.8"/>
		</g>
		<g>
			
				<rect x="338" y="-6.5" transform="matrix(0.7065 -0.7078 0.7078 0.7065 127.6755 295.5012)" class="st1" width="164.1" height="0.8"/>
		</g>
		<g>
			
				<rect x="339.8" y="-6.5" transform="matrix(0.7065 -0.7078 0.7078 0.7065 128.2047 296.7771)" class="st1" width="164.1" height="0.8"/>
		</g>
	</g>
</g>
<g id="Layer_2" class="st4">
	<rect y="-607.2" class="st5" width="617.6" height="853.8"/>
</g>
<g id="Layer_3">
</g>
<g>
	<path class="st6" d="M241.1,6.3v2.8c-1.4-1.2-2.8-1.7-4.3-1.7c-1.6,0-3,0.6-4.1,1.8c-1.1,1.2-1.7,2.6-1.7,4.3
		c0,1.7,0.6,3.1,1.7,4.2s2.5,1.7,4.1,1.7c0.8,0,1.6-0.1,2.1-0.4c0.3-0.1,0.7-0.3,1-0.6c0.4-0.2,0.7-0.5,1.1-0.8v2.9
		c-1.4,0.8-2.8,1.2-4.3,1.2c-2.3,0-4.2-0.8-5.8-2.4c-1.6-1.6-2.4-3.5-2.4-5.8c0-2,0.7-3.8,2-5.4c1.6-1.9,3.8-2.9,6.4-2.9
		C238.4,5.1,239.8,5.5,241.1,6.3z"/>
	<path class="st6" d="M246.4,13.3c0-2.2,0.8-4.1,2.5-5.7c1.6-1.6,3.6-2.4,5.9-2.4c2.3,0,4.2,0.8,5.8,2.4c1.6,1.6,2.4,3.6,2.4,5.8
		c0,2.3-0.8,4.2-2.4,5.8c-1.6,1.6-3.6,2.4-5.9,2.4c-2,0-3.9-0.7-5.5-2.1C247.2,17.9,246.4,15.8,246.4,13.3z M248.8,13.3
		c0,1.8,0.6,3.2,1.8,4.3c1.2,1.1,2.5,1.7,4.1,1.7c1.7,0,3.1-0.6,4.2-1.7c1.1-1.2,1.7-2.6,1.7-4.2c0-1.7-0.6-3.1-1.7-4.2
		c-1.1-1.1-2.5-1.7-4.2-1.7c-1.6,0-3,0.6-4.2,1.7C249.3,10.2,248.8,11.6,248.8,13.3z"/>
	<path class="st6" d="M271.4,5.4V19h4.7v2.2h-7V5.4H271.4z"/>
	<path class="st6" d="M290.3,7.7h-6.3v3.8h6.2v2.2h-6.2V19h6.3v2.2h-8.7V5.4h8.7V7.7z"/>
	<path class="st6" d="M300.9,7.7v13.6h-2.4V7.7h-3.6V5.4h9.7v2.2H300.9z"/>
	<path class="st6" d="M312.2,5.4v15.8h-2.4V5.4H312.2z"/>
	<path class="st6" d="M320,5.4l4.4,11l4.4-11h2.6l-7.1,17l-6.9-17H320z"/>
	<path class="st6" d="M338.9,5.4v15.8h-2.4V5.4H338.9z"/>
	<path class="st6" d="M348.6,19h7.6v2.2h-11.5l7.8-13.6h-6.5V5.4h10.4L348.6,19z"/>
	<path class="st6" d="M371.4,17.4h-6.8l-1.8,3.8h-2.6l7.8-16.8l7.6,16.8h-2.6L371.4,17.4z M370.5,15.2l-2.3-5.4l-2.5,5.4H370.5z"/>
	<path class="st6" d="M386.2,14.5l4.9,6.7h-2.9l-4.5-6.5h-0.4v6.5h-2.4V5.4h2.8c2.1,0,3.6,0.4,4.5,1.2c1,0.9,1.5,2,1.5,3.5
		c0,1.1-0.3,2.1-1,2.9S387.3,14.3,386.2,14.5z M383.2,12.7h0.8c2.3,0,3.4-0.9,3.4-2.6c0-1.6-1.1-2.4-3.3-2.4h-0.9V12.7z"/>
</g>
<g>
	<path class="st6" d="M119.6-208.8h-6.3v3.8h6.2v2.2h-6.2v5.3h6.3v2.2h-8.7V-211h8.7V-208.8z"/>
	<path class="st6" d="M125.9-195.2V-211h3.3c1.6,0,2.9,0.2,3.8,0.5c1,0.3,1.9,0.8,2.7,1.6c1.6,1.5,2.5,3.4,2.5,5.9
		c0,2.4-0.9,4.4-2.6,5.9c-0.9,0.8-1.8,1.3-2.7,1.6c-0.9,0.3-2.1,0.4-3.7,0.4H125.9z M128.3-197.4h1.1c1.1,0,2-0.1,2.7-0.3
		c0.7-0.2,1.4-0.6,1.9-1.1c1.2-1.1,1.8-2.5,1.8-4.2c0-1.7-0.6-3.1-1.7-4.2c-1-1-2.6-1.4-4.6-1.4h-1.1V-197.4z"/>
	<path class="st6" d="M146.7-211v9.5c0,1.4,0.2,2.4,0.7,3c0.7,0.9,1.6,1.4,2.8,1.4c1.2,0,2.1-0.5,2.8-1.4c0.4-0.6,0.7-1.6,0.7-3
		v-9.5h2.4v10.2c0,1.7-0.5,3-1.6,4.1c-1.2,1.2-2.6,1.8-4.3,1.8s-3.1-0.6-4.3-1.8c-1-1.1-1.6-2.5-1.6-4.1V-211H146.7z"/>
	<path class="st6" d="M174.7-210.2v2.8c-1.4-1.2-2.8-1.7-4.3-1.7c-1.6,0-3,0.6-4.1,1.8c-1.1,1.2-1.7,2.6-1.7,4.3
		c0,1.7,0.6,3.1,1.7,4.2s2.5,1.7,4.1,1.7c0.8,0,1.6-0.1,2.1-0.4c0.3-0.1,0.7-0.3,1-0.6c0.4-0.2,0.7-0.5,1.1-0.8v2.9
		c-1.4,0.8-2.8,1.2-4.3,1.2c-2.3,0-4.2-0.8-5.8-2.4c-1.6-1.6-2.4-3.5-2.4-5.8c0-2,0.7-3.8,2-5.4c1.6-1.9,3.8-2.9,6.4-2.9
		C172-211.3,173.4-210.9,174.7-210.2z"/>
	<path class="st6" d="M190.5-199h-6.8l-1.8,3.8h-2.6l7.8-16.8l7.6,16.8h-2.6L190.5-199z M189.6-201.3l-2.3-5.4l-2.5,5.4H189.6z"/>
	<path class="st6" d="M205.3-201.9l4.9,6.7h-2.9l-4.5-6.5h-0.4v6.5h-2.4V-211h2.8c2.1,0,3.6,0.4,4.5,1.2c1,0.9,1.5,2,1.5,3.5
		c0,1.1-0.3,2.1-1,2.9S206.3-202.2,205.3-201.9z M202.3-203.7h0.8c2.3,0,3.4-0.9,3.4-2.6c0-1.6-1.1-2.4-3.3-2.4h-0.9V-203.7z"/>
</g>
<rect x="107.1" y="-140.5" style="fill:none;" width="170" height="26"/>
<text transform="matrix(1 0 0 1 107.1 -123.1816)" class="st6" style="font-family:'Futura-Medium'; font-size:21px; letter-spacing:3;">LEGALIZAR</text>
<g>
	<path class="st7" d="M114.8-110.9l2.8,3.9h-1.7l-2.6-3.7h-0.2v3.7h-1.4v-9h1.6c1.2,0,2.1,0.2,2.6,0.7c0.6,0.5,0.9,1.2,0.9,2
		c0,0.6-0.2,1.2-0.6,1.7S115.4-111,114.8-110.9z M113.1-112h0.4c1.3,0,1.9-0.5,1.9-1.5c0-0.9-0.6-1.4-1.9-1.4h-0.5V-112z"/>
	<path class="st7" d="M123.9-109.6h-4.1c0,0.5,0.2,0.8,0.5,1.1c0.3,0.3,0.6,0.4,1,0.4c0.3,0,0.6-0.1,0.8-0.2
		c0.2-0.2,0.5-0.4,0.7-0.9l1.1,0.6c-0.2,0.3-0.4,0.5-0.5,0.8s-0.4,0.4-0.6,0.5s-0.5,0.2-0.7,0.3s-0.5,0.1-0.8,0.1
		c-0.9,0-1.5-0.3-2.1-0.8c-0.5-0.6-0.8-1.3-0.8-2.2c0-0.9,0.2-1.6,0.8-2.2c0.5-0.6,1.2-0.8,2-0.8c0.8,0,1.5,0.3,2,0.8
		c0.5,0.5,0.7,1.3,0.7,2.2L123.9-109.6z M122.6-110.7c-0.2-0.7-0.6-1.1-1.3-1.1c-0.2,0-0.3,0-0.5,0.1s-0.3,0.1-0.4,0.2
		s-0.2,0.2-0.3,0.3s-0.1,0.3-0.2,0.4H122.6z"/>
	<path class="st7" d="M131.1-107.2c0,0.3,0,0.5,0,0.7s0,0.4-0.1,0.5c-0.1,0.4-0.3,0.8-0.6,1.1c-0.5,0.6-1.2,0.9-2.1,0.9
		c-0.8,0-1.4-0.2-1.9-0.6c-0.5-0.4-0.8-1-0.9-1.8h1.3c0.1,0.3,0.1,0.5,0.3,0.7c0.3,0.4,0.7,0.5,1.2,0.5c1,0,1.4-0.6,1.4-1.8v-0.8
		c-0.5,0.5-1.1,0.8-1.8,0.8c-0.8,0-1.4-0.3-1.9-0.8c-0.5-0.6-0.8-1.3-0.8-2.1c0-0.8,0.2-1.5,0.7-2.1c0.5-0.6,1.2-0.9,2-0.9
		c0.7,0,1.3,0.3,1.8,0.8v-0.6h1.3V-107.2z M129.9-109.9c0-0.6-0.1-1-0.4-1.3c-0.3-0.3-0.7-0.5-1.2-0.5c-0.5,0-0.9,0.2-1.2,0.6
		c-0.3,0.3-0.4,0.8-0.4,1.3c0,0.5,0.1,0.9,0.4,1.3c0.3,0.4,0.7,0.5,1.2,0.5s0.9-0.2,1.2-0.6C129.7-109,129.9-109.4,129.9-109.9z"/>
	<path class="st7" d="M134.3-112.8v3.3c0,0.9,0.4,1.4,1.1,1.4s1.1-0.5,1.1-1.4v-3.3h1.3v3.3c0,0.5-0.1,0.9-0.2,1.2
		c-0.1,0.3-0.3,0.6-0.6,0.8c-0.4,0.4-1,0.6-1.7,0.6c-0.7,0-1.2-0.2-1.7-0.6c-0.3-0.2-0.5-0.5-0.6-0.8c-0.1-0.3-0.2-0.7-0.2-1.2v-3.3
		H134.3z"/>
	<path class="st7" d="M141.1-117v9.9h-1.3v-9.9H141.1z"/>
	<path class="st7" d="M147.2-112.8h1.3v5.7h-1.3v-0.6c-0.5,0.5-1.1,0.8-1.8,0.8c-0.8,0-1.4-0.3-2-0.9c-0.5-0.6-0.8-1.3-0.8-2.2
		c0-0.9,0.3-1.6,0.8-2.1s1.2-0.9,1.9-0.9c0.7,0,1.3,0.3,1.8,0.8V-112.8z M144.1-109.9c0,0.5,0.1,1,0.4,1.3c0.3,0.3,0.7,0.5,1.1,0.5
		c0.5,0,0.9-0.2,1.2-0.5c0.3-0.3,0.5-0.8,0.5-1.3s-0.2-1-0.5-1.3c-0.3-0.3-0.7-0.5-1.2-0.5c-0.5,0-0.8,0.2-1.1,0.5
		C144.3-110.9,144.1-110.4,144.1-109.9z"/>
	<path class="st7" d="M150.5-112.8h1.3v0.5c0.2-0.3,0.5-0.4,0.6-0.5c0.2-0.1,0.4-0.1,0.7-0.1c0.3,0,0.7,0.1,1.1,0.3l-0.6,1.2
		c-0.2-0.2-0.5-0.3-0.7-0.3c-0.7,0-1.1,0.5-1.1,1.6v3h-1.3V-112.8z"/>
	<path class="st7" d="M155.2-115.1c0-0.2,0.1-0.4,0.3-0.6s0.4-0.3,0.6-0.3c0.2,0,0.4,0.1,0.6,0.3c0.2,0.2,0.3,0.4,0.3,0.6
		s-0.1,0.4-0.3,0.6c-0.2,0.2-0.4,0.3-0.6,0.3s-0.4-0.1-0.6-0.3S155.2-114.9,155.2-115.1z M156.7-112.8v5.7h-1.3v-5.7H156.7z"/>
	<path class="st7" d="M160.5-108.3h3.4v1.2h-6l3.7-4.5h-2.9v-1.2h5.5L160.5-108.3z"/>
	<path class="st7" d="M165.2-115.1c0-0.2,0.1-0.4,0.3-0.6s0.4-0.3,0.6-0.3c0.2,0,0.4,0.1,0.6,0.3c0.2,0.2,0.3,0.4,0.3,0.6
		s-0.1,0.4-0.3,0.6c-0.2,0.2-0.4,0.3-0.6,0.3s-0.4-0.1-0.6-0.3S165.2-114.9,165.2-115.1z M166.7-112.8v5.7h-1.3v-5.7H166.7z"/>
	<path class="st7" d="M168.6-112.8h1.3v0.5c0.5-0.5,1-0.7,1.6-0.7c0.7,0,1.2,0.2,1.6,0.6c0.3,0.4,0.5,0.9,0.5,1.7v3.5h-1.3v-3.2
		c0-0.6-0.1-1-0.2-1.2c-0.2-0.2-0.4-0.3-0.8-0.3c-0.4,0-0.7,0.1-0.9,0.4c-0.2,0.3-0.3,0.8-0.3,1.5v2.8h-1.3V-112.8z"/>
	<path class="st7" d="M180.9-107.2c0,0.3,0,0.5,0,0.7s0,0.4-0.1,0.5c-0.1,0.4-0.3,0.8-0.6,1.1c-0.5,0.6-1.2,0.9-2.1,0.9
		c-0.8,0-1.4-0.2-1.9-0.6c-0.5-0.4-0.8-1-0.9-1.8h1.3c0.1,0.3,0.1,0.5,0.3,0.7c0.3,0.4,0.7,0.5,1.2,0.5c1,0,1.4-0.6,1.4-1.8v-0.8
		c-0.5,0.5-1.1,0.8-1.8,0.8c-0.8,0-1.4-0.3-1.9-0.8c-0.5-0.6-0.8-1.3-0.8-2.1c0-0.8,0.2-1.5,0.7-2.1c0.5-0.6,1.2-0.9,2-0.9
		c0.7,0,1.3,0.3,1.8,0.8v-0.6h1.3V-107.2z M179.7-109.9c0-0.6-0.1-1-0.4-1.3c-0.3-0.3-0.7-0.5-1.2-0.5c-0.5,0-0.9,0.2-1.2,0.6
		c-0.3,0.3-0.4,0.8-0.4,1.3c0,0.5,0.1,0.9,0.4,1.3c0.3,0.4,0.7,0.5,1.2,0.5s0.9-0.2,1.2-0.6C179.5-109,179.7-109.4,179.7-109.9z"/>
	<path class="st1" d="M192.5-112.6l-5,8.7H186l2.2-3.8l-2-4.8h1.4l1.4,3.5l2-3.5H192.5z"/>
	<path class="st1" d="M199-109.9c0,0.8-0.3,1.6-0.9,2.1c-0.6,0.6-1.3,0.9-2.2,0.9c-0.9,0-1.6-0.3-2.2-0.8c-0.6-0.5-0.9-1.2-0.9-2.1
		c0-0.9,0.3-1.6,0.9-2.1c0.6-0.6,1.3-0.9,2.2-0.9c0.9,0,1.6,0.3,2.1,0.8C198.7-111.4,199-110.7,199-109.9z M197.7-109.9
		c0-0.5-0.2-1-0.5-1.3c-0.3-0.3-0.7-0.5-1.2-0.5c-0.5,0-0.9,0.2-1.3,0.5c-0.3,0.4-0.5,0.8-0.5,1.4c0,0.5,0.2,1,0.5,1.3
		c0.3,0.3,0.7,0.5,1.2,0.5s0.9-0.2,1.3-0.6C197.6-108.9,197.7-109.4,197.7-109.9z"/>
	<path class="st1" d="M205.8-112.6l-0.4,3.2c0,0.3-0.1,0.5-0.1,0.7s-0.1,0.4-0.2,0.5c-0.1,0.3-0.3,0.5-0.6,0.7
		c-0.4,0.3-1,0.5-1.7,0.5c-0.7,0-1.2-0.2-1.6-0.5c-0.4-0.4-0.6-0.8-0.6-1.4c0-0.1,0-0.2,0-0.3s0-0.3,0-0.4l0.4-3h1.3l-0.4,3.1
		c0,0.1,0,0.2,0,0.3s0,0.2,0,0.2c0,0.6,0.3,0.9,1,0.9c0.4,0,0.6-0.1,0.8-0.3s0.3-0.5,0.4-1l0.4-3.3H205.8z"/>
	<path class="st1" d="M209.2-112.6l-0.1,0.5c0.4-0.4,0.9-0.6,1.3-0.6c0.4,0,0.7,0.1,1.1,0.4l-0.8,1.1c-0.2-0.2-0.5-0.3-0.7-0.3
		c-0.2,0-0.3,0-0.4,0.1s-0.2,0.2-0.3,0.3s-0.2,0.3-0.2,0.5s-0.1,0.5-0.1,0.8l-0.3,2.8h-1.3l0.7-5.5H209.2z"/>
	<path class="st7" d="M217.6-117v9.9h-1.3v-9.9H217.6z"/>
	<path class="st7" d="M223.7-112.8h1.3v5.7h-1.3v-0.6c-0.5,0.5-1.1,0.8-1.8,0.8c-0.8,0-1.4-0.3-2-0.9c-0.5-0.6-0.8-1.3-0.8-2.2
		c0-0.9,0.3-1.6,0.8-2.1s1.2-0.9,1.9-0.9c0.7,0,1.3,0.3,1.8,0.8V-112.8z M220.6-109.9c0,0.5,0.1,1,0.4,1.3c0.3,0.3,0.7,0.5,1.1,0.5
		c0.5,0,0.9-0.2,1.2-0.5c0.3-0.3,0.5-0.8,0.5-1.3s-0.2-1-0.5-1.3c-0.3-0.3-0.7-0.5-1.2-0.5c-0.5,0-0.8,0.2-1.1,0.5
		C220.7-110.9,220.6-110.4,220.6-109.9z"/>
	<path class="st7" d="M226.9-112.8h1.3v0.5c0.5-0.5,1-0.7,1.6-0.7c0.7,0,1.2,0.2,1.6,0.6c0.3,0.4,0.5,0.9,0.5,1.7v3.5h-1.3v-3.2
		c0-0.6-0.1-1-0.2-1.2c-0.2-0.2-0.4-0.3-0.8-0.3c-0.4,0-0.7,0.1-0.9,0.4c-0.2,0.3-0.3,0.8-0.3,1.5v2.8h-1.3V-112.8z"/>
	<path class="st7" d="M238-117h1.3v9.9H238v-0.6c-0.5,0.5-1.1,0.8-1.8,0.8c-0.8,0-1.4-0.3-1.9-0.9c-0.5-0.6-0.8-1.3-0.8-2.2
		c0-0.9,0.3-1.6,0.8-2.1c0.5-0.6,1.1-0.9,1.9-0.9c0.7,0,1.3,0.3,1.8,0.8V-117z M234.8-109.9c0,0.5,0.1,1,0.4,1.3
		c0.3,0.3,0.7,0.5,1.1,0.5c0.5,0,0.9-0.2,1.2-0.5c0.3-0.3,0.5-0.8,0.5-1.3s-0.2-1-0.5-1.3c-0.3-0.3-0.7-0.5-1.2-0.5
		c-0.5,0-0.8,0.2-1.1,0.5C235-110.9,234.8-110.4,234.8-109.9z"/>
</g>
<g>
	<path class="st7" d="M31.1-189.9H28v2.2h3v1.3h-3v4.3h-1.4v-9h4.5V-189.9z"/>
	<path class="st7" d="M37.8-184.6h-4.1c0,0.5,0.2,0.8,0.5,1.1c0.3,0.3,0.6,0.4,1,0.4c0.3,0,0.6-0.1,0.8-0.2c0.2-0.2,0.5-0.4,0.7-0.9
		l1.1,0.6c-0.2,0.3-0.4,0.5-0.5,0.8s-0.4,0.4-0.6,0.5s-0.5,0.2-0.7,0.3s-0.5,0.1-0.8,0.1c-0.9,0-1.5-0.3-2.1-0.8
		c-0.5-0.6-0.8-1.3-0.8-2.2c0-0.9,0.2-1.6,0.8-2.2c0.5-0.6,1.2-0.8,2-0.8c0.8,0,1.5,0.3,2,0.8c0.5,0.5,0.7,1.3,0.7,2.2L37.8-184.6z
		 M36.5-185.7c-0.2-0.7-0.6-1.1-1.3-1.1c-0.2,0-0.3,0-0.5,0.1s-0.3,0.1-0.4,0.2s-0.2,0.2-0.3,0.3s-0.1,0.3-0.2,0.4H36.5z"/>
	<path class="st7" d="M43.7-192H45v9.9h-1.3v-0.6c-0.5,0.5-1.1,0.8-1.8,0.8c-0.8,0-1.4-0.3-1.9-0.9c-0.5-0.6-0.8-1.3-0.8-2.2
		c0-0.9,0.3-1.6,0.8-2.1c0.5-0.6,1.1-0.9,1.9-0.9c0.7,0,1.3,0.3,1.8,0.8V-192z M40.6-185c0,0.5,0.1,1,0.4,1.3
		c0.3,0.3,0.7,0.5,1.1,0.5c0.5,0,0.9-0.2,1.2-0.5c0.3-0.3,0.5-0.8,0.5-1.3s-0.2-1-0.5-1.3c-0.3-0.3-0.7-0.5-1.2-0.5
		c-0.5,0-0.8,0.2-1.1,0.5C40.7-185.9,40.6-185.5,40.6-185z"/>
	<path class="st7" d="M52.1-184.6H48c0,0.5,0.2,0.8,0.5,1.1c0.3,0.3,0.6,0.4,1,0.4c0.3,0,0.6-0.1,0.8-0.2c0.2-0.2,0.5-0.4,0.7-0.9
		l1.1,0.6c-0.2,0.3-0.4,0.5-0.5,0.8s-0.4,0.4-0.6,0.5s-0.5,0.2-0.7,0.3s-0.5,0.1-0.8,0.1c-0.9,0-1.5-0.3-2.1-0.8
		c-0.5-0.6-0.8-1.3-0.8-2.2c0-0.9,0.2-1.6,0.8-2.2c0.5-0.6,1.2-0.8,2-0.8c0.8,0,1.5,0.3,2,0.8c0.5,0.5,0.7,1.3,0.7,2.2L52.1-184.6z
		 M50.8-185.7c-0.2-0.7-0.6-1.1-1.3-1.1c-0.2,0-0.3,0-0.5,0.1s-0.3,0.1-0.4,0.2s-0.2,0.2-0.3,0.3s-0.1,0.3-0.2,0.4H50.8z"/>
	<path class="st7" d="M53.8-187.8h1.3v0.5c0.2-0.3,0.5-0.4,0.6-0.5c0.2-0.1,0.4-0.1,0.7-0.1c0.3,0,0.7,0.1,1.1,0.3l-0.6,1.2
		c-0.2-0.2-0.5-0.3-0.7-0.3c-0.7,0-1.1,0.5-1.1,1.6v3h-1.3V-187.8z"/>
	<path class="st7" d="M62.7-187.8H64v5.7h-1.3v-0.6c-0.5,0.5-1.1,0.8-1.8,0.8c-0.8,0-1.4-0.3-2-0.9c-0.5-0.6-0.8-1.3-0.8-2.2
		c0-0.9,0.3-1.6,0.8-2.1s1.2-0.9,1.9-0.9c0.7,0,1.3,0.3,1.8,0.8V-187.8z M59.5-185c0,0.5,0.1,1,0.4,1.3c0.3,0.3,0.7,0.5,1.1,0.5
		c0.5,0,0.9-0.2,1.2-0.5c0.3-0.3,0.5-0.8,0.5-1.3s-0.2-1-0.5-1.3c-0.3-0.3-0.7-0.5-1.2-0.5c-0.5,0-0.8,0.2-1.1,0.5
		C59.7-185.9,59.5-185.5,59.5-185z"/>
	<path class="st7" d="M67.2-192v9.9h-1.3v-9.9H67.2z"/>
	<path class="st7" d="M74.7-191.2v5.4c0,0.8,0.1,1.3,0.4,1.7c0.4,0.5,0.9,0.8,1.6,0.8c0.7,0,1.2-0.3,1.6-0.8
		c0.3-0.3,0.4-0.9,0.4-1.7v-5.4H80v5.8c0,1-0.3,1.7-0.9,2.4c-0.7,0.7-1.5,1-2.5,1s-1.8-0.3-2.5-1c-0.6-0.6-0.9-1.4-0.9-2.4v-5.8
		H74.7z"/>
	<path class="st7" d="M82.3-187.8h1.3v0.5c0.2-0.3,0.5-0.4,0.6-0.5c0.2-0.1,0.4-0.1,0.7-0.1c0.3,0,0.7,0.1,1.1,0.3l-0.6,1.2
		c-0.2-0.2-0.5-0.3-0.7-0.3c-0.7,0-1.1,0.5-1.1,1.6v3h-1.3V-187.8z"/>
	<path class="st7" d="M88.3-192v4.9c0.5-0.5,1.1-0.8,1.8-0.8c0.8,0,1.4,0.3,1.9,0.9c0.5,0.6,0.8,1.3,0.8,2.1c0,0.9-0.3,1.6-0.8,2.2
		c-0.5,0.6-1.2,0.9-1.9,0.9c-0.7,0-1.2-0.3-1.8-0.8v0.6H87v-9.9H88.3z M91.4-184.9c0-0.5-0.1-1-0.4-1.3c-0.3-0.4-0.7-0.5-1.1-0.5
		c-0.5,0-0.9,0.2-1.2,0.5c-0.3,0.3-0.5,0.8-0.5,1.3c0,0.6,0.1,1,0.4,1.3c0.3,0.3,0.7,0.5,1.2,0.5c0.5,0,0.8-0.2,1.1-0.5
		C91.3-184,91.4-184.4,91.4-184.9z"/>
	<path class="st7" d="M98.6-187.8h1.3v5.7h-1.3v-0.6c-0.5,0.5-1.1,0.8-1.8,0.8c-0.8,0-1.4-0.3-2-0.9c-0.5-0.6-0.8-1.3-0.8-2.2
		c0-0.9,0.3-1.6,0.8-2.1s1.2-0.9,1.9-0.9c0.7,0,1.3,0.3,1.8,0.8V-187.8z M95.5-185c0,0.5,0.1,1,0.4,1.3c0.3,0.3,0.7,0.5,1.1,0.5
		c0.5,0,0.9-0.2,1.2-0.5c0.3-0.3,0.5-0.8,0.5-1.3s-0.2-1-0.5-1.3c-0.3-0.3-0.7-0.5-1.2-0.5c-0.5,0-0.8,0.2-1.1,0.5
		C95.7-185.9,95.5-185.5,95.5-185z"/>
	<path class="st7" d="M101.9-187.8h1.3v0.5c0.5-0.5,1-0.7,1.6-0.7c0.7,0,1.2,0.2,1.6,0.6c0.3,0.4,0.5,0.9,0.5,1.7v3.5h-1.3v-3.2
		c0-0.6-0.1-1-0.2-1.2c-0.2-0.2-0.4-0.3-0.8-0.3c-0.4,0-0.7,0.1-0.9,0.4c-0.2,0.3-0.3,0.8-0.3,1.5v2.8h-1.3V-187.8z"/>
	<path class="st7" d="M114.2-185.8v3.7h-1.4v-9h1.5c0.8,0,1.3,0.1,1.7,0.2c0.4,0.1,0.7,0.3,1,0.6c0.5,0.5,0.8,1.1,0.8,1.9
		c0,0.8-0.3,1.5-0.8,2s-1.3,0.7-2.2,0.7H114.2z M114.2-187h0.5c1.3,0,1.9-0.5,1.9-1.4c0-0.9-0.6-1.4-1.9-1.4h-0.5V-187z"/>
	<path class="st7" d="M118.7-185c0-0.8,0.3-1.5,0.9-2.1s1.3-0.9,2.2-0.9c0.9,0,1.6,0.3,2.2,0.9c0.6,0.6,0.9,1.3,0.9,2.1
		c0,0.9-0.3,1.6-0.9,2.2c-0.6,0.6-1.3,0.9-2.2,0.9c-0.9,0-1.6-0.3-2.2-0.9C119-183.4,118.7-184.1,118.7-185z M120.1-185
		c0,0.6,0.2,1,0.5,1.4c0.3,0.3,0.7,0.5,1.2,0.5c0.5,0,0.9-0.2,1.2-0.5s0.5-0.8,0.5-1.3s-0.2-1-0.5-1.3c-0.3-0.3-0.7-0.5-1.2-0.5
		c-0.5,0-0.9,0.2-1.2,0.5S120.1-185.5,120.1-185z"/>
	<path class="st7" d="M127.8-192v9.9h-1.3v-9.9H127.8z"/>
	<path class="st7" d="M129.5-190.2c0-0.2,0.1-0.4,0.3-0.6s0.4-0.3,0.6-0.3c0.2,0,0.4,0.1,0.6,0.3c0.2,0.2,0.3,0.4,0.3,0.6
		s-0.1,0.4-0.3,0.6c-0.2,0.2-0.4,0.3-0.6,0.3s-0.4-0.1-0.6-0.3S129.5-189.9,129.5-190.2z M131-187.8v5.7h-1.3v-5.7H131z"/>
	<path class="st7" d="M137.4-187.6v1.8c-0.3-0.4-0.6-0.6-0.8-0.8c-0.2-0.1-0.5-0.2-0.8-0.2c-0.5,0-0.9,0.2-1.2,0.5s-0.5,0.8-0.5,1.3
		c0,0.5,0.2,1,0.5,1.3c0.3,0.3,0.7,0.5,1.2,0.5c0.3,0,0.6-0.1,0.8-0.2c0.2-0.1,0.5-0.4,0.8-0.8v1.7c-0.5,0.3-1.1,0.4-1.6,0.4
		c-0.9,0-1.6-0.3-2.2-0.9c-0.6-0.6-0.9-1.3-0.9-2.1s0.3-1.6,0.9-2.2s1.3-0.9,2.2-0.9C136.3-188,136.9-187.8,137.4-187.6z"/>
	<path class="st7" d="M140.7-183.2l-2.6-4.6h1.5l1.7,3.3l1.6-3.3h1.5l-4.5,8.8h-1.5L140.7-183.2z"/>
	<path class="st7" d="M153.8-187.8h1.3v5.7h-1.3v-0.6c-0.5,0.5-1.1,0.8-1.8,0.8c-0.8,0-1.4-0.3-2-0.9c-0.5-0.6-0.8-1.3-0.8-2.2
		c0-0.9,0.3-1.6,0.8-2.1s1.2-0.9,1.9-0.9c0.7,0,1.3,0.3,1.8,0.8V-187.8z M150.7-185c0,0.5,0.1,1,0.4,1.3c0.3,0.3,0.7,0.5,1.1,0.5
		c0.5,0,0.9-0.2,1.2-0.5c0.3-0.3,0.5-0.8,0.5-1.3s-0.2-1-0.5-1.3c-0.3-0.3-0.7-0.5-1.2-0.5c-0.5,0-0.8,0.2-1.1,0.5
		C150.8-185.9,150.7-185.5,150.7-185z"/>
	<path class="st7" d="M157-187.8h1.3v0.5c0.5-0.5,1-0.7,1.6-0.7c0.7,0,1.2,0.2,1.6,0.6c0.3,0.4,0.5,0.9,0.5,1.7v3.5h-1.3v-3.2
		c0-0.6-0.1-1-0.2-1.2c-0.2-0.2-0.4-0.3-0.8-0.3c-0.4,0-0.7,0.1-0.9,0.4c-0.2,0.3-0.3,0.8-0.3,1.5v2.8H157V-187.8z"/>
	<path class="st7" d="M168-192h1.3v9.9H168v-0.6c-0.5,0.5-1.1,0.8-1.8,0.8c-0.8,0-1.4-0.3-1.9-0.9c-0.5-0.6-0.8-1.3-0.8-2.2
		c0-0.9,0.3-1.6,0.8-2.1c0.5-0.6,1.1-0.9,1.9-0.9c0.7,0,1.3,0.3,1.8,0.8V-192z M164.9-185c0,0.5,0.1,1,0.4,1.3
		c0.3,0.3,0.7,0.5,1.1,0.5c0.5,0,0.9-0.2,1.2-0.5c0.3-0.3,0.5-0.8,0.5-1.3s-0.2-1-0.5-1.3c-0.3-0.3-0.7-0.5-1.2-0.5
		c-0.5,0-0.8,0.2-1.1,0.5C165.1-185.9,164.9-185.5,164.9-185z"/>
	<path class="st7" d="M175.2-192h1.3v4.7c0.5-0.4,1-0.6,1.6-0.6c0.6,0,1.2,0.2,1.5,0.6c0.3,0.4,0.5,0.9,0.5,1.7v3.5h-1.3v-3.4
		c0-0.5-0.1-0.8-0.2-1s-0.4-0.3-0.8-0.3c-0.5,0-0.8,0.1-1,0.4c-0.2,0.3-0.3,0.8-0.3,1.5v2.8h-1.3V-192z"/>
	<path class="st7" d="M181.8-185c0-0.8,0.3-1.5,0.9-2.1s1.3-0.9,2.2-0.9c0.9,0,1.6,0.3,2.2,0.9c0.6,0.6,0.9,1.3,0.9,2.1
		c0,0.9-0.3,1.6-0.9,2.2c-0.6,0.6-1.3,0.9-2.2,0.9c-0.9,0-1.6-0.3-2.2-0.9C182-183.4,181.8-184.1,181.8-185z M183.1-185
		c0,0.6,0.2,1,0.5,1.4c0.3,0.3,0.7,0.5,1.2,0.5c0.5,0,0.9-0.2,1.2-0.5s0.5-0.8,0.5-1.3s-0.2-1-0.5-1.3c-0.3-0.3-0.7-0.5-1.2-0.5
		c-0.5,0-0.9,0.2-1.2,0.5S183.1-185.5,183.1-185z"/>
	<path class="st7" d="M190-187.8l1.5,3.3l1.6-3.8l1.6,3.8l1.5-3.3h1.5l-3,6.1l-1.6-3.7l-1.6,3.7l-3-6.1H190z"/>
	<path class="st7" d="M202.5-190.2c0-0.2,0.1-0.4,0.3-0.6s0.4-0.3,0.6-0.3c0.2,0,0.4,0.1,0.6,0.3c0.2,0.2,0.3,0.4,0.3,0.6
		s-0.1,0.4-0.3,0.6c-0.2,0.2-0.4,0.3-0.6,0.3s-0.4-0.1-0.6-0.3S202.5-189.9,202.5-190.2z M204-187.8v5.7h-1.3v-5.7H204z"/>
	<path class="st7" d="M207.3-186.6v4.5H206v-4.5h-0.6v-1.2h0.6v-2.1h1.3v2.1h1v1.2H207.3z"/>
	<path class="st7" d="M213.4-187.8h1.3v0.5c0.2-0.3,0.5-0.4,0.6-0.5c0.2-0.1,0.4-0.1,0.7-0.1c0.3,0,0.7,0.1,1.1,0.3l-0.6,1.2
		c-0.2-0.2-0.5-0.3-0.7-0.3c-0.7,0-1.1,0.5-1.1,1.6v3h-1.3V-187.8z"/>
	<path class="st7" d="M223.3-184.6h-4.1c0,0.5,0.2,0.8,0.5,1.1c0.3,0.3,0.6,0.4,1,0.4c0.3,0,0.6-0.1,0.8-0.2
		c0.2-0.2,0.5-0.4,0.7-0.9l1.1,0.6c-0.2,0.3-0.4,0.5-0.5,0.8s-0.4,0.4-0.6,0.5s-0.5,0.2-0.7,0.3s-0.5,0.1-0.8,0.1
		c-0.9,0-1.5-0.3-2.1-0.8c-0.5-0.6-0.8-1.3-0.8-2.2c0-0.9,0.2-1.6,0.8-2.2c0.5-0.6,1.2-0.8,2-0.8c0.8,0,1.5,0.3,2,0.8
		c0.5,0.5,0.7,1.3,0.7,2.2L223.3-184.6z M221.9-185.7c-0.2-0.7-0.6-1.1-1.3-1.1c-0.2,0-0.3,0-0.5,0.1s-0.3,0.1-0.4,0.2
		s-0.2,0.2-0.3,0.3s-0.1,0.3-0.2,0.4H221.9z"/>
	<path class="st7" d="M226.3-192v9.9h-1.3v-9.9H226.3z"/>
	<path class="st7" d="M232.4-187.8h1.3v5.7h-1.3v-0.6c-0.5,0.5-1.1,0.8-1.8,0.8c-0.8,0-1.4-0.3-2-0.9c-0.5-0.6-0.8-1.3-0.8-2.2
		c0-0.9,0.3-1.6,0.8-2.1s1.2-0.9,1.9-0.9c0.7,0,1.3,0.3,1.8,0.8V-187.8z M229.2-185c0,0.5,0.1,1,0.4,1.3c0.3,0.3,0.7,0.5,1.1,0.5
		c0.5,0,0.9-0.2,1.2-0.5c0.3-0.3,0.5-0.8,0.5-1.3s-0.2-1-0.5-1.3c-0.3-0.3-0.7-0.5-1.2-0.5c-0.5,0-0.8,0.2-1.1,0.5
		C229.4-185.9,229.2-185.5,229.2-185z"/>
	<path class="st7" d="M237-186.6v4.5h-1.3v-4.5h-0.6v-1.2h0.6v-2.1h1.3v2.1h1v1.2H237z"/>
	<path class="st7" d="M244.4-184.6h-4.1c0,0.5,0.2,0.8,0.5,1.1c0.3,0.3,0.6,0.4,1,0.4c0.3,0,0.6-0.1,0.8-0.2
		c0.2-0.2,0.5-0.4,0.7-0.9l1.1,0.6c-0.2,0.3-0.4,0.5-0.5,0.8s-0.4,0.4-0.6,0.5s-0.5,0.2-0.7,0.3s-0.5,0.1-0.8,0.1
		c-0.9,0-1.5-0.3-2.1-0.8c-0.5-0.6-0.8-1.3-0.8-2.2c0-0.9,0.2-1.6,0.8-2.2c0.5-0.6,1.2-0.8,2-0.8c0.8,0,1.5,0.3,2,0.8
		c0.5,0.5,0.7,1.3,0.7,2.2L244.4-184.6z M243.1-185.7c-0.2-0.7-0.6-1.1-1.3-1.1c-0.2,0-0.3,0-0.5,0.1s-0.3,0.1-0.4,0.2
		s-0.2,0.2-0.3,0.3s-0.1,0.3-0.2,0.4H243.1z"/>
	<path class="st7" d="M249.4-186.8l-1.1,0.6c-0.2-0.4-0.4-0.5-0.6-0.5c-0.1,0-0.2,0-0.3,0.1s-0.1,0.2-0.1,0.3c0,0.2,0.3,0.4,0.8,0.7
		c0.7,0.3,1.2,0.6,1.4,0.8s0.4,0.6,0.4,1c0,0.6-0.2,1-0.6,1.4c-0.4,0.4-0.9,0.5-1.4,0.5c-1,0-1.6-0.5-2-1.4l1.1-0.5
		c0.2,0.3,0.3,0.4,0.4,0.5c0.2,0.1,0.4,0.2,0.6,0.2c0.4,0,0.7-0.2,0.7-0.6c0-0.2-0.2-0.5-0.5-0.7c-0.1-0.1-0.3-0.1-0.4-0.2
		s-0.3-0.1-0.4-0.2c-0.4-0.2-0.7-0.4-0.8-0.6c-0.2-0.2-0.3-0.5-0.3-0.9c0-0.5,0.2-0.9,0.5-1.2c0.3-0.3,0.8-0.5,1.3-0.5
		C248.5-188,249.1-187.6,249.4-186.8z"/>
	<path class="st7" d="M256.5-186.6v4.5h-1.3v-4.5h-0.6v-1.2h0.6v-2.1h1.3v2.1h1v1.2H256.5z"/>
	<path class="st7" d="M258.5-185c0-0.8,0.3-1.5,0.9-2.1s1.3-0.9,2.2-0.9c0.9,0,1.6,0.3,2.2,0.9c0.6,0.6,0.9,1.3,0.9,2.1
		c0,0.9-0.3,1.6-0.9,2.2c-0.6,0.6-1.3,0.9-2.2,0.9c-0.9,0-1.6-0.3-2.2-0.9C258.8-183.4,258.5-184.1,258.5-185z M259.8-185
		c0,0.6,0.2,1,0.5,1.4c0.3,0.3,0.7,0.5,1.2,0.5c0.5,0,0.9-0.2,1.2-0.5s0.5-0.8,0.5-1.3s-0.2-1-0.5-1.3c-0.3-0.3-0.7-0.5-1.2-0.5
		c-0.5,0-0.9,0.2-1.2,0.5S259.8-185.5,259.8-185z"/>
	<path class="st1" d="M275.8-187.6l-5,8.7h-1.5l2.2-3.8l-2-4.8h1.4l1.4,3.5l2-3.5H275.8z"/>
	<path class="st1" d="M282.4-184.9c0,0.8-0.3,1.6-0.9,2.1c-0.6,0.6-1.3,0.9-2.2,0.9c-0.9,0-1.6-0.3-2.2-0.8
		c-0.6-0.5-0.9-1.2-0.9-2.1c0-0.9,0.3-1.6,0.9-2.1c0.6-0.6,1.3-0.9,2.2-0.9c0.9,0,1.6,0.3,2.1,0.8
		C282.1-186.5,282.4-185.8,282.4-184.9z M281.1-185c0-0.5-0.2-1-0.5-1.3c-0.3-0.3-0.7-0.5-1.2-0.5c-0.5,0-0.9,0.2-1.3,0.5
		c-0.3,0.4-0.5,0.8-0.5,1.4c0,0.5,0.2,1,0.5,1.3c0.3,0.3,0.7,0.5,1.2,0.5s0.9-0.2,1.3-0.6C280.9-183.9,281.1-184.4,281.1-185z"/>
	<path class="st1" d="M289.2-187.6l-0.4,3.2c0,0.3-0.1,0.5-0.1,0.7s-0.1,0.4-0.2,0.5c-0.1,0.3-0.3,0.5-0.6,0.7
		c-0.4,0.3-1,0.5-1.7,0.5c-0.7,0-1.2-0.2-1.6-0.5c-0.4-0.4-0.6-0.8-0.6-1.4c0-0.1,0-0.2,0-0.3s0-0.3,0-0.4l0.4-3h1.3l-0.4,3.1
		c0,0.1,0,0.2,0,0.3s0,0.2,0,0.2c0,0.6,0.3,0.9,1,0.9c0.4,0,0.6-0.1,0.8-0.3s0.3-0.5,0.4-1l0.4-3.3H289.2z"/>
</g>
<g>
	<path class="st7" d="M217.6,28.3V30c-0.8-0.7-1.6-1-2.4-1c-0.9,0-1.7,0.3-2.3,1c-0.6,0.7-1,1.5-1,2.4c0,0.9,0.3,1.8,1,2.4
		s1.4,1,2.4,1c0.5,0,0.9-0.1,1.2-0.2c0.2-0.1,0.4-0.2,0.6-0.3s0.4-0.3,0.6-0.5v1.6c-0.8,0.4-1.6,0.7-2.5,0.7c-1.3,0-2.4-0.5-3.3-1.4
		c-0.9-0.9-1.4-2-1.4-3.3c0-1.2,0.4-2.2,1.1-3.1c0.9-1.1,2.2-1.7,3.6-1.7C216,27.7,216.8,27.9,217.6,28.3z"/>
	<path class="st7" d="M219,34c0-0.8,0.3-1.5,0.9-2.1s1.3-0.9,2.2-0.9c0.9,0,1.6,0.3,2.2,0.9c0.6,0.6,0.9,1.3,0.9,2.1
		c0,0.9-0.3,1.6-0.9,2.2c-0.6,0.6-1.3,0.9-2.2,0.9c-0.9,0-1.6-0.3-2.2-0.9C219.3,35.6,219,34.9,219,34z M220.4,34
		c0,0.6,0.2,1,0.5,1.4c0.3,0.3,0.7,0.5,1.2,0.5c0.5,0,0.9-0.2,1.2-0.5s0.5-0.8,0.5-1.3s-0.2-1-0.5-1.3c-0.3-0.3-0.7-0.5-1.2-0.5
		c-0.5,0-0.9,0.2-1.2,0.5S220.4,33.5,220.4,34z"/>
	<path class="st7" d="M228,27v9.9h-1.3V27H228z"/>
	<path class="st7" d="M231.3,27v9.9H230V27H231.3z"/>
	<path class="st7" d="M238.4,34.4h-4.1c0,0.5,0.2,0.8,0.5,1.1c0.3,0.3,0.6,0.4,1,0.4c0.3,0,0.6-0.1,0.8-0.2c0.2-0.2,0.5-0.4,0.7-0.9
		l1.1,0.6c-0.2,0.3-0.4,0.5-0.5,0.8s-0.4,0.4-0.6,0.5s-0.5,0.2-0.7,0.3s-0.5,0.1-0.8,0.1c-0.9,0-1.5-0.3-2.1-0.8
		c-0.5-0.6-0.8-1.3-0.8-2.2c0-0.9,0.2-1.6,0.8-2.2c0.5-0.6,1.2-0.8,2-0.8c0.8,0,1.5,0.3,2,0.8c0.5,0.5,0.7,1.3,0.7,2.2L238.4,34.4z
		 M237,33.3c-0.2-0.7-0.6-1.1-1.3-1.1c-0.2,0-0.3,0-0.5,0.1s-0.3,0.1-0.4,0.2s-0.2,0.2-0.3,0.3s-0.1,0.3-0.2,0.4H237z"/>
	<path class="st7" d="M244.5,31.4v1.8c-0.3-0.4-0.6-0.6-0.8-0.8c-0.2-0.1-0.5-0.2-0.8-0.2c-0.5,0-0.9,0.2-1.2,0.5s-0.5,0.8-0.5,1.3
		c0,0.5,0.2,1,0.5,1.3c0.3,0.3,0.7,0.5,1.2,0.5c0.3,0,0.6-0.1,0.8-0.2c0.2-0.1,0.5-0.4,0.8-0.8v1.7c-0.5,0.3-1.1,0.4-1.6,0.4
		c-0.9,0-1.6-0.3-2.2-0.9c-0.6-0.6-0.9-1.3-0.9-2.1s0.3-1.6,0.9-2.2s1.3-0.9,2.2-0.9C243.5,31,244,31.2,244.5,31.4z"/>
	<path class="st7" d="M247.4,32.4v4.5h-1.3v-4.5h-0.6v-1.2h0.6v-2.1h1.3v2.1h1v1.2H247.4z"/>
	<path class="st7" d="M249.3,28.8c0-0.2,0.1-0.4,0.3-0.6s0.4-0.3,0.6-0.3c0.2,0,0.4,0.1,0.6,0.3c0.2,0.2,0.3,0.4,0.3,0.6
		s-0.1,0.4-0.3,0.6c-0.2,0.2-0.4,0.3-0.6,0.3s-0.4-0.1-0.6-0.3S249.3,29.1,249.3,28.8z M250.9,31.2v5.7h-1.3v-5.7H250.9z"/>
	<path class="st7" d="M253.5,31.2l1.5,3.2l1.5-3.2h1.5l-3,6.1l-2.9-6.1H253.5z"/>
	<path class="st7" d="M264,34.4h-4.1c0,0.5,0.2,0.8,0.5,1.1c0.3,0.3,0.6,0.4,1,0.4c0.3,0,0.6-0.1,0.8-0.2c0.2-0.2,0.5-0.4,0.7-0.9
		l1.1,0.6c-0.2,0.3-0.4,0.5-0.5,0.8s-0.4,0.4-0.6,0.5s-0.5,0.2-0.7,0.3s-0.5,0.1-0.8,0.1c-0.9,0-1.5-0.3-2.1-0.8
		c-0.5-0.6-0.8-1.3-0.8-2.2c0-0.9,0.2-1.6,0.8-2.2c0.5-0.6,1.2-0.8,2-0.8c0.8,0,1.5,0.3,2,0.8c0.5,0.5,0.7,1.3,0.7,2.2L264,34.4z
		 M262.7,33.3c-0.2-0.7-0.6-1.1-1.3-1.1c-0.2,0-0.3,0-0.5,0.1s-0.3,0.1-0.4,0.2s-0.2,0.2-0.3,0.3s-0.1,0.3-0.2,0.4H262.7z"/>
	<path class="st7" d="M271,32.4v4.5h-1.3v-4.5h-0.6v-1.2h0.6v-2.1h1.3v2.1h1v1.2H271z"/>
	<path class="st7" d="M273,28.8c0-0.2,0.1-0.4,0.3-0.6s0.4-0.3,0.6-0.3c0.2,0,0.4,0.1,0.6,0.3c0.2,0.2,0.3,0.4,0.3,0.6
		s-0.1,0.4-0.3,0.6c-0.2,0.2-0.4,0.3-0.6,0.3s-0.4-0.1-0.6-0.3S273,29.1,273,28.8z M274.5,31.2v5.7h-1.3v-5.7H274.5z"/>
	<path class="st7" d="M277.8,32.4v4.5h-1.3v-4.5h-0.6v-1.2h0.6v-2.1h1.3v2.1h1v1.2H277.8z"/>
	<path class="st7" d="M281.2,27v9.9h-1.3V27H281.2z"/>
	<path class="st7" d="M283,28.8c0-0.2,0.1-0.4,0.3-0.6s0.4-0.3,0.6-0.3c0.2,0,0.4,0.1,0.6,0.3c0.2,0.2,0.3,0.4,0.3,0.6
		s-0.1,0.4-0.3,0.6c-0.2,0.2-0.4,0.3-0.6,0.3s-0.4-0.1-0.6-0.3S283,29.1,283,28.8z M284.5,31.2v5.7h-1.3v-5.7H284.5z"/>
	<path class="st7" d="M286.4,31.2h1.3v0.5c0.5-0.5,1-0.7,1.6-0.7c0.7,0,1.2,0.2,1.6,0.6c0.3,0.4,0.5,0.9,0.5,1.7v3.5H290v-3.2
		c0-0.6-0.1-1-0.2-1.2c-0.2-0.2-0.4-0.3-0.8-0.3c-0.4,0-0.7,0.1-0.9,0.4c-0.2,0.3-0.3,0.8-0.3,1.5v2.8h-1.3V31.2z"/>
	<path class="st7" d="M298.7,36.8c0,0.3,0,0.5,0,0.7s0,0.4-0.1,0.5c-0.1,0.4-0.3,0.8-0.6,1.1c-0.5,0.6-1.2,0.9-2.1,0.9
		c-0.8,0-1.4-0.2-1.9-0.6c-0.5-0.4-0.8-1-0.9-1.8h1.3c0.1,0.3,0.1,0.5,0.3,0.7c0.3,0.4,0.7,0.5,1.2,0.5c1,0,1.4-0.6,1.4-1.8v-0.8
		c-0.5,0.5-1.1,0.8-1.8,0.8c-0.8,0-1.4-0.3-1.9-0.8c-0.5-0.6-0.8-1.3-0.8-2.1c0-0.8,0.2-1.5,0.7-2.1c0.5-0.6,1.2-0.9,2-0.9
		c0.7,0,1.3,0.3,1.8,0.8v-0.6h1.3V36.8z M297.5,34.1c0-0.6-0.1-1-0.4-1.3c-0.3-0.3-0.7-0.5-1.2-0.5c-0.5,0-0.9,0.2-1.2,0.6
		c-0.3,0.3-0.4,0.8-0.4,1.3c0,0.5,0.1,0.9,0.4,1.3c0.3,0.4,0.7,0.5,1.2,0.5s0.9-0.2,1.2-0.6C297.3,35,297.5,34.6,297.5,34.1z"/>
	<path class="st7" d="M304.4,28.8c0-0.2,0.1-0.4,0.3-0.6s0.4-0.3,0.6-0.3c0.2,0,0.4,0.1,0.6,0.3c0.2,0.2,0.3,0.4,0.3,0.6
		s-0.1,0.4-0.3,0.6c-0.2,0.2-0.4,0.3-0.6,0.3s-0.4-0.1-0.6-0.3S304.4,29.1,304.4,28.8z M305.9,31.2v5.7h-1.3v-5.7H305.9z"/>
	<path class="st7" d="M307.8,31.2h1.3v0.5c0.5-0.5,1-0.7,1.6-0.7c0.7,0,1.2,0.2,1.6,0.6c0.3,0.4,0.5,0.9,0.5,1.7v3.5h-1.3v-3.2
		c0-0.6-0.1-1-0.2-1.2c-0.2-0.2-0.4-0.3-0.8-0.3c-0.4,0-0.7,0.1-0.9,0.4c-0.2,0.3-0.3,0.8-0.3,1.5v2.8h-1.3V31.2z"/>
	<path class="st1" d="M324.3,31.4l-5,8.7h-1.5l2.2-3.8l-2-4.8h1.4l1.4,3.5l2-3.5H324.3z"/>
	<path class="st1" d="M330.8,34.1c0,0.8-0.3,1.6-0.9,2.1c-0.6,0.6-1.3,0.9-2.2,0.9c-0.9,0-1.6-0.3-2.2-0.8c-0.6-0.5-0.9-1.2-0.9-2.1
		c0-0.9,0.3-1.6,0.9-2.1c0.6-0.6,1.3-0.9,2.2-0.9c0.9,0,1.6,0.3,2.1,0.8C330.5,32.5,330.8,33.2,330.8,34.1z M329.5,34
		c0-0.5-0.2-1-0.5-1.3c-0.3-0.3-0.7-0.5-1.2-0.5c-0.5,0-0.9,0.2-1.3,0.5c-0.3,0.4-0.5,0.8-0.5,1.4c0,0.5,0.2,1,0.5,1.3
		c0.3,0.3,0.7,0.5,1.2,0.5s0.9-0.2,1.3-0.6C329.3,35.1,329.5,34.6,329.5,34z"/>
	<path class="st1" d="M337.6,31.4l-0.4,3.2c0,0.3-0.1,0.5-0.1,0.7s-0.1,0.4-0.2,0.5c-0.1,0.3-0.3,0.5-0.6,0.7
		c-0.4,0.3-1,0.5-1.7,0.5c-0.7,0-1.2-0.2-1.6-0.5c-0.4-0.4-0.6-0.8-0.6-1.4c0-0.1,0-0.2,0-0.3s0-0.3,0-0.4l0.4-3h1.3l-0.4,3.1
		c0,0.1,0,0.2,0,0.3s0,0.2,0,0.2c0,0.6,0.3,0.9,1,0.9c0.4,0,0.6-0.1,0.8-0.3s0.3-0.5,0.4-1l0.4-3.3H337.6z"/>
	<path class="st1" d="M341,31.4l-0.1,0.5c0.4-0.4,0.9-0.6,1.3-0.6c0.4,0,0.7,0.1,1.1,0.4l-0.8,1.1c-0.2-0.2-0.5-0.3-0.7-0.3
		c-0.2,0-0.3,0-0.4,0.1s-0.2,0.2-0.3,0.3s-0.2,0.3-0.2,0.5s-0.1,0.5-0.1,0.8l-0.3,2.8H339l0.7-5.5H341z"/>
	<path class="st7" d="M352.5,31.4v1.8c-0.3-0.4-0.6-0.6-0.8-0.8c-0.2-0.1-0.5-0.2-0.8-0.2c-0.5,0-0.9,0.2-1.2,0.5s-0.5,0.8-0.5,1.3
		c0,0.5,0.2,1,0.5,1.3c0.3,0.3,0.7,0.5,1.2,0.5c0.3,0,0.6-0.1,0.8-0.2c0.2-0.1,0.5-0.4,0.8-0.8v1.7c-0.5,0.3-1.1,0.4-1.6,0.4
		c-0.9,0-1.6-0.3-2.2-0.9c-0.6-0.6-0.9-1.3-0.9-2.1s0.3-1.6,0.9-2.2s1.3-0.9,2.2-0.9C351.5,31,352,31.2,352.5,31.4z"/>
	<path class="st7" d="M353.7,34c0-0.8,0.3-1.5,0.9-2.1s1.3-0.9,2.2-0.9c0.9,0,1.6,0.3,2.2,0.9c0.6,0.6,0.9,1.3,0.9,2.1
		c0,0.9-0.3,1.6-0.9,2.2c-0.6,0.6-1.3,0.9-2.2,0.9c-0.9,0-1.6-0.3-2.2-0.9C354,35.6,353.7,34.9,353.7,34z M355.1,34
		c0,0.6,0.2,1,0.5,1.4c0.3,0.3,0.7,0.5,1.2,0.5c0.5,0,0.9-0.2,1.2-0.5s0.5-0.8,0.5-1.3s-0.2-1-0.5-1.3c-0.3-0.3-0.7-0.5-1.2-0.5
		c-0.5,0-0.9,0.2-1.2,0.5S355.1,33.5,355.1,34z"/>
	<path class="st7" d="M361.5,31.2h1.3v0.5c0.3-0.3,0.5-0.4,0.7-0.5c0.2-0.1,0.4-0.1,0.7-0.1c0.6,0,1.2,0.3,1.5,0.8
		c0.4-0.6,1-0.8,1.7-0.8c1.3,0,1.9,0.8,1.9,2.3v3.5H368v-3.2c0-0.5-0.1-0.9-0.2-1.2c-0.1-0.2-0.4-0.3-0.7-0.3
		c-0.4,0-0.6,0.1-0.8,0.4s-0.2,0.7-0.2,1.3v2.9h-1.3v-3.2c0-1-0.3-1.5-0.9-1.5c-0.4,0-0.6,0.1-0.8,0.4s-0.3,0.7-0.3,1.3v2.9h-1.3
		V31.2z"/>
	<path class="st7" d="M371.2,31.2h1.3v0.5c0.3-0.3,0.5-0.4,0.7-0.5c0.2-0.1,0.4-0.1,0.7-0.1c0.6,0,1.2,0.3,1.5,0.8
		c0.4-0.6,1-0.8,1.7-0.8c1.3,0,1.9,0.8,1.9,2.3v3.5h-1.3v-3.2c0-0.5-0.1-0.9-0.2-1.2c-0.1-0.2-0.4-0.3-0.7-0.3
		c-0.4,0-0.6,0.1-0.8,0.4s-0.2,0.7-0.2,1.3v2.9h-1.3v-3.2c0-1-0.3-1.5-0.9-1.5c-0.4,0-0.6,0.1-0.8,0.4s-0.3,0.7-0.3,1.3v2.9h-1.3
		V31.2z"/>
	<path class="st7" d="M382.2,31.2v3.3c0,0.9,0.4,1.4,1.1,1.4s1.1-0.5,1.1-1.4v-3.3h1.3v3.3c0,0.5-0.1,0.9-0.2,1.2
		c-0.1,0.3-0.3,0.6-0.6,0.8c-0.4,0.4-1,0.6-1.7,0.6c-0.7,0-1.2-0.2-1.7-0.6c-0.3-0.2-0.5-0.5-0.6-0.8c-0.1-0.3-0.2-0.7-0.2-1.2v-3.3
		H382.2z"/>
	<path class="st7" d="M387.7,31.2h1.3v0.5c0.5-0.5,1-0.7,1.6-0.7c0.7,0,1.2,0.2,1.6,0.6c0.3,0.4,0.5,0.9,0.5,1.7v3.5h-1.3v-3.2
		c0-0.6-0.1-1-0.2-1.2c-0.2-0.2-0.4-0.3-0.8-0.3c-0.4,0-0.7,0.1-0.9,0.4c-0.2,0.3-0.3,0.8-0.3,1.5v2.8h-1.3V31.2z"/>
	<path class="st7" d="M394.3,28.8c0-0.2,0.1-0.4,0.3-0.6s0.4-0.3,0.6-0.3c0.2,0,0.4,0.1,0.6,0.3c0.2,0.2,0.3,0.4,0.3,0.6
		s-0.1,0.4-0.3,0.6c-0.2,0.2-0.4,0.3-0.6,0.3s-0.4-0.1-0.6-0.3S394.3,29.1,394.3,28.8z M395.8,31.2v5.7h-1.3v-5.7H395.8z"/>
	<path class="st7" d="M399.1,32.4v4.5h-1.3v-4.5h-0.6v-1.2h0.6v-2.1h1.3v2.1h1v1.2H399.1z"/>
	<path class="st7" d="M403.1,35.8l-2.6-4.6h1.5l1.7,3.3l1.6-3.3h1.5l-4.5,8.8h-1.5L403.1,35.8z"/>
</g>
</svg>
