<?xml version="1.0" encoding="utf-8"?>
<!-- Generator: Adobe Illustrator 19.2.0, SVG Export Plug-In . SVG Version: 6.00 Build 0)  -->
<svg version="1.1" id="Layer_1" xmlns="http://www.w3.org/2000/svg" xmlns:xlink="http://www.w3.org/1999/xlink" x="0px" y="0px"
	 viewBox="0 0 617.6 42.6" style="enable-background:new 0 0 617.6 42.6;" xml:space="preserve">
<style type="text/css">
	.st0{clip-path:url(#SVGID_2_);}
	.st1{fill:#A9B35A;}
	.st2{clip-path:url(#SVGID_4_);}
	.st3{clip-path:url(#SVGID_6_);}
	.st4{display:none;}
	.st5{display:inline;stroke:#FFFFFF;stroke-width:2;stroke-miterlimit:10;}
	.st6{fill:#58595B;stroke:#FFFFFF;stroke-width:0.25;stroke-miterlimit:10;}
	.st7{fill:#58595B;}
</style>
<g>
	<defs>
		<path id="SVGID_1_" d="M243.6-45v13.6h4.7v2.2h-7V-45H243.6z M262.4-42.8H256v3.8h6.2v2.2H256v5.3h6.3v2.2h-8.7V-45h8.7V-42.8z
			 M276.8-37.4h6.5v0.5c0,1.2-0.1,2.2-0.4,3.2c-0.3,0.8-0.7,1.6-1.4,2.4c-1.5,1.7-3.3,2.5-5.6,2.5c-2.2,0-4.1-0.8-5.7-2.4
			c-1.6-1.6-2.4-3.5-2.4-5.8c0-2.3,0.8-4.2,2.4-5.8c1.6-1.6,3.6-2.4,5.9-2.4c1.2,0,2.4,0.3,3.5,0.8c1,0.5,2,1.3,3,2.5l-1.7,1.6
			c-1.3-1.7-2.9-2.6-4.7-2.6c-1.7,0-3.1,0.6-4.2,1.7c-1.1,1.1-1.7,2.6-1.7,4.3c0,1.8,0.6,3.2,1.9,4.4c1.2,1.1,2.5,1.6,3.8,1.6
			c1.2,0,2.2-0.4,3.2-1.2c0.9-0.8,1.5-1.8,1.6-2.9h-3.9V-37.4z M298.1-33h-6.8l-1.8,3.8H287l7.8-16.8l7.6,16.8h-2.6L298.1-33z
			 M297.1-35.3l-2.3-5.4l-2.5,5.4H297.1z M309.9-45v13.6h4.7v2.2h-7V-45H309.9z M322.3-45v15.8h-2.4V-45H322.3z M332-31.4h7.6v2.2
			h-11.5l7.8-13.6h-6.5V-45h10.4L332-31.4z M354.9-33h-6.8l-1.8,3.8h-2.6l7.8-16.8l7.6,16.8h-2.6L354.9-33z M353.9-35.3l-2.3-5.4
			l-2.5,5.4H353.9z M369.6-35.9l4.9,6.7h-2.9l-4.5-6.5h-0.4v6.5h-2.4V-45h2.8c2.1,0,3.6,0.4,4.5,1.2c1,0.9,1.5,2,1.5,3.5
			c0,1.1-0.3,2.1-1,2.9S370.7-36.2,369.6-35.9z M366.7-37.8h0.8c2.3,0,3.4-0.9,3.4-2.6c0-1.6-1.1-2.4-3.3-2.4h-0.9V-37.8z"/>
	</defs>
	<clipPath id="SVGID_2_">
		<use xlink:href="#SVGID_1_"  style="overflow:visible;"/>
	</clipPath>
	<g class="st0">
		<g>
			
				<rect x="158.1" y="-46.9" transform="matrix(0.7065 -0.7078 0.7078 0.7065 103.4265 156.3307)" class="st1" width="164.1" height="0.8"/>
		</g>
		<g>
			
				<rect x="159.9" y="-46.9" transform="matrix(0.7065 -0.7078 0.7078 0.7065 103.9555 157.6062)" class="st1" width="164.1" height="0.8"/>
		</g>
		<g>
			
				<rect x="161.7" y="-46.9" transform="matrix(0.7065 -0.7078 0.7078 0.7065 104.4846 158.8818)" class="st1" width="164.1" height="0.8"/>
		</g>
		<g>
			
				<rect x="163.5" y="-46.9" transform="matrix(0.7065 -0.7078 0.7078 0.7065 105.0138 160.1577)" class="st1" width="164.1" height="0.8"/>
		</g>
		<g>
			
				<rect x="165.3" y="-46.9" transform="matrix(0.7065 -0.7078 0.7078 0.7065 105.5429 161.4336)" class="st1" width="164.1" height="0.8"/>
		</g>
		<g>
			
				<rect x="167.1" y="-46.9" transform="matrix(0.7065 -0.7078 0.7078 0.7065 106.0718 162.7088)" class="st1" width="164.1" height="0.8"/>
		</g>
		<g>
			
				<rect x="168.9" y="-46.9" transform="matrix(0.7065 -0.7078 0.7078 0.7065 106.601 163.9847)" class="st1" width="164.1" height="0.8"/>
		</g>
		<g>
			
				<rect x="170.7" y="-46.9" transform="matrix(0.7065 -0.7078 0.7078 0.7065 107.1302 165.2606)" class="st1" width="164.1" height="0.8"/>
		</g>
		<g>
			
				<rect x="172.5" y="-46.9" transform="matrix(0.7065 -0.7078 0.7078 0.7065 107.6592 166.5361)" class="st1" width="164.1" height="0.8"/>
		</g>
		<g>
			
				<rect x="174.3" y="-46.9" transform="matrix(0.7065 -0.7078 0.7078 0.7065 108.1883 167.8117)" class="st1" width="164.1" height="0.8"/>
		</g>
		<g>
			
				<rect x="176.1" y="-46.9" transform="matrix(0.7065 -0.7078 0.7078 0.7065 108.7175 169.0876)" class="st1" width="164.1" height="0.8"/>
		</g>
		<g>
			
				<rect x="177.9" y="-46.9" transform="matrix(0.7065 -0.7078 0.7078 0.7065 109.2466 170.3635)" class="st1" width="164.1" height="0.8"/>
		</g>
		<g>
			
				<rect x="179.7" y="-46.9" transform="matrix(0.7065 -0.7078 0.7078 0.7065 109.7757 171.6391)" class="st1" width="164.1" height="0.8"/>
		</g>
		<g>
			
				<rect x="181.5" y="-46.9" transform="matrix(0.7065 -0.7078 0.7078 0.7065 110.3047 172.9146)" class="st1" width="164.1" height="0.8"/>
		</g>
		<g>
			
				<rect x="183.4" y="-46.9" transform="matrix(0.7065 -0.7078 0.7078 0.7065 110.8339 174.1905)" class="st1" width="164.1" height="0.8"/>
		</g>
		<g>
			
				<rect x="185.2" y="-46.9" transform="matrix(0.7065 -0.7078 0.7078 0.7065 111.3631 175.4664)" class="st1" width="164.1" height="0.8"/>
		</g>
		<g>
			
				<rect x="187" y="-46.9" transform="matrix(0.7065 -0.7078 0.7078 0.7065 111.8921 176.742)" class="st1" width="164.1" height="0.8"/>
		</g>
		<g>
			
				<rect x="188.8" y="-46.9" transform="matrix(0.7065 -0.7078 0.7078 0.7065 112.4212 178.0175)" class="st1" width="164.1" height="0.8"/>
		</g>
		<g>
			
				<rect x="190.6" y="-46.9" transform="matrix(0.7065 -0.7078 0.7078 0.7065 112.9503 179.2934)" class="st1" width="164.1" height="0.8"/>
		</g>
		<g>
			
				<rect x="192.4" y="-46.9" transform="matrix(0.7065 -0.7078 0.7078 0.7065 113.4795 180.5693)" class="st1" width="164.1" height="0.8"/>
		</g>
		<g>
			
				<rect x="194.2" y="-46.9" transform="matrix(0.7065 -0.7078 0.7078 0.7065 114.0084 181.8445)" class="st1" width="164.1" height="0.8"/>
		</g>
		<g>
			
				<rect x="196" y="-46.9" transform="matrix(0.7065 -0.7078 0.7078 0.7065 114.5376 183.1204)" class="st1" width="164.1" height="0.8"/>
		</g>
		<g>
			
				<rect x="197.8" y="-46.9" transform="matrix(0.7065 -0.7078 0.7078 0.7065 115.0668 184.3963)" class="st1" width="164.1" height="0.8"/>
		</g>
		<g>
			
				<rect x="199.6" y="-46.9" transform="matrix(0.7065 -0.7078 0.7078 0.7065 115.5958 185.6719)" class="st1" width="164.1" height="0.8"/>
		</g>
		<g>
			
				<rect x="201.4" y="-46.9" transform="matrix(0.7065 -0.7078 0.7078 0.7065 116.1249 186.9474)" class="st1" width="164.1" height="0.8"/>
		</g>
		<g>
			
				<rect x="203.2" y="-46.9" transform="matrix(0.7065 -0.7078 0.7078 0.7065 116.654 188.2233)" class="st1" width="164.1" height="0.8"/>
		</g>
		<g>
			
				<rect x="205" y="-46.9" transform="matrix(0.7065 -0.7078 0.7078 0.7065 117.1832 189.4992)" class="st1" width="164.1" height="0.8"/>
		</g>
		<g>
			
				<rect x="206.8" y="-46.9" transform="matrix(0.7065 -0.7078 0.7078 0.7065 117.7123 190.7748)" class="st1" width="164.1" height="0.8"/>
		</g>
		<g>
			
				<rect x="208.6" y="-46.9" transform="matrix(0.7065 -0.7078 0.7078 0.7065 118.2413 192.0503)" class="st1" width="164.1" height="0.8"/>
		</g>
		<g>
			
				<rect x="210.4" y="-46.9" transform="matrix(0.7065 -0.7078 0.7078 0.7065 118.7705 193.3262)" class="st1" width="164.1" height="0.8"/>
		</g>
		<g>
			
				<rect x="212.2" y="-46.9" transform="matrix(0.7065 -0.7078 0.7078 0.7065 119.2997 194.6021)" class="st1" width="164.1" height="0.8"/>
		</g>
		<g>
			
				<rect x="214" y="-46.9" transform="matrix(0.7065 -0.7078 0.7078 0.7065 119.8287 195.8777)" class="st1" width="164.1" height="0.8"/>
		</g>
		<g>
			
				<rect x="215.8" y="-46.9" transform="matrix(0.7065 -0.7078 0.7078 0.7065 120.3577 197.1532)" class="st1" width="164.1" height="0.8"/>
		</g>
		<g>
			
				<rect x="217.6" y="-46.9" transform="matrix(0.7065 -0.7078 0.7078 0.7065 120.8869 198.4291)" class="st1" width="164.1" height="0.8"/>
		</g>
		<g>
			
				<rect x="219.4" y="-46.9" transform="matrix(0.7065 -0.7078 0.7078 0.7065 121.4161 199.705)" class="st1" width="164.1" height="0.8"/>
		</g>
		<g>
			
				<rect x="221.2" y="-46.9" transform="matrix(0.7065 -0.7078 0.7078 0.7065 121.9451 200.9806)" class="st1" width="164.1" height="0.8"/>
		</g>
		<g>
			
				<rect x="223" y="-46.9" transform="matrix(0.7065 -0.7078 0.7078 0.7065 122.4742 202.2561)" class="st1" width="164.1" height="0.8"/>
		</g>
		<g>
			
				<rect x="224.8" y="-46.9" transform="matrix(0.7065 -0.7078 0.7078 0.7065 123.0034 203.532)" class="st1" width="164.1" height="0.8"/>
		</g>
		<g>
			
				<rect x="226.6" y="-46.9" transform="matrix(0.7065 -0.7078 0.7078 0.7065 123.5325 204.8079)" class="st1" width="164.1" height="0.8"/>
		</g>
		<g>
			
				<rect x="228.4" y="-46.9" transform="matrix(0.7065 -0.7078 0.7078 0.7065 124.0614 206.0831)" class="st1" width="164.1" height="0.8"/>
		</g>
		<g>
			
				<rect x="230.2" y="-46.9" transform="matrix(0.7065 -0.7078 0.7078 0.7065 124.5906 207.359)" class="st1" width="164.1" height="0.8"/>
		</g>
		<g>
			
				<rect x="232" y="-46.9" transform="matrix(0.7065 -0.7078 0.7078 0.7065 125.1198 208.6349)" class="st1" width="164.1" height="0.8"/>
		</g>
		<g>
			
				<rect x="233.8" y="-46.9" transform="matrix(0.7065 -0.7078 0.7078 0.7065 125.6488 209.9105)" class="st1" width="164.1" height="0.8"/>
		</g>
		<g>
			
				<rect x="235.6" y="-46.9" transform="matrix(0.7065 -0.7078 0.7078 0.7065 126.1779 211.186)" class="st1" width="164.1" height="0.8"/>
		</g>
		<g>
			
				<rect x="237.4" y="-46.9" transform="matrix(0.7065 -0.7078 0.7078 0.7065 126.7071 212.4619)" class="st1" width="164.1" height="0.8"/>
		</g>
		<g>
			
				<rect x="239.2" y="-46.9" transform="matrix(0.7065 -0.7078 0.7078 0.7065 127.2362 213.7378)" class="st1" width="164.1" height="0.8"/>
		</g>
		<g>
			
				<rect x="241" y="-46.9" transform="matrix(0.7065 -0.7078 0.7078 0.7065 127.7653 215.0134)" class="st1" width="164.1" height="0.8"/>
		</g>
		<g>
			
				<rect x="242.8" y="-46.9" transform="matrix(0.7065 -0.7078 0.7078 0.7065 128.2943 216.2889)" class="st1" width="164.1" height="0.8"/>
		</g>
		<g>
			
				<rect x="244.6" y="-46.9" transform="matrix(0.7065 -0.7078 0.7078 0.7065 128.8235 217.5648)" class="st1" width="164.1" height="0.8"/>
		</g>
		<g>
			
				<rect x="246.4" y="-46.9" transform="matrix(0.7065 -0.7078 0.7078 0.7065 129.3527 218.8407)" class="st1" width="164.1" height="0.8"/>
		</g>
		<g>
			
				<rect x="248.2" y="-46.9" transform="matrix(0.7065 -0.7078 0.7078 0.7065 129.8817 220.1163)" class="st1" width="164.1" height="0.8"/>
		</g>
		<g>
			
				<rect x="250" y="-46.9" transform="matrix(0.7065 -0.7078 0.7078 0.7065 130.4108 221.3918)" class="st1" width="164.1" height="0.8"/>
		</g>
		<g>
			
				<rect x="251.8" y="-46.9" transform="matrix(0.7065 -0.7078 0.7078 0.7065 130.9399 222.6677)" class="st1" width="164.1" height="0.8"/>
		</g>
		<g>
			
				<rect x="253.6" y="-46.9" transform="matrix(0.7065 -0.7078 0.7078 0.7065 131.4691 223.9436)" class="st1" width="164.1" height="0.8"/>
		</g>
		<g>
			
				<rect x="255.4" y="-46.9" transform="matrix(0.7065 -0.7078 0.7078 0.7065 131.998 225.2188)" class="st1" width="164.1" height="0.8"/>
		</g>
		<g>
			
				<rect x="257.3" y="-46.9" transform="matrix(0.7065 -0.7078 0.7078 0.7065 132.5272 226.4947)" class="st1" width="164.1" height="0.8"/>
		</g>
		<g>
			
				<rect x="259.1" y="-46.9" transform="matrix(0.7065 -0.7078 0.7078 0.7065 133.0564 227.7706)" class="st1" width="164.1" height="0.8"/>
		</g>
		<g>
			
				<rect x="260.9" y="-46.9" transform="matrix(0.7065 -0.7078 0.7078 0.7065 133.5854 229.0462)" class="st1" width="164.1" height="0.8"/>
		</g>
		<g>
			
				<rect x="262.7" y="-46.9" transform="matrix(0.7065 -0.7078 0.7078 0.7065 134.1145 230.3217)" class="st1" width="164.1" height="0.8"/>
		</g>
		<g>
			
				<rect x="264.5" y="-46.9" transform="matrix(0.7065 -0.7078 0.7078 0.7065 134.6436 231.5976)" class="st1" width="164.1" height="0.8"/>
		</g>
		<g>
			
				<rect x="266.3" y="-46.9" transform="matrix(0.7065 -0.7078 0.7078 0.7065 135.1728 232.8735)" class="st1" width="164.1" height="0.8"/>
		</g>
		<g>
			
				<rect x="268.1" y="-46.9" transform="matrix(0.7065 -0.7078 0.7078 0.7065 135.7019 234.1491)" class="st1" width="164.1" height="0.8"/>
		</g>
		<g>
			
				<rect x="269.9" y="-46.9" transform="matrix(0.7065 -0.7078 0.7078 0.7065 136.2309 235.4246)" class="st1" width="164.1" height="0.8"/>
		</g>
		<g>
			
				<rect x="271.7" y="-46.9" transform="matrix(0.7065 -0.7078 0.7078 0.7065 136.7601 236.7005)" class="st1" width="164.1" height="0.8"/>
		</g>
		<g>
			
				<rect x="273.5" y="-46.9" transform="matrix(0.7065 -0.7078 0.7078 0.7065 137.2893 237.9764)" class="st1" width="164.1" height="0.8"/>
		</g>
		<g>
			
				<rect x="275.3" y="-46.9" transform="matrix(0.7065 -0.7078 0.7078 0.7065 137.8183 239.252)" class="st1" width="164.1" height="0.8"/>
		</g>
		<g>
			
				<rect x="277.1" y="-46.9" transform="matrix(0.7065 -0.7078 0.7078 0.7065 138.3474 240.5275)" class="st1" width="164.1" height="0.8"/>
		</g>
		<g>
			
				<rect x="278.9" y="-46.9" transform="matrix(0.7065 -0.7078 0.7078 0.7065 138.8765 241.8034)" class="st1" width="164.1" height="0.8"/>
		</g>
		<g>
			
				<rect x="280.7" y="-46.9" transform="matrix(0.7065 -0.7078 0.7078 0.7065 139.4057 243.0793)" class="st1" width="164.1" height="0.8"/>
		</g>
		<g>
			
				<rect x="282.5" y="-46.9" transform="matrix(0.7065 -0.7078 0.7078 0.7065 139.9346 244.3545)" class="st1" width="164.1" height="0.8"/>
		</g>
		<g>
			
				<rect x="284.3" y="-46.9" transform="matrix(0.7065 -0.7078 0.7078 0.7065 140.4638 245.6304)" class="st1" width="164.1" height="0.8"/>
		</g>
		<g>
			
				<rect x="286.1" y="-46.9" transform="matrix(0.7065 -0.7078 0.7078 0.7065 140.993 246.9063)" class="st1" width="164.1" height="0.8"/>
		</g>
		<g>
			
				<rect x="287.9" y="-46.9" transform="matrix(0.7065 -0.7078 0.7078 0.7065 141.522 248.1819)" class="st1" width="164.1" height="0.8"/>
		</g>
		<g>
			
				<rect x="289.7" y="-46.9" transform="matrix(0.7065 -0.7078 0.7078 0.7065 142.051 249.4574)" class="st1" width="164.1" height="0.8"/>
		</g>
		<g>
			
				<rect x="291.5" y="-46.9" transform="matrix(0.7065 -0.7078 0.7078 0.7065 142.5802 250.7333)" class="st1" width="164.1" height="0.8"/>
		</g>
		<g>
			
				<rect x="293.3" y="-46.9" transform="matrix(0.7065 -0.7078 0.7078 0.7065 143.1094 252.0092)" class="st1" width="164.1" height="0.8"/>
		</g>
		<g>
			
				<rect x="295.1" y="-46.9" transform="matrix(0.7065 -0.7078 0.7078 0.7065 143.6384 253.2848)" class="st1" width="164.1" height="0.8"/>
		</g>
		<g>
			
				<rect x="296.9" y="-46.9" transform="matrix(0.7065 -0.7078 0.7078 0.7065 144.1675 254.5603)" class="st1" width="164.1" height="0.8"/>
		</g>
		<g>
			
				<rect x="298.7" y="-46.9" transform="matrix(0.7065 -0.7078 0.7078 0.7065 144.6967 255.8362)" class="st1" width="164.1" height="0.8"/>
		</g>
		<g>
			
				<rect x="300.5" y="-46.9" transform="matrix(0.7065 -0.7078 0.7078 0.7065 145.2258 257.1121)" class="st1" width="164.1" height="0.8"/>
		</g>
		<g>
			
				<rect x="302.3" y="-46.9" transform="matrix(0.7065 -0.7078 0.7078 0.7065 145.7549 258.3877)" class="st1" width="164.1" height="0.8"/>
		</g>
		<g>
			
				<rect x="304.1" y="-46.9" transform="matrix(0.7065 -0.7078 0.7078 0.7065 146.2839 259.6632)" class="st1" width="164.1" height="0.8"/>
		</g>
		<g>
			
				<rect x="305.9" y="-46.9" transform="matrix(0.7065 -0.7078 0.7078 0.7065 146.8131 260.9391)" class="st1" width="164.1" height="0.8"/>
		</g>
		<g>
			
				<rect x="307.7" y="-46.9" transform="matrix(0.7065 -0.7078 0.7078 0.7065 147.3423 262.215)" class="st1" width="164.1" height="0.8"/>
		</g>
		<g>
			
				<rect x="309.5" y="-46.9" transform="matrix(0.7065 -0.7078 0.7078 0.7065 147.8713 263.4906)" class="st1" width="164.1" height="0.8"/>
		</g>
		<g>
			
				<rect x="311.3" y="-46.9" transform="matrix(0.7065 -0.7078 0.7078 0.7065 148.4004 264.7661)" class="st1" width="164.1" height="0.8"/>
		</g>
		<g>
			
				<rect x="313.1" y="-46.9" transform="matrix(0.7065 -0.7078 0.7078 0.7065 148.9296 266.042)" class="st1" width="164.1" height="0.8"/>
		</g>
		<g>
			
				<rect x="314.9" y="-46.9" transform="matrix(0.7065 -0.7078 0.7078 0.7065 149.4587 267.3179)" class="st1" width="164.1" height="0.8"/>
		</g>
		<g>
			
				<rect x="316.7" y="-46.9" transform="matrix(0.7065 -0.7078 0.7078 0.7065 149.9876 268.5931)" class="st1" width="164.1" height="0.8"/>
		</g>
		<g>
			
				<rect x="318.5" y="-46.9" transform="matrix(0.7065 -0.7078 0.7078 0.7065 150.5168 269.869)" class="st1" width="164.1" height="0.8"/>
		</g>
		<g>
			
				<rect x="320.3" y="-46.9" transform="matrix(0.7065 -0.7078 0.7078 0.7065 151.046 271.1449)" class="st1" width="164.1" height="0.8"/>
		</g>
		<g>
			
				<rect x="322.1" y="-46.9" transform="matrix(0.7065 -0.7078 0.7078 0.7065 151.575 272.4205)" class="st1" width="164.1" height="0.8"/>
		</g>
		<g>
			
				<rect x="323.9" y="-46.9" transform="matrix(0.7065 -0.7078 0.7078 0.7065 152.1041 273.696)" class="st1" width="164.1" height="0.8"/>
		</g>
		<g>
			
				<rect x="325.7" y="-46.9" transform="matrix(0.7065 -0.7078 0.7078 0.7065 152.6333 274.9719)" class="st1" width="164.1" height="0.8"/>
		</g>
		<g>
			
				<rect x="327.5" y="-46.9" transform="matrix(0.7065 -0.7078 0.7078 0.7065 153.1624 276.2478)" class="st1" width="164.1" height="0.8"/>
		</g>
		<g>
			
				<rect x="329.4" y="-46.9" transform="matrix(0.7065 -0.7078 0.7078 0.7065 153.6915 277.5234)" class="st1" width="164.1" height="0.8"/>
		</g>
		<g>
			
				<rect x="331.2" y="-46.9" transform="matrix(0.7065 -0.7078 0.7078 0.7065 154.2205 278.7989)" class="st1" width="164.1" height="0.8"/>
		</g>
		<g>
			
				<rect x="333" y="-46.9" transform="matrix(0.7065 -0.7078 0.7078 0.7065 154.7497 280.0748)" class="st1" width="164.1" height="0.8"/>
		</g>
		<g>
			
				<rect x="334.8" y="-46.9" transform="matrix(0.7065 -0.7078 0.7078 0.7065 155.2789 281.3507)" class="st1" width="164.1" height="0.8"/>
		</g>
		<g>
			
				<rect x="336.6" y="-46.9" transform="matrix(0.7065 -0.7078 0.7078 0.7065 155.8079 282.6263)" class="st1" width="164.1" height="0.8"/>
		</g>
		<g>
			
				<rect x="338.4" y="-46.9" transform="matrix(0.7065 -0.7078 0.7078 0.7065 156.337 283.9018)" class="st1" width="164.1" height="0.8"/>
		</g>
		<g>
			
				<rect x="340.2" y="-46.9" transform="matrix(0.7065 -0.7078 0.7078 0.7065 156.8661 285.1777)" class="st1" width="164.1" height="0.8"/>
		</g>
	</g>
</g>
<g>
	<defs>
		<path id="SVGID_3_" d="M267,8.6h-6.3v3.8h6.2v2.2h-6.2v5.3h6.3v2.2h-8.7V6.3h8.7V8.6z M273.3,22.2V6.3h3.3c1.6,0,2.8,0.2,3.8,0.5
			c1,0.3,1.9,0.8,2.7,1.6c1.6,1.5,2.5,3.4,2.5,5.9c0,2.4-0.9,4.4-2.6,5.9c-0.9,0.8-1.8,1.3-2.7,1.6c-0.9,0.3-2.1,0.4-3.7,0.4H273.3z
			 M275.6,19.9h1.1c1.1,0,2-0.1,2.7-0.3c0.7-0.2,1.4-0.6,1.9-1.1c1.2-1.1,1.8-2.5,1.8-4.2c0-1.7-0.6-3.1-1.7-4.2
			c-1-1-2.6-1.4-4.6-1.4h-1.1V19.9z M294,6.3v9.5c0,1.4,0.2,2.4,0.7,3c0.7,0.9,1.6,1.4,2.8,1.4c1.2,0,2.1-0.5,2.8-1.4
			c0.4-0.6,0.7-1.6,0.7-3V6.3h2.4v10.2c0,1.7-0.5,3-1.6,4.1c-1.2,1.2-2.6,1.8-4.3,1.8s-3.1-0.6-4.3-1.8c-1-1.1-1.6-2.5-1.6-4.1V6.3
			H294z M322,7.2V10c-1.4-1.2-2.8-1.7-4.3-1.7c-1.6,0-3,0.6-4.1,1.8c-1.1,1.2-1.7,2.6-1.7,4.3c0,1.7,0.6,3.1,1.7,4.2
			s2.5,1.7,4.1,1.7c0.8,0,1.6-0.1,2.1-0.4c0.3-0.1,0.7-0.3,1-0.6s0.7-0.5,1.1-0.8v2.9c-1.4,0.8-2.8,1.2-4.3,1.2
			c-2.3,0-4.2-0.8-5.8-2.4c-1.6-1.6-2.4-3.5-2.4-5.8c0-2,0.7-3.8,2-5.4c1.6-1.9,3.8-2.9,6.4-2.9C319.3,6,320.7,6.4,322,7.2z
			 M337.9,18.3h-6.8l-1.8,3.8h-2.6l7.8-16.8l7.6,16.8h-2.6L337.9,18.3z M336.9,16.1l-2.3-5.4l-2.5,5.4H336.9z M352.6,15.4l4.9,6.7
			h-2.9l-4.5-6.5h-0.4v6.5h-2.4V6.3h2.8c2.1,0,3.6,0.4,4.5,1.2c1,0.9,1.5,2,1.5,3.5c0,1.1-0.3,2.1-1,2.9S353.7,15.2,352.6,15.4z
			 M349.7,13.6h0.8c2.3,0,3.4-0.9,3.4-2.6c0-1.6-1.1-2.4-3.3-2.4h-0.9V13.6z"/>
	</defs>
	<clipPath id="SVGID_4_">
		<use xlink:href="#SVGID_3_"  style="overflow:visible;"/>
	</clipPath>
	<g class="st2">
		<g>
			
				<rect x="158.3" y="-7.2" transform="matrix(0.7065 -0.7078 0.7078 0.7065 75.4093 168.131)" class="st1" width="164.1" height="0.8"/>
		</g>
		<g>
			
				<rect x="160.1" y="-7.2" transform="matrix(0.7065 -0.7078 0.7078 0.7065 75.9383 169.4066)" class="st1" width="164.1" height="0.8"/>
		</g>
		<g>
			
				<rect x="161.9" y="-7.2" transform="matrix(0.7065 -0.7078 0.7078 0.7065 76.4674 170.6821)" class="st1" width="164.1" height="0.8"/>
		</g>
		<g>
			
				<rect x="163.7" y="-7.2" transform="matrix(0.7065 -0.7078 0.7078 0.7065 76.9966 171.958)" class="st1" width="164.1" height="0.8"/>
		</g>
		<g>
			
				<rect x="165.5" y="-7.2" transform="matrix(0.7065 -0.7078 0.7078 0.7065 77.5257 173.2339)" class="st1" width="164.1" height="0.8"/>
		</g>
		<g>
			
				<rect x="167.3" y="-7.2" transform="matrix(0.7065 -0.7078 0.7078 0.7065 78.0546 174.5091)" class="st1" width="164.1" height="0.8"/>
		</g>
		<g>
			
				<rect x="169.1" y="-7.2" transform="matrix(0.7065 -0.7078 0.7078 0.7065 78.5838 175.785)" class="st1" width="164.1" height="0.8"/>
		</g>
		<g>
			
				<rect x="171" y="-7.2" transform="matrix(0.7065 -0.7078 0.7078 0.7065 79.113 177.0609)" class="st1" width="164.1" height="0.8"/>
		</g>
		<g>
			
				<rect x="172.8" y="-7.2" transform="matrix(0.7065 -0.7078 0.7078 0.7065 79.642 178.3365)" class="st1" width="164.1" height="0.8"/>
		</g>
		<g>
			
				<rect x="174.6" y="-7.2" transform="matrix(0.7065 -0.7078 0.7078 0.7065 80.1711 179.612)" class="st1" width="164.1" height="0.8"/>
		</g>
		<g>
			
				<rect x="176.4" y="-7.2" transform="matrix(0.7065 -0.7078 0.7078 0.7065 80.7003 180.8879)" class="st1" width="164.1" height="0.8"/>
		</g>
		<g>
			
				<rect x="178.2" y="-7.2" transform="matrix(0.7065 -0.7078 0.7078 0.7065 81.2294 182.1638)" class="st1" width="164.1" height="0.8"/>
		</g>
		<g>
			
				<rect x="180" y="-7.2" transform="matrix(0.7065 -0.7078 0.7078 0.7065 81.7585 183.4394)" class="st1" width="164.1" height="0.8"/>
		</g>
		<g>
			
				<rect x="181.8" y="-7.2" transform="matrix(0.7065 -0.7078 0.7078 0.7065 82.2875 184.7149)" class="st1" width="164.1" height="0.8"/>
		</g>
		<g>
			
				<rect x="183.6" y="-7.2" transform="matrix(0.7065 -0.7078 0.7078 0.7065 82.8167 185.9908)" class="st1" width="164.1" height="0.8"/>
		</g>
		<g>
			
				<rect x="185.4" y="-7.2" transform="matrix(0.7065 -0.7078 0.7078 0.7065 83.3459 187.2667)" class="st1" width="164.1" height="0.8"/>
		</g>
		<g>
			
				<rect x="187.2" y="-7.2" transform="matrix(0.7065 -0.7078 0.7078 0.7065 83.8749 188.5423)" class="st1" width="164.1" height="0.8"/>
		</g>
		<g>
			
				<rect x="189" y="-7.2" transform="matrix(0.7065 -0.7078 0.7078 0.7065 84.404 189.8178)" class="st1" width="164.1" height="0.8"/>
		</g>
		<g>
			
				<rect x="190.8" y="-7.2" transform="matrix(0.7065 -0.7078 0.7078 0.7065 84.9331 191.0937)" class="st1" width="164.1" height="0.8"/>
		</g>
		<g>
			
				<rect x="192.6" y="-7.2" transform="matrix(0.7065 -0.7078 0.7078 0.7065 85.4623 192.3696)" class="st1" width="164.1" height="0.8"/>
		</g>
		<g>
			
				<rect x="194.4" y="-7.2" transform="matrix(0.7065 -0.7078 0.7078 0.7065 85.9912 193.6448)" class="st1" width="164.1" height="0.8"/>
		</g>
		<g>
			
				<rect x="196.2" y="-7.2" transform="matrix(0.7065 -0.7078 0.7078 0.7065 86.5204 194.9207)" class="st1" width="164.1" height="0.8"/>
		</g>
		<g>
			
				<rect x="198" y="-7.2" transform="matrix(0.7065 -0.7078 0.7078 0.7065 87.0496 196.1966)" class="st1" width="164.1" height="0.8"/>
		</g>
		<g>
			
				<rect x="199.8" y="-7.2" transform="matrix(0.7065 -0.7078 0.7078 0.7065 87.5786 197.4722)" class="st1" width="164.1" height="0.8"/>
		</g>
		<g>
			
				<rect x="201.6" y="-7.2" transform="matrix(0.7065 -0.7078 0.7078 0.7065 88.1077 198.7477)" class="st1" width="164.1" height="0.8"/>
		</g>
		<g>
			
				<rect x="203.4" y="-7.2" transform="matrix(0.7065 -0.7078 0.7078 0.7065 88.6368 200.0236)" class="st1" width="164.1" height="0.8"/>
		</g>
		<g>
			
				<rect x="205.2" y="-7.2" transform="matrix(0.7065 -0.7078 0.7078 0.7065 89.166 201.2995)" class="st1" width="164.1" height="0.8"/>
		</g>
		<g>
			
				<rect x="207" y="-7.2" transform="matrix(0.7065 -0.7078 0.7078 0.7065 89.6951 202.5751)" class="st1" width="164.1" height="0.8"/>
		</g>
		<g>
			
				<rect x="208.8" y="-7.2" transform="matrix(0.7065 -0.7078 0.7078 0.7065 90.2241 203.8506)" class="st1" width="164.1" height="0.8"/>
		</g>
		<g>
			
				<rect x="210.6" y="-7.2" transform="matrix(0.7065 -0.7078 0.7078 0.7065 90.7533 205.1265)" class="st1" width="164.1" height="0.8"/>
		</g>
		<g>
			
				<rect x="212.4" y="-7.2" transform="matrix(0.7065 -0.7078 0.7078 0.7065 91.2825 206.4024)" class="st1" width="164.1" height="0.8"/>
		</g>
		<g>
			
				<rect x="214.2" y="-7.2" transform="matrix(0.7065 -0.7078 0.7078 0.7065 91.8115 207.678)" class="st1" width="164.1" height="0.8"/>
		</g>
		<g>
			
				<rect x="216" y="-7.2" transform="matrix(0.7065 -0.7078 0.7078 0.7065 92.3405 208.9535)" class="st1" width="164.1" height="0.8"/>
		</g>
		<g>
			
				<rect x="217.8" y="-7.2" transform="matrix(0.7065 -0.7078 0.7078 0.7065 92.8697 210.2294)" class="st1" width="164.1" height="0.8"/>
		</g>
		<g>
			
				<rect x="219.6" y="-7.2" transform="matrix(0.7065 -0.7078 0.7078 0.7065 93.3989 211.5053)" class="st1" width="164.1" height="0.8"/>
		</g>
		<g>
			
				<rect x="221.4" y="-7.2" transform="matrix(0.7065 -0.7078 0.7078 0.7065 93.9279 212.7809)" class="st1" width="164.1" height="0.8"/>
		</g>
		<g>
			
				<rect x="223.2" y="-7.2" transform="matrix(0.7065 -0.7078 0.7078 0.7065 94.457 214.0564)" class="st1" width="164.1" height="0.8"/>
		</g>
		<g>
			
				<rect x="225" y="-7.2" transform="matrix(0.7065 -0.7078 0.7078 0.7065 94.9862 215.3323)" class="st1" width="164.1" height="0.8"/>
		</g>
		<g>
			
				<rect x="226.8" y="-7.2" transform="matrix(0.7065 -0.7078 0.7078 0.7065 95.5153 216.6082)" class="st1" width="164.1" height="0.8"/>
		</g>
		<g>
			
				<rect x="228.6" y="-7.2" transform="matrix(0.7065 -0.7078 0.7078 0.7065 96.0442 217.8835)" class="st1" width="164.1" height="0.8"/>
		</g>
		<g>
			
				<rect x="230.4" y="-7.2" transform="matrix(0.7065 -0.7078 0.7078 0.7065 96.5734 219.1593)" class="st1" width="164.1" height="0.8"/>
		</g>
		<g>
			
				<rect x="232.2" y="-7.2" transform="matrix(0.7065 -0.7078 0.7078 0.7065 97.1026 220.4352)" class="st1" width="164.1" height="0.8"/>
		</g>
		<g>
			
				<rect x="234" y="-7.2" transform="matrix(0.7065 -0.7078 0.7078 0.7065 97.6316 221.7108)" class="st1" width="164.1" height="0.8"/>
		</g>
		<g>
			
				<rect x="235.8" y="-7.2" transform="matrix(0.7065 -0.7078 0.7078 0.7065 98.1607 222.9863)" class="st1" width="164.1" height="0.8"/>
		</g>
		<g>
			
				<rect x="237.6" y="-7.2" transform="matrix(0.7065 -0.7078 0.7078 0.7065 98.6899 224.2622)" class="st1" width="164.1" height="0.8"/>
		</g>
		<g>
			
				<rect x="239.4" y="-7.2" transform="matrix(0.7065 -0.7078 0.7078 0.7065 99.219 225.5381)" class="st1" width="164.1" height="0.8"/>
		</g>
		<g>
			
				<rect x="241.2" y="-7.2" transform="matrix(0.7065 -0.7078 0.7078 0.7065 99.7481 226.8137)" class="st1" width="164.1" height="0.8"/>
		</g>
		<g>
			
				<rect x="243" y="-7.2" transform="matrix(0.7065 -0.7078 0.7078 0.7065 100.2771 228.0892)" class="st1" width="164.1" height="0.8"/>
		</g>
		<g>
			
				<rect x="244.9" y="-7.2" transform="matrix(0.7065 -0.7078 0.7078 0.7065 100.8063 229.3651)" class="st1" width="164.1" height="0.8"/>
		</g>
		<g>
			
				<rect x="246.7" y="-7.2" transform="matrix(0.7065 -0.7078 0.7078 0.7065 101.3355 230.641)" class="st1" width="164.1" height="0.8"/>
		</g>
		<g>
			
				<rect x="248.5" y="-7.2" transform="matrix(0.7065 -0.7078 0.7078 0.7065 101.8645 231.9166)" class="st1" width="164.1" height="0.8"/>
		</g>
		<g>
			
				<rect x="250.3" y="-7.2" transform="matrix(0.7065 -0.7078 0.7078 0.7065 102.3936 233.1922)" class="st1" width="164.1" height="0.8"/>
		</g>
		<g>
			
				<rect x="252.1" y="-7.2" transform="matrix(0.7065 -0.7078 0.7078 0.7065 102.9227 234.468)" class="st1" width="164.1" height="0.8"/>
		</g>
		<g>
			
				<rect x="253.9" y="-7.2" transform="matrix(0.7065 -0.7078 0.7078 0.7065 103.4519 235.7439)" class="st1" width="164.1" height="0.8"/>
		</g>
		<g>
			
				<rect x="255.7" y="-7.2" transform="matrix(0.7065 -0.7078 0.7078 0.7065 103.9808 237.0191)" class="st1" width="164.1" height="0.8"/>
		</g>
		<g>
			
				<rect x="257.5" y="-7.2" transform="matrix(0.7065 -0.7078 0.7078 0.7065 104.51 238.295)" class="st1" width="164.1" height="0.8"/>
		</g>
		<g>
			
				<rect x="259.3" y="-7.2" transform="matrix(0.7065 -0.7078 0.7078 0.7065 105.0392 239.5709)" class="st1" width="164.1" height="0.8"/>
		</g>
		<g>
			
				<rect x="261.1" y="-7.2" transform="matrix(0.7065 -0.7078 0.7078 0.7065 105.5682 240.8465)" class="st1" width="164.1" height="0.8"/>
		</g>
		<g>
			
				<rect x="262.9" y="-7.2" transform="matrix(0.7065 -0.7078 0.7078 0.7065 106.0973 242.1221)" class="st1" width="164.1" height="0.8"/>
		</g>
		<g>
			
				<rect x="264.7" y="-7.2" transform="matrix(0.7065 -0.7078 0.7078 0.7065 106.6264 243.3979)" class="st1" width="164.1" height="0.8"/>
		</g>
		<g>
			
				<rect x="266.5" y="-7.2" transform="matrix(0.7065 -0.7078 0.7078 0.7065 107.1556 244.6738)" class="st1" width="164.1" height="0.8"/>
		</g>
		<g>
			
				<rect x="268.3" y="-7.2" transform="matrix(0.7065 -0.7078 0.7078 0.7065 107.6847 245.9494)" class="st1" width="164.1" height="0.8"/>
		</g>
		<g>
			
				<rect x="270.1" y="-7.2" transform="matrix(0.7065 -0.7078 0.7078 0.7065 108.2137 247.2249)" class="st1" width="164.1" height="0.8"/>
		</g>
		<g>
			
				<rect x="271.9" y="-7.2" transform="matrix(0.7065 -0.7078 0.7078 0.7065 108.7429 248.5009)" class="st1" width="164.1" height="0.8"/>
		</g>
		<g>
			
				<rect x="273.7" y="-7.2" transform="matrix(0.7065 -0.7078 0.7078 0.7065 109.2721 249.7767)" class="st1" width="164.1" height="0.8"/>
		</g>
		<g>
			
				<rect x="275.5" y="-7.2" transform="matrix(0.7065 -0.7078 0.7078 0.7065 109.8011 251.0523)" class="st1" width="164.1" height="0.8"/>
		</g>
		<g>
			
				<rect x="277.3" y="-7.2" transform="matrix(0.7065 -0.7078 0.7078 0.7065 110.3301 252.3279)" class="st1" width="164.1" height="0.8"/>
		</g>
		<g>
			
				<rect x="279.1" y="-7.2" transform="matrix(0.7065 -0.7078 0.7078 0.7065 110.8593 253.6037)" class="st1" width="164.1" height="0.8"/>
		</g>
		<g>
			
				<rect x="280.9" y="-7.2" transform="matrix(0.7065 -0.7078 0.7078 0.7065 111.3885 254.8796)" class="st1" width="164.1" height="0.8"/>
		</g>
		<g>
			
				<rect x="282.7" y="-7.2" transform="matrix(0.7065 -0.7078 0.7078 0.7065 111.9174 256.1548)" class="st1" width="164.1" height="0.8"/>
		</g>
		<g>
			
				<rect x="284.5" y="-7.2" transform="matrix(0.7065 -0.7078 0.7078 0.7065 112.4466 257.4308)" class="st1" width="164.1" height="0.8"/>
		</g>
		<g>
			
				<rect x="286.3" y="-7.2" transform="matrix(0.7065 -0.7078 0.7078 0.7065 112.9758 258.7066)" class="st1" width="164.1" height="0.8"/>
		</g>
		<g>
			
				<rect x="288.1" y="-7.2" transform="matrix(0.7065 -0.7078 0.7078 0.7065 113.5048 259.9822)" class="st1" width="164.1" height="0.8"/>
		</g>
		<g>
			
				<rect x="289.9" y="-7.2" transform="matrix(0.7065 -0.7078 0.7078 0.7065 114.0338 261.2578)" class="st1" width="164.1" height="0.8"/>
		</g>
		<g>
			
				<rect x="291.7" y="-7.2" transform="matrix(0.7065 -0.7078 0.7078 0.7065 114.563 262.5337)" class="st1" width="164.1" height="0.8"/>
		</g>
		<g>
			
				<rect x="293.5" y="-7.2" transform="matrix(0.7065 -0.7078 0.7078 0.7065 115.0922 263.8095)" class="st1" width="164.1" height="0.8"/>
		</g>
		<g>
			
				<rect x="295.3" y="-7.2" transform="matrix(0.7065 -0.7078 0.7078 0.7065 115.6212 265.0851)" class="st1" width="164.1" height="0.8"/>
		</g>
		<g>
			
				<rect x="297.1" y="-7.2" transform="matrix(0.7065 -0.7078 0.7078 0.7065 116.1503 266.3607)" class="st1" width="164.1" height="0.8"/>
		</g>
		<g>
			
				<rect x="298.9" y="-7.2" transform="matrix(0.7065 -0.7078 0.7078 0.7065 116.6795 267.6366)" class="st1" width="164.1" height="0.8"/>
		</g>
		<g>
			
				<rect x="300.7" y="-7.2" transform="matrix(0.7065 -0.7078 0.7078 0.7065 117.2086 268.9124)" class="st1" width="164.1" height="0.8"/>
		</g>
		<g>
			
				<rect x="302.5" y="-7.2" transform="matrix(0.7065 -0.7078 0.7078 0.7065 117.7377 270.188)" class="st1" width="164.1" height="0.8"/>
		</g>
		<g>
			
				<rect x="304.3" y="-7.2" transform="matrix(0.7065 -0.7078 0.7078 0.7065 118.2667 271.4636)" class="st1" width="164.1" height="0.8"/>
		</g>
		<g>
			
				<rect x="306.1" y="-7.2" transform="matrix(0.7065 -0.7078 0.7078 0.7065 118.7959 272.7394)" class="st1" width="164.1" height="0.8"/>
		</g>
		<g>
			
				<rect x="307.9" y="-7.2" transform="matrix(0.7065 -0.7078 0.7078 0.7065 119.3251 274.0154)" class="st1" width="164.1" height="0.8"/>
		</g>
		<g>
			
				<rect x="309.7" y="-7.2" transform="matrix(0.7065 -0.7078 0.7078 0.7065 119.8541 275.2909)" class="st1" width="164.1" height="0.8"/>
		</g>
		<g>
			
				<rect x="311.5" y="-7.2" transform="matrix(0.7065 -0.7078 0.7078 0.7065 120.3832 276.5665)" class="st1" width="164.1" height="0.8"/>
		</g>
		<g>
			
				<rect x="313.3" y="-7.2" transform="matrix(0.7065 -0.7078 0.7078 0.7065 120.9123 277.8423)" class="st1" width="164.1" height="0.8"/>
		</g>
		<g>
			
				<rect x="315.1" y="-7.2" transform="matrix(0.7065 -0.7078 0.7078 0.7065 121.4415 279.1183)" class="st1" width="164.1" height="0.8"/>
		</g>
		<g>
			
				<rect x="317" y="-7.2" transform="matrix(0.7065 -0.7078 0.7078 0.7065 121.9704 280.3935)" class="st1" width="164.1" height="0.8"/>
		</g>
		<g>
			
				<rect x="318.8" y="-7.2" transform="matrix(0.7065 -0.7078 0.7078 0.7065 122.4996 281.6693)" class="st1" width="164.1" height="0.8"/>
		</g>
		<g>
			
				<rect x="320.6" y="-7.2" transform="matrix(0.7065 -0.7078 0.7078 0.7065 123.0288 282.9453)" class="st1" width="164.1" height="0.8"/>
		</g>
		<g>
			
				<rect x="322.4" y="-7.2" transform="matrix(0.7065 -0.7078 0.7078 0.7065 123.5578 284.2208)" class="st1" width="164.1" height="0.8"/>
		</g>
		<g>
			
				<rect x="324.2" y="-7.2" transform="matrix(0.7065 -0.7078 0.7078 0.7065 124.0869 285.4964)" class="st1" width="164.1" height="0.8"/>
		</g>
		<g>
			
				<rect x="326" y="-7.2" transform="matrix(0.7065 -0.7078 0.7078 0.7065 124.6161 286.7722)" class="st1" width="164.1" height="0.8"/>
		</g>
		<g>
			
				<rect x="327.8" y="-7.2" transform="matrix(0.7065 -0.7078 0.7078 0.7065 125.1452 288.0482)" class="st1" width="164.1" height="0.8"/>
		</g>
		<g>
			
				<rect x="329.6" y="-7.2" transform="matrix(0.7065 -0.7078 0.7078 0.7065 125.6743 289.3237)" class="st1" width="164.1" height="0.8"/>
		</g>
		<g>
			
				<rect x="331.4" y="-7.2" transform="matrix(0.7065 -0.7078 0.7078 0.7065 126.2033 290.5992)" class="st1" width="164.1" height="0.8"/>
		</g>
		<g>
			
				<rect x="333.2" y="-7.2" transform="matrix(0.7065 -0.7078 0.7078 0.7065 126.7325 291.8752)" class="st1" width="164.1" height="0.8"/>
		</g>
		<g>
			
				<rect x="335" y="-7.2" transform="matrix(0.7065 -0.7078 0.7078 0.7065 127.2617 293.1511)" class="st1" width="164.1" height="0.8"/>
		</g>
		<g>
			
				<rect x="336.8" y="-7.2" transform="matrix(0.7065 -0.7078 0.7078 0.7065 127.7907 294.4266)" class="st1" width="164.1" height="0.8"/>
		</g>
		<g>
			
				<rect x="338.6" y="-7.2" transform="matrix(0.7065 -0.7078 0.7078 0.7065 128.3197 295.7021)" class="st1" width="164.1" height="0.8"/>
		</g>
		<g>
			
				<rect x="340.4" y="-7.2" transform="matrix(0.7065 -0.7078 0.7078 0.7065 128.8489 296.9781)" class="st1" width="164.1" height="0.8"/>
		</g>
	</g>
</g>
<g>
	<defs>
		<path id="SVGID_5_" d="M242.6,60.8v2.8c-1.4-1.2-2.8-1.7-4.3-1.7c-1.6,0-3,0.6-4.1,1.8c-1.1,1.2-1.7,2.6-1.7,4.3
			c0,1.7,0.6,3.1,1.7,4.2s2.5,1.7,4.1,1.7c0.8,0,1.6-0.1,2.1-0.4c0.3-0.1,0.7-0.3,1-0.6c0.4-0.2,0.7-0.5,1.1-0.8V75
			c-1.4,0.8-2.8,1.2-4.3,1.2c-2.3,0-4.2-0.8-5.8-2.4c-1.6-1.6-2.4-3.5-2.4-5.8c0-2,0.7-3.8,2-5.4c1.6-1.9,3.8-2.9,6.4-2.9
			C239.9,59.7,241.3,60.1,242.6,60.8z M247.9,67.8c0-2.2,0.8-4.1,2.5-5.7c1.6-1.6,3.6-2.4,5.9-2.4c2.3,0,4.2,0.8,5.8,2.4
			c1.6,1.6,2.4,3.6,2.4,5.8c0,2.3-0.8,4.2-2.4,5.8c-1.6,1.6-3.6,2.4-5.9,2.4c-2,0-3.9-0.7-5.5-2.1C248.8,72.4,247.9,70.4,247.9,67.8
			z M250.3,67.9c0,1.8,0.6,3.2,1.8,4.3c1.2,1.1,2.5,1.7,4,1.7c1.7,0,3.1-0.6,4.2-1.7c1.1-1.2,1.7-2.6,1.7-4.2c0-1.7-0.6-3.1-1.7-4.2
			c-1.1-1.1-2.5-1.7-4.2-1.7c-1.6,0-3,0.6-4.2,1.7C250.9,64.8,250.3,66.2,250.3,67.9z M273,60v13.6h4.7v2.2h-7V60H273z M291.8,62.2
			h-6.3V66h6.2v2.2h-6.2v5.3h6.3v2.2h-8.7V60h8.7V62.2z M302.5,62.2v13.6h-2.4V62.2h-3.6V60h9.7v2.2H302.5z M313.8,60v15.8h-2.4V60
			H313.8z M321.5,60l4.4,11l4.4-11h2.6l-7.1,17l-6.9-17H321.5z M340.5,60v15.8h-2.4V60H340.5z M350.2,73.6h7.6v2.2h-11.5l7.8-13.6
			h-6.5V60h10.4L350.2,73.6z M373,72h-6.8l-1.8,3.8h-2.6l7.8-16.8l7.6,16.8h-2.6L373,72z M372,69.7l-2.3-5.4l-2.5,5.4H372z
			 M387.8,69.1l4.9,6.7h-2.9l-4.5-6.5h-0.4v6.5h-2.4V60h2.8c2.1,0,3.6,0.4,4.5,1.2c1,0.9,1.5,2,1.5,3.5c0,1.1-0.3,2.1-1,2.9
			S388.8,68.9,387.8,69.1z M384.8,67.3h0.8c2.3,0,3.4-0.9,3.4-2.6c0-1.6-1.1-2.4-3.3-2.4h-0.9V67.3z"/>
	</defs>
	<clipPath id="SVGID_6_">
		<use xlink:href="#SVGID_5_"  style="overflow:visible;"/>
	</clipPath>
	<g class="st3">
		<g>
			
				<rect x="161.3" y="47.1" transform="matrix(0.7065 -0.7078 0.7078 0.7065 37.834 186.1876)" class="st1" width="164.1" height="0.8"/>
		</g>
		<g>
			
				<rect x="163.1" y="47.1" transform="matrix(0.7065 -0.7078 0.7078 0.7065 38.363 187.4632)" class="st1" width="164.1" height="0.8"/>
		</g>
		<g>
			
				<rect x="164.9" y="47.1" transform="matrix(0.7065 -0.7078 0.7078 0.7065 38.8921 188.7387)" class="st1" width="164.1" height="0.8"/>
		</g>
		<g>
			
				<rect x="166.7" y="47.1" transform="matrix(0.7065 -0.7078 0.7078 0.7065 39.4213 190.0146)" class="st1" width="164.1" height="0.8"/>
		</g>
		<g>
			
				<rect x="168.5" y="47.1" transform="matrix(0.7065 -0.7078 0.7078 0.7065 39.9505 191.2905)" class="st1" width="164.1" height="0.8"/>
		</g>
		<g>
			
				<rect x="170.3" y="47.1" transform="matrix(0.7065 -0.7078 0.7078 0.7065 40.4793 192.5658)" class="st1" width="164.1" height="0.8"/>
		</g>
		<g>
			
				<rect x="172.1" y="47.1" transform="matrix(0.7065 -0.7078 0.7078 0.7065 41.0085 193.8416)" class="st1" width="164.1" height="0.8"/>
		</g>
		<g>
			
				<rect x="173.9" y="47.1" transform="matrix(0.7065 -0.7078 0.7078 0.7065 41.5377 195.1175)" class="st1" width="164.1" height="0.8"/>
		</g>
		<g>
			
				<rect x="175.7" y="47.1" transform="matrix(0.7065 -0.7078 0.7078 0.7065 42.0667 196.3931)" class="st1" width="164.1" height="0.8"/>
		</g>
		<g>
			
				<rect x="177.5" y="47.1" transform="matrix(0.7065 -0.7078 0.7078 0.7065 42.5958 197.6687)" class="st1" width="164.1" height="0.8"/>
		</g>
		<g>
			
				<rect x="179.3" y="47.1" transform="matrix(0.7065 -0.7078 0.7078 0.7065 43.125 198.9445)" class="st1" width="164.1" height="0.8"/>
		</g>
		<g>
			
				<rect x="181.1" y="47.1" transform="matrix(0.7065 -0.7078 0.7078 0.7065 43.6542 200.2204)" class="st1" width="164.1" height="0.8"/>
		</g>
		<g>
			
				<rect x="182.9" y="47.1" transform="matrix(0.7065 -0.7078 0.7078 0.7065 44.1832 201.496)" class="st1" width="164.1" height="0.8"/>
		</g>
		<g>
			
				<rect x="184.7" y="47.1" transform="matrix(0.7065 -0.7078 0.7078 0.7065 44.7122 202.7715)" class="st1" width="164.1" height="0.8"/>
		</g>
		<g>
			
				<rect x="186.5" y="47.1" transform="matrix(0.7065 -0.7078 0.7078 0.7065 45.2414 204.0474)" class="st1" width="164.1" height="0.8"/>
		</g>
		<g>
			
				<rect x="188.4" y="47.1" transform="matrix(0.7065 -0.7078 0.7078 0.7065 45.7706 205.3233)" class="st1" width="164.1" height="0.8"/>
		</g>
		<g>
			
				<rect x="190.2" y="47.1" transform="matrix(0.7065 -0.7078 0.7078 0.7065 46.2996 206.5989)" class="st1" width="164.1" height="0.8"/>
		</g>
		<g>
			
				<rect x="192" y="47.1" transform="matrix(0.7065 -0.7078 0.7078 0.7065 46.8287 207.8745)" class="st1" width="164.1" height="0.8"/>
		</g>
		<g>
			
				<rect x="193.8" y="47.1" transform="matrix(0.7065 -0.7078 0.7078 0.7065 47.3579 209.1503)" class="st1" width="164.1" height="0.8"/>
		</g>
		<g>
			
				<rect x="195.6" y="47.1" transform="matrix(0.7065 -0.7078 0.7078 0.7065 47.887 210.4262)" class="st1" width="164.1" height="0.8"/>
		</g>
		<g>
			
				<rect x="197.4" y="47.1" transform="matrix(0.7065 -0.7078 0.7078 0.7065 48.4159 211.7014)" class="st1" width="164.1" height="0.8"/>
		</g>
		<g>
			
				<rect x="199.2" y="47.1" transform="matrix(0.7065 -0.7078 0.7078 0.7065 48.9451 212.9774)" class="st1" width="164.1" height="0.8"/>
		</g>
		<g>
			
				<rect x="201" y="47.1" transform="matrix(0.7065 -0.7078 0.7078 0.7065 49.4743 214.2533)" class="st1" width="164.1" height="0.8"/>
		</g>
		<g>
			
				<rect x="202.8" y="47.1" transform="matrix(0.7065 -0.7078 0.7078 0.7065 50.0033 215.5288)" class="st1" width="164.1" height="0.8"/>
		</g>
		<g>
			
				<rect x="204.6" y="47.1" transform="matrix(0.7065 -0.7078 0.7078 0.7065 50.5324 216.8044)" class="st1" width="164.1" height="0.8"/>
		</g>
		<g>
			
				<rect x="206.4" y="47.1" transform="matrix(0.7065 -0.7078 0.7078 0.7065 51.0616 218.0802)" class="st1" width="164.1" height="0.8"/>
		</g>
		<g>
			
				<rect x="208.2" y="47.1" transform="matrix(0.7065 -0.7078 0.7078 0.7065 51.5907 219.3561)" class="st1" width="164.1" height="0.8"/>
		</g>
		<g>
			
				<rect x="210" y="47.1" transform="matrix(0.7065 -0.7078 0.7078 0.7065 52.1198 220.6317)" class="st1" width="164.1" height="0.8"/>
		</g>
		<g>
			
				<rect x="211.8" y="47.1" transform="matrix(0.7065 -0.7078 0.7078 0.7065 52.6488 221.9073)" class="st1" width="164.1" height="0.8"/>
		</g>
		<g>
			
				<rect x="213.6" y="47.1" transform="matrix(0.7065 -0.7078 0.7078 0.7065 53.178 223.1832)" class="st1" width="164.1" height="0.8"/>
		</g>
		<g>
			
				<rect x="215.4" y="47.1" transform="matrix(0.7065 -0.7078 0.7078 0.7065 53.7072 224.459)" class="st1" width="164.1" height="0.8"/>
		</g>
		<g>
			
				<rect x="217.2" y="47.1" transform="matrix(0.7065 -0.7078 0.7078 0.7065 54.2362 225.7346)" class="st1" width="164.1" height="0.8"/>
		</g>
		<g>
			
				<rect x="219" y="47.1" transform="matrix(0.7065 -0.7078 0.7078 0.7065 54.7653 227.0101)" class="st1" width="164.1" height="0.8"/>
		</g>
		<g>
			
				<rect x="220.8" y="47.1" transform="matrix(0.7065 -0.7078 0.7078 0.7065 55.2944 228.2861)" class="st1" width="164.1" height="0.8"/>
		</g>
		<g>
			
				<rect x="222.6" y="47.1" transform="matrix(0.7065 -0.7078 0.7078 0.7065 55.8236 229.562)" class="st1" width="164.1" height="0.8"/>
		</g>
		<g>
			
				<rect x="224.4" y="47.1" transform="matrix(0.7065 -0.7078 0.7078 0.7065 56.3527 230.8375)" class="st1" width="164.1" height="0.8"/>
		</g>
		<g>
			
				<rect x="226.2" y="47.1" transform="matrix(0.7065 -0.7078 0.7078 0.7065 56.8817 232.1131)" class="st1" width="164.1" height="0.8"/>
		</g>
		<g>
			
				<rect x="228" y="47.1" transform="matrix(0.7065 -0.7078 0.7078 0.7065 57.4109 233.3889)" class="st1" width="164.1" height="0.8"/>
		</g>
		<g>
			
				<rect x="229.8" y="47.1" transform="matrix(0.7065 -0.7078 0.7078 0.7065 57.9401 234.6648)" class="st1" width="164.1" height="0.8"/>
		</g>
		<g>
			
				<rect x="231.6" y="47.1" transform="matrix(0.7065 -0.7078 0.7078 0.7065 58.469 235.94)" class="st1" width="164.1" height="0.8"/>
		</g>
		<g>
			
				<rect x="233.4" y="47.1" transform="matrix(0.7065 -0.7078 0.7078 0.7065 58.9981 237.216)" class="st1" width="164.1" height="0.8"/>
		</g>
		<g>
			
				<rect x="235.2" y="47.1" transform="matrix(0.7065 -0.7078 0.7078 0.7065 59.5273 238.4919)" class="st1" width="164.1" height="0.8"/>
		</g>
		<g>
			
				<rect x="237" y="47.1" transform="matrix(0.7065 -0.7078 0.7078 0.7065 60.0564 239.7674)" class="st1" width="164.1" height="0.8"/>
		</g>
		<g>
			
				<rect x="238.8" y="47.1" transform="matrix(0.7065 -0.7078 0.7078 0.7065 60.5854 241.043)" class="st1" width="164.1" height="0.8"/>
		</g>
		<g>
			
				<rect x="240.6" y="47.1" transform="matrix(0.7065 -0.7078 0.7078 0.7065 61.1146 242.3188)" class="st1" width="164.1" height="0.8"/>
		</g>
		<g>
			
				<rect x="242.4" y="47.1" transform="matrix(0.7065 -0.7078 0.7078 0.7065 61.6438 243.5948)" class="st1" width="164.1" height="0.8"/>
		</g>
		<g>
			
				<rect x="244.2" y="47.1" transform="matrix(0.7065 -0.7078 0.7078 0.7065 62.1728 244.8703)" class="st1" width="164.1" height="0.8"/>
		</g>
		<g>
			
				<rect x="246" y="47.1" transform="matrix(0.7065 -0.7078 0.7078 0.7065 62.7018 246.1459)" class="st1" width="164.1" height="0.8"/>
		</g>
		<g>
			
				<rect x="247.8" y="47.1" transform="matrix(0.7065 -0.7078 0.7078 0.7065 63.231 247.4218)" class="st1" width="164.1" height="0.8"/>
		</g>
		<g>
			
				<rect x="249.6" y="47.1" transform="matrix(0.7065 -0.7078 0.7078 0.7065 63.7602 248.6976)" class="st1" width="164.1" height="0.8"/>
		</g>
		<g>
			
				<rect x="251.4" y="47.1" transform="matrix(0.7065 -0.7078 0.7078 0.7065 64.2892 249.9732)" class="st1" width="164.1" height="0.8"/>
		</g>
		<g>
			
				<rect x="253.2" y="47.1" transform="matrix(0.7065 -0.7078 0.7078 0.7065 64.8183 251.2487)" class="st1" width="164.1" height="0.8"/>
		</g>
		<g>
			
				<rect x="255" y="47.1" transform="matrix(0.7065 -0.7078 0.7078 0.7065 65.3475 252.5247)" class="st1" width="164.1" height="0.8"/>
		</g>
		<g>
			
				<rect x="256.8" y="47.1" transform="matrix(0.7065 -0.7078 0.7078 0.7065 65.8766 253.8006)" class="st1" width="164.1" height="0.8"/>
		</g>
		<g>
			
				<rect x="258.6" y="47.1" transform="matrix(0.7065 -0.7078 0.7078 0.7065 66.4055 255.0758)" class="st1" width="164.1" height="0.8"/>
		</g>
		<g>
			
				<rect x="260.4" y="47.1" transform="matrix(0.7065 -0.7078 0.7078 0.7065 66.9347 256.3517)" class="st1" width="164.1" height="0.8"/>
		</g>
		<g>
			
				<rect x="262.3" y="47.1" transform="matrix(0.7065 -0.7078 0.7078 0.7065 67.4639 257.6276)" class="st1" width="164.1" height="0.8"/>
		</g>
		<g>
			
				<rect x="264.1" y="47.1" transform="matrix(0.7065 -0.7078 0.7078 0.7065 67.9929 258.9031)" class="st1" width="164.1" height="0.8"/>
		</g>
		<g>
			
				<rect x="265.9" y="47.1" transform="matrix(0.7065 -0.7078 0.7078 0.7065 68.522 260.1786)" class="st1" width="164.1" height="0.8"/>
		</g>
		<g>
			
				<rect x="267.7" y="47.1" transform="matrix(0.7065 -0.7078 0.7078 0.7065 69.0512 261.4546)" class="st1" width="164.1" height="0.8"/>
		</g>
		<g>
			
				<rect x="269.5" y="47.1" transform="matrix(0.7065 -0.7078 0.7078 0.7065 69.5803 262.7305)" class="st1" width="164.1" height="0.8"/>
		</g>
		<g>
			
				<rect x="271.3" y="47.1" transform="matrix(0.7065 -0.7078 0.7078 0.7065 70.1094 264.006)" class="st1" width="164.1" height="0.8"/>
		</g>
		<g>
			
				<rect x="273.1" y="47.1" transform="matrix(0.7065 -0.7078 0.7078 0.7065 70.6384 265.2816)" class="st1" width="164.1" height="0.8"/>
		</g>
		<g>
			
				<rect x="274.9" y="47.1" transform="matrix(0.7065 -0.7078 0.7078 0.7065 71.1676 266.5575)" class="st1" width="164.1" height="0.8"/>
		</g>
		<g>
			
				<rect x="276.7" y="47.1" transform="matrix(0.7065 -0.7078 0.7078 0.7065 71.6968 267.8333)" class="st1" width="164.1" height="0.8"/>
		</g>
		<g>
			
				<rect x="278.5" y="47.1" transform="matrix(0.7065 -0.7078 0.7078 0.7065 72.2258 269.1089)" class="st1" width="164.1" height="0.8"/>
		</g>
		<g>
			
				<rect x="280.3" y="47.1" transform="matrix(0.7065 -0.7078 0.7078 0.7065 72.7549 270.3845)" class="st1" width="164.1" height="0.8"/>
		</g>
		<g>
			
				<rect x="282.1" y="47.1" transform="matrix(0.7065 -0.7078 0.7078 0.7065 73.284 271.6604)" class="st1" width="164.1" height="0.8"/>
		</g>
		<g>
			
				<rect x="283.9" y="47.1" transform="matrix(0.7065 -0.7078 0.7078 0.7065 73.8132 272.9362)" class="st1" width="164.1" height="0.8"/>
		</g>
		<g>
			
				<rect x="285.7" y="47.1" transform="matrix(0.7065 -0.7078 0.7078 0.7065 74.3421 274.2115)" class="st1" width="164.1" height="0.8"/>
		</g>
		<g>
			
				<rect x="287.5" y="47.1" transform="matrix(0.7065 -0.7078 0.7078 0.7065 74.8713 275.4874)" class="st1" width="164.1" height="0.8"/>
		</g>
		<g>
			
				<rect x="289.3" y="47.1" transform="matrix(0.7065 -0.7078 0.7078 0.7065 75.4005 276.7632)" class="st1" width="164.1" height="0.8"/>
		</g>
		<g>
			
				<rect x="291.1" y="47.1" transform="matrix(0.7065 -0.7078 0.7078 0.7065 75.9295 278.0388)" class="st1" width="164.1" height="0.8"/>
		</g>
		<g>
			
				<rect x="292.9" y="47.1" transform="matrix(0.7065 -0.7078 0.7078 0.7065 76.4586 279.3144)" class="st1" width="164.1" height="0.8"/>
		</g>
		<g>
			
				<rect x="294.7" y="47.1" transform="matrix(0.7065 -0.7078 0.7078 0.7065 76.9877 280.5903)" class="st1" width="164.1" height="0.8"/>
		</g>
		<g>
			
				<rect x="296.5" y="47.1" transform="matrix(0.7065 -0.7078 0.7078 0.7065 77.5169 281.8661)" class="st1" width="164.1" height="0.8"/>
		</g>
		<g>
			
				<rect x="298.3" y="47.1" transform="matrix(0.7065 -0.7078 0.7078 0.7065 78.046 283.1417)" class="st1" width="164.1" height="0.8"/>
		</g>
		<g>
			
				<rect x="300.1" y="47.1" transform="matrix(0.7065 -0.7078 0.7078 0.7065 78.575 284.4173)" class="st1" width="164.1" height="0.8"/>
		</g>
		<g>
			
				<rect x="301.9" y="47.1" transform="matrix(0.7065 -0.7078 0.7078 0.7065 79.1042 285.6931)" class="st1" width="164.1" height="0.8"/>
		</g>
		<g>
			
				<rect x="303.7" y="47.1" transform="matrix(0.7065 -0.7078 0.7078 0.7065 79.6334 286.9691)" class="st1" width="164.1" height="0.8"/>
		</g>
		<g>
			
				<rect x="305.5" y="47.1" transform="matrix(0.7065 -0.7078 0.7078 0.7065 80.1624 288.2446)" class="st1" width="164.1" height="0.8"/>
		</g>
		<g>
			
				<rect x="307.3" y="47.1" transform="matrix(0.7065 -0.7078 0.7078 0.7065 80.6914 289.5202)" class="st1" width="164.1" height="0.8"/>
		</g>
		<g>
			
				<rect x="309.1" y="47.1" transform="matrix(0.7065 -0.7078 0.7078 0.7065 81.2206 290.7961)" class="st1" width="164.1" height="0.8"/>
		</g>
		<g>
			
				<rect x="310.9" y="47.1" transform="matrix(0.7065 -0.7078 0.7078 0.7065 81.7498 292.072)" class="st1" width="164.1" height="0.8"/>
		</g>
		<g>
			
				<rect x="312.7" y="47.1" transform="matrix(0.7065 -0.7078 0.7078 0.7065 82.2788 293.3475)" class="st1" width="164.1" height="0.8"/>
		</g>
		<g>
			
				<rect x="314.5" y="47.1" transform="matrix(0.7065 -0.7078 0.7078 0.7065 82.8079 294.6231)" class="st1" width="164.1" height="0.8"/>
		</g>
		<g>
			
				<rect x="316.3" y="47.1" transform="matrix(0.7065 -0.7078 0.7078 0.7065 83.3371 295.899)" class="st1" width="164.1" height="0.8"/>
		</g>
		<g>
			
				<rect x="318.1" y="47.1" transform="matrix(0.7065 -0.7078 0.7078 0.7065 83.8662 297.1749)" class="st1" width="164.1" height="0.8"/>
		</g>
		<g>
			
				<rect x="319.9" y="47.1" transform="matrix(0.7065 -0.7078 0.7078 0.7065 84.3951 298.4501)" class="st1" width="164.1" height="0.8"/>
		</g>
		<g>
			
				<rect x="321.7" y="47.1" transform="matrix(0.7065 -0.7078 0.7078 0.7065 84.9243 299.726)" class="st1" width="164.1" height="0.8"/>
		</g>
		<g>
			
				<rect x="323.5" y="47.1" transform="matrix(0.7065 -0.7078 0.7078 0.7065 85.4535 301.0019)" class="st1" width="164.1" height="0.8"/>
		</g>
		<g>
			
				<rect x="325.3" y="47.1" transform="matrix(0.7065 -0.7078 0.7078 0.7065 85.9825 302.2774)" class="st1" width="164.1" height="0.8"/>
		</g>
		<g>
			
				<rect x="327.1" y="47.1" transform="matrix(0.7065 -0.7078 0.7078 0.7065 86.5116 303.553)" class="st1" width="164.1" height="0.8"/>
		</g>
		<g>
			
				<rect x="328.9" y="47.1" transform="matrix(0.7065 -0.7078 0.7078 0.7065 87.0408 304.8289)" class="st1" width="164.1" height="0.8"/>
		</g>
		<g>
			
				<rect x="330.7" y="47.1" transform="matrix(0.7065 -0.7078 0.7078 0.7065 87.5699 306.1048)" class="st1" width="164.1" height="0.8"/>
		</g>
		<g>
			
				<rect x="332.5" y="47.1" transform="matrix(0.7065 -0.7078 0.7078 0.7065 88.099 307.3803)" class="st1" width="164.1" height="0.8"/>
		</g>
		<g>
			
				<rect x="334.4" y="47.1" transform="matrix(0.7065 -0.7078 0.7078 0.7065 88.628 308.6559)" class="st1" width="164.1" height="0.8"/>
		</g>
		<g>
			
				<rect x="336.2" y="47.1" transform="matrix(0.7065 -0.7078 0.7078 0.7065 89.1572 309.9318)" class="st1" width="164.1" height="0.8"/>
		</g>
		<g>
			
				<rect x="338" y="47.1" transform="matrix(0.7065 -0.7078 0.7078 0.7065 89.6864 311.2077)" class="st1" width="164.1" height="0.8"/>
		</g>
		<g>
			
				<rect x="339.8" y="47.1" transform="matrix(0.7065 -0.7078 0.7078 0.7065 90.2154 312.4832)" class="st1" width="164.1" height="0.8"/>
		</g>
		<g>
			
				<rect x="341.6" y="47.1" transform="matrix(0.7065 -0.7078 0.7078 0.7065 90.7445 313.7588)" class="st1" width="164.1" height="0.8"/>
		</g>
		<g>
			
				<rect x="343.4" y="47.1" transform="matrix(0.7065 -0.7078 0.7078 0.7065 91.2736 315.0347)" class="st1" width="164.1" height="0.8"/>
		</g>
	</g>
</g>
<g id="Layer_2" class="st4">
	<rect y="-607.2" class="st5" width="617.6" height="853.8"/>
</g>
<g id="Layer_3">
</g>
<g>
	<path class="st6" d="M244.6,59.9v2.8c-1.4-1.2-2.8-1.7-4.3-1.7c-1.6,0-3,0.6-4.1,1.8c-1.1,1.2-1.7,2.6-1.7,4.3
		c0,1.7,0.6,3.1,1.7,4.2s2.5,1.7,4.1,1.7c0.8,0,1.6-0.1,2.1-0.4c0.3-0.1,0.7-0.3,1-0.6c0.4-0.2,0.7-0.5,1.1-0.8v2.9
		c-1.4,0.8-2.8,1.2-4.3,1.2c-2.3,0-4.2-0.8-5.8-2.4c-1.6-1.6-2.4-3.5-2.4-5.8c0-2,0.7-3.8,2-5.4c1.6-1.9,3.8-2.9,6.4-2.9
		C241.9,58.8,243.3,59.2,244.6,59.9z"/>
	<path class="st6" d="M249.9,66.9c0-2.2,0.8-4.1,2.5-5.7c1.6-1.6,3.6-2.4,5.9-2.4c2.3,0,4.2,0.8,5.8,2.4c1.6,1.6,2.4,3.6,2.4,5.8
		c0,2.3-0.8,4.2-2.4,5.8c-1.6,1.6-3.6,2.4-5.9,2.4c-2,0-3.9-0.7-5.5-2.1C250.8,71.5,249.9,69.5,249.9,66.9z M252.3,67
		c0,1.8,0.6,3.2,1.8,4.3c1.2,1.1,2.5,1.7,4.1,1.7c1.7,0,3.1-0.6,4.2-1.7c1.1-1.2,1.7-2.6,1.7-4.2c0-1.7-0.6-3.1-1.7-4.2
		c-1.1-1.1-2.5-1.7-4.2-1.7c-1.6,0-3,0.6-4.2,1.7C252.9,63.9,252.3,65.3,252.3,67z"/>
	<path class="st6" d="M275,59.1v13.6h4.7v2.2h-7V59.1H275z"/>
	<path class="st6" d="M293.8,61.3h-6.3v3.8h6.2v2.2h-6.2v5.3h6.3v2.2h-8.7V59.1h8.7V61.3z"/>
	<path class="st6" d="M304.5,61.3v13.6h-2.4V61.3h-3.6v-2.2h9.7v2.2H304.5z"/>
	<path class="st6" d="M315.8,59.1v15.8h-2.4V59.1H315.8z"/>
	<path class="st6" d="M323.5,59.1l4.4,11l4.4-11h2.6l-7.1,17l-6.9-17H323.5z"/>
	<path class="st6" d="M342.4,59.1v15.8h-2.4V59.1H342.4z"/>
	<path class="st6" d="M352.1,72.7h7.6v2.2h-11.5l7.8-13.6h-6.5v-2.2h10.4L352.1,72.7z"/>
	<path class="st6" d="M375,71.1h-6.8l-1.8,3.8h-2.6l7.8-16.8l7.6,16.8h-2.6L375,71.1z M374,68.8l-2.3-5.4l-2.5,5.4H374z"/>
	<path class="st6" d="M389.7,68.2l4.9,6.7h-2.9l-4.5-6.5h-0.4v6.5h-2.4V59.1h2.8c2.1,0,3.6,0.4,4.5,1.2c1,0.9,1.5,2,1.5,3.5
		c0,1.1-0.3,2.1-1,2.9S390.8,68,389.7,68.2z M386.8,66.4h0.8c2.3,0,3.4-0.9,3.4-2.6c0-1.6-1.1-2.4-3.3-2.4h-0.9V66.4z"/>
</g>
<g>
	<path class="st6" d="M268.8,7.7h-6.3v3.8h6.2v2.2h-6.2v5.3h6.3v2.2h-8.7V5.5h8.7V7.7z"/>
	<path class="st6" d="M275.1,21.3V5.5h3.3c1.6,0,2.9,0.2,3.8,0.5c1,0.3,1.9,0.8,2.7,1.6c1.6,1.5,2.5,3.4,2.5,5.9
		c0,2.4-0.9,4.4-2.6,5.9c-0.9,0.8-1.8,1.3-2.7,1.6c-0.9,0.3-2.1,0.4-3.7,0.4H275.1z M277.5,19.1h1.1c1.1,0,2-0.1,2.7-0.3
		c0.7-0.2,1.4-0.6,1.9-1.1c1.2-1.1,1.8-2.5,1.8-4.2c0-1.7-0.6-3.1-1.7-4.2c-1-1-2.6-1.4-4.6-1.4h-1.1V19.1z"/>
	<path class="st6" d="M295.9,5.5V15c0,1.4,0.2,2.4,0.7,3c0.7,0.9,1.6,1.4,2.8,1.4c1.2,0,2.1-0.5,2.8-1.4c0.4-0.6,0.7-1.6,0.7-3V5.5
		h2.4v10.2c0,1.7-0.5,3-1.6,4.1c-1.2,1.2-2.6,1.8-4.3,1.8s-3.1-0.6-4.3-1.8c-1-1.1-1.6-2.5-1.6-4.1V5.5H295.9z"/>
	<path class="st6" d="M323.9,6.3v2.8c-1.4-1.2-2.8-1.7-4.3-1.7c-1.6,0-3,0.6-4.1,1.8c-1.1,1.2-1.7,2.6-1.7,4.3
		c0,1.7,0.6,3.1,1.7,4.2s2.5,1.7,4.1,1.7c0.8,0,1.6-0.1,2.1-0.4c0.3-0.1,0.7-0.3,1-0.6c0.4-0.2,0.7-0.5,1.1-0.8v2.9
		c-1.4,0.8-2.8,1.2-4.3,1.2c-2.3,0-4.2-0.8-5.8-2.4c-1.6-1.6-2.4-3.5-2.4-5.8c0-2,0.7-3.8,2-5.4c1.6-1.9,3.8-2.9,6.4-2.9
		C321.2,5.2,322.5,5.6,323.9,6.3z"/>
	<path class="st6" d="M339.7,17.5h-6.8l-1.8,3.8h-2.6l7.8-16.8l7.6,16.8h-2.6L339.7,17.5z M338.7,15.2l-2.3-5.4l-2.5,5.4H338.7z"/>
	<path class="st6" d="M354.5,14.6l4.9,6.7h-2.9l-4.5-6.5h-0.4v6.5h-2.4V5.5h2.8c2.1,0,3.6,0.4,4.5,1.2c1,0.9,1.5,2,1.5,3.5
		c0,1.1-0.3,2.1-1,2.9S355.5,14.4,354.5,14.6z M351.5,12.8h0.8c2.3,0,3.4-0.9,3.4-2.6c0-1.6-1.1-2.4-3.3-2.4h-0.9V12.8z"/>
</g>
<g>
	<path class="st6" d="M245.5-46.1v13.6h4.7v2.2h-7v-15.8H245.5z"/>
	<path class="st6" d="M264.3-43.8h-6.3v3.8h6.2v2.2h-6.2v5.3h6.3v2.2h-8.7v-15.8h8.7V-43.8z"/>
	<path class="st6" d="M278.7-38.5h6.5v0.5c0,1.2-0.1,2.2-0.4,3.2c-0.3,0.8-0.7,1.6-1.4,2.4c-1.5,1.7-3.3,2.5-5.6,2.5
		c-2.2,0-4.1-0.8-5.7-2.4c-1.6-1.6-2.4-3.5-2.4-5.8c0-2.3,0.8-4.2,2.4-5.8c1.6-1.6,3.6-2.4,5.9-2.4c1.2,0,2.4,0.3,3.5,0.8
		c1,0.5,2,1.3,3,2.5l-1.7,1.6c-1.3-1.7-2.9-2.6-4.7-2.6c-1.7,0-3.1,0.6-4.2,1.7c-1.1,1.1-1.7,2.6-1.7,4.3c0,1.8,0.6,3.2,1.9,4.4
		c1.2,1.1,2.5,1.6,3.8,1.6c1.2,0,2.2-0.4,3.2-1.2c0.9-0.8,1.5-1.8,1.6-2.9h-3.9V-38.5z"/>
	<path class="st6" d="M300-34.1h-6.8l-1.8,3.8h-2.6l7.8-16.8l7.6,16.8h-2.6L300-34.1z M299-36.3l-2.3-5.4l-2.5,5.4H299z"/>
	<path class="st6" d="M311.8-46.1v13.6h4.7v2.2h-7v-15.8H311.8z"/>
	<path class="st6" d="M324.2-46.1v15.8h-2.4v-15.8H324.2z"/>
	<path class="st6" d="M333.9-32.5h7.6v2.2H330l7.8-13.6h-6.5v-2.2h10.4L333.9-32.5z"/>
	<path class="st6" d="M356.8-34.1H350l-1.8,3.8h-2.6l7.8-16.8l7.6,16.8h-2.6L356.8-34.1z M355.8-36.3l-2.3-5.4l-2.5,5.4H355.8z"/>
	<path class="st6" d="M371.5-37l4.9,6.7h-2.9l-4.5-6.5h-0.4v6.5h-2.4v-15.8h2.8c2.1,0,3.6,0.4,4.5,1.2c1,0.9,1.5,2,1.5,3.5
		c0,1.1-0.3,2.1-1,2.9S372.6-37.2,371.5-37z M368.5-38.8h0.8c2.3,0,3.4-0.9,3.4-2.6c0-1.6-1.1-2.4-3.3-2.4h-0.9V-38.8z"/>
</g>
<g>
	<path class="st7" d="M248.1-18.2l2.8,3.9h-1.7l-2.6-3.7h-0.2v3.7H245v-9h1.6c1.2,0,2.1,0.2,2.6,0.7c0.6,0.5,0.9,1.2,0.9,2
		c0,0.6-0.2,1.2-0.6,1.7S248.7-18.3,248.1-18.2z M246.4-19.2h0.4c1.3,0,1.9-0.5,1.9-1.5c0-0.9-0.6-1.4-1.9-1.4h-0.5V-19.2z"/>
	<path class="st7" d="M257.2-16.9h-4.1c0,0.5,0.2,0.8,0.5,1.1c0.3,0.3,0.6,0.4,1,0.4c0.3,0,0.6-0.1,0.8-0.2c0.2-0.2,0.5-0.4,0.7-0.9
		l1.1,0.6c-0.2,0.3-0.4,0.5-0.5,0.8s-0.4,0.4-0.6,0.5s-0.5,0.2-0.7,0.3s-0.5,0.1-0.8,0.1c-0.9,0-1.5-0.3-2.1-0.8
		c-0.5-0.6-0.8-1.3-0.8-2.2c0-0.9,0.2-1.6,0.8-2.2c0.5-0.6,1.2-0.8,2-0.8c0.8,0,1.5,0.3,2,0.8c0.5,0.5,0.7,1.3,0.7,2.2L257.2-16.9z
		 M255.9-18c-0.2-0.7-0.6-1.1-1.3-1.1c-0.2,0-0.3,0-0.5,0.1s-0.3,0.1-0.4,0.2s-0.2,0.2-0.3,0.3s-0.1,0.3-0.2,0.4H255.9z"/>
	<path class="st7" d="M264.4-14.5c0,0.3,0,0.5,0,0.7s0,0.4-0.1,0.5c-0.1,0.4-0.3,0.8-0.6,1.1c-0.5,0.6-1.2,0.9-2.1,0.9
		c-0.8,0-1.4-0.2-1.9-0.6c-0.5-0.4-0.8-1-0.9-1.8h1.3c0.1,0.3,0.1,0.5,0.3,0.7c0.3,0.4,0.7,0.5,1.2,0.5c1,0,1.4-0.6,1.4-1.8V-15
		c-0.5,0.5-1.1,0.8-1.8,0.8c-0.8,0-1.4-0.3-1.9-0.8c-0.5-0.6-0.8-1.3-0.8-2.1c0-0.8,0.2-1.5,0.7-2.1c0.5-0.6,1.2-0.9,2-0.9
		c0.7,0,1.3,0.3,1.8,0.8V-20h1.3V-14.5z M263.2-17.2c0-0.6-0.1-1-0.4-1.3c-0.3-0.3-0.7-0.5-1.2-0.5c-0.5,0-0.9,0.2-1.2,0.6
		c-0.3,0.3-0.4,0.8-0.4,1.3c0,0.5,0.1,0.9,0.4,1.3c0.3,0.4,0.7,0.5,1.2,0.5s0.9-0.2,1.2-0.6C263-16.2,263.2-16.7,263.2-17.2z"/>
	<path class="st7" d="M267.6-20v3.3c0,0.9,0.4,1.4,1.1,1.4s1.1-0.5,1.1-1.4V-20h1.3v3.3c0,0.5-0.1,0.9-0.2,1.2
		c-0.1,0.3-0.3,0.6-0.6,0.8c-0.4,0.4-1,0.6-1.7,0.6c-0.7,0-1.2-0.2-1.7-0.6c-0.3-0.2-0.5-0.5-0.6-0.8c-0.1-0.3-0.2-0.7-0.2-1.2V-20
		H267.6z"/>
	<path class="st7" d="M274.4-24.2v9.9h-1.3v-9.9H274.4z"/>
	<path class="st7" d="M280.5-20h1.3v5.7h-1.3v-0.6c-0.5,0.5-1.1,0.8-1.8,0.8c-0.8,0-1.4-0.3-2-0.9c-0.5-0.6-0.8-1.3-0.8-2.2
		c0-0.9,0.3-1.6,0.8-2.1s1.2-0.9,1.9-0.9c0.7,0,1.3,0.3,1.8,0.8V-20z M277.4-17.2c0,0.5,0.1,1,0.4,1.3c0.3,0.3,0.7,0.5,1.1,0.5
		c0.5,0,0.9-0.2,1.2-0.5c0.3-0.3,0.5-0.8,0.5-1.3s-0.2-1-0.5-1.3c-0.3-0.3-0.7-0.5-1.2-0.5c-0.5,0-0.8,0.2-1.1,0.5
		C277.6-18.2,277.4-17.7,277.4-17.2z"/>
	<path class="st7" d="M283.8-20h1.3v0.5c0.2-0.3,0.5-0.4,0.6-0.5c0.2-0.1,0.4-0.1,0.7-0.1c0.3,0,0.7,0.1,1.1,0.3l-0.6,1.2
		c-0.2-0.2-0.5-0.3-0.7-0.3c-0.7,0-1.1,0.5-1.1,1.6v3h-1.3V-20z"/>
	<path class="st7" d="M288.5-22.4c0-0.2,0.1-0.4,0.3-0.6s0.4-0.3,0.6-0.3c0.2,0,0.4,0.1,0.6,0.3c0.2,0.2,0.3,0.4,0.3,0.6
		s-0.1,0.4-0.3,0.6c-0.2,0.2-0.4,0.3-0.6,0.3s-0.4-0.1-0.6-0.3S288.5-22.2,288.5-22.4z M290-20v5.7h-1.3V-20H290z"/>
	<path class="st7" d="M293.8-15.6h3.4v1.2h-6l3.7-4.5H292V-20h5.5L293.8-15.6z"/>
	<path class="st7" d="M298.5-22.4c0-0.2,0.1-0.4,0.3-0.6s0.4-0.3,0.6-0.3c0.2,0,0.4,0.1,0.6,0.3c0.2,0.2,0.3,0.4,0.3,0.6
		s-0.1,0.4-0.3,0.6c-0.2,0.2-0.4,0.3-0.6,0.3s-0.4-0.1-0.6-0.3S298.5-22.2,298.5-22.4z M300-20v5.7h-1.3V-20H300z"/>
	<path class="st7" d="M301.9-20h1.3v0.5c0.5-0.5,1-0.7,1.6-0.7c0.7,0,1.2,0.2,1.6,0.6c0.3,0.4,0.5,0.9,0.5,1.7v3.5h-1.3v-3.2
		c0-0.6-0.1-1-0.2-1.2c-0.2-0.2-0.4-0.3-0.8-0.3c-0.4,0-0.7,0.1-0.9,0.4c-0.2,0.3-0.3,0.8-0.3,1.5v2.8h-1.3V-20z"/>
	<path class="st7" d="M314.2-14.5c0,0.3,0,0.5,0,0.7s0,0.4-0.1,0.5c-0.1,0.4-0.3,0.8-0.6,1.1c-0.5,0.6-1.2,0.9-2.1,0.9
		c-0.8,0-1.4-0.2-1.9-0.6c-0.5-0.4-0.8-1-0.9-1.8h1.3c0.1,0.3,0.1,0.5,0.3,0.7c0.3,0.4,0.7,0.5,1.2,0.5c1,0,1.4-0.6,1.4-1.8V-15
		c-0.5,0.5-1.1,0.8-1.8,0.8c-0.8,0-1.4-0.3-1.9-0.8c-0.5-0.6-0.8-1.3-0.8-2.1c0-0.8,0.2-1.5,0.7-2.1c0.5-0.6,1.2-0.9,2-0.9
		c0.7,0,1.3,0.3,1.8,0.8V-20h1.3V-14.5z M313-17.2c0-0.6-0.1-1-0.4-1.3c-0.3-0.3-0.7-0.5-1.2-0.5c-0.5,0-0.9,0.2-1.2,0.6
		c-0.3,0.3-0.4,0.8-0.4,1.3c0,0.5,0.1,0.9,0.4,1.3c0.3,0.4,0.7,0.5,1.2,0.5s0.9-0.2,1.2-0.6C312.8-16.2,313-16.7,313-17.2z"/>
	<path class="st1" d="M325.8-19.9l-5,8.7h-1.5l2.2-3.8l-2-4.8h1.4l1.4,3.5l2-3.5H325.8z"/>
	<path class="st1" d="M332.3-17.2c0,0.8-0.3,1.6-0.9,2.1c-0.6,0.6-1.3,0.9-2.2,0.9c-0.9,0-1.6-0.3-2.2-0.8c-0.6-0.5-0.9-1.2-0.9-2.1
		c0-0.9,0.3-1.6,0.9-2.1c0.6-0.6,1.3-0.9,2.2-0.9c0.9,0,1.6,0.3,2.1,0.8C332.1-18.7,332.3-18,332.3-17.2z M331-17.2
		c0-0.5-0.2-1-0.5-1.3c-0.3-0.3-0.7-0.5-1.2-0.5c-0.5,0-0.9,0.2-1.3,0.5c-0.3,0.4-0.5,0.8-0.5,1.4c0,0.5,0.2,1,0.5,1.3
		c0.3,0.3,0.7,0.5,1.2,0.5s0.9-0.2,1.3-0.6C330.9-16.2,331-16.6,331-17.2z"/>
	<path class="st1" d="M339.1-19.9l-0.4,3.2c0,0.3-0.1,0.5-0.1,0.7s-0.1,0.4-0.2,0.5c-0.1,0.3-0.3,0.5-0.6,0.7
		c-0.4,0.3-1,0.5-1.7,0.5c-0.7,0-1.2-0.2-1.6-0.5c-0.4-0.4-0.6-0.8-0.6-1.4c0-0.1,0-0.2,0-0.3s0-0.3,0-0.4l0.4-3h1.3l-0.4,3.1
		c0,0.1,0,0.2,0,0.3s0,0.2,0,0.2c0,0.6,0.3,0.9,1,0.9c0.4,0,0.6-0.1,0.8-0.3s0.3-0.5,0.4-1l0.4-3.3H339.1z"/>
	<path class="st1" d="M342.5-19.9l-0.1,0.5c0.4-0.4,0.9-0.6,1.3-0.6c0.4,0,0.7,0.1,1.1,0.4l-0.8,1.1c-0.2-0.2-0.5-0.3-0.7-0.3
		c-0.2,0-0.3,0-0.4,0.1s-0.2,0.2-0.3,0.3s-0.2,0.3-0.2,0.5s-0.1,0.5-0.1,0.8l-0.3,2.8h-1.3l0.7-5.5H342.5z"/>
	<path class="st7" d="M350.9-24.2v9.9h-1.3v-9.9H350.9z"/>
	<path class="st7" d="M357-20h1.3v5.7H357v-0.6c-0.5,0.5-1.1,0.8-1.8,0.8c-0.8,0-1.4-0.3-2-0.9c-0.5-0.6-0.8-1.3-0.8-2.2
		c0-0.9,0.3-1.6,0.8-2.1s1.2-0.9,1.9-0.9c0.7,0,1.3,0.3,1.8,0.8V-20z M353.9-17.2c0,0.5,0.1,1,0.4,1.3c0.3,0.3,0.7,0.5,1.1,0.5
		c0.5,0,0.9-0.2,1.2-0.5c0.3-0.3,0.5-0.8,0.5-1.3s-0.2-1-0.5-1.3c-0.3-0.3-0.7-0.5-1.2-0.5c-0.5,0-0.8,0.2-1.1,0.5
		C354-18.2,353.9-17.7,353.9-17.2z"/>
	<path class="st7" d="M360.2-20h1.3v0.5c0.5-0.5,1-0.7,1.6-0.7c0.7,0,1.2,0.2,1.6,0.6c0.3,0.4,0.5,0.9,0.5,1.7v3.5h-1.3v-3.2
		c0-0.6-0.1-1-0.2-1.2c-0.2-0.2-0.4-0.3-0.8-0.3c-0.4,0-0.7,0.1-0.9,0.4c-0.2,0.3-0.3,0.8-0.3,1.5v2.8h-1.3V-20z"/>
	<path class="st7" d="M371.3-24.2h1.3v9.9h-1.3v-0.6c-0.5,0.5-1.1,0.8-1.8,0.8c-0.8,0-1.4-0.3-1.9-0.9c-0.5-0.6-0.8-1.3-0.8-2.2
		c0-0.9,0.3-1.6,0.8-2.1c0.5-0.6,1.1-0.9,1.9-0.9c0.7,0,1.3,0.3,1.8,0.8V-24.2z M368.1-17.2c0,0.5,0.1,1,0.4,1.3
		c0.3,0.3,0.7,0.5,1.1,0.5c0.5,0,0.9-0.2,1.2-0.5c0.3-0.3,0.5-0.8,0.5-1.3s-0.2-1-0.5-1.3c-0.3-0.3-0.7-0.5-1.2-0.5
		c-0.5,0-0.8,0.2-1.1,0.5C368.3-18.2,368.1-17.7,368.1-17.2z"/>
</g>
<g>
	<path class="st7" d="M182,29.2h-3.2v2.2h3v1.3h-3V37h-1.4v-9h4.5V29.2z"/>
	<path class="st7" d="M188.7,34.4h-4.1c0,0.5,0.2,0.8,0.5,1.1c0.3,0.3,0.6,0.4,1,0.4c0.3,0,0.6-0.1,0.8-0.2c0.2-0.2,0.5-0.4,0.7-0.9
		l1.1,0.6c-0.2,0.3-0.4,0.5-0.5,0.8s-0.4,0.4-0.6,0.5s-0.5,0.2-0.7,0.3s-0.5,0.1-0.8,0.1c-0.9,0-1.5-0.3-2.1-0.8
		c-0.5-0.6-0.8-1.3-0.8-2.2c0-0.9,0.2-1.6,0.8-2.2c0.5-0.6,1.2-0.8,2-0.8c0.8,0,1.5,0.3,2,0.8c0.5,0.5,0.7,1.3,0.7,2.2L188.7,34.4z
		 M187.4,33.4c-0.2-0.7-0.6-1.1-1.3-1.1c-0.2,0-0.3,0-0.5,0.1s-0.3,0.1-0.4,0.2s-0.2,0.2-0.3,0.3s-0.1,0.3-0.2,0.4H187.4z"/>
	<path class="st7" d="M194.6,27.1h1.3V37h-1.3v-0.6c-0.5,0.5-1.1,0.8-1.8,0.8c-0.8,0-1.4-0.3-1.9-0.9c-0.5-0.6-0.8-1.3-0.8-2.2
		c0-0.9,0.3-1.6,0.8-2.1c0.5-0.6,1.1-0.9,1.9-0.9c0.7,0,1.3,0.3,1.8,0.8V27.1z M191.5,34.1c0,0.5,0.1,1,0.4,1.3
		c0.3,0.3,0.7,0.5,1.1,0.5c0.5,0,0.9-0.2,1.2-0.5c0.3-0.3,0.5-0.8,0.5-1.3s-0.2-1-0.5-1.3c-0.3-0.3-0.7-0.5-1.2-0.5
		c-0.5,0-0.8,0.2-1.1,0.5C191.6,33.2,191.5,33.6,191.5,34.1z"/>
	<path class="st7" d="M203,34.4h-4.1c0,0.5,0.2,0.8,0.5,1.1c0.3,0.3,0.6,0.4,1,0.4c0.3,0,0.6-0.1,0.8-0.2c0.2-0.2,0.5-0.4,0.7-0.9
		l1.1,0.6c-0.2,0.3-0.4,0.5-0.5,0.8s-0.4,0.4-0.6,0.5s-0.5,0.2-0.7,0.3s-0.5,0.1-0.8,0.1c-0.9,0-1.5-0.3-2.1-0.8
		c-0.5-0.6-0.8-1.3-0.8-2.2c0-0.9,0.2-1.6,0.8-2.2c0.5-0.6,1.2-0.8,2-0.8c0.8,0,1.5,0.3,2,0.8c0.5,0.5,0.7,1.3,0.7,2.2L203,34.4z
		 M201.7,33.4c-0.2-0.7-0.6-1.1-1.3-1.1c-0.2,0-0.3,0-0.5,0.1s-0.3,0.1-0.4,0.2s-0.2,0.2-0.3,0.3s-0.1,0.3-0.2,0.4H201.7z"/>
	<path class="st7" d="M204.7,31.3h1.3v0.5c0.2-0.3,0.5-0.4,0.6-0.5c0.2-0.1,0.4-0.1,0.7-0.1c0.3,0,0.7,0.1,1.1,0.3l-0.6,1.2
		c-0.2-0.2-0.5-0.3-0.7-0.3c-0.7,0-1.1,0.5-1.1,1.6v3h-1.3V31.3z"/>
	<path class="st7" d="M213.6,31.3h1.3V37h-1.3v-0.6c-0.5,0.5-1.1,0.8-1.8,0.8c-0.8,0-1.4-0.3-2-0.9c-0.5-0.6-0.8-1.3-0.8-2.2
		c0-0.9,0.3-1.6,0.8-2.1s1.2-0.9,1.9-0.9c0.7,0,1.3,0.3,1.8,0.8V31.3z M210.4,34.1c0,0.5,0.1,1,0.4,1.3c0.3,0.3,0.7,0.5,1.1,0.5
		c0.5,0,0.9-0.2,1.2-0.5c0.3-0.3,0.5-0.8,0.5-1.3s-0.2-1-0.5-1.3c-0.3-0.3-0.7-0.5-1.2-0.5c-0.5,0-0.8,0.2-1.1,0.5
		C210.6,33.2,210.4,33.6,210.4,34.1z"/>
	<path class="st7" d="M218.1,27.1V37h-1.3v-9.9H218.1z"/>
	<path class="st7" d="M225.6,27.9v5.4c0,0.8,0.1,1.3,0.4,1.7c0.4,0.5,0.9,0.8,1.6,0.8c0.7,0,1.2-0.3,1.6-0.8
		c0.3-0.3,0.4-0.9,0.4-1.7v-5.4h1.4v5.8c0,1-0.3,1.7-0.9,2.4c-0.7,0.7-1.5,1-2.5,1s-1.8-0.3-2.5-1c-0.6-0.6-0.9-1.4-0.9-2.4v-5.8
		H225.6z"/>
	<path class="st7" d="M233.2,31.3h1.3v0.5c0.2-0.3,0.5-0.4,0.6-0.5c0.2-0.1,0.4-0.1,0.7-0.1c0.3,0,0.7,0.1,1.1,0.3l-0.6,1.2
		c-0.2-0.2-0.5-0.3-0.7-0.3c-0.7,0-1.1,0.5-1.1,1.6v3h-1.3V31.3z"/>
	<path class="st7" d="M239.2,27.1v4.9c0.5-0.5,1.1-0.8,1.8-0.8c0.8,0,1.4,0.3,1.9,0.9c0.5,0.6,0.8,1.3,0.8,2.1
		c0,0.9-0.3,1.6-0.8,2.2c-0.5,0.6-1.2,0.9-1.9,0.9c-0.7,0-1.2-0.3-1.8-0.8V37h-1.3v-9.9H239.2z M242.3,34.2c0-0.5-0.1-1-0.4-1.3
		c-0.3-0.4-0.7-0.5-1.1-0.5c-0.5,0-0.9,0.2-1.2,0.5c-0.3,0.3-0.5,0.8-0.5,1.3c0,0.6,0.1,1,0.4,1.3c0.3,0.3,0.7,0.5,1.2,0.5
		c0.5,0,0.8-0.2,1.1-0.5C242.2,35.1,242.3,34.7,242.3,34.2z"/>
	<path class="st7" d="M249.5,31.3h1.3V37h-1.3v-0.6c-0.5,0.5-1.1,0.8-1.8,0.8c-0.8,0-1.4-0.3-2-0.9c-0.5-0.6-0.8-1.3-0.8-2.2
		c0-0.9,0.3-1.6,0.8-2.1s1.2-0.9,1.9-0.9c0.7,0,1.3,0.3,1.8,0.8V31.3z M246.4,34.1c0,0.5,0.1,1,0.4,1.3c0.3,0.3,0.7,0.5,1.1,0.5
		c0.5,0,0.9-0.2,1.2-0.5c0.3-0.3,0.5-0.8,0.5-1.3s-0.2-1-0.5-1.3c-0.3-0.3-0.7-0.5-1.2-0.5c-0.5,0-0.8,0.2-1.1,0.5
		C246.6,33.2,246.4,33.6,246.4,34.1z"/>
	<path class="st7" d="M252.8,31.3h1.3v0.5c0.5-0.5,1-0.7,1.6-0.7c0.7,0,1.2,0.2,1.6,0.6c0.3,0.4,0.5,0.9,0.5,1.7V37h-1.3v-3.2
		c0-0.6-0.1-1-0.2-1.2c-0.2-0.2-0.4-0.3-0.8-0.3c-0.4,0-0.7,0.1-0.9,0.4c-0.2,0.3-0.3,0.8-0.3,1.5V37h-1.3V31.3z"/>
	<path class="st7" d="M265.1,33.3V37h-1.4v-9h1.5c0.8,0,1.3,0.1,1.7,0.2c0.4,0.1,0.7,0.3,1,0.6c0.5,0.5,0.8,1.1,0.8,1.9
		c0,0.8-0.3,1.5-0.8,2s-1.3,0.7-2.2,0.7H265.1z M265.1,32h0.5c1.3,0,1.9-0.5,1.9-1.4c0-0.9-0.6-1.4-1.9-1.4h-0.5V32z"/>
	<path class="st7" d="M269.6,34.1c0-0.8,0.3-1.5,0.9-2.1s1.3-0.9,2.2-0.9c0.9,0,1.6,0.3,2.2,0.9c0.6,0.6,0.9,1.3,0.9,2.1
		c0,0.9-0.3,1.6-0.9,2.2c-0.6,0.6-1.3,0.9-2.2,0.9c-0.9,0-1.6-0.3-2.2-0.9C269.9,35.7,269.6,35,269.6,34.1z M271,34.1
		c0,0.6,0.2,1,0.5,1.4c0.3,0.3,0.7,0.5,1.2,0.5c0.5,0,0.9-0.2,1.2-0.5s0.5-0.8,0.5-1.3s-0.2-1-0.5-1.3c-0.3-0.3-0.7-0.5-1.2-0.5
		c-0.5,0-0.9,0.2-1.2,0.5S271,33.6,271,34.1z"/>
	<path class="st7" d="M278.7,27.1V37h-1.3v-9.9H278.7z"/>
	<path class="st7" d="M280.4,28.9c0-0.2,0.1-0.4,0.3-0.6s0.4-0.3,0.6-0.3c0.2,0,0.4,0.1,0.6,0.3c0.2,0.2,0.3,0.4,0.3,0.6
		s-0.1,0.4-0.3,0.6c-0.2,0.2-0.4,0.3-0.6,0.3s-0.4-0.1-0.6-0.3S280.4,29.1,280.4,28.9z M281.9,31.3V37h-1.3v-5.7H281.9z"/>
	<path class="st7" d="M288.2,31.5v1.8c-0.3-0.4-0.6-0.6-0.8-0.8c-0.2-0.1-0.5-0.2-0.8-0.2c-0.5,0-0.9,0.2-1.2,0.5s-0.5,0.8-0.5,1.3
		c0,0.5,0.2,1,0.5,1.3c0.3,0.3,0.7,0.5,1.2,0.5c0.3,0,0.6-0.1,0.8-0.2c0.2-0.1,0.5-0.4,0.8-0.8v1.7c-0.5,0.3-1.1,0.4-1.6,0.4
		c-0.9,0-1.6-0.3-2.2-0.9c-0.6-0.6-0.9-1.3-0.9-2.1s0.3-1.6,0.9-2.2s1.3-0.9,2.2-0.9C287.2,31.1,287.7,31.3,288.2,31.5z"/>
	<path class="st7" d="M291.6,35.9l-2.6-4.6h1.5l1.7,3.3l1.6-3.3h1.5l-4.5,8.8h-1.5L291.6,35.9z"/>
	<path class="st7" d="M304.7,31.3h1.3V37h-1.3v-0.6c-0.5,0.5-1.1,0.8-1.8,0.8c-0.8,0-1.4-0.3-2-0.9c-0.5-0.6-0.8-1.3-0.8-2.2
		c0-0.9,0.3-1.6,0.8-2.1s1.2-0.9,1.9-0.9c0.7,0,1.3,0.3,1.8,0.8V31.3z M301.5,34.1c0,0.5,0.1,1,0.4,1.3c0.3,0.3,0.7,0.5,1.1,0.5
		c0.5,0,0.9-0.2,1.2-0.5c0.3-0.3,0.5-0.8,0.5-1.3s-0.2-1-0.5-1.3c-0.3-0.3-0.7-0.5-1.2-0.5c-0.5,0-0.8,0.2-1.1,0.5
		C301.7,33.2,301.5,33.6,301.5,34.1z"/>
	<path class="st7" d="M307.9,31.3h1.3v0.5c0.5-0.5,1-0.7,1.6-0.7c0.7,0,1.2,0.2,1.6,0.6c0.3,0.4,0.5,0.9,0.5,1.7V37h-1.3v-3.2
		c0-0.6-0.1-1-0.2-1.2c-0.2-0.2-0.4-0.3-0.8-0.3c-0.4,0-0.7,0.1-0.9,0.4c-0.2,0.3-0.3,0.8-0.3,1.5V37h-1.3V31.3z"/>
	<path class="st7" d="M318.9,27.1h1.3V37h-1.3v-0.6c-0.5,0.5-1.1,0.8-1.8,0.8c-0.8,0-1.4-0.3-1.9-0.9c-0.5-0.6-0.8-1.3-0.8-2.2
		c0-0.9,0.3-1.6,0.8-2.1c0.5-0.6,1.1-0.9,1.9-0.9c0.7,0,1.3,0.3,1.8,0.8V27.1z M315.8,34.1c0,0.5,0.1,1,0.4,1.3
		c0.3,0.3,0.7,0.5,1.1,0.5c0.5,0,0.9-0.2,1.2-0.5c0.3-0.3,0.5-0.8,0.5-1.3s-0.2-1-0.5-1.3c-0.3-0.3-0.7-0.5-1.2-0.5
		c-0.5,0-0.8,0.2-1.1,0.5C316,33.2,315.8,33.6,315.8,34.1z"/>
	<path class="st7" d="M326.1,27.1h1.3v4.7c0.5-0.4,1-0.6,1.6-0.6c0.6,0,1.2,0.2,1.5,0.6c0.3,0.4,0.5,0.9,0.5,1.7V37h-1.3v-3.4
		c0-0.5-0.1-0.8-0.2-1s-0.4-0.3-0.8-0.3c-0.5,0-0.8,0.1-1,0.4c-0.2,0.3-0.3,0.8-0.3,1.5V37h-1.3V27.1z"/>
	<path class="st7" d="M332.7,34.1c0-0.8,0.3-1.5,0.9-2.1s1.3-0.9,2.2-0.9c0.9,0,1.6,0.3,2.2,0.9c0.6,0.6,0.9,1.3,0.9,2.1
		c0,0.9-0.3,1.6-0.9,2.2c-0.6,0.6-1.3,0.9-2.2,0.9c-0.9,0-1.6-0.3-2.2-0.9C332.9,35.7,332.7,35,332.7,34.1z M334,34.1
		c0,0.6,0.2,1,0.5,1.4c0.3,0.3,0.7,0.5,1.2,0.5c0.5,0,0.9-0.2,1.2-0.5s0.5-0.8,0.5-1.3s-0.2-1-0.5-1.3c-0.3-0.3-0.7-0.5-1.2-0.5
		c-0.5,0-0.9,0.2-1.2,0.5S334,33.6,334,34.1z"/>
	<path class="st7" d="M340.9,31.3l1.5,3.3l1.6-3.8l1.6,3.8l1.5-3.3h1.5l-3,6.1l-1.6-3.7l-1.6,3.7l-3-6.1H340.9z"/>
	<path class="st7" d="M353.4,28.9c0-0.2,0.1-0.4,0.3-0.6s0.4-0.3,0.6-0.3c0.2,0,0.4,0.1,0.6,0.3c0.2,0.2,0.3,0.4,0.3,0.6
		s-0.1,0.4-0.3,0.6c-0.2,0.2-0.4,0.3-0.6,0.3s-0.4-0.1-0.6-0.3S353.4,29.1,353.4,28.9z M354.9,31.3V37h-1.3v-5.7H354.9z"/>
	<path class="st7" d="M358.2,32.5V37h-1.3v-4.5h-0.6v-1.2h0.6v-2.1h1.3v2.1h1v1.2H358.2z"/>
	<path class="st7" d="M364.3,31.3h1.3v0.5c0.2-0.3,0.5-0.4,0.6-0.5c0.2-0.1,0.4-0.1,0.7-0.1c0.3,0,0.7,0.1,1.1,0.3l-0.6,1.2
		c-0.2-0.2-0.5-0.3-0.7-0.3c-0.7,0-1.1,0.5-1.1,1.6v3h-1.3V31.3z"/>
	<path class="st7" d="M374.2,34.4h-4.1c0,0.5,0.2,0.8,0.5,1.1c0.3,0.3,0.6,0.4,1,0.4c0.3,0,0.6-0.1,0.8-0.2c0.2-0.2,0.5-0.4,0.7-0.9
		l1.1,0.6c-0.2,0.3-0.4,0.5-0.5,0.8s-0.4,0.4-0.6,0.5s-0.5,0.2-0.7,0.3s-0.5,0.1-0.8,0.1c-0.9,0-1.5-0.3-2.1-0.8
		c-0.5-0.6-0.8-1.3-0.8-2.2c0-0.9,0.2-1.6,0.8-2.2c0.5-0.6,1.2-0.8,2-0.8c0.8,0,1.5,0.3,2,0.8c0.5,0.5,0.7,1.3,0.7,2.2L374.2,34.4z
		 M372.8,33.4c-0.2-0.7-0.6-1.1-1.3-1.1c-0.2,0-0.3,0-0.5,0.1s-0.3,0.1-0.4,0.2s-0.2,0.2-0.3,0.3s-0.1,0.3-0.2,0.4H372.8z"/>
	<path class="st7" d="M377.2,27.1V37h-1.3v-9.9H377.2z"/>
	<path class="st7" d="M383.3,31.3h1.3V37h-1.3v-0.6c-0.5,0.5-1.1,0.8-1.8,0.8c-0.8,0-1.4-0.3-2-0.9c-0.5-0.6-0.8-1.3-0.8-2.2
		c0-0.9,0.3-1.6,0.8-2.1s1.2-0.9,1.9-0.9c0.7,0,1.3,0.3,1.8,0.8V31.3z M380.1,34.1c0,0.5,0.1,1,0.4,1.3c0.3,0.3,0.7,0.5,1.1,0.5
		c0.5,0,0.9-0.2,1.2-0.5c0.3-0.3,0.5-0.8,0.5-1.3s-0.2-1-0.5-1.3c-0.3-0.3-0.7-0.5-1.2-0.5c-0.5,0-0.8,0.2-1.1,0.5
		C380.3,33.2,380.1,33.6,380.1,34.1z"/>
	<path class="st7" d="M387.9,32.5V37h-1.3v-4.5H386v-1.2h0.6v-2.1h1.3v2.1h1v1.2H387.9z"/>
	<path class="st7" d="M395.3,34.4h-4.1c0,0.5,0.2,0.8,0.5,1.1c0.3,0.3,0.6,0.4,1,0.4c0.3,0,0.6-0.1,0.8-0.2c0.2-0.2,0.5-0.4,0.7-0.9
		l1.1,0.6c-0.2,0.3-0.4,0.5-0.5,0.8s-0.4,0.4-0.6,0.5s-0.5,0.2-0.7,0.3s-0.5,0.1-0.8,0.1c-0.9,0-1.5-0.3-2.1-0.8
		c-0.5-0.6-0.8-1.3-0.8-2.2c0-0.9,0.2-1.6,0.8-2.2c0.5-0.6,1.2-0.8,2-0.8c0.8,0,1.5,0.3,2,0.8c0.5,0.5,0.7,1.3,0.7,2.2L395.3,34.4z
		 M394,33.4c-0.2-0.7-0.6-1.1-1.3-1.1c-0.2,0-0.3,0-0.5,0.1s-0.3,0.1-0.4,0.2s-0.2,0.2-0.3,0.3s-0.1,0.3-0.2,0.4H394z"/>
	<path class="st7" d="M400.3,32.3l-1.1,0.6c-0.2-0.4-0.4-0.5-0.6-0.5c-0.1,0-0.2,0-0.3,0.1s-0.1,0.2-0.1,0.3c0,0.2,0.3,0.4,0.8,0.7
		c0.7,0.3,1.2,0.6,1.4,0.8s0.4,0.6,0.4,1c0,0.6-0.2,1-0.6,1.4c-0.4,0.4-0.9,0.5-1.4,0.5c-1,0-1.6-0.5-2-1.4l1.1-0.5
		c0.2,0.3,0.3,0.4,0.4,0.5c0.2,0.1,0.4,0.2,0.6,0.2c0.4,0,0.7-0.2,0.7-0.6c0-0.2-0.2-0.5-0.5-0.7c-0.1-0.1-0.3-0.1-0.4-0.2
		s-0.3-0.1-0.4-0.2c-0.4-0.2-0.7-0.4-0.8-0.6c-0.2-0.2-0.3-0.5-0.3-0.9c0-0.5,0.2-0.9,0.5-1.2c0.3-0.3,0.8-0.5,1.3-0.5
		C399.4,31.1,400,31.5,400.3,32.3z"/>
	<path class="st7" d="M407.4,32.5V37h-1.3v-4.5h-0.6v-1.2h0.6v-2.1h1.3v2.1h1v1.2H407.4z"/>
	<path class="st7" d="M409.4,34.1c0-0.8,0.3-1.5,0.9-2.1s1.3-0.9,2.2-0.9c0.9,0,1.6,0.3,2.2,0.9c0.6,0.6,0.9,1.3,0.9,2.1
		c0,0.9-0.3,1.6-0.9,2.2c-0.6,0.6-1.3,0.9-2.2,0.9c-0.9,0-1.6-0.3-2.2-0.9C409.7,35.7,409.4,35,409.4,34.1z M410.7,34.1
		c0,0.6,0.2,1,0.5,1.4c0.3,0.3,0.7,0.5,1.2,0.5c0.5,0,0.9-0.2,1.2-0.5s0.5-0.8,0.5-1.3s-0.2-1-0.5-1.3c-0.3-0.3-0.7-0.5-1.2-0.5
		c-0.5,0-0.9,0.2-1.2,0.5S410.7,33.6,410.7,34.1z"/>
	<path class="st1" d="M426.7,31.5l-5,8.7h-1.5l2.2-3.8l-2-4.8h1.4l1.4,3.5l2-3.5H426.7z"/>
	<path class="st1" d="M433.3,34.2c0,0.8-0.3,1.6-0.9,2.1c-0.6,0.6-1.3,0.9-2.2,0.9c-0.9,0-1.6-0.3-2.2-0.8c-0.6-0.5-0.9-1.2-0.9-2.1
		c0-0.9,0.3-1.6,0.9-2.1c0.6-0.6,1.3-0.9,2.2-0.9c0.9,0,1.6,0.3,2.1,0.8C433,32.6,433.3,33.3,433.3,34.2z M432,34.1
		c0-0.5-0.2-1-0.5-1.3c-0.3-0.3-0.7-0.5-1.2-0.5c-0.5,0-0.9,0.2-1.3,0.5c-0.3,0.4-0.5,0.8-0.5,1.4c0,0.5,0.2,1,0.5,1.3
		c0.3,0.3,0.7,0.5,1.2,0.5s0.9-0.2,1.3-0.6C431.8,35.2,432,34.7,432,34.1z"/>
	<path class="st1" d="M440.1,31.5l-0.4,3.2c0,0.3-0.1,0.5-0.1,0.7s-0.1,0.4-0.2,0.5c-0.1,0.3-0.3,0.5-0.6,0.7
		c-0.4,0.3-1,0.5-1.7,0.5c-0.7,0-1.2-0.2-1.6-0.5c-0.4-0.4-0.6-0.8-0.6-1.4c0-0.1,0-0.2,0-0.3s0-0.3,0-0.4l0.4-3h1.3l-0.4,3.1
		c0,0.1,0,0.2,0,0.3s0,0.2,0,0.2c0,0.6,0.3,0.9,1,0.9c0.4,0,0.6-0.1,0.8-0.3s0.3-0.5,0.4-1l0.4-3.3H440.1z"/>
</g>
<g>
	<path class="st7" d="M221.1,82v1.6c-0.8-0.7-1.6-1-2.4-1c-0.9,0-1.7,0.3-2.3,1c-0.6,0.7-1,1.5-1,2.4c0,0.9,0.3,1.8,1,2.4
		s1.4,1,2.4,1c0.5,0,0.9-0.1,1.2-0.2c0.2-0.1,0.4-0.2,0.6-0.3s0.4-0.3,0.6-0.5v1.6c-0.8,0.4-1.6,0.7-2.5,0.7c-1.3,0-2.4-0.5-3.3-1.4
		c-0.9-0.9-1.4-2-1.4-3.3c0-1.2,0.4-2.2,1.1-3.1c0.9-1.1,2.2-1.7,3.6-1.7C219.6,81.3,220.4,81.6,221.1,82z"/>
	<path class="st7" d="M222.6,87.7c0-0.8,0.3-1.5,0.9-2.1s1.3-0.9,2.2-0.9c0.9,0,1.6,0.3,2.2,0.9c0.6,0.6,0.9,1.3,0.9,2.1
		c0,0.9-0.3,1.6-0.9,2.2c-0.6,0.6-1.3,0.9-2.2,0.9c-0.9,0-1.6-0.3-2.2-0.9C222.8,89.3,222.6,88.5,222.6,87.7z M223.9,87.7
		c0,0.6,0.2,1,0.5,1.4c0.3,0.3,0.7,0.5,1.2,0.5c0.5,0,0.9-0.2,1.2-0.5s0.5-0.8,0.5-1.3s-0.2-1-0.5-1.3c-0.3-0.3-0.7-0.5-1.2-0.5
		c-0.5,0-0.9,0.2-1.2,0.5S223.9,87.2,223.9,87.7z"/>
	<path class="st7" d="M231.6,80.7v9.9h-1.3v-9.9H231.6z"/>
	<path class="st7" d="M234.8,80.7v9.9h-1.3v-9.9H234.8z"/>
	<path class="st7" d="M241.9,88h-4.1c0,0.5,0.2,0.8,0.5,1.1c0.3,0.3,0.6,0.4,1,0.4c0.3,0,0.6-0.1,0.8-0.2c0.2-0.2,0.5-0.4,0.7-0.9
		l1.1,0.6c-0.2,0.3-0.4,0.5-0.5,0.8s-0.4,0.4-0.6,0.5s-0.5,0.2-0.7,0.3s-0.5,0.1-0.8,0.1c-0.9,0-1.5-0.3-2.1-0.8
		c-0.5-0.6-0.8-1.3-0.8-2.2c0-0.9,0.2-1.6,0.8-2.2c0.5-0.6,1.2-0.8,2-0.8c0.8,0,1.5,0.3,2,0.8c0.5,0.5,0.7,1.3,0.7,2.2L241.9,88z
		 M240.6,86.9c-0.2-0.7-0.6-1.1-1.3-1.1c-0.2,0-0.3,0-0.5,0.1s-0.3,0.1-0.4,0.2s-0.2,0.2-0.3,0.3s-0.1,0.3-0.2,0.4H240.6z"/>
	<path class="st7" d="M248,85.1v1.8c-0.3-0.4-0.6-0.6-0.8-0.8c-0.2-0.1-0.5-0.2-0.8-0.2c-0.5,0-0.9,0.2-1.2,0.5s-0.5,0.8-0.5,1.3
		c0,0.5,0.2,1,0.5,1.3c0.3,0.3,0.7,0.5,1.2,0.5c0.3,0,0.6-0.1,0.8-0.2c0.2-0.1,0.5-0.4,0.8-0.8v1.7c-0.5,0.3-1.1,0.4-1.6,0.4
		c-0.9,0-1.6-0.3-2.2-0.9c-0.6-0.6-0.9-1.3-0.9-2.1s0.3-1.6,0.9-2.2s1.3-0.9,2.2-0.9C247,84.7,247.5,84.8,248,85.1z"/>
	<path class="st7" d="M250.9,86.1v4.5h-1.3v-4.5H249v-1.2h0.6v-2.1h1.3v2.1h1v1.2H250.9z"/>
	<path class="st7" d="M252.9,82.5c0-0.2,0.1-0.4,0.3-0.6s0.4-0.3,0.6-0.3c0.2,0,0.4,0.1,0.6,0.3c0.2,0.2,0.3,0.4,0.3,0.6
		s-0.1,0.4-0.3,0.6c-0.2,0.2-0.4,0.3-0.6,0.3s-0.4-0.1-0.6-0.3S252.9,82.7,252.9,82.5z M254.4,84.8v5.7h-1.3v-5.7H254.4z"/>
	<path class="st7" d="M257,84.8l1.5,3.2l1.5-3.2h1.5l-3,6.1l-2.9-6.1H257z"/>
	<path class="st7" d="M267.6,88h-4.1c0,0.5,0.2,0.8,0.5,1.1c0.3,0.3,0.6,0.4,1,0.4c0.3,0,0.6-0.1,0.8-0.2c0.2-0.2,0.5-0.4,0.7-0.9
		l1.1,0.6c-0.2,0.3-0.4,0.5-0.5,0.8s-0.4,0.4-0.6,0.5s-0.5,0.2-0.7,0.3s-0.5,0.1-0.8,0.1c-0.9,0-1.5-0.3-2.1-0.8
		c-0.5-0.6-0.8-1.3-0.8-2.2c0-0.9,0.2-1.6,0.8-2.2c0.5-0.6,1.2-0.8,2-0.8c0.8,0,1.5,0.3,2,0.8c0.5,0.5,0.7,1.3,0.7,2.2L267.6,88z
		 M266.2,86.9c-0.2-0.7-0.6-1.1-1.3-1.1c-0.2,0-0.3,0-0.5,0.1s-0.3,0.1-0.4,0.2s-0.2,0.2-0.3,0.3s-0.1,0.3-0.2,0.4H266.2z"/>
	<path class="st7" d="M274.6,86.1v4.5h-1.3v-4.5h-0.6v-1.2h0.6v-2.1h1.3v2.1h1v1.2H274.6z"/>
	<path class="st7" d="M276.5,82.5c0-0.2,0.1-0.4,0.3-0.6s0.4-0.3,0.6-0.3c0.2,0,0.4,0.1,0.6,0.3c0.2,0.2,0.3,0.4,0.3,0.6
		s-0.1,0.4-0.3,0.6c-0.2,0.2-0.4,0.3-0.6,0.3s-0.4-0.1-0.6-0.3S276.5,82.7,276.5,82.5z M278,84.8v5.7h-1.3v-5.7H278z"/>
	<path class="st7" d="M281.3,86.1v4.5H280v-4.5h-0.6v-1.2h0.6v-2.1h1.3v2.1h1v1.2H281.3z"/>
	<path class="st7" d="M284.8,80.7v9.9h-1.3v-9.9H284.8z"/>
	<path class="st7" d="M286.5,82.5c0-0.2,0.1-0.4,0.3-0.6s0.4-0.3,0.6-0.3c0.2,0,0.4,0.1,0.6,0.3c0.2,0.2,0.3,0.4,0.3,0.6
		s-0.1,0.4-0.3,0.6c-0.2,0.2-0.4,0.3-0.6,0.3s-0.4-0.1-0.6-0.3S286.5,82.7,286.5,82.5z M288,84.8v5.7h-1.3v-5.7H288z"/>
	<path class="st7" d="M289.9,84.8h1.3v0.5c0.5-0.5,1-0.7,1.6-0.7c0.7,0,1.2,0.2,1.6,0.6c0.3,0.4,0.5,0.9,0.5,1.7v3.5h-1.3v-3.2
		c0-0.6-0.1-1-0.2-1.2c-0.2-0.2-0.4-0.3-0.8-0.3c-0.4,0-0.7,0.1-0.9,0.4c-0.2,0.3-0.3,0.8-0.3,1.5v2.8h-1.3V84.8z"/>
	<path class="st7" d="M302.3,90.4c0,0.3,0,0.5,0,0.7s0,0.4-0.1,0.5c-0.1,0.4-0.3,0.8-0.6,1.1c-0.5,0.6-1.2,0.9-2.1,0.9
		c-0.8,0-1.4-0.2-1.9-0.6c-0.5-0.4-0.8-1-0.9-1.8h1.3c0.1,0.3,0.1,0.5,0.3,0.7c0.3,0.4,0.7,0.5,1.2,0.5c1,0,1.4-0.6,1.4-1.8v-0.8
		c-0.5,0.5-1.1,0.8-1.8,0.8c-0.8,0-1.4-0.3-1.9-0.8c-0.5-0.6-0.8-1.3-0.8-2.1c0-0.8,0.2-1.5,0.7-2.1c0.5-0.6,1.2-0.9,2-0.9
		c0.7,0,1.3,0.3,1.8,0.8v-0.6h1.3V90.4z M301,87.7c0-0.6-0.1-1-0.4-1.3c-0.3-0.3-0.7-0.5-1.2-0.5c-0.5,0-0.9,0.2-1.2,0.6
		c-0.3,0.3-0.4,0.8-0.4,1.3c0,0.5,0.1,0.9,0.4,1.3c0.3,0.4,0.7,0.5,1.2,0.5s0.9-0.2,1.2-0.6C300.9,88.7,301,88.2,301,87.7z"/>
	<path class="st7" d="M307.9,82.5c0-0.2,0.1-0.4,0.3-0.6s0.4-0.3,0.6-0.3c0.2,0,0.4,0.1,0.6,0.3c0.2,0.2,0.3,0.4,0.3,0.6
		s-0.1,0.4-0.3,0.6c-0.2,0.2-0.4,0.3-0.6,0.3s-0.4-0.1-0.6-0.3S307.9,82.7,307.9,82.5z M309.4,84.8v5.7h-1.3v-5.7H309.4z"/>
	<path class="st7" d="M311.3,84.8h1.3v0.5c0.5-0.5,1-0.7,1.6-0.7c0.7,0,1.2,0.2,1.6,0.6c0.3,0.4,0.5,0.9,0.5,1.7v3.5h-1.3v-3.2
		c0-0.6-0.1-1-0.2-1.2c-0.2-0.2-0.4-0.3-0.8-0.3c-0.4,0-0.7,0.1-0.9,0.4c-0.2,0.3-0.3,0.8-0.3,1.5v2.8h-1.3V84.8z"/>
	<path class="st1" d="M327.8,85l-5,8.7h-1.5l2.2-3.8l-2-4.8h1.4l1.4,3.5l2-3.5H327.8z"/>
	<path class="st1" d="M334.3,87.7c0,0.8-0.3,1.6-0.9,2.1c-0.6,0.6-1.3,0.9-2.2,0.9c-0.9,0-1.6-0.3-2.2-0.8c-0.6-0.5-0.9-1.2-0.9-2.1
		c0-0.9,0.3-1.6,0.9-2.1c0.6-0.6,1.3-0.9,2.2-0.9c0.9,0,1.6,0.3,2.1,0.8C334.1,86.2,334.3,86.9,334.3,87.7z M333,87.7
		c0-0.5-0.2-1-0.5-1.3c-0.3-0.3-0.7-0.5-1.2-0.5c-0.5,0-0.9,0.2-1.3,0.5c-0.3,0.4-0.5,0.8-0.5,1.4c0,0.5,0.2,1,0.5,1.3
		c0.3,0.3,0.7,0.5,1.2,0.5s0.9-0.2,1.3-0.6C332.9,88.7,333,88.3,333,87.7z"/>
	<path class="st1" d="M341.1,85l-0.4,3.2c0,0.3-0.1,0.5-0.1,0.7s-0.1,0.4-0.2,0.5c-0.1,0.3-0.3,0.5-0.6,0.7c-0.4,0.3-1,0.5-1.7,0.5
		c-0.7,0-1.2-0.2-1.6-0.5c-0.4-0.4-0.6-0.8-0.6-1.4c0-0.1,0-0.2,0-0.3s0-0.3,0-0.4l0.4-3h1.3l-0.4,3.1c0,0.1,0,0.2,0,0.3
		s0,0.2,0,0.2c0,0.6,0.3,0.9,1,0.9c0.4,0,0.6-0.1,0.8-0.3s0.3-0.5,0.4-1l0.4-3.3H341.1z"/>
	<path class="st1" d="M344.5,85l-0.1,0.5c0.4-0.4,0.9-0.6,1.3-0.6c0.4,0,0.7,0.1,1.1,0.4l-0.8,1.1c-0.2-0.2-0.5-0.3-0.7-0.3
		c-0.2,0-0.3,0-0.4,0.1s-0.2,0.2-0.3,0.3s-0.2,0.3-0.2,0.5s-0.1,0.5-0.1,0.8l-0.3,2.8h-1.3l0.7-5.5H344.5z"/>
	<path class="st7" d="M356,85.1v1.8c-0.3-0.4-0.6-0.6-0.8-0.8c-0.2-0.1-0.5-0.2-0.8-0.2c-0.5,0-0.9,0.2-1.2,0.5s-0.5,0.8-0.5,1.3
		c0,0.5,0.2,1,0.5,1.3c0.3,0.3,0.7,0.5,1.2,0.5c0.3,0,0.6-0.1,0.8-0.2c0.2-0.1,0.5-0.4,0.8-0.8v1.7c-0.5,0.3-1.1,0.4-1.6,0.4
		c-0.9,0-1.6-0.3-2.2-0.9c-0.6-0.6-0.9-1.3-0.9-2.1s0.3-1.6,0.9-2.2s1.3-0.9,2.2-0.9C355,84.7,355.5,84.8,356,85.1z"/>
	<path class="st7" d="M357.3,87.7c0-0.8,0.3-1.5,0.9-2.1s1.3-0.9,2.2-0.9c0.9,0,1.6,0.3,2.2,0.9c0.6,0.6,0.9,1.3,0.9,2.1
		c0,0.9-0.3,1.6-0.9,2.2c-0.6,0.6-1.3,0.9-2.2,0.9c-0.9,0-1.6-0.3-2.2-0.9C357.6,89.3,357.3,88.5,357.3,87.7z M358.6,87.7
		c0,0.6,0.2,1,0.5,1.4c0.3,0.3,0.7,0.5,1.2,0.5c0.5,0,0.9-0.2,1.2-0.5s0.5-0.8,0.5-1.3s-0.2-1-0.5-1.3c-0.3-0.3-0.7-0.5-1.2-0.5
		c-0.5,0-0.9,0.2-1.2,0.5S358.6,87.2,358.6,87.7z"/>
	<path class="st7" d="M365,84.8h1.3v0.5c0.3-0.3,0.5-0.4,0.7-0.5c0.2-0.1,0.4-0.1,0.7-0.1c0.6,0,1.2,0.3,1.5,0.8
		c0.4-0.6,1-0.8,1.7-0.8c1.3,0,1.9,0.8,1.9,2.3v3.5h-1.3v-3.2c0-0.5-0.1-0.9-0.2-1.2c-0.1-0.2-0.4-0.3-0.7-0.3
		c-0.4,0-0.6,0.1-0.8,0.4s-0.2,0.7-0.2,1.3v2.9h-1.3v-3.2c0-1-0.3-1.5-0.9-1.5c-0.4,0-0.6,0.1-0.8,0.4s-0.3,0.7-0.3,1.3v2.9H365
		V84.8z"/>
	<path class="st7" d="M374.7,84.8h1.3v0.5c0.3-0.3,0.5-0.4,0.7-0.5c0.2-0.1,0.4-0.1,0.7-0.1c0.6,0,1.2,0.3,1.5,0.8
		c0.4-0.6,1-0.8,1.7-0.8c1.3,0,1.9,0.8,1.9,2.3v3.5h-1.3v-3.2c0-0.5-0.1-0.9-0.2-1.2c-0.1-0.2-0.4-0.3-0.7-0.3
		c-0.4,0-0.6,0.1-0.8,0.4s-0.2,0.7-0.2,1.3v2.9H378v-3.2c0-1-0.3-1.5-0.9-1.5c-0.4,0-0.6,0.1-0.8,0.4s-0.3,0.7-0.3,1.3v2.9h-1.3
		V84.8z"/>
	<path class="st7" d="M385.8,84.8v3.3c0,0.9,0.4,1.4,1.1,1.4s1.1-0.5,1.1-1.4v-3.3h1.3v3.3c0,0.5-0.1,0.9-0.2,1.2
		c-0.1,0.3-0.3,0.6-0.6,0.8c-0.4,0.4-1,0.6-1.7,0.6c-0.7,0-1.2-0.2-1.7-0.6c-0.3-0.2-0.5-0.5-0.6-0.8c-0.1-0.3-0.2-0.7-0.2-1.2v-3.3
		H385.8z"/>
	<path class="st7" d="M391.3,84.8h1.3v0.5c0.5-0.5,1-0.7,1.6-0.7c0.7,0,1.2,0.2,1.6,0.6c0.3,0.4,0.5,0.9,0.5,1.7v3.5h-1.3v-3.2
		c0-0.6-0.1-1-0.2-1.2c-0.2-0.2-0.4-0.3-0.8-0.3c-0.4,0-0.7,0.1-0.9,0.4c-0.2,0.3-0.3,0.8-0.3,1.5v2.8h-1.3V84.8z"/>
	<path class="st7" d="M397.9,82.5c0-0.2,0.1-0.4,0.3-0.6s0.4-0.3,0.6-0.3c0.2,0,0.4,0.1,0.6,0.3c0.2,0.2,0.3,0.4,0.3,0.6
		s-0.1,0.4-0.3,0.6c-0.2,0.2-0.4,0.3-0.6,0.3s-0.4-0.1-0.6-0.3S397.9,82.7,397.9,82.5z M399.4,84.8v5.7h-1.3v-5.7H399.4z"/>
	<path class="st7" d="M402.7,86.1v4.5h-1.3v-4.5h-0.6v-1.2h0.6v-2.1h1.3v2.1h1v1.2H402.7z"/>
	<path class="st7" d="M406.6,89.5l-2.6-4.6h1.5l1.7,3.3l1.6-3.3h1.5l-4.5,8.8h-1.5L406.6,89.5z"/>
</g>
</svg>
