<?xml version="1.0" encoding="utf-8"?>
<!-- Generator: Adobe Illustrator 19.2.0, SVG Export Plug-In . SVG Version: 6.00 Build 0)  -->
<svg version="1.1" xmlns="http://www.w3.org/2000/svg" xmlns:xlink="http://www.w3.org/1999/xlink" x="0px" y="0px"
	 viewBox="0 0 1152 648" style="enable-background:new 0 0 1152 648;" xml:space="preserve">
<style type="text/css">
	.st0{fill:none;}
	.st1{font-family:'Rockwell';}
	.st2{font-size:10.823px;}
	.st3{font-family:'FuturaBT-Bold';}
	.st4{font-size:24px;}
	.st5{fill:none;stroke:#000000;stroke-width:0.5;stroke-miterlimit:10;}
	.st6{fill:#BFCA33;}
	.st7{font-size:15px;}
</style>
<g id="Layer_2">
</g>
<g id="Layer_1">
	<g>
		
			<image style="overflow:visible;" width="1316" height="1244" xlink:href="../../../Desktop/Thesis/MIDTERM/govprog_minha.png"  transform="matrix(4.172930e-02 0 0 4.172930e-02 764.9226 77.6253)">
		</image>
		<g>
			<defs>
				<rect id="SVGID_1_" x="761.7" y="76.5" width="59.2" height="35.5"/>
			</defs>
			<clipPath id="SVGID_2_">
				<use xlink:href="#SVGID_1_"  style="overflow:visible;"/>
			</clipPath>
			<g style="clip-path:url(#SVGID_2_);">
				
					<image style="overflow:visible;" width="1316" height="1244" xlink:href="../../../Desktop/Thesis/MIDTERM/govprog_minha.png"  transform="matrix(4.344235e-02 0 0 4.344235e-02 763.7329 76.5026)">
				</image>
			</g>
		</g>
	</g>
	<rect x="698.2" y="159.1" class="st0" width="217.9" height="40.9"/>
	<text transform="matrix(1 0 0 1 698.2108 166.4082)"><tspan x="0" y="0" class="st1 st2">Minha Casa, Minha Vida builds new </tspan><tspan x="0" y="13" class="st1 st2">construction on vacant land for the purpose </tspan><tspan x="0" y="26" class="st1 st2">of affordable housing.</tspan></text>
	<rect x="698.2" y="111" class="st0" width="98.7" height="26.9"/>
	<text transform="matrix(1 0 0 1 698.1743 129.1816)" class="st3 st4">2009</text>
	
		<image style="overflow:visible;" width="327" height="187" xlink:href="333941B257DEB9F4.jpg"  transform="matrix(0.2793 0 0 0.2793 993.796 77.8811)">
	</image>
	<rect x="928.8" y="159.1" class="st0" width="213.6" height="65.9"/>
	<text transform="matrix(1 0 0 1 928.7777 166.4082)"><tspan x="0" y="0" class="st1 st2">Morar Carioca, an evolution of Favela </tspan><tspan x="0" y="13" class="st1 st2">Bairro, is promoted as part of the Olympic </tspan><tspan x="0" y="26" class="st1 st2">Plan for Rio de Janeiro. Morar Carioca </tspan><tspan x="0" y="39" class="st1 st2">pledged to integrate every favela into the </tspan><tspan x="0" y="52" class="st1 st2">formal city by the year 2020.</tspan></text>
	<rect x="928.8" y="111" class="st0" width="218.5" height="26.9"/>
	<text transform="matrix(1 0 0 1 928.7778 129.1816)" class="st3 st4">2010</text>
	
		<image style="overflow:visible;" width="400" height="400" xlink:href="333941B257DEB9FC.jpg"  transform="matrix(0.1574 0 0 0.1574 537.4406 87.7978)">
	</image>
	<rect x="468" y="159.1" class="st0" width="217.9" height="150.9"/>
	<text transform="matrix(1 0 0 1 467.9822 166.4082)"><tspan x="0" y="0" class="st1 st2">Unidade de Polícia Pacificadora is a state </tspan><tspan x="0" y="13" class="st1 st2">law enforcement that reclaims territories </tspan><tspan x="0" y="26" class="st1 st2">from control of gangs and drug dealers.</tspan></text>
	<rect x="468" y="111" class="st0" width="218.5" height="26.9"/>
	<text transform="matrix(1 0 0 1 467.9609 129.1816)" class="st3 st4">2008</text>
	
		<image style="overflow:visible;" width="600" height="260" xlink:href="333941B257DEB9FF.jpg"  transform="matrix(0.1497 0 0 0.1497 306.0555 97.8337)">
	</image>
	<rect x="238.1" y="159.1" class="st0" width="214.9" height="150.9"/>
	<text transform="matrix(1 0 0 1 238.1481 166.4082)"><tspan x="0" y="0" class="st1 st2">Known as PAC, Program de Aceleração do </tspan><tspan x="0" y="13" class="st1 st2">Crescimento is an initiative to upgrade </tspan><tspan x="0" y="26" class="st1 st2">infrastructural projects in the public realm </tspan><tspan x="0" y="39" class="st1 st2">of the City. </tspan></text>
	<rect x="237.9" y="111" class="st0" width="218.5" height="26.9"/>
	<text transform="matrix(1 0 0 1 237.8774 129.1816)" class="st3 st4">2007</text>
	<g>
		<defs>
			<rect id="SVGID_3_" x="73.5" y="104.7" width="150.6" height="25.1"/>
		</defs>
		<clipPath id="SVGID_4_">
			<use xlink:href="#SVGID_3_"  style="overflow:visible;"/>
		</clipPath>
		<g transform="matrix(1 0 0 1 -1.907349e-06 0)" style="clip-path:url(#SVGID_4_);">
			
				<image style="overflow:visible;" width="801" height="1024" xlink:href="333941B257DEB9FD.jpg"  transform="matrix(0.2997 0 0 0.2997 20.9152 88.4064)">
			</image>
		</g>
	</g>
	<rect x="10.2" y="159.1" class="st0" width="213.6" height="150.9"/>
	<text transform="matrix(1 0 0 1 10.2254 166.4082)"><tspan x="0" y="0" class="st1 st2">Favela-Bairro was a physical upgrading </tspan><tspan x="0" y="13" class="st1 st2">program that aimed to integrate slums into </tspan><tspan x="0" y="26" class="st1 st2">the fabric of the formal city, by providing </tspan><tspan x="0" y="39" class="st1 st2">access to basic urban and social services, </tspan><tspan x="0" y="52" class="st1 st2">as well as assisting in the regularization of </tspan><tspan x="0" y="64.9" class="st1 st2">public and private spaces within the </tspan><tspan x="0" y="77.9" class="st1 st2">favela.</tspan></text>
	<rect x="9.8" y="111" class="st0" width="214.3" height="26.9"/>
	<text transform="matrix(1 0 0 1 9.8501 129.1807)" class="st3 st4">1994</text>
	<line class="st5" x1="9.8" y1="150.9" x2="225.2" y2="150.9"/>
	<rect x="698.2" y="133.7" class="st0" width="218" height="34"/>
	<text transform="matrix(1 0 0 1 698.1737 145.0964)" class="st6 st3 st7">MINHA CASA MINHA VIDA</text>
	<rect x="467.9" y="133.7" class="st0" width="218" height="34"/>
	<text transform="matrix(1 0 0 1 467.8861 145.0964)" class="st6 st3 st7">POLICE PACIFICATION UNIT</text>
	<rect x="238.1" y="133.7" class="st0" width="218" height="34"/>
	<text transform="matrix(1 0 0 1 238.1483 145.0964)" class="st6 st3 st7">GROWTH ACCELERATION</text>
	<rect x="10.8" y="133.7" class="st0" width="218" height="34"/>
	<text transform="matrix(1 0 0 1 10.847 145.0964)" class="st6 st3 st7">FAVELA BAIRRO</text>
	<rect x="928.8" y="133.7" class="st0" width="218" height="34"/>
	<text transform="matrix(1 0 0 1 928.7781 145.0964)" class="st6 st3 st7">MORAR CARIOCA</text>
	<line class="st5" x1="238" y1="150.9" x2="455.3" y2="150.9"/>
	<line class="st5" x1="468" y1="150.9" x2="685.9" y2="150.9"/>
	<line class="st5" x1="698.2" y1="150.9" x2="916.1" y2="150.9"/>
	<line class="st5" x1="928.8" y1="150.9" x2="1146.7" y2="150.9"/>
	<g>
		<defs>
			<rect id="SVGID_5_" x="9.8" y="255" width="215.4" height="179.4"/>
		</defs>
		<clipPath id="SVGID_6_">
			<use xlink:href="#SVGID_5_"  style="overflow:visible;"/>
		</clipPath>
		<g style="clip-path:url(#SVGID_6_);">
			
				<image style="overflow:visible;" width="733" height="358" xlink:href="../../../Desktop/Thesis/Pictures/favelabairro01.jpg"  transform="matrix(0.5014 0 0 0.5014 -133 254.9332)">
			</image>
		</g>
	</g>
	<g>
		<defs>
			<rect id="SVGID_7_" x="9.8" y="449.6" width="215.4" height="179.4"/>
		</defs>
		<clipPath id="SVGID_8_">
			<use xlink:href="#SVGID_7_"  style="overflow:visible;"/>
		</clipPath>
		<g style="clip-path:url(#SVGID_8_);">
			
				<image style="overflow:visible;" width="733" height="358" xlink:href="../../../Desktop/Thesis/Pictures/favelabairro36.jpg"  transform="matrix(0.5913 0 0 0.5913 -209 440)">
			</image>
		</g>
	</g>
	<g>
		<defs>
			<rect id="SVGID_9_" x="237.9" y="255" width="215.4" height="179.4"/>
		</defs>
		<clipPath id="SVGID_10_">
			<use xlink:href="#SVGID_9_"  style="overflow:visible;"/>
		</clipPath>
		<g style="clip-path:url(#SVGID_10_);">
			
				<image style="overflow:visible;" width="719" height="443" xlink:href="../../../Desktop/Thesis/A-view-of-the-arch-and-fo-019.jpg"  transform="matrix(0.4051 0 0 0.4051 231.148 255)">
			</image>
		</g>
	</g>
	<g>
		<defs>
			<rect id="SVGID_11_" x="237.9" y="449.6" width="215.4" height="179.4"/>
		</defs>
		<clipPath id="SVGID_12_">
			<use xlink:href="#SVGID_11_"  style="overflow:visible;"/>
		</clipPath>
		<g transform="matrix(1 0 0 1 -1.525879e-05 0)" style="clip-path:url(#SVGID_12_);">
			
				<image style="overflow:visible;" width="640" height="480" xlink:href="../../../Desktop/Thesis/Pictures/Rocinha_NewSocialHousing_Rio_Favela.jpg"  transform="matrix(0.3738 0 0 0.3738 228.8868 449.5536)">
			</image>
		</g>
	</g>
	<g>
		<defs>
			<rect id="SVGID_13_" x="468" y="255" width="215.4" height="179.4"/>
		</defs>
		<clipPath id="SVGID_14_">
			<use xlink:href="#SVGID_13_"  style="overflow:visible;"/>
		</clipPath>
		<g style="clip-path:url(#SVGID_14_);">
			
				<image style="overflow:visible;" width="424" height="318" xlink:href="../../../Desktop/Thesis/Pictures/bope.jpg"  transform="matrix(0.5647 0 0 0.5647 453.9236 254.8871)">
			</image>
		</g>
	</g>
	<g>
		<defs>
			<rect id="SVGID_15_" x="468" y="449.6" width="215.4" height="179.4"/>
		</defs>
		<clipPath id="SVGID_16_">
			<use xlink:href="#SVGID_15_"  style="overflow:visible;"/>
		</clipPath>
		<g transform="matrix(1 0 0 1 0 0)" style="clip-path:url(#SVGID_16_);">
			
				<image style="overflow:visible;" width="650" height="366" xlink:href="../../../Desktop/Thesis/Pictures/tanks.jpg"  transform="matrix(0.4901 0 0 0.4901 463.9986 449.5536)">
			</image>
		</g>
	</g>
	<g>
		<defs>
			<rect id="SVGID_17_" x="699.5" y="255" width="215.4" height="179.4"/>
		</defs>
		<clipPath id="SVGID_18_">
			<use xlink:href="#SVGID_17_"  style="overflow:visible;"/>
		</clipPath>
		<g style="clip-path:url(#SVGID_18_);">
			
				<image style="overflow:visible;" width="640" height="360" xlink:href="../../../Desktop/Thesis/Pictures/minha-casa-minha-vida-2.jpg"  transform="matrix(0.4985 0 0 0.4985 698.1734 255)">
			</image>
		</g>
	</g>
	<g>
		<defs>
			<rect id="SVGID_19_" x="699.5" y="449.6" width="215.4" height="179.4"/>
		</defs>
		<clipPath id="SVGID_20_">
			<use xlink:href="#SVGID_19_"  style="overflow:visible;"/>
		</clipPath>
		<g style="clip-path:url(#SVGID_20_);">
			
				<image style="overflow:visible;" width="580" height="390" xlink:href="../../../Desktop/Thesis/Pictures/casaspopularesdivok.jpg"  transform="matrix(0.4601 0 0 0.4601 680.4619 449.5536)">
			</image>
		</g>
	</g>
	<g>
		<defs>
			<rect id="SVGID_21_" x="927.9" y="255" width="215.4" height="179.4"/>
		</defs>
		<clipPath id="SVGID_22_">
			<use xlink:href="#SVGID_21_"  style="overflow:visible;"/>
		</clipPath>
		<g transform="matrix(1 0 0 1 0 1.525879e-05)" style="clip-path:url(#SVGID_22_);">
			
				<image style="overflow:visible;" width="1600" height="900" xlink:href="../../../Desktop/Thesis/Pictures/morar carioca_alemao_.jpg"  transform="matrix(0.2 0 0 0.2 863.9764 254.3513)">
			</image>
		</g>
	</g>
	<g>
		<defs>
			<rect id="SVGID_23_" x="927.9" y="449.6" width="215.4" height="179.4"/>
		</defs>
		<clipPath id="SVGID_24_">
			<use xlink:href="#SVGID_23_"  style="overflow:visible;"/>
		</clipPath>
		<g transform="matrix(1 0 0 1 0 -3.051758e-05)" style="clip-path:url(#SVGID_24_);">
			
				<image style="overflow:visible;" width="940" height="627" xlink:href="../../../Desktop/Thesis/Pictures/morar.jpg"  transform="matrix(0.2884 0 0 0.2884 902.2139 448.1575)">
			</image>
		</g>
	</g>
</g>
</svg>
