<?xml version="1.0" encoding="utf-8"?>
<!-- Generator: Adobe Illustrator 19.2.0, SVG Export Plug-In . SVG Version: 6.00 Build 0)  -->
<svg version="1.1" id="Layer_1" xmlns="http://www.w3.org/2000/svg" xmlns:xlink="http://www.w3.org/1999/xlink" x="0px" y="0px"
	 viewBox="0 0 253.7 23" style="enable-background:new 0 0 253.7 23;" xml:space="preserve">
<style type="text/css">
	.st0{clip-path:url(#SVGID_2_);}
	.st1{fill:#A9B35A;}
	.st2{clip-path:url(#SVGID_4_);}
	.st3{fill:#CDDC37;}
	.st4{clip-path:url(#SVGID_6_);}
	.st5{clip-path:url(#SVGID_8_);}
	.st6{fill:#CDDC37;stroke:#E1E1E1;stroke-width:0.5;stroke-miterlimit:10;}
	.st7{fill:#58595B;stroke:#E1E1E1;stroke-width:0.25;stroke-miterlimit:10;}
	.st8{clip-path:url(#SVGID_10_);}
</style>
<g>
	<defs>
		<path id="SVGID_1_" d="M44.1,2.7v19.9h-3V2.7H44.1z M52.8,22.6V1.3l14.5,15.2V2.7h3v21.1L55.8,8.6v13.9H52.8z M84.5,5.5v17.1h-3
			V5.5h-4.6V2.7H89v2.8H84.5z M106.6,5.5h-8v4.8h7.7v2.8h-7.7v6.6h8v2.8h-11V2.7h11V5.5z M124.7,12.2h8.2v0.7c0,1.5-0.2,2.8-0.5,4
			c-0.3,1.1-0.9,2.1-1.7,3c-1.8,2.1-4.2,3.1-7,3.1c-2.8,0-5.2-1-7.1-3c-2-2-3-4.4-3-7.3c0-2.9,1-5.3,3-7.3c2-2,4.5-3,7.4-3
			c1.6,0,3,0.3,4.3,1c1.3,0.6,2.6,1.7,3.8,3.1l-2.1,2c-1.6-2.2-3.6-3.3-6-3.3c-2.1,0-3.9,0.7-5.3,2.2c-1.4,1.4-2.1,3.2-2.1,5.4
			c0,2.2,0.8,4,2.4,5.5c1.5,1.3,3.1,2,4.8,2c1.5,0,2.8-0.5,4-1.5c1.2-1,1.8-2.2,2-3.6h-5V12.2z M147.4,14.1l6.2,8.5h-3.7l-5.7-8.1
			h-0.5v8.1h-3V2.7h3.5c2.6,0,4.5,0.5,5.7,1.5c1.3,1.1,1.9,2.5,1.9,4.3c0,1.4-0.4,2.6-1.2,3.6C149.8,13.2,148.7,13.8,147.4,14.1z
			 M143.7,11.8h1c2.8,0,4.3-1.1,4.3-3.3c0-2-1.4-3-4.1-3h-1.1V11.8z M172.2,17.7h-8.5l-2.2,4.8h-3.2l9.8-21.1l9.5,21.1h-3.3
			L172.2,17.7z M171,14.9L168,8.2l-3.1,6.8H171z M190.7,14.1l6.2,8.5h-3.7l-5.7-8.1H187v8.1h-3V2.7h3.5c2.6,0,4.5,0.5,5.7,1.5
			c1.3,1.1,1.9,2.5,1.9,4.3c0,1.4-0.4,2.6-1.2,3.6C193.1,13.2,192,13.8,190.7,14.1z M187,11.8h1c2.8,0,4.3-1.1,4.3-3.3
			c0-2-1.4-3-4.1-3H187V11.8z M204,21.1c0-0.5,0.2-0.9,0.5-1.2c0.4-0.4,0.8-0.5,1.3-0.5c0.5,0,0.9,0.2,1.3,0.5
			c0.4,0.4,0.5,0.8,0.5,1.3c0,0.5-0.2,0.9-0.5,1.3c-0.3,0.3-0.8,0.5-1.3,0.5c-0.5,0-0.9-0.2-1.3-0.5S204,21.6,204,21.1z M204.3,18.1
			V2.7h2.9v15.4H204.3z"/>
	</defs>
	<clipPath id="SVGID_2_">
		<use xlink:href="#SVGID_1_"  style="overflow:visible;"/>
	</clipPath>
	<g class="st0">
		<g>
			
				<rect x="-44.4" y="0.5" transform="matrix(0.7071 -0.7071 0.7071 0.7071 1.5043 5.2777)" class="st1" width="103.1" height="0.6"/>
		</g>
		<g>
			
				<rect x="-42.4" y="0.5" transform="matrix(0.7071 -0.7071 0.7071 0.7071 2.1096 6.739)" class="st1" width="103.1" height="0.6"/>
		</g>
		<g>
			
				<rect x="-40.3" y="0.5" transform="matrix(0.7071 -0.7071 0.7071 0.7071 2.7152 8.2012)" class="st1" width="103.1" height="0.6"/>
		</g>
		<g>
			
				<rect x="-38.2" y="0.5" transform="matrix(0.7071 -0.7071 0.7071 0.7071 3.3205 9.6625)" class="st1" width="103.1" height="0.6"/>
		</g>
		<g>
			
				<rect x="-36.2" y="0.5" transform="matrix(0.7071 -0.7071 0.7071 0.7071 3.9258 11.1238)" class="st1" width="103.1" height="0.6"/>
		</g>
		<g>
			
				<rect x="-34.1" y="0.5" transform="matrix(0.7071 -0.7071 0.7071 0.7071 4.5314 12.5859)" class="st1" width="103.1" height="0.6"/>
		</g>
		<g>
			
				<rect x="-32" y="0.5" transform="matrix(0.7071 -0.7071 0.7071 0.7071 5.1367 14.0472)" class="st1" width="103.1" height="0.6"/>
		</g>
		<g>
			
				<rect x="-30" y="0.5" transform="matrix(0.7071 -0.7071 0.7071 0.7071 5.7424 15.5094)" class="st1" width="103.1" height="0.6"/>
		</g>
		<g>
			
				<rect x="-27.9" y="0.5" transform="matrix(0.7071 -0.7071 0.7071 0.7071 6.3477 16.9706)" class="st1" width="103.1" height="0.6"/>
		</g>
		<g>
			
				<rect x="-25.8" y="0.5" transform="matrix(0.7071 -0.7071 0.7071 0.7071 6.9529 18.4319)" class="st1" width="103.1" height="0.6"/>
		</g>
		<g>
			
				<rect x="-23.8" y="0.5" transform="matrix(0.7071 -0.7071 0.7071 0.7071 7.5586 19.8941)" class="st1" width="103.1" height="0.6"/>
		</g>
		<g>
			
				<rect x="-21.7" y="0.5" transform="matrix(0.7071 -0.7071 0.7071 0.7071 8.1639 21.3554)" class="st1" width="103.1" height="0.6"/>
		</g>
		<g>
			
				<rect x="-19.6" y="0.5" transform="matrix(0.7071 -0.7071 0.7071 0.7071 8.7692 22.8167)" class="st1" width="103.1" height="0.6"/>
		</g>
		<g>
			
				<rect x="-17.6" y="0.5" transform="matrix(0.7071 -0.7071 0.7071 0.7071 9.3748 24.2788)" class="st1" width="103.1" height="0.6"/>
		</g>
		<g>
			
				<rect x="-15.5" y="0.5" transform="matrix(0.7071 -0.7071 0.7071 0.7071 9.9801 25.7401)" class="st1" width="103.1" height="0.6"/>
		</g>
		<g>
			
				<rect x="-13.4" y="0.5" transform="matrix(0.7071 -0.7071 0.7071 0.7071 10.5857 27.2022)" class="st1" width="103.1" height="0.6"/>
		</g>
		<g>
			
				<rect x="-11.4" y="0.5" transform="matrix(0.7071 -0.7071 0.7071 0.7071 11.191 28.6635)" class="st1" width="103.1" height="0.6"/>
		</g>
		<g>
			
				<rect x="-9.3" y="0.5" transform="matrix(0.7071 -0.7071 0.7071 0.7071 11.7963 30.1248)" class="st1" width="103.1" height="0.6"/>
		</g>
		<g>
			
				<rect x="-7.2" y="0.5" transform="matrix(0.7071 -0.7071 0.7071 0.7071 12.4019 31.587)" class="st1" width="103.1" height="0.6"/>
		</g>
		<g>
			
				<rect x="-5.2" y="0.5" transform="matrix(0.7071 -0.7071 0.7071 0.7071 13.0072 33.0483)" class="st1" width="103.1" height="0.6"/>
		</g>
		<g>
			
				<rect x="-3.1" y="0.5" transform="matrix(0.7071 -0.7071 0.7071 0.7071 13.6125 34.5095)" class="st1" width="103.1" height="0.6"/>
		</g>
		<g>
			
				<rect x="-1" y="0.5" transform="matrix(0.7071 -0.7071 0.7071 0.7071 14.2181 35.9717)" class="st1" width="103.1" height="0.6"/>
		</g>
		<g>
			<rect x="1" y="0.5" transform="matrix(0.7071 -0.7071 0.7071 0.7071 14.8234 37.433)" class="st1" width="103.1" height="0.6"/>
		</g>
		<g>
			
				<rect x="3.1" y="0.5" transform="matrix(0.7071 -0.7071 0.7071 0.7071 15.4291 38.8951)" class="st1" width="103.1" height="0.6"/>
		</g>
		<g>
			
				<rect x="5.2" y="0.5" transform="matrix(0.7071 -0.7071 0.7071 0.7071 16.0344 40.3564)" class="st1" width="103.1" height="0.6"/>
		</g>
		<g>
			
				<rect x="7.2" y="0.5" transform="matrix(0.7071 -0.7071 0.7071 0.7071 16.6396 41.8177)" class="st1" width="103.1" height="0.6"/>
		</g>
		<g>
			
				<rect x="9.3" y="0.5" transform="matrix(0.7071 -0.7071 0.7071 0.7071 17.2453 43.2799)" class="st1" width="103.1" height="0.6"/>
		</g>
		<g>
			
				<rect x="11.4" y="0.5" transform="matrix(0.7071 -0.7071 0.7071 0.7071 17.8506 44.7412)" class="st1" width="103.1" height="0.6"/>
		</g>
		<g>
			
				<rect x="13.4" y="0.5" transform="matrix(0.7071 -0.7071 0.7071 0.7071 18.4559 46.2024)" class="st1" width="103.1" height="0.6"/>
		</g>
		<g>
			
				<rect x="15.5" y="0.5" transform="matrix(0.7071 -0.7071 0.7071 0.7071 19.0615 47.6646)" class="st1" width="103.1" height="0.6"/>
		</g>
		<g>
			
				<rect x="17.6" y="0.5" transform="matrix(0.7071 -0.7071 0.7071 0.7071 19.6668 49.1259)" class="st1" width="103.1" height="0.6"/>
		</g>
		<g>
			
				<rect x="19.6" y="0.5" transform="matrix(0.7071 -0.7071 0.7071 0.7071 20.2724 50.588)" class="st1" width="103.1" height="0.6"/>
		</g>
		<g>
			
				<rect x="21.7" y="0.5" transform="matrix(0.7071 -0.7071 0.7071 0.7071 20.8777 52.0493)" class="st1" width="103.1" height="0.6"/>
		</g>
		<g>
			
				<rect x="23.8" y="0.5" transform="matrix(0.7071 -0.7071 0.7071 0.7071 21.483 53.5106)" class="st1" width="103.1" height="0.6"/>
		</g>
		<g>
			
				<rect x="25.8" y="0.5" transform="matrix(0.7071 -0.7071 0.7071 0.7071 22.0886 54.9728)" class="st1" width="103.1" height="0.6"/>
		</g>
		<g>
			
				<rect x="27.9" y="0.5" transform="matrix(0.7071 -0.7071 0.7071 0.7071 22.6939 56.4341)" class="st1" width="103.1" height="0.6"/>
		</g>
		<g>
			
				<rect x="30" y="0.5" transform="matrix(0.7071 -0.7071 0.7071 0.7071 23.2992 57.8953)" class="st1" width="103.1" height="0.6"/>
		</g>
		<g>
			
				<rect x="32" y="0.5" transform="matrix(0.7071 -0.7071 0.7071 0.7071 23.9049 59.3575)" class="st1" width="103.1" height="0.6"/>
		</g>
		<g>
			
				<rect x="34.1" y="0.5" transform="matrix(0.7071 -0.7071 0.7071 0.7071 24.5101 60.8188)" class="st1" width="103.1" height="0.6"/>
		</g>
		<g>
			
				<rect x="36.2" y="0.5" transform="matrix(0.7071 -0.7071 0.7071 0.7071 25.1158 62.2809)" class="st1" width="103.1" height="0.6"/>
		</g>
		<g>
			
				<rect x="38.2" y="0.5" transform="matrix(0.7071 -0.7071 0.7071 0.7071 25.7211 63.7422)" class="st1" width="103.1" height="0.6"/>
		</g>
		<g>
			
				<rect x="40.3" y="0.5" transform="matrix(0.7071 -0.7071 0.7071 0.7071 26.3264 65.2035)" class="st1" width="103.1" height="0.6"/>
		</g>
		<g>
			
				<rect x="42.4" y="0.5" transform="matrix(0.7071 -0.7071 0.7071 0.7071 26.932 66.6657)" class="st1" width="103.1" height="0.6"/>
		</g>
		<g>
			
				<rect x="44.4" y="0.5" transform="matrix(0.7071 -0.7071 0.7071 0.7071 27.5373 68.1269)" class="st1" width="103.1" height="0.6"/>
		</g>
		<g>
			
				<rect x="46.5" y="0.5" transform="matrix(0.7071 -0.7071 0.7071 0.7071 28.1426 69.5882)" class="st1" width="103.1" height="0.6"/>
		</g>
		<g>
			
				<rect x="48.6" y="0.5" transform="matrix(0.7071 -0.7071 0.7071 0.7071 28.7482 71.0504)" class="st1" width="103.1" height="0.6"/>
		</g>
		<g>
			
				<rect x="50.6" y="0.5" transform="matrix(0.7071 -0.7071 0.7071 0.7071 29.3535 72.5117)" class="st1" width="103.1" height="0.6"/>
		</g>
		<g>
			
				<rect x="52.7" y="0.5" transform="matrix(0.7071 -0.7071 0.7071 0.7071 29.9588 73.973)" class="st1" width="103.1" height="0.6"/>
		</g>
		<g>
			
				<rect x="54.8" y="0.5" transform="matrix(0.7071 -0.7071 0.7071 0.7071 30.5644 75.4351)" class="st1" width="103.1" height="0.6"/>
		</g>
		<g>
			
				<rect x="56.8" y="0.5" transform="matrix(0.7071 -0.7071 0.7071 0.7071 31.1697 76.8964)" class="st1" width="103.1" height="0.6"/>
		</g>
		<g>
			
				<rect x="58.9" y="0.5" transform="matrix(0.7071 -0.7071 0.7071 0.7071 31.7754 78.3586)" class="st1" width="103.1" height="0.6"/>
		</g>
		<g>
			
				<rect x="61" y="0.5" transform="matrix(0.7071 -0.7071 0.7071 0.7071 32.3806 79.8198)" class="st1" width="103.1" height="0.6"/>
		</g>
		<g>
			
				<rect x="63" y="0.5" transform="matrix(0.7071 -0.7071 0.7071 0.7071 32.9859 81.2811)" class="st1" width="103.1" height="0.6"/>
		</g>
		<g>
			
				<rect x="65.1" y="0.5" transform="matrix(0.7071 -0.7071 0.7071 0.7071 33.5916 82.7433)" class="st1" width="103.1" height="0.6"/>
		</g>
		<g>
			
				<rect x="67.2" y="0.5" transform="matrix(0.7071 -0.7071 0.7071 0.7071 34.1969 84.2046)" class="st1" width="103.1" height="0.6"/>
		</g>
		<g>
			
				<rect x="69.2" y="0.5" transform="matrix(0.7071 -0.7071 0.7071 0.7071 34.8021 85.6658)" class="st1" width="103.1" height="0.6"/>
		</g>
		<g>
			
				<rect x="71.3" y="0.5" transform="matrix(0.7071 -0.7071 0.7071 0.7071 35.4078 87.128)" class="st1" width="103.1" height="0.6"/>
		</g>
		<g>
			
				<rect x="73.4" y="0.5" transform="matrix(0.7071 -0.7071 0.7071 0.7071 36.0131 88.5893)" class="st1" width="103.1" height="0.6"/>
		</g>
		<g>
			
				<rect x="75.4" y="0.5" transform="matrix(0.7071 -0.7071 0.7071 0.7071 36.6187 90.0514)" class="st1" width="103.1" height="0.6"/>
		</g>
		<g>
			
				<rect x="77.5" y="0.5" transform="matrix(0.7071 -0.7071 0.7071 0.7071 37.224 91.5127)" class="st1" width="103.1" height="0.6"/>
		</g>
		<g>
			
				<rect x="79.6" y="0.5" transform="matrix(0.7071 -0.7071 0.7071 0.7071 37.8293 92.974)" class="st1" width="103.1" height="0.6"/>
		</g>
		<g>
			
				<rect x="81.6" y="0.5" transform="matrix(0.7071 -0.7071 0.7071 0.7071 38.4349 94.4362)" class="st1" width="103.1" height="0.6"/>
		</g>
		<g>
			
				<rect x="83.7" y="0.5" transform="matrix(0.7071 -0.7071 0.7071 0.7071 39.0402 95.8975)" class="st1" width="103.1" height="0.6"/>
		</g>
		<g>
			
				<rect x="85.8" y="0.5" transform="matrix(0.7071 -0.7071 0.7071 0.7071 39.6455 97.3587)" class="st1" width="103.1" height="0.6"/>
		</g>
		<g>
			
				<rect x="87.9" y="0.5" transform="matrix(0.7071 -0.7071 0.7071 0.7071 40.2511 98.8209)" class="st1" width="103.1" height="0.6"/>
		</g>
		<g>
			
				<rect x="89.9" y="0.5" transform="matrix(0.7071 -0.7071 0.7071 0.7071 40.8564 100.2822)" class="st1" width="103.1" height="0.6"/>
		</g>
		<g>
			
				<rect x="92" y="0.5" transform="matrix(0.7071 -0.7071 0.7071 0.7071 41.4621 101.7443)" class="st1" width="103.1" height="0.6"/>
		</g>
		<g>
			
				<rect x="94.1" y="0.5" transform="matrix(0.7071 -0.7071 0.7071 0.7071 42.0674 103.2056)" class="st1" width="103.1" height="0.6"/>
		</g>
		<g>
			
				<rect x="96.1" y="0.5" transform="matrix(0.7071 -0.7071 0.7071 0.7071 42.6726 104.6669)" class="st1" width="103.1" height="0.6"/>
		</g>
		<g>
			
				<rect x="98.2" y="0.5" transform="matrix(0.7071 -0.7071 0.7071 0.7071 43.2783 106.1291)" class="st1" width="103.1" height="0.6"/>
		</g>
		<g>
			
				<rect x="100.3" y="0.5" transform="matrix(0.7071 -0.7071 0.7071 0.7071 43.8836 107.5903)" class="st1" width="103.1" height="0.6"/>
		</g>
		<g>
			
				<rect x="102.3" y="0.5" transform="matrix(0.7071 -0.7071 0.7071 0.7071 44.4888 109.0516)" class="st1" width="103.1" height="0.6"/>
		</g>
		<g>
			
				<rect x="104.4" y="0.5" transform="matrix(0.7071 -0.7071 0.7071 0.7071 45.0945 110.5138)" class="st1" width="103.1" height="0.6"/>
		</g>
		<g>
			
				<rect x="106.5" y="0.5" transform="matrix(0.7071 -0.7071 0.7071 0.7071 45.6998 111.9751)" class="st1" width="103.1" height="0.6"/>
		</g>
		<g>
			
				<rect x="108.5" y="0.5" transform="matrix(0.7071 -0.7071 0.7071 0.7071 46.3054 113.4372)" class="st1" width="103.1" height="0.6"/>
		</g>
		<g>
			
				<rect x="110.6" y="0.5" transform="matrix(0.7071 -0.7071 0.7071 0.7071 46.9107 114.8985)" class="st1" width="103.1" height="0.6"/>
		</g>
		<g>
			
				<rect x="112.7" y="0.5" transform="matrix(0.7071 -0.7071 0.7071 0.7071 47.516 116.3598)" class="st1" width="103.1" height="0.6"/>
		</g>
		<g>
			
				<rect x="114.7" y="0.5" transform="matrix(0.7071 -0.7071 0.7071 0.7071 48.1216 117.822)" class="st1" width="103.1" height="0.6"/>
		</g>
		<g>
			
				<rect x="116.8" y="0.5" transform="matrix(0.7071 -0.7071 0.7071 0.7071 48.7269 119.2832)" class="st1" width="103.1" height="0.6"/>
		</g>
		<g>
			
				<rect x="118.9" y="0.5" transform="matrix(0.7071 -0.7071 0.7071 0.7071 49.3322 120.7445)" class="st1" width="103.1" height="0.6"/>
		</g>
		<g>
			
				<rect x="120.9" y="0.5" transform="matrix(0.7071 -0.7071 0.7071 0.7071 49.9378 122.2067)" class="st1" width="103.1" height="0.6"/>
		</g>
		<g>
			
				<rect x="123" y="0.5" transform="matrix(0.7071 -0.7071 0.7071 0.7071 50.5431 123.668)" class="st1" width="103.1" height="0.6"/>
		</g>
		<g>
			
				<rect x="125.1" y="0.5" transform="matrix(0.7071 -0.7071 0.7071 0.7071 51.1484 125.1293)" class="st1" width="103.1" height="0.6"/>
		</g>
		<g>
			
				<rect x="127.1" y="0.5" transform="matrix(0.7071 -0.7071 0.7071 0.7071 51.7541 126.5914)" class="st1" width="103.1" height="0.6"/>
		</g>
		<g>
			
				<rect x="129.2" y="0.5" transform="matrix(0.7071 -0.7071 0.7071 0.7071 52.3593 128.0527)" class="st1" width="103.1" height="0.6"/>
		</g>
		<g>
			
				<rect x="131.3" y="0.5" transform="matrix(0.7071 -0.7071 0.7071 0.7071 52.965 129.5148)" class="st1" width="103.1" height="0.6"/>
		</g>
		<g>
			
				<rect x="133.3" y="0.5" transform="matrix(0.7071 -0.7071 0.7071 0.7071 53.5703 130.9761)" class="st1" width="103.1" height="0.6"/>
		</g>
		<g>
			
				<rect x="135.4" y="0.5" transform="matrix(0.7071 -0.7071 0.7071 0.7071 54.1756 132.4374)" class="st1" width="103.1" height="0.6"/>
		</g>
		<g>
			
				<rect x="137.5" y="0.5" transform="matrix(0.7071 -0.7071 0.7071 0.7071 54.7812 133.8996)" class="st1" width="103.1" height="0.6"/>
		</g>
		<g>
			
				<rect x="139.5" y="0.5" transform="matrix(0.7071 -0.7071 0.7071 0.7071 55.3865 135.3609)" class="st1" width="103.1" height="0.6"/>
		</g>
		<g>
			
				<rect x="141.6" y="0.5" transform="matrix(0.7071 -0.7071 0.7071 0.7071 55.9918 136.8221)" class="st1" width="103.1" height="0.6"/>
		</g>
		<g>
			
				<rect x="143.7" y="0.5" transform="matrix(0.7071 -0.7071 0.7071 0.7071 56.5974 138.2843)" class="st1" width="103.1" height="0.6"/>
		</g>
		<g>
			
				<rect x="145.7" y="0.5" transform="matrix(0.7071 -0.7071 0.7071 0.7071 57.2027 139.7456)" class="st1" width="103.1" height="0.6"/>
		</g>
		<g>
			
				<rect x="147.8" y="0.5" transform="matrix(0.7071 -0.7071 0.7071 0.7071 57.8083 141.2077)" class="st1" width="103.1" height="0.6"/>
		</g>
		<g>
			
				<rect x="149.9" y="0.5" transform="matrix(0.7071 -0.7071 0.7071 0.7071 58.4136 142.669)" class="st1" width="103.1" height="0.6"/>
		</g>
		<g>
			
				<rect x="151.9" y="0.5" transform="matrix(0.7071 -0.7071 0.7071 0.7071 59.0189 144.1303)" class="st1" width="103.1" height="0.6"/>
		</g>
		<g>
			
				<rect x="154" y="0.5" transform="matrix(0.7071 -0.7071 0.7071 0.7071 59.6246 145.5925)" class="st1" width="103.1" height="0.6"/>
		</g>
		<g>
			
				<rect x="156.1" y="0.5" transform="matrix(0.7071 -0.7071 0.7071 0.7071 60.2298 147.0538)" class="st1" width="103.1" height="0.6"/>
		</g>
		<g>
			
				<rect x="158.1" y="0.5" transform="matrix(0.7071 -0.7071 0.7071 0.7071 60.8351 148.515)" class="st1" width="103.1" height="0.6"/>
		</g>
		<g>
			
				<rect x="160.2" y="0.5" transform="matrix(0.7071 -0.7071 0.7071 0.7071 61.4408 149.9772)" class="st1" width="103.1" height="0.6"/>
		</g>
		<g>
			
				<rect x="162.3" y="0.5" transform="matrix(0.7071 -0.7071 0.7071 0.7071 62.0461 151.4385)" class="st1" width="103.1" height="0.6"/>
		</g>
		<g>
			
				<rect x="164.3" y="0.5" transform="matrix(0.7071 -0.7071 0.7071 0.7071 62.6517 152.9006)" class="st1" width="103.1" height="0.6"/>
		</g>
		<g>
			
				<rect x="166.4" y="0.5" transform="matrix(0.7071 -0.7071 0.7071 0.7071 63.257 154.3619)" class="st1" width="103.1" height="0.6"/>
		</g>
		<g>
			
				<rect x="168.5" y="0.5" transform="matrix(0.7071 -0.7071 0.7071 0.7071 63.8623 155.8232)" class="st1" width="103.1" height="0.6"/>
		</g>
		<g>
			
				<rect x="170.5" y="0.5" transform="matrix(0.7071 -0.7071 0.7071 0.7071 64.4679 157.2854)" class="st1" width="103.1" height="0.6"/>
		</g>
		<g>
			
				<rect x="172.6" y="0.5" transform="matrix(0.7071 -0.7071 0.7071 0.7071 65.0732 158.7466)" class="st1" width="103.1" height="0.6"/>
		</g>
		<g>
			
				<rect x="174.7" y="0.5" transform="matrix(0.7071 -0.7071 0.7071 0.7071 65.6785 160.2079)" class="st1" width="103.1" height="0.6"/>
		</g>
		<g>
			
				<rect x="176.7" y="0.5" transform="matrix(0.7071 -0.7071 0.7071 0.7071 66.2841 161.6701)" class="st1" width="103.1" height="0.6"/>
		</g>
		<g>
			
				<rect x="178.8" y="0.5" transform="matrix(0.7071 -0.7071 0.7071 0.7071 66.8894 163.1314)" class="st1" width="103.1" height="0.6"/>
		</g>
		<g>
			
				<rect x="180.9" y="0.5" transform="matrix(0.7071 -0.7071 0.7071 0.7071 67.4951 164.5935)" class="st1" width="103.1" height="0.6"/>
		</g>
		<g>
			
				<rect x="182.9" y="0.5" transform="matrix(0.7071 -0.7071 0.7071 0.7071 68.1003 166.0548)" class="st1" width="103.1" height="0.6"/>
		</g>
		<g>
			
				<rect x="185" y="0.5" transform="matrix(0.7071 -0.7071 0.7071 0.7071 68.7056 167.5161)" class="st1" width="103.1" height="0.6"/>
		</g>
		<g>
			
				<rect x="187.1" y="0.5" transform="matrix(0.7071 -0.7071 0.7071 0.7071 69.3113 168.9783)" class="st1" width="103.1" height="0.6"/>
		</g>
		<g>
			
				<rect x="189.1" y="0.5" transform="matrix(0.7071 -0.7071 0.7071 0.7071 69.9165 170.4395)" class="st1" width="103.1" height="0.6"/>
		</g>
		<g>
			
				<rect x="191.2" y="0.5" transform="matrix(0.7071 -0.7071 0.7071 0.7071 70.5218 171.9008)" class="st1" width="103.1" height="0.6"/>
		</g>
		<g>
			
				<rect x="193.3" y="0.5" transform="matrix(0.7071 -0.7071 0.7071 0.7071 71.1275 173.363)" class="st1" width="103.1" height="0.6"/>
		</g>
		<g>
			
				<rect x="195.3" y="0.5" transform="matrix(0.7071 -0.7071 0.7071 0.7071 71.7328 174.8243)" class="st1" width="103.1" height="0.6"/>
		</g>
		<g>
			
				<rect x="197.4" y="0.5" transform="matrix(0.7071 -0.7071 0.7071 0.7071 72.3384 176.2864)" class="st1" width="103.1" height="0.6"/>
		</g>
		<g>
			
				<rect x="199.5" y="0.5" transform="matrix(0.7071 -0.7071 0.7071 0.7071 72.9437 177.7477)" class="st1" width="103.1" height="0.6"/>
		</g>
		<g>
			
				<rect x="201.5" y="0.5" transform="matrix(0.7071 -0.7071 0.7071 0.7071 73.549 179.209)" class="st1" width="103.1" height="0.6"/>
		</g>
		<g>
			
				<rect x="203.6" y="0.5" transform="matrix(0.7071 -0.7071 0.7071 0.7071 74.1546 180.6712)" class="st1" width="103.1" height="0.6"/>
		</g>
		<g>
			
				<rect x="205.7" y="0.5" transform="matrix(0.7071 -0.7071 0.7071 0.7071 74.7599 182.1324)" class="st1" width="103.1" height="0.6"/>
		</g>
	</g>
</g>
<g>
	<defs>
		<path id="SVGID_3_" d="M525.2-205v18h6.2v3H522v-21H525.2z M550.2-202h-8.4v5h8.2v3h-8.2v7h8.4v3h-11.6v-21h11.6V-202z M569.3-195
			h8.7v0.7c0,1.6-0.2,3-0.6,4.2c-0.4,1.1-1,2.2-1.8,3.2c-1.9,2.2-4.4,3.3-7.4,3.3c-2.9,0-5.5-1.1-7.5-3.2c-2.1-2.1-3.1-4.7-3.1-7.7
			c0-3,1.1-5.6,3.2-7.8c2.1-2.1,4.7-3.2,7.8-3.2c1.6,0,3.2,0.3,4.6,1c1.4,0.7,2.7,1.8,4,3.3l-2.3,2.2c-1.7-2.3-3.8-3.4-6.3-3.4
			c-2.2,0-4.1,0.8-5.6,2.3c-1.5,1.5-2.3,3.4-2.3,5.7c0,2.3,0.8,4.3,2.5,5.8c1.6,1.4,3.3,2.1,5.1,2.1c1.6,0,3-0.5,4.2-1.6
			c1.2-1.1,1.9-2.3,2.1-3.8h-5.2V-195z M597.5-189.1h-9l-2.3,5.1h-3.4l10.4-22.3l10,22.3h-3.5L597.5-189.1z M596.2-192.1l-3.1-7.1
			l-3.3,7.1H596.2z M613.2-205v18h6.2v3H610v-21H613.2z M629.7-205v21h-3.2v-21H629.7z M642.5-187h10.1v3h-15.3l10.3-18H639v-3h13.8
			L642.5-187z M672.8-189.1h-9l-2.3,5.1h-3.4l10.4-22.3l10,22.3H675L672.8-189.1z M671.5-192.1l-3.1-7.1l-3.3,7.1H671.5z M692.4-193
			l6.5,8.9H695l-6-8.6h-0.6v8.6h-3.2v-21h3.7c2.8,0,4.8,0.5,6,1.6c1.4,1.2,2,2.7,2,4.6c0,1.5-0.4,2.8-1.3,3.8
			C694.9-194,693.8-193.3,692.4-193z M688.5-195.4h1c3,0,4.5-1.1,4.5-3.4c0-2.1-1.5-3.2-4.4-3.2h-1.1V-195.4z M706.4-185.5
			c0-0.5,0.2-0.9,0.6-1.3c0.4-0.4,0.8-0.6,1.3-0.6c0.5,0,1,0.2,1.3,0.6c0.4,0.4,0.6,0.8,0.6,1.3c0,0.5-0.2,1-0.6,1.3
			c-0.4,0.4-0.8,0.5-1.3,0.5c-0.5,0-1-0.2-1.3-0.5S706.4-185,706.4-185.5z M706.8-188.7V-205h3.1v16.3H706.8z"/>
	</defs>
	<clipPath id="SVGID_4_">
		<use xlink:href="#SVGID_3_"  style="overflow:visible;"/>
	</clipPath>
	<g class="st2">
		<g>
			
				<rect x="416.5" y="-199.6" transform="matrix(0.7071 -0.7071 0.7071 0.7071 281.7935 281.8395)" class="st3" width="129.1" height="0.7"/>
		</g>
		<g>
			
				<rect x="419.6" y="-199.6" transform="matrix(0.7071 -0.7071 0.7071 0.7071 282.6937 284.0128)" class="st3" width="129.1" height="0.7"/>
		</g>
		<g>
			
				<rect x="422.7" y="-199.6" transform="matrix(0.7071 -0.7071 0.7071 0.7071 283.5938 286.186)" class="st3" width="129.1" height="0.7"/>
		</g>
		<g>
			
				<rect x="425.8" y="-199.6" transform="matrix(0.7071 -0.7071 0.7071 0.7071 284.494 288.3592)" class="st3" width="129.1" height="0.7"/>
		</g>
		<g>
			
				<rect x="428.8" y="-199.6" transform="matrix(0.7071 -0.7071 0.7071 0.7071 285.3942 290.5324)" class="st3" width="129.1" height="0.7"/>
		</g>
		<g>
			
				<rect x="431.9" y="-199.6" transform="matrix(0.7071 -0.7071 0.7071 0.7071 286.2944 292.7057)" class="st3" width="129.1" height="0.7"/>
		</g>
		<g>
			
				<rect x="435" y="-199.6" transform="matrix(0.7071 -0.7071 0.7071 0.7071 287.1945 294.8787)" class="st3" width="129.1" height="0.7"/>
		</g>
		<g>
			
				<rect x="438" y="-199.6" transform="matrix(0.7071 -0.7071 0.7071 0.7071 288.0948 297.0521)" class="st3" width="129.1" height="0.7"/>
		</g>
		<g>
			
				<rect x="441.1" y="-199.6" transform="matrix(0.7071 -0.7071 0.7071 0.7071 288.9948 299.2251)" class="st3" width="129.1" height="0.7"/>
		</g>
		<g>
			
				<rect x="444.2" y="-199.6" transform="matrix(0.7071 -0.7071 0.7071 0.7071 289.8951 301.3986)" class="st3" width="129.1" height="0.7"/>
		</g>
		<g>
			
				<rect x="447.3" y="-199.6" transform="matrix(0.7071 -0.7071 0.7071 0.7071 290.7952 303.5716)" class="st3" width="129.1" height="0.7"/>
		</g>
		<g>
			
				<rect x="450.3" y="-199.6" transform="matrix(0.7071 -0.7071 0.7071 0.7071 291.6954 305.7448)" class="st3" width="129.1" height="0.7"/>
		</g>
		<g>
			
				<rect x="453.4" y="-199.6" transform="matrix(0.7071 -0.7071 0.7071 0.7071 292.5956 307.9181)" class="st3" width="129.1" height="0.7"/>
		</g>
		<g>
			
				<rect x="456.5" y="-199.6" transform="matrix(0.7071 -0.7071 0.7071 0.7071 293.4958 310.0913)" class="st3" width="129.1" height="0.7"/>
		</g>
		<g>
			
				<rect x="459.6" y="-199.6" transform="matrix(0.7071 -0.7071 0.7071 0.7071 294.3959 312.2645)" class="st3" width="129.1" height="0.7"/>
		</g>
		<g>
			
				<rect x="462.6" y="-199.6" transform="matrix(0.7071 -0.7071 0.7071 0.7071 295.2961 314.4377)" class="st3" width="129.1" height="0.7"/>
		</g>
		<g>
			
				<rect x="465.7" y="-199.6" transform="matrix(0.7071 -0.7071 0.7071 0.7071 296.1963 316.611)" class="st3" width="129.1" height="0.7"/>
		</g>
		<g>
			
				<rect x="468.8" y="-199.6" transform="matrix(0.7071 -0.7071 0.7071 0.7071 297.0965 318.7842)" class="st3" width="129.1" height="0.7"/>
		</g>
		<g>
			
				<rect x="471.9" y="-199.6" transform="matrix(0.7071 -0.7071 0.7071 0.7071 297.9966 320.9574)" class="st3" width="129.1" height="0.7"/>
		</g>
		<g>
			
				<rect x="474.9" y="-199.6" transform="matrix(0.7071 -0.7071 0.7071 0.7071 298.8968 323.1306)" class="st3" width="129.1" height="0.7"/>
		</g>
		<g>
			
				<rect x="478" y="-199.6" transform="matrix(0.7071 -0.7071 0.7071 0.7071 299.797 325.3039)" class="st3" width="129.1" height="0.7"/>
		</g>
		<g>
			
				<rect x="481.1" y="-199.6" transform="matrix(0.7071 -0.7071 0.7071 0.7071 300.6972 327.4771)" class="st3" width="129.1" height="0.7"/>
		</g>
		<g>
			
				<rect x="484.1" y="-199.6" transform="matrix(0.7071 -0.7071 0.7071 0.7071 301.5974 329.6503)" class="st3" width="129.1" height="0.7"/>
		</g>
		<g>
			
				<rect x="487.2" y="-199.6" transform="matrix(0.7071 -0.7071 0.7071 0.7071 302.4975 331.8233)" class="st3" width="129.1" height="0.7"/>
		</g>
		<g>
			
				<rect x="490.3" y="-199.6" transform="matrix(0.7071 -0.7071 0.7071 0.7071 303.3977 333.9968)" class="st3" width="129.1" height="0.7"/>
		</g>
		<g>
			
				<rect x="493.4" y="-199.6" transform="matrix(0.7071 -0.7071 0.7071 0.7071 304.2978 336.1698)" class="st3" width="129.1" height="0.7"/>
		</g>
		<g>
			
				<rect x="496.4" y="-199.6" transform="matrix(0.7071 -0.7071 0.7071 0.7071 305.1981 338.3433)" class="st3" width="129.1" height="0.7"/>
		</g>
		<g>
			
				<rect x="499.5" y="-199.6" transform="matrix(0.7071 -0.7071 0.7071 0.7071 306.0982 340.5162)" class="st3" width="129.1" height="0.7"/>
		</g>
		<g>
			
				<rect x="502.6" y="-199.6" transform="matrix(0.7071 -0.7071 0.7071 0.7071 306.9984 342.6895)" class="st3" width="129.1" height="0.7"/>
		</g>
		<g>
			
				<rect x="505.7" y="-199.6" transform="matrix(0.7071 -0.7071 0.7071 0.7071 307.8985 344.8627)" class="st3" width="129.1" height="0.7"/>
		</g>
		<g>
			
				<rect x="508.7" y="-199.6" transform="matrix(0.7071 -0.7071 0.7071 0.7071 308.7987 347.0359)" class="st3" width="129.1" height="0.7"/>
		</g>
		<g>
			
				<rect x="511.8" y="-199.6" transform="matrix(0.7071 -0.7071 0.7071 0.7071 309.6989 349.2092)" class="st3" width="129.1" height="0.7"/>
		</g>
		<g>
			
				<rect x="514.9" y="-199.6" transform="matrix(0.7071 -0.7071 0.7071 0.7071 310.599 351.3822)" class="st3" width="129.1" height="0.7"/>
		</g>
		<g>
			
				<rect x="518" y="-199.6" transform="matrix(0.7071 -0.7071 0.7071 0.7071 311.4994 353.5558)" class="st3" width="129.1" height="0.7"/>
		</g>
		<g>
			
				<rect x="521" y="-199.6" transform="matrix(0.7071 -0.7071 0.7071 0.7071 312.3994 355.7289)" class="st3" width="129.1" height="0.7"/>
		</g>
		<g>
			
				<rect x="524.1" y="-199.6" transform="matrix(0.7071 -0.7071 0.7071 0.7071 313.2996 357.9021)" class="st3" width="129.1" height="0.7"/>
		</g>
		<g>
			
				<rect x="527.2" y="-199.6" transform="matrix(0.7071 -0.7071 0.7071 0.7071 314.1997 360.0751)" class="st3" width="129.1" height="0.7"/>
		</g>
		<g>
			
				<rect x="530.2" y="-199.6" transform="matrix(0.7071 -0.7071 0.7071 0.7071 315.1001 362.2487)" class="st3" width="129.1" height="0.7"/>
		</g>
		<g>
			
				<rect x="533.3" y="-199.6" transform="matrix(0.7071 -0.7071 0.7071 0.7071 316.0002 364.4218)" class="st3" width="129.1" height="0.7"/>
		</g>
		<g>
			
				<rect x="536.4" y="-199.6" transform="matrix(0.7071 -0.7071 0.7071 0.7071 316.9004 366.595)" class="st3" width="129.1" height="0.7"/>
		</g>
		<g>
			
				<rect x="539.5" y="-199.6" transform="matrix(0.7071 -0.7071 0.7071 0.7071 317.8004 368.768)" class="st3" width="129.1" height="0.7"/>
		</g>
		<g>
			
				<rect x="542.5" y="-199.6" transform="matrix(0.7071 -0.7071 0.7071 0.7071 318.7006 370.9412)" class="st3" width="129.1" height="0.7"/>
		</g>
		<g>
			
				<rect x="545.6" y="-199.6" transform="matrix(0.7071 -0.7071 0.7071 0.7071 319.6009 373.1147)" class="st3" width="129.1" height="0.7"/>
		</g>
		<g>
			
				<rect x="548.7" y="-199.6" transform="matrix(0.7071 -0.7071 0.7071 0.7071 320.501 375.2877)" class="st3" width="129.1" height="0.7"/>
		</g>
		<g>
			
				<rect x="551.8" y="-199.6" transform="matrix(0.7071 -0.7071 0.7071 0.7071 321.4012 377.4609)" class="st3" width="129.1" height="0.7"/>
		</g>
		<g>
			
				<rect x="554.8" y="-199.6" transform="matrix(0.7071 -0.7071 0.7071 0.7071 322.3012 379.6339)" class="st3" width="129.1" height="0.7"/>
		</g>
		<g>
			
				<rect x="557.9" y="-199.6" transform="matrix(0.7071 -0.7071 0.7071 0.7071 323.2016 381.8076)" class="st3" width="129.1" height="0.7"/>
		</g>
		<g>
			
				<rect x="561" y="-199.6" transform="matrix(0.7071 -0.7071 0.7071 0.7071 324.1017 383.9806)" class="st3" width="129.1" height="0.7"/>
		</g>
		<g>
			
				<rect x="564.1" y="-199.6" transform="matrix(0.7071 -0.7071 0.7071 0.7071 325.0019 386.1538)" class="st3" width="129.1" height="0.7"/>
		</g>
		<g>
			
				<rect x="567.1" y="-199.6" transform="matrix(0.7071 -0.7071 0.7071 0.7071 325.902 388.3268)" class="st3" width="129.1" height="0.7"/>
		</g>
		<g>
			
				<rect x="570.2" y="-199.6" transform="matrix(0.7071 -0.7071 0.7071 0.7071 326.8023 390.5005)" class="st3" width="129.1" height="0.7"/>
		</g>
		<g>
			
				<rect x="573.3" y="-199.6" transform="matrix(0.7071 -0.7071 0.7071 0.7071 327.7024 392.6735)" class="st3" width="129.1" height="0.7"/>
		</g>
		<g>
			
				<rect x="576.4" y="-199.6" transform="matrix(0.7071 -0.7071 0.7071 0.7071 328.6026 394.8467)" class="st3" width="129.1" height="0.7"/>
		</g>
		<g>
			
				<rect x="579.4" y="-199.6" transform="matrix(0.7071 -0.7071 0.7071 0.7071 329.5027 397.0197)" class="st3" width="129.1" height="0.7"/>
		</g>
		<g>
			
				<rect x="582.5" y="-199.6" transform="matrix(0.7071 -0.7071 0.7071 0.7071 330.4029 399.193)" class="st3" width="129.1" height="0.7"/>
		</g>
		<g>
			
				<rect x="585.6" y="-199.6" transform="matrix(0.7071 -0.7071 0.7071 0.7071 331.3031 401.3664)" class="st3" width="129.1" height="0.7"/>
		</g>
		<g>
			
				<rect x="588.6" y="-199.6" transform="matrix(0.7071 -0.7071 0.7071 0.7071 332.2033 403.5396)" class="st3" width="129.1" height="0.7"/>
		</g>
		<g>
			
				<rect x="591.7" y="-199.6" transform="matrix(0.7071 -0.7071 0.7071 0.7071 333.1034 405.7126)" class="st3" width="129.1" height="0.7"/>
		</g>
		<g>
			
				<rect x="594.8" y="-199.6" transform="matrix(0.7071 -0.7071 0.7071 0.7071 334.0036 407.8859)" class="st3" width="129.1" height="0.7"/>
		</g>
		<g>
			
				<rect x="597.9" y="-199.6" transform="matrix(0.7071 -0.7071 0.7071 0.7071 334.9039 410.0593)" class="st3" width="129.1" height="0.7"/>
		</g>
		<g>
			
				<rect x="600.9" y="-199.6" transform="matrix(0.7071 -0.7071 0.7071 0.7071 335.804 412.2325)" class="st3" width="129.1" height="0.7"/>
		</g>
		<g>
			
				<rect x="604" y="-199.6" transform="matrix(0.7071 -0.7071 0.7071 0.7071 336.7041 414.4055)" class="st3" width="129.1" height="0.7"/>
		</g>
		<g>
			
				<rect x="607.1" y="-199.6" transform="matrix(0.7071 -0.7071 0.7071 0.7071 337.6042 416.5786)" class="st3" width="129.1" height="0.7"/>
		</g>
		<g>
			
				<rect x="610.2" y="-199.6" transform="matrix(0.7071 -0.7071 0.7071 0.7071 338.5045 418.752)" class="st3" width="129.1" height="0.7"/>
		</g>
		<g>
			
				<rect x="613.2" y="-199.6" transform="matrix(0.7071 -0.7071 0.7071 0.7071 339.4048 420.9255)" class="st3" width="129.1" height="0.7"/>
		</g>
		<g>
			
				<rect x="616.3" y="-199.6" transform="matrix(0.7071 -0.7071 0.7071 0.7071 340.3048 423.0984)" class="st3" width="129.1" height="0.7"/>
		</g>
		<g>
			
				<rect x="619.4" y="-199.6" transform="matrix(0.7071 -0.7071 0.7071 0.7071 341.2049 425.2715)" class="st3" width="129.1" height="0.7"/>
		</g>
		<g>
			
				<rect x="622.5" y="-199.6" transform="matrix(0.7071 -0.7071 0.7071 0.7071 342.1052 427.4449)" class="st3" width="129.1" height="0.7"/>
		</g>
		<g>
			
				<rect x="625.5" y="-199.6" transform="matrix(0.7071 -0.7071 0.7071 0.7071 343.0055 429.6184)" class="st3" width="129.1" height="0.7"/>
		</g>
		<g>
			
				<rect x="628.6" y="-199.6" transform="matrix(0.7071 -0.7071 0.7071 0.7071 343.9056 431.7914)" class="st3" width="129.1" height="0.7"/>
		</g>
		<g>
			
				<rect x="631.7" y="-199.6" transform="matrix(0.7071 -0.7071 0.7071 0.7071 344.8057 433.9644)" class="st3" width="129.1" height="0.7"/>
		</g>
		<g>
			
				<rect x="634.7" y="-199.6" transform="matrix(0.7071 -0.7071 0.7071 0.7071 345.7057 436.1374)" class="st3" width="129.1" height="0.7"/>
		</g>
		<g>
			
				<rect x="637.8" y="-199.6" transform="matrix(0.7071 -0.7071 0.7071 0.7071 346.6062 438.3113)" class="st3" width="129.1" height="0.7"/>
		</g>
		<g>
			
				<rect x="640.9" y="-199.6" transform="matrix(0.7071 -0.7071 0.7071 0.7071 347.5063 440.4843)" class="st3" width="129.1" height="0.7"/>
		</g>
		<g>
			
				<rect x="644" y="-199.6" transform="matrix(0.7071 -0.7071 0.7071 0.7071 348.4064 442.6573)" class="st3" width="129.1" height="0.7"/>
		</g>
		<g>
			
				<rect x="647" y="-199.6" transform="matrix(0.7071 -0.7071 0.7071 0.7071 349.3065 444.8303)" class="st3" width="129.1" height="0.7"/>
		</g>
		<g>
			
				<rect x="650.1" y="-199.6" transform="matrix(0.7071 -0.7071 0.7071 0.7071 350.2068 447.0038)" class="st3" width="129.1" height="0.7"/>
		</g>
		<g>
			
				<rect x="653.2" y="-199.6" transform="matrix(0.7071 -0.7071 0.7071 0.7071 351.107 449.1772)" class="st3" width="129.1" height="0.7"/>
		</g>
		<g>
			
				<rect x="656.3" y="-199.6" transform="matrix(0.7071 -0.7071 0.7071 0.7071 352.0071 451.3502)" class="st3" width="129.1" height="0.7"/>
		</g>
		<g>
			
				<rect x="659.3" y="-199.6" transform="matrix(0.7071 -0.7071 0.7071 0.7071 352.9072 453.5232)" class="st3" width="129.1" height="0.7"/>
		</g>
		<g>
			
				<rect x="662.4" y="-199.6" transform="matrix(0.7071 -0.7071 0.7071 0.7071 353.8075 455.6967)" class="st3" width="129.1" height="0.7"/>
		</g>
		<g>
			
				<rect x="665.5" y="-199.6" transform="matrix(0.7071 -0.7071 0.7071 0.7071 354.7077 457.8701)" class="st3" width="129.1" height="0.7"/>
		</g>
		<g>
			
				<rect x="668.6" y="-199.6" transform="matrix(0.7071 -0.7071 0.7071 0.7071 355.6078 460.0431)" class="st3" width="129.1" height="0.7"/>
		</g>
		<g>
			
				<rect x="671.6" y="-199.6" transform="matrix(0.7071 -0.7071 0.7071 0.7071 356.5079 462.2161)" class="st3" width="129.1" height="0.7"/>
		</g>
		<g>
			
				<rect x="674.7" y="-199.6" transform="matrix(0.7071 -0.7071 0.7071 0.7071 357.4082 464.3896)" class="st3" width="129.1" height="0.7"/>
		</g>
		<g>
			
				<rect x="677.8" y="-199.6" transform="matrix(0.7071 -0.7071 0.7071 0.7071 358.3085 466.563)" class="st3" width="129.1" height="0.7"/>
		</g>
		<g>
			
				<rect x="680.8" y="-199.6" transform="matrix(0.7071 -0.7071 0.7071 0.7071 359.2086 468.736)" class="st3" width="129.1" height="0.7"/>
		</g>
		<g>
			
				<rect x="683.9" y="-199.6" transform="matrix(0.7071 -0.7071 0.7071 0.7071 360.1086 470.909)" class="st3" width="129.1" height="0.7"/>
		</g>
		<g>
			
				<rect x="687" y="-199.6" transform="matrix(0.7071 -0.7071 0.7071 0.7071 361.0087 473.082)" class="st3" width="129.1" height="0.7"/>
		</g>
		<g>
			
				<rect x="690.1" y="-199.6" transform="matrix(0.7071 -0.7071 0.7071 0.7071 361.9092 475.256)" class="st3" width="129.1" height="0.7"/>
		</g>
		<g>
			
				<rect x="693.1" y="-199.6" transform="matrix(0.7071 -0.7071 0.7071 0.7071 362.8093 477.429)" class="st3" width="129.1" height="0.7"/>
		</g>
		<g>
			
				<rect x="696.2" y="-199.6" transform="matrix(0.7071 -0.7071 0.7071 0.7071 363.7094 479.6019)" class="st3" width="129.1" height="0.7"/>
		</g>
	</g>
</g>
<g>
	<defs>
		<path id="SVGID_5_" d="M531.4-253.6v21h-3.2v-21H531.4z M540.6-232.6V-255l15.3,16v-14.6h3.2v22.3l-15.3-16v14.7H540.6z
			 M574.1-250.6v18h-3.2v-18h-4.8v-3h12.8v3H574.1z M597.5-250.6h-8.4v5h8.2v3h-8.2v7h8.4v3h-11.6v-21h11.6V-250.6z M616.7-243.6
			h8.7v0.7c0,1.6-0.2,3-0.6,4.2c-0.4,1.1-1,2.2-1.8,3.2c-1.9,2.2-4.4,3.3-7.4,3.3c-2.9,0-5.5-1.1-7.5-3.2c-2.1-2.1-3.1-4.7-3.1-7.7
			c0-3,1.1-5.6,3.2-7.8c2.1-2.1,4.7-3.2,7.8-3.2c1.6,0,3.2,0.3,4.6,1c1.4,0.7,2.7,1.8,4,3.3l-2.3,2.2c-1.7-2.3-3.8-3.4-6.3-3.4
			c-2.2,0-4.1,0.8-5.6,2.3c-1.5,1.5-2.3,3.4-2.3,5.7c0,2.3,0.8,4.3,2.5,5.8c1.6,1.4,3.3,2.1,5.1,2.1c1.6,0,3-0.5,4.2-1.6
			c1.2-1.1,1.9-2.3,2.1-3.8h-5.2V-243.6z M640.6-241.6l6.5,8.9h-3.9l-6-8.6h-0.6v8.6h-3.2v-21h3.7c2.8,0,4.8,0.5,6,1.6
			c1.4,1.2,2,2.7,2,4.6c0,1.5-0.4,2.8-1.3,3.8S642-241.9,640.6-241.6z M636.7-244h1c3,0,4.5-1.1,4.5-3.4c0-2.1-1.5-3.2-4.4-3.2h-1.1
			V-244z M666.8-237.7h-9l-2.3,5.1H652l10.4-22.3l10,22.3H669L666.8-237.7z M665.5-240.7l-3.1-7.1l-3.3,7.1H665.5z M686.3-241.6
			l6.5,8.9H689l-6-8.6h-0.6v8.6h-3.2v-21h3.7c2.8,0,4.8,0.5,6,1.6c1.4,1.2,2,2.7,2,4.6c0,1.5-0.4,2.8-1.3,3.8
			S687.7-241.9,686.3-241.6z M682.4-244h1c3,0,4.5-1.1,4.5-3.4c0-2.1-1.5-3.2-4.4-3.2h-1.1V-244z M700.4-234.1
			c0-0.5,0.2-0.9,0.6-1.3c0.4-0.4,0.8-0.6,1.3-0.6s1,0.2,1.3,0.6c0.4,0.4,0.6,0.8,0.6,1.3c0,0.5-0.2,1-0.6,1.3
			c-0.4,0.4-0.8,0.5-1.3,0.5c-0.5,0-1-0.2-1.3-0.5C700.6-233.1,700.4-233.6,700.4-234.1z M700.7-237.3v-16.3h3.1v16.3H700.7z"/>
	</defs>
	<clipPath id="SVGID_6_">
		<use xlink:href="#SVGID_5_"  style="overflow:visible;"/>
	</clipPath>
	<g class="st4">
		<g>
			
				<rect x="416.6" y="-241" transform="matrix(0.7071 -0.7071 0.7071 0.7071 311.1329 269.7459)" class="st3" width="129.1" height="0.7"/>
		</g>
		<g>
			
				<rect x="419.7" y="-241" transform="matrix(0.7071 -0.7071 0.7071 0.7071 312.0331 271.9191)" class="st3" width="129.1" height="0.7"/>
		</g>
		<g>
			
				<rect x="422.8" y="-241" transform="matrix(0.7071 -0.7071 0.7071 0.7071 312.9333 274.0923)" class="st3" width="129.1" height="0.7"/>
		</g>
		<g>
			
				<rect x="425.8" y="-241" transform="matrix(0.7071 -0.7071 0.7071 0.7071 313.8334 276.2656)" class="st3" width="129.1" height="0.7"/>
		</g>
		<g>
			
				<rect x="428.9" y="-241" transform="matrix(0.7071 -0.7071 0.7071 0.7071 314.7336 278.4388)" class="st3" width="129.1" height="0.7"/>
		</g>
		<g>
			
				<rect x="432" y="-241" transform="matrix(0.7071 -0.7071 0.7071 0.7071 315.6338 280.612)" class="st3" width="129.1" height="0.7"/>
		</g>
		<g>
			
				<rect x="435" y="-241" transform="matrix(0.7071 -0.7071 0.7071 0.7071 316.5339 282.785)" class="st3" width="129.1" height="0.7"/>
		</g>
		<g>
			
				<rect x="438.1" y="-241" transform="matrix(0.7071 -0.7071 0.7071 0.7071 317.4342 284.9585)" class="st3" width="129.1" height="0.7"/>
		</g>
		<g>
			
				<rect x="441.2" y="-241" transform="matrix(0.7071 -0.7071 0.7071 0.7071 318.3343 287.1315)" class="st3" width="129.1" height="0.7"/>
		</g>
		<g>
			
				<rect x="444.3" y="-241" transform="matrix(0.7071 -0.7071 0.7071 0.7071 319.2345 289.3049)" class="st3" width="129.1" height="0.7"/>
		</g>
		<g>
			
				<rect x="447.3" y="-241" transform="matrix(0.7071 -0.7071 0.7071 0.7071 320.1346 291.4779)" class="st3" width="129.1" height="0.7"/>
		</g>
		<g>
			
				<rect x="450.4" y="-241" transform="matrix(0.7071 -0.7071 0.7071 0.7071 321.0348 293.6512)" class="st3" width="129.1" height="0.7"/>
		</g>
		<g>
			
				<rect x="453.5" y="-241" transform="matrix(0.7071 -0.7071 0.7071 0.7071 321.935 295.8244)" class="st3" width="129.1" height="0.7"/>
		</g>
		<g>
			
				<rect x="456.6" y="-241" transform="matrix(0.7071 -0.7071 0.7071 0.7071 322.8352 297.9976)" class="st3" width="129.1" height="0.7"/>
		</g>
		<g>
			
				<rect x="459.6" y="-241" transform="matrix(0.7071 -0.7071 0.7071 0.7071 323.7354 300.1708)" class="st3" width="129.1" height="0.7"/>
		</g>
		<g>
			
				<rect x="462.7" y="-241" transform="matrix(0.7071 -0.7071 0.7071 0.7071 324.6355 302.3441)" class="st3" width="129.1" height="0.7"/>
		</g>
		<g>
			
				<rect x="465.8" y="-241" transform="matrix(0.7071 -0.7071 0.7071 0.7071 325.5357 304.5173)" class="st3" width="129.1" height="0.7"/>
		</g>
		<g>
			
				<rect x="468.9" y="-241" transform="matrix(0.7071 -0.7071 0.7071 0.7071 326.4359 306.6905)" class="st3" width="129.1" height="0.7"/>
		</g>
		<g>
			
				<rect x="471.9" y="-241" transform="matrix(0.7071 -0.7071 0.7071 0.7071 327.3361 308.8637)" class="st3" width="129.1" height="0.7"/>
		</g>
		<g>
			
				<rect x="475" y="-241" transform="matrix(0.7071 -0.7071 0.7071 0.7071 328.2362 311.037)" class="st3" width="129.1" height="0.7"/>
		</g>
		<g>
			
				<rect x="478.1" y="-241" transform="matrix(0.7071 -0.7071 0.7071 0.7071 329.1364 313.2102)" class="st3" width="129.1" height="0.7"/>
		</g>
		<g>
			
				<rect x="481.1" y="-241" transform="matrix(0.7071 -0.7071 0.7071 0.7071 330.0366 315.3834)" class="st3" width="129.1" height="0.7"/>
		</g>
		<g>
			
				<rect x="484.2" y="-241" transform="matrix(0.7071 -0.7071 0.7071 0.7071 330.9368 317.5567)" class="st3" width="129.1" height="0.7"/>
		</g>
		<g>
			
				<rect x="487.3" y="-241" transform="matrix(0.7071 -0.7071 0.7071 0.7071 331.8369 319.7296)" class="st3" width="129.1" height="0.7"/>
		</g>
		<g>
			
				<rect x="490.4" y="-241" transform="matrix(0.7071 -0.7071 0.7071 0.7071 332.7372 321.9031)" class="st3" width="129.1" height="0.7"/>
		</g>
		<g>
			
				<rect x="493.4" y="-241" transform="matrix(0.7071 -0.7071 0.7071 0.7071 333.6372 324.0761)" class="st3" width="129.1" height="0.7"/>
		</g>
		<g>
			
				<rect x="496.5" y="-241" transform="matrix(0.7071 -0.7071 0.7071 0.7071 334.5375 326.2496)" class="st3" width="129.1" height="0.7"/>
		</g>
		<g>
			
				<rect x="499.6" y="-241" transform="matrix(0.7071 -0.7071 0.7071 0.7071 335.4376 328.4226)" class="st3" width="129.1" height="0.7"/>
		</g>
		<g>
			
				<rect x="502.7" y="-241" transform="matrix(0.7071 -0.7071 0.7071 0.7071 336.3378 330.5958)" class="st3" width="129.1" height="0.7"/>
		</g>
		<g>
			
				<rect x="505.7" y="-241" transform="matrix(0.7071 -0.7071 0.7071 0.7071 337.2379 332.769)" class="st3" width="129.1" height="0.7"/>
		</g>
		<g>
			
				<rect x="508.8" y="-241" transform="matrix(0.7071 -0.7071 0.7071 0.7071 338.1381 334.9423)" class="st3" width="129.1" height="0.7"/>
		</g>
		<g>
			
				<rect x="511.9" y="-241" transform="matrix(0.7071 -0.7071 0.7071 0.7071 339.0383 337.1155)" class="st3" width="129.1" height="0.7"/>
		</g>
		<g>
			
				<rect x="515" y="-241" transform="matrix(0.7071 -0.7071 0.7071 0.7071 339.9384 339.2885)" class="st3" width="129.1" height="0.7"/>
		</g>
		<g>
			
				<rect x="518" y="-241" transform="matrix(0.7071 -0.7071 0.7071 0.7071 340.8388 341.4622)" class="st3" width="129.1" height="0.7"/>
		</g>
		<g>
			
				<rect x="521.1" y="-241" transform="matrix(0.7071 -0.7071 0.7071 0.7071 341.7389 343.6352)" class="st3" width="129.1" height="0.7"/>
		</g>
		<g>
			
				<rect x="524.2" y="-241" transform="matrix(0.7071 -0.7071 0.7071 0.7071 342.639 345.8084)" class="st3" width="129.1" height="0.7"/>
		</g>
		<g>
			
				<rect x="527.2" y="-241" transform="matrix(0.7071 -0.7071 0.7071 0.7071 343.5391 347.9814)" class="st3" width="129.1" height="0.7"/>
		</g>
		<g>
			
				<rect x="530.3" y="-241" transform="matrix(0.7071 -0.7071 0.7071 0.7071 344.4395 350.1551)" class="st3" width="129.1" height="0.7"/>
		</g>
		<g>
			
				<rect x="533.4" y="-241" transform="matrix(0.7071 -0.7071 0.7071 0.7071 345.3396 352.3281)" class="st3" width="129.1" height="0.7"/>
		</g>
		<g>
			
				<rect x="536.5" y="-241" transform="matrix(0.7071 -0.7071 0.7071 0.7071 346.2398 354.5013)" class="st3" width="129.1" height="0.7"/>
		</g>
		<g>
			
				<rect x="539.5" y="-241" transform="matrix(0.7071 -0.7071 0.7071 0.7071 347.1399 356.6743)" class="st3" width="129.1" height="0.7"/>
		</g>
		<g>
			
				<rect x="542.6" y="-241" transform="matrix(0.7071 -0.7071 0.7071 0.7071 348.04 358.8475)" class="st3" width="129.1" height="0.7"/>
		</g>
		<g>
			
				<rect x="545.7" y="-241" transform="matrix(0.7071 -0.7071 0.7071 0.7071 348.9403 361.021)" class="st3" width="129.1" height="0.7"/>
		</g>
		<g>
			
				<rect x="548.8" y="-241" transform="matrix(0.7071 -0.7071 0.7071 0.7071 349.8404 363.194)" class="st3" width="129.1" height="0.7"/>
		</g>
		<g>
			
				<rect x="551.8" y="-241" transform="matrix(0.7071 -0.7071 0.7071 0.7071 350.7406 365.3672)" class="st3" width="129.1" height="0.7"/>
		</g>
		<g>
			
				<rect x="554.9" y="-241" transform="matrix(0.7071 -0.7071 0.7071 0.7071 351.6407 367.5402)" class="st3" width="129.1" height="0.7"/>
		</g>
		<g>
			
				<rect x="558" y="-241" transform="matrix(0.7071 -0.7071 0.7071 0.7071 352.541 369.7139)" class="st3" width="129.1" height="0.7"/>
		</g>
		<g>
			
				<rect x="561.1" y="-241" transform="matrix(0.7071 -0.7071 0.7071 0.7071 353.4411 371.8869)" class="st3" width="129.1" height="0.7"/>
		</g>
		<g>
			
				<rect x="564.1" y="-241" transform="matrix(0.7071 -0.7071 0.7071 0.7071 354.3413 374.0602)" class="st3" width="129.1" height="0.7"/>
		</g>
		<g>
			
				<rect x="567.2" y="-241" transform="matrix(0.7071 -0.7071 0.7071 0.7071 355.2414 376.2331)" class="st3" width="129.1" height="0.7"/>
		</g>
		<g>
			
				<rect x="570.3" y="-241" transform="matrix(0.7071 -0.7071 0.7071 0.7071 356.1418 378.4068)" class="st3" width="129.1" height="0.7"/>
		</g>
		<g>
			
				<rect x="573.3" y="-241" transform="matrix(0.7071 -0.7071 0.7071 0.7071 357.0418 380.5798)" class="st3" width="129.1" height="0.7"/>
		</g>
		<g>
			
				<rect x="576.4" y="-241" transform="matrix(0.7071 -0.7071 0.7071 0.7071 357.942 382.7531)" class="st3" width="129.1" height="0.7"/>
		</g>
		<g>
			
				<rect x="579.5" y="-241" transform="matrix(0.7071 -0.7071 0.7071 0.7071 358.8421 384.9261)" class="st3" width="129.1" height="0.7"/>
		</g>
		<g>
			
				<rect x="582.6" y="-241" transform="matrix(0.7071 -0.7071 0.7071 0.7071 359.7423 387.0993)" class="st3" width="129.1" height="0.7"/>
		</g>
		<g>
			
				<rect x="585.6" y="-241" transform="matrix(0.7071 -0.7071 0.7071 0.7071 360.6425 389.2727)" class="st3" width="129.1" height="0.7"/>
		</g>
		<g>
			
				<rect x="588.7" y="-241" transform="matrix(0.7071 -0.7071 0.7071 0.7071 361.5427 391.446)" class="st3" width="129.1" height="0.7"/>
		</g>
		<g>
			
				<rect x="591.8" y="-241" transform="matrix(0.7071 -0.7071 0.7071 0.7071 362.4428 393.619)" class="st3" width="129.1" height="0.7"/>
		</g>
		<g>
			
				<rect x="594.9" y="-241" transform="matrix(0.7071 -0.7071 0.7071 0.7071 363.343 395.7922)" class="st3" width="129.1" height="0.7"/>
		</g>
		<g>
			
				<rect x="597.9" y="-241" transform="matrix(0.7071 -0.7071 0.7071 0.7071 364.2433 397.9656)" class="st3" width="129.1" height="0.7"/>
		</g>
		<g>
			
				<rect x="601" y="-241" transform="matrix(0.7071 -0.7071 0.7071 0.7071 365.1435 400.1389)" class="st3" width="129.1" height="0.7"/>
		</g>
		<g>
			
				<rect x="604.1" y="-241" transform="matrix(0.7071 -0.7071 0.7071 0.7071 366.0435 402.3119)" class="st3" width="129.1" height="0.7"/>
		</g>
		<g>
			
				<rect x="607.2" y="-241" transform="matrix(0.7071 -0.7071 0.7071 0.7071 366.9436 404.4849)" class="st3" width="129.1" height="0.7"/>
		</g>
		<g>
			
				<rect x="610.2" y="-241" transform="matrix(0.7071 -0.7071 0.7071 0.7071 367.8439 406.6583)" class="st3" width="129.1" height="0.7"/>
		</g>
		<g>
			
				<rect x="613.3" y="-241" transform="matrix(0.7071 -0.7071 0.7071 0.7071 368.7442 408.8318)" class="st3" width="129.1" height="0.7"/>
		</g>
		<g>
			
				<rect x="616.4" y="-241" transform="matrix(0.7071 -0.7071 0.7071 0.7071 369.6443 411.0048)" class="st3" width="129.1" height="0.7"/>
		</g>
		<g>
			
				<rect x="619.4" y="-241" transform="matrix(0.7071 -0.7071 0.7071 0.7071 370.5443 413.1778)" class="st3" width="129.1" height="0.7"/>
		</g>
		<g>
			
				<rect x="622.5" y="-241" transform="matrix(0.7071 -0.7071 0.7071 0.7071 371.4446 415.3513)" class="st3" width="129.1" height="0.7"/>
		</g>
		<g>
			
				<rect x="625.6" y="-241" transform="matrix(0.7071 -0.7071 0.7071 0.7071 372.3449 417.5247)" class="st3" width="129.1" height="0.7"/>
		</g>
		<g>
			
				<rect x="628.7" y="-241" transform="matrix(0.7071 -0.7071 0.7071 0.7071 373.245 419.6977)" class="st3" width="129.1" height="0.7"/>
		</g>
		<g>
			
				<rect x="631.7" y="-241" transform="matrix(0.7071 -0.7071 0.7071 0.7071 374.1451 421.8707)" class="st3" width="129.1" height="0.7"/>
		</g>
		<g>
			
				<rect x="634.8" y="-241" transform="matrix(0.7071 -0.7071 0.7071 0.7071 375.0452 424.0437)" class="st3" width="129.1" height="0.7"/>
		</g>
		<g>
			
				<rect x="637.9" y="-241" transform="matrix(0.7071 -0.7071 0.7071 0.7071 375.9456 426.2176)" class="st3" width="129.1" height="0.7"/>
		</g>
		<g>
			
				<rect x="641" y="-241" transform="matrix(0.7071 -0.7071 0.7071 0.7071 376.8457 428.3906)" class="st3" width="129.1" height="0.7"/>
		</g>
		<g>
			
				<rect x="644" y="-241" transform="matrix(0.7071 -0.7071 0.7071 0.7071 377.7458 430.5636)" class="st3" width="129.1" height="0.7"/>
		</g>
		<g>
			
				<rect x="647.1" y="-241" transform="matrix(0.7071 -0.7071 0.7071 0.7071 378.6459 432.7366)" class="st3" width="129.1" height="0.7"/>
		</g>
		<g>
			
				<rect x="650.2" y="-241" transform="matrix(0.7071 -0.7071 0.7071 0.7071 379.5462 434.9101)" class="st3" width="129.1" height="0.7"/>
		</g>
		<g>
			
				<rect x="653.3" y="-241" transform="matrix(0.7071 -0.7071 0.7071 0.7071 380.4464 437.0835)" class="st3" width="129.1" height="0.7"/>
		</g>
		<g>
			
				<rect x="656.3" y="-241" transform="matrix(0.7071 -0.7071 0.7071 0.7071 381.3465 439.2565)" class="st3" width="129.1" height="0.7"/>
		</g>
		<g>
			
				<rect x="659.4" y="-241" transform="matrix(0.7071 -0.7071 0.7071 0.7071 382.2466 441.4295)" class="st3" width="129.1" height="0.7"/>
		</g>
		<g>
			
				<rect x="662.5" y="-241" transform="matrix(0.7071 -0.7071 0.7071 0.7071 383.1469 443.603)" class="st3" width="129.1" height="0.7"/>
		</g>
		<g>
			
				<rect x="665.6" y="-241" transform="matrix(0.7071 -0.7071 0.7071 0.7071 384.0471 445.7764)" class="st3" width="129.1" height="0.7"/>
		</g>
		<g>
			
				<rect x="668.6" y="-241" transform="matrix(0.7071 -0.7071 0.7071 0.7071 384.9472 447.9494)" class="st3" width="129.1" height="0.7"/>
		</g>
		<g>
			
				<rect x="671.7" y="-241" transform="matrix(0.7071 -0.7071 0.7071 0.7071 385.8473 450.1224)" class="st3" width="129.1" height="0.7"/>
		</g>
		<g>
			
				<rect x="674.8" y="-241" transform="matrix(0.7071 -0.7071 0.7071 0.7071 386.7476 452.2959)" class="st3" width="129.1" height="0.7"/>
		</g>
		<g>
			
				<rect x="677.8" y="-241" transform="matrix(0.7071 -0.7071 0.7071 0.7071 387.6479 454.4694)" class="st3" width="129.1" height="0.7"/>
		</g>
		<g>
			
				<rect x="680.9" y="-241" transform="matrix(0.7071 -0.7071 0.7071 0.7071 388.548 456.6424)" class="st3" width="129.1" height="0.7"/>
		</g>
		<g>
			
				<rect x="684" y="-241" transform="matrix(0.7071 -0.7071 0.7071 0.7071 389.4481 458.8154)" class="st3" width="129.1" height="0.7"/>
		</g>
		<g>
			
				<rect x="687.1" y="-241" transform="matrix(0.7071 -0.7071 0.7071 0.7071 390.3481 460.9883)" class="st3" width="129.1" height="0.7"/>
		</g>
		<g>
			
				<rect x="690.1" y="-241" transform="matrix(0.7071 -0.7071 0.7071 0.7071 391.2486 463.1623)" class="st3" width="129.1" height="0.7"/>
		</g>
		<g>
			
				<rect x="693.2" y="-241" transform="matrix(0.7071 -0.7071 0.7071 0.7071 392.1487 465.3353)" class="st3" width="129.1" height="0.7"/>
		</g>
		<g>
			
				<rect x="696.3" y="-241" transform="matrix(0.7071 -0.7071 0.7071 0.7071 393.0488 467.5083)" class="st3" width="129.1" height="0.7"/>
		</g>
	</g>
</g>
<g>
	<defs>
		<path id="SVGID_7_" d="M506.6-331.5l6.5,8.9h-3.9l-6-8.6h-0.6v8.6h-3.2v-21h3.7c2.8,0,4.8,0.5,6,1.6c1.4,1.2,2,2.7,2,4.6
			c0,1.5-0.4,2.8-1.3,3.8C509.2-332.5,508-331.8,506.6-331.5z M502.7-333.9h1c3,0,4.5-1.1,4.5-3.4c0-2.1-1.5-3.2-4.4-3.2h-1.1
			V-333.9z M532-340.6h-8.4v5h8.2v3h-8.2v7h8.4v3h-11.6v-21H532V-340.6z M555.9-342.4v3.8c-1.8-1.5-3.7-2.3-5.7-2.3
			c-2.2,0-4,0.8-5.5,2.3c-1.5,1.5-2.2,3.4-2.2,5.7c0,2.2,0.7,4.1,2.2,5.6c1.5,1.5,3.3,2.3,5.5,2.3c1.1,0,2.1-0.2,2.8-0.5
			c0.4-0.2,0.9-0.4,1.4-0.7c0.5-0.3,1-0.7,1.5-1.1v3.8c-1.8,1-3.7,1.5-5.7,1.5c-3,0-5.6-1-7.7-3.1c-2.1-2.1-3.2-4.7-3.2-7.6
			c0-2.7,0.9-5.1,2.7-7.2c2.2-2.6,5-3.8,8.4-3.8C552.3-344,554.1-343.5,555.9-342.4z M562.9-333.2c0-3,1.1-5.5,3.2-7.6
			c2.2-2.1,4.8-3.2,7.8-3.2c3,0,5.6,1.1,7.7,3.2c2.1,2.1,3.2,4.7,3.2,7.7c0,3-1.1,5.6-3.2,7.7c-2.2,2.1-4.8,3.2-7.8,3.2
			c-2.7,0-5.1-0.9-7.3-2.8C564.1-327.1,562.9-329.8,562.9-333.2z M566.1-333.1c0,2.3,0.8,4.2,2.3,5.7c1.6,1.5,3.3,2.2,5.4,2.2
			c2.2,0,4.1-0.8,5.6-2.3c1.5-1.5,2.3-3.4,2.3-5.6c0-2.2-0.7-4.1-2.2-5.6c-1.5-1.5-3.3-2.3-5.5-2.3c-2.2,0-4,0.8-5.5,2.3
			C566.8-337.2,566.1-335.3,566.1-333.1z M593-322.6V-345l15.3,16v-14.6h3.2v22.3l-15.3-16v14.7H593z M623.9-335.4h9.1v-8.2h3.2v21
			h-3.2v-9.8h-9.1v9.8h-3.2v-21h3.2V-335.4z M656.9-340.6h-8.4v5h8.2v3h-8.2v7h8.4v3h-11.6v-21h11.6V-340.6z M680.7-342.4v3.8
			c-1.8-1.5-3.7-2.3-5.7-2.3c-2.2,0-4,0.8-5.5,2.3c-1.5,1.5-2.2,3.4-2.2,5.7c0,2.2,0.7,4.1,2.2,5.6c1.5,1.5,3.3,2.3,5.5,2.3
			c1.1,0,2.1-0.2,2.8-0.5c0.4-0.2,0.9-0.4,1.4-0.7c0.5-0.3,1-0.7,1.5-1.1v3.8c-1.8,1-3.7,1.5-5.7,1.5c-3,0-5.6-1-7.7-3.1
			c-2.1-2.1-3.2-4.7-3.2-7.6c0-2.7,0.9-5.1,2.7-7.2c2.2-2.6,5-3.8,8.4-3.8C677.1-344,679-343.5,680.7-342.4z M700.5-340.6h-8.4v5
			h8.2v3h-8.2v7h8.4v3h-11.6v-21h11.6V-340.6z M715.9-331.5l6.5,8.9h-3.9l-6-8.6H712v8.6h-3.2v-21h3.7c2.8,0,4.8,0.5,6,1.6
			c1.4,1.2,2,2.7,2,4.6c0,1.5-0.4,2.8-1.3,3.8C718.5-332.5,717.3-331.8,715.9-331.5z M712-333.9h1c3,0,4.5-1.1,4.5-3.4
			c0-2.1-1.5-3.2-4.4-3.2H712V-333.9z M730-324.1c0-0.5,0.2-0.9,0.6-1.3c0.4-0.4,0.8-0.6,1.3-0.6s1,0.2,1.3,0.6
			c0.4,0.4,0.6,0.8,0.6,1.3c0,0.5-0.2,1-0.6,1.3c-0.4,0.4-0.8,0.5-1.3,0.5c-0.5,0-1-0.2-1.3-0.5S730-323.5,730-324.1z M730.3-327.2
			v-16.3h3.1v16.3H730.3z"/>
	</defs>
	<clipPath id="SVGID_8_">
		<use xlink:href="#SVGID_7_"  style="overflow:visible;"/>
	</clipPath>
	<g class="st5">
		<g>
			
				<rect x="417" y="-338.4" transform="matrix(0.7071 -0.7071 0.7071 0.7071 380.1033 241.5401)" class="st3" width="129.1" height="0.7"/>
		</g>
		<g>
			
				<rect x="420.1" y="-338.4" transform="matrix(0.7071 -0.7071 0.7071 0.7071 381.0035 243.7133)" class="st3" width="129.1" height="0.7"/>
		</g>
		<g>
			
				<rect x="423.2" y="-338.4" transform="matrix(0.7071 -0.7071 0.7071 0.7071 381.9037 245.8866)" class="st3" width="129.1" height="0.7"/>
		</g>
		<g>
			
				<rect x="426.3" y="-338.4" transform="matrix(0.7071 -0.7071 0.7071 0.7071 382.8038 248.0598)" class="st3" width="129.1" height="0.7"/>
		</g>
		<g>
			
				<rect x="429.3" y="-338.4" transform="matrix(0.7071 -0.7071 0.7071 0.7071 383.704 250.233)" class="st3" width="129.1" height="0.7"/>
		</g>
		<g>
			
				<rect x="432.4" y="-338.4" transform="matrix(0.7071 -0.7071 0.7071 0.7071 384.6042 252.4062)" class="st3" width="129.1" height="0.7"/>
		</g>
		<g>
			
				<rect x="435.5" y="-338.4" transform="matrix(0.7071 -0.7071 0.7071 0.7071 385.5043 254.5792)" class="st3" width="129.1" height="0.7"/>
		</g>
		<g>
			
				<rect x="438.6" y="-338.4" transform="matrix(0.7071 -0.7071 0.7071 0.7071 386.4046 256.7527)" class="st3" width="129.1" height="0.7"/>
		</g>
		<g>
			
				<rect x="441.6" y="-338.4" transform="matrix(0.7071 -0.7071 0.7071 0.7071 387.3047 258.9257)" class="st3" width="129.1" height="0.7"/>
		</g>
		<g>
			
				<rect x="444.7" y="-338.4" transform="matrix(0.7071 -0.7071 0.7071 0.7071 388.2049 261.0992)" class="st3" width="129.1" height="0.7"/>
		</g>
		<g>
			
				<rect x="447.8" y="-338.4" transform="matrix(0.7071 -0.7071 0.7071 0.7071 389.105 263.2722)" class="st3" width="129.1" height="0.7"/>
		</g>
		<g>
			
				<rect x="450.9" y="-338.4" transform="matrix(0.7071 -0.7071 0.7071 0.7071 390.0052 265.4454)" class="st3" width="129.1" height="0.7"/>
		</g>
		<g>
			
				<rect x="453.9" y="-338.4" transform="matrix(0.7071 -0.7071 0.7071 0.7071 390.9054 267.6186)" class="st3" width="129.1" height="0.7"/>
		</g>
		<g>
			
				<rect x="457" y="-338.4" transform="matrix(0.7071 -0.7071 0.7071 0.7071 391.8055 269.7918)" class="st3" width="129.1" height="0.7"/>
		</g>
		<g>
			
				<rect x="460.1" y="-338.4" transform="matrix(0.7071 -0.7071 0.7071 0.7071 392.7057 271.9651)" class="st3" width="129.1" height="0.7"/>
		</g>
		<g>
			
				<rect x="463.1" y="-338.4" transform="matrix(0.7071 -0.7071 0.7071 0.7071 393.6059 274.1383)" class="st3" width="129.1" height="0.7"/>
		</g>
		<g>
			
				<rect x="466.2" y="-338.4" transform="matrix(0.7071 -0.7071 0.7071 0.7071 394.5061 276.3115)" class="st3" width="129.1" height="0.7"/>
		</g>
		<g>
			
				<rect x="469.3" y="-338.4" transform="matrix(0.7071 -0.7071 0.7071 0.7071 395.4063 278.4847)" class="st3" width="129.1" height="0.7"/>
		</g>
		<g>
			
				<rect x="472.4" y="-338.4" transform="matrix(0.7071 -0.7071 0.7071 0.7071 396.3065 280.658)" class="st3" width="129.1" height="0.7"/>
		</g>
		<g>
			
				<rect x="475.4" y="-338.4" transform="matrix(0.7071 -0.7071 0.7071 0.7071 397.2066 282.8312)" class="st3" width="129.1" height="0.7"/>
		</g>
		<g>
			
				<rect x="478.5" y="-338.4" transform="matrix(0.7071 -0.7071 0.7071 0.7071 398.1068 285.0044)" class="st3" width="129.1" height="0.7"/>
		</g>
		<g>
			
				<rect x="481.6" y="-338.4" transform="matrix(0.7071 -0.7071 0.7071 0.7071 399.007 287.1777)" class="st3" width="129.1" height="0.7"/>
		</g>
		<g>
			
				<rect x="484.7" y="-338.4" transform="matrix(0.7071 -0.7071 0.7071 0.7071 399.9072 289.3509)" class="st3" width="129.1" height="0.7"/>
		</g>
		<g>
			
				<rect x="487.7" y="-338.4" transform="matrix(0.7071 -0.7071 0.7071 0.7071 400.8073 291.5239)" class="st3" width="129.1" height="0.7"/>
		</g>
		<g>
			
				<rect x="490.8" y="-338.4" transform="matrix(0.7071 -0.7071 0.7071 0.7071 401.7075 293.6974)" class="st3" width="129.1" height="0.7"/>
		</g>
		<g>
			
				<rect x="493.9" y="-338.4" transform="matrix(0.7071 -0.7071 0.7071 0.7071 402.6076 295.8704)" class="st3" width="129.1" height="0.7"/>
		</g>
		<g>
			
				<rect x="497" y="-338.4" transform="matrix(0.7071 -0.7071 0.7071 0.7071 403.5079 298.0438)" class="st3" width="129.1" height="0.7"/>
		</g>
		<g>
			
				<rect x="500" y="-338.4" transform="matrix(0.7071 -0.7071 0.7071 0.7071 404.408 300.2168)" class="st3" width="129.1" height="0.7"/>
		</g>
		<g>
			
				<rect x="503.1" y="-338.4" transform="matrix(0.7071 -0.7071 0.7071 0.7071 405.3082 302.39)" class="st3" width="129.1" height="0.7"/>
		</g>
		<g>
			
				<rect x="506.2" y="-338.4" transform="matrix(0.7071 -0.7071 0.7071 0.7071 406.2083 304.5633)" class="st3" width="129.1" height="0.7"/>
		</g>
		<g>
			
				<rect x="509.2" y="-338.4" transform="matrix(0.7071 -0.7071 0.7071 0.7071 407.1085 306.7365)" class="st3" width="129.1" height="0.7"/>
		</g>
		<g>
			
				<rect x="512.3" y="-338.4" transform="matrix(0.7071 -0.7071 0.7071 0.7071 408.0087 308.9097)" class="st3" width="129.1" height="0.7"/>
		</g>
		<g>
			
				<rect x="515.4" y="-338.4" transform="matrix(0.7071 -0.7071 0.7071 0.7071 408.9088 311.0827)" class="st3" width="129.1" height="0.7"/>
		</g>
		<g>
			
				<rect x="518.5" y="-338.4" transform="matrix(0.7071 -0.7071 0.7071 0.7071 409.8092 313.2564)" class="st3" width="129.1" height="0.7"/>
		</g>
		<g>
			
				<rect x="521.5" y="-338.4" transform="matrix(0.7071 -0.7071 0.7071 0.7071 410.7093 315.4294)" class="st3" width="129.1" height="0.7"/>
		</g>
		<g>
			
				<rect x="524.6" y="-338.4" transform="matrix(0.7071 -0.7071 0.7071 0.7071 411.6094 317.6026)" class="st3" width="129.1" height="0.7"/>
		</g>
		<g>
			
				<rect x="527.7" y="-338.4" transform="matrix(0.7071 -0.7071 0.7071 0.7071 412.5095 319.7756)" class="st3" width="129.1" height="0.7"/>
		</g>
		<g>
			
				<rect x="530.8" y="-338.4" transform="matrix(0.7071 -0.7071 0.7071 0.7071 413.4099 321.9493)" class="st3" width="129.1" height="0.7"/>
		</g>
		<g>
			
				<rect x="533.8" y="-338.4" transform="matrix(0.7071 -0.7071 0.7071 0.7071 414.31 324.1223)" class="st3" width="129.1" height="0.7"/>
		</g>
		<g>
			
				<rect x="536.9" y="-338.4" transform="matrix(0.7071 -0.7071 0.7071 0.7071 415.2101 326.2955)" class="st3" width="129.1" height="0.7"/>
		</g>
		<g>
			
				<rect x="540" y="-338.4" transform="matrix(0.7071 -0.7071 0.7071 0.7071 416.1102 328.4685)" class="st3" width="129.1" height="0.7"/>
		</g>
		<g>
			
				<rect x="543.1" y="-338.4" transform="matrix(0.7071 -0.7071 0.7071 0.7071 417.0104 330.6418)" class="st3" width="129.1" height="0.7"/>
		</g>
		<g>
			
				<rect x="546.1" y="-338.4" transform="matrix(0.7071 -0.7071 0.7071 0.7071 417.9107 332.8152)" class="st3" width="129.1" height="0.7"/>
		</g>
		<g>
			
				<rect x="549.2" y="-338.4" transform="matrix(0.7071 -0.7071 0.7071 0.7071 418.8108 334.9882)" class="st3" width="129.1" height="0.7"/>
		</g>
		<g>
			
				<rect x="552.3" y="-338.4" transform="matrix(0.7071 -0.7071 0.7071 0.7071 419.711 337.1615)" class="st3" width="129.1" height="0.7"/>
		</g>
		<g>
			
				<rect x="555.3" y="-338.4" transform="matrix(0.7071 -0.7071 0.7071 0.7071 420.6111 339.3345)" class="st3" width="129.1" height="0.7"/>
		</g>
		<g>
			
				<rect x="558.4" y="-338.4" transform="matrix(0.7071 -0.7071 0.7071 0.7071 421.5114 341.5081)" class="st3" width="129.1" height="0.7"/>
		</g>
		<g>
			
				<rect x="561.5" y="-338.4" transform="matrix(0.7071 -0.7071 0.7071 0.7071 422.4115 343.6812)" class="st3" width="129.1" height="0.7"/>
		</g>
		<g>
			
				<rect x="564.6" y="-338.4" transform="matrix(0.7071 -0.7071 0.7071 0.7071 423.3117 345.8544)" class="st3" width="129.1" height="0.7"/>
		</g>
		<g>
			
				<rect x="567.6" y="-338.4" transform="matrix(0.7071 -0.7071 0.7071 0.7071 424.2118 348.0274)" class="st3" width="129.1" height="0.7"/>
		</g>
		<g>
			
				<rect x="570.7" y="-338.4" transform="matrix(0.7071 -0.7071 0.7071 0.7071 425.1121 350.201)" class="st3" width="129.1" height="0.7"/>
		</g>
		<g>
			
				<rect x="573.8" y="-338.4" transform="matrix(0.7071 -0.7071 0.7071 0.7071 426.0122 352.3741)" class="st3" width="129.1" height="0.7"/>
		</g>
		<g>
			
				<rect x="576.9" y="-338.4" transform="matrix(0.7071 -0.7071 0.7071 0.7071 426.9124 354.5473)" class="st3" width="129.1" height="0.7"/>
		</g>
		<g>
			
				<rect x="579.9" y="-338.4" transform="matrix(0.7071 -0.7071 0.7071 0.7071 427.8125 356.7203)" class="st3" width="129.1" height="0.7"/>
		</g>
		<g>
			
				<rect x="583" y="-338.4" transform="matrix(0.7071 -0.7071 0.7071 0.7071 428.7127 358.8935)" class="st3" width="129.1" height="0.7"/>
		</g>
		<g>
			
				<rect x="586.1" y="-338.4" transform="matrix(0.7071 -0.7071 0.7071 0.7071 429.6129 361.067)" class="st3" width="129.1" height="0.7"/>
		</g>
		<g>
			
				<rect x="589.2" y="-338.4" transform="matrix(0.7071 -0.7071 0.7071 0.7071 430.5131 363.2402)" class="st3" width="129.1" height="0.7"/>
		</g>
		<g>
			
				<rect x="592.2" y="-338.4" transform="matrix(0.7071 -0.7071 0.7071 0.7071 431.4132 365.4132)" class="st3" width="129.1" height="0.7"/>
		</g>
		<g>
			
				<rect x="595.3" y="-338.4" transform="matrix(0.7071 -0.7071 0.7071 0.7071 432.3134 367.5864)" class="st3" width="129.1" height="0.7"/>
		</g>
		<g>
			
				<rect x="598.4" y="-338.4" transform="matrix(0.7071 -0.7071 0.7071 0.7071 433.2137 369.7599)" class="st3" width="129.1" height="0.7"/>
		</g>
		<g>
			
				<rect x="601.4" y="-338.4" transform="matrix(0.7071 -0.7071 0.7071 0.7071 434.1139 371.9331)" class="st3" width="129.1" height="0.7"/>
		</g>
		<g>
			
				<rect x="604.5" y="-338.4" transform="matrix(0.7071 -0.7071 0.7071 0.7071 435.0139 374.1061)" class="st3" width="129.1" height="0.7"/>
		</g>
		<g>
			
				<rect x="607.6" y="-338.4" transform="matrix(0.7071 -0.7071 0.7071 0.7071 435.914 376.2791)" class="st3" width="129.1" height="0.7"/>
		</g>
		<g>
			
				<rect x="610.7" y="-338.4" transform="matrix(0.7071 -0.7071 0.7071 0.7071 436.8143 378.4526)" class="st3" width="129.1" height="0.7"/>
		</g>
		<g>
			
				<rect x="613.7" y="-338.4" transform="matrix(0.7071 -0.7071 0.7071 0.7071 437.7146 380.626)" class="st3" width="129.1" height="0.7"/>
		</g>
		<g>
			
				<rect x="616.8" y="-338.4" transform="matrix(0.7071 -0.7071 0.7071 0.7071 438.6147 382.799)" class="st3" width="129.1" height="0.7"/>
		</g>
		<g>
			
				<rect x="619.9" y="-338.4" transform="matrix(0.7071 -0.7071 0.7071 0.7071 439.5147 384.972)" class="st3" width="129.1" height="0.7"/>
		</g>
		<g>
			
				<rect x="623" y="-338.4" transform="matrix(0.7071 -0.7071 0.7071 0.7071 440.415 387.1455)" class="st3" width="129.1" height="0.7"/>
		</g>
		<g>
			
				<rect x="626" y="-338.4" transform="matrix(0.7071 -0.7071 0.7071 0.7071 441.3153 389.3189)" class="st3" width="129.1" height="0.7"/>
		</g>
		<g>
			
				<rect x="629.1" y="-338.4" transform="matrix(0.7071 -0.7071 0.7071 0.7071 442.2154 391.4919)" class="st3" width="129.1" height="0.7"/>
		</g>
		<g>
			
				<rect x="632.2" y="-338.4" transform="matrix(0.7071 -0.7071 0.7071 0.7071 443.1155 393.6649)" class="st3" width="129.1" height="0.7"/>
		</g>
		<g>
			
				<rect x="635.3" y="-338.4" transform="matrix(0.7071 -0.7071 0.7071 0.7071 444.0156 395.838)" class="st3" width="129.1" height="0.7"/>
		</g>
		<g>
			
				<rect x="638.3" y="-338.4" transform="matrix(0.7071 -0.7071 0.7071 0.7071 444.916 398.0118)" class="st3" width="129.1" height="0.7"/>
		</g>
		<g>
			
				<rect x="641.4" y="-338.4" transform="matrix(0.7071 -0.7071 0.7071 0.7071 445.8161 400.1848)" class="st3" width="129.1" height="0.7"/>
		</g>
		<g>
			
				<rect x="644.5" y="-338.4" transform="matrix(0.7071 -0.7071 0.7071 0.7071 446.7162 402.3578)" class="st3" width="129.1" height="0.7"/>
		</g>
		<g>
			
				<rect x="647.5" y="-338.4" transform="matrix(0.7071 -0.7071 0.7071 0.7071 447.6163 404.5309)" class="st3" width="129.1" height="0.7"/>
		</g>
		<g>
			
				<rect x="650.6" y="-338.4" transform="matrix(0.7071 -0.7071 0.7071 0.7071 448.5165 406.7043)" class="st3" width="129.1" height="0.7"/>
		</g>
		<g>
			
				<rect x="653.7" y="-338.4" transform="matrix(0.7071 -0.7071 0.7071 0.7071 449.4168 408.8778)" class="st3" width="129.1" height="0.7"/>
		</g>
		<g>
			
				<rect x="656.8" y="-338.4" transform="matrix(0.7071 -0.7071 0.7071 0.7071 450.3169 411.0508)" class="st3" width="129.1" height="0.7"/>
		</g>
		<g>
			
				<rect x="659.8" y="-338.4" transform="matrix(0.7071 -0.7071 0.7071 0.7071 451.217 413.2238)" class="st3" width="129.1" height="0.7"/>
		</g>
		<g>
			
				<rect x="662.9" y="-338.4" transform="matrix(0.7071 -0.7071 0.7071 0.7071 452.1173 415.3972)" class="st3" width="129.1" height="0.7"/>
		</g>
		<g>
			
				<rect x="666" y="-338.4" transform="matrix(0.7071 -0.7071 0.7071 0.7071 453.0175 417.5707)" class="st3" width="129.1" height="0.7"/>
		</g>
		<g>
			
				<rect x="669.1" y="-338.4" transform="matrix(0.7071 -0.7071 0.7071 0.7071 453.9176 419.7437)" class="st3" width="129.1" height="0.7"/>
		</g>
		<g>
			
				<rect x="672.1" y="-338.4" transform="matrix(0.7071 -0.7071 0.7071 0.7071 454.8177 421.9167)" class="st3" width="129.1" height="0.7"/>
		</g>
		<g>
			
				<rect x="675.2" y="-338.4" transform="matrix(0.7071 -0.7071 0.7071 0.7071 455.718 424.0901)" class="st3" width="129.1" height="0.7"/>
		</g>
		<g>
			
				<rect x="678.3" y="-338.4" transform="matrix(0.7071 -0.7071 0.7071 0.7071 456.6183 426.2636)" class="st3" width="129.1" height="0.7"/>
		</g>
		<g>
			
				<rect x="681.4" y="-338.4" transform="matrix(0.7071 -0.7071 0.7071 0.7071 457.5183 428.4366)" class="st3" width="129.1" height="0.7"/>
		</g>
		<g>
			
				<rect x="684.4" y="-338.4" transform="matrix(0.7071 -0.7071 0.7071 0.7071 458.4184 430.6096)" class="st3" width="129.1" height="0.7"/>
		</g>
		<g>
			
				<rect x="687.5" y="-338.4" transform="matrix(0.7071 -0.7071 0.7071 0.7071 459.3185 432.7826)" class="st3" width="129.1" height="0.7"/>
		</g>
		<g>
			
				<rect x="690.6" y="-338.4" transform="matrix(0.7071 -0.7071 0.7071 0.7071 460.219 434.9565)" class="st3" width="129.1" height="0.7"/>
		</g>
		<g>
			
				<rect x="693.6" y="-338.4" transform="matrix(0.7071 -0.7071 0.7071 0.7071 461.1191 437.1295)" class="st3" width="129.1" height="0.7"/>
		</g>
		<g>
			
				<rect x="696.7" y="-338.4" transform="matrix(0.7071 -0.7071 0.7071 0.7071 462.0192 439.3025)" class="st3" width="129.1" height="0.7"/>
		</g>
	</g>
</g>
<g>
	<path class="st6" d="M509-333.3l6.5,8.9h-3.9l-6-8.6H505v8.6h-3.2v-21h3.7c2.8,0,4.8,0.5,6,1.6c1.4,1.2,2,2.7,2,4.6
		c0,1.5-0.4,2.8-1.3,3.8C511.5-334.3,510.4-333.6,509-333.3z M505-335.7h1c3,0,4.5-1.1,4.5-3.4c0-2.1-1.5-3.2-4.4-3.2H505V-335.7z"
		/>
	<path class="st6" d="M534.4-342.4H526v5h8.2v3H526v7h8.4v3h-11.6v-21h11.6V-342.4z"/>
	<path class="st6" d="M558.2-344.3v3.8c-1.8-1.5-3.7-2.3-5.7-2.3c-2.2,0-4,0.8-5.5,2.3c-1.5,1.5-2.2,3.4-2.2,5.7
		c0,2.2,0.7,4.1,2.2,5.6c1.5,1.5,3.3,2.3,5.5,2.3c1.1,0,2.1-0.2,2.8-0.5c0.4-0.2,0.9-0.4,1.4-0.7c0.5-0.3,1-0.7,1.5-1.1v3.8
		c-1.8,1-3.7,1.5-5.7,1.5c-3,0-5.6-1-7.7-3.1c-2.1-2.1-3.2-4.7-3.2-7.6c0-2.7,0.9-5.1,2.7-7.2c2.2-2.6,5-3.8,8.4-3.8
		C554.6-345.8,556.5-345.3,558.2-344.3z"/>
	<path class="st6" d="M565.2-335c0-3,1.1-5.5,3.2-7.6c2.2-2.1,4.8-3.2,7.8-3.2c3,0,5.6,1.1,7.7,3.2c2.1,2.1,3.2,4.7,3.2,7.7
		c0,3-1.1,5.6-3.2,7.7c-2.2,2.1-4.8,3.2-7.8,3.2c-2.7,0-5.1-0.9-7.3-2.8C566.4-328.9,565.2-331.6,565.2-335z M568.4-334.9
		c0,2.3,0.8,4.2,2.3,5.7c1.6,1.5,3.3,2.2,5.4,2.2c2.2,0,4.1-0.8,5.6-2.3c1.5-1.5,2.3-3.4,2.3-5.6c0-2.2-0.7-4.1-2.2-5.6
		c-1.5-1.5-3.3-2.3-5.5-2.3c-2.2,0-4,0.8-5.5,2.3C569.2-339,568.4-337.2,568.4-334.9z"/>
	<path class="st6" d="M595.3-324.4v-22.4l15.3,16v-14.6h3.2v22.3l-15.3-16v14.7H595.3z"/>
	<path class="st6" d="M626.2-337.2h9.1v-8.2h3.2v21h-3.2v-9.8h-9.1v9.8H623v-21h3.2V-337.2z"/>
	<path class="st6" d="M659.2-342.4h-8.4v5h8.2v3h-8.2v7h8.4v3h-11.6v-21h11.6V-342.4z"/>
	<path class="st6" d="M683.1-344.3v3.8c-1.8-1.5-3.7-2.3-5.7-2.3c-2.2,0-4,0.8-5.5,2.3c-1.5,1.5-2.2,3.4-2.2,5.7
		c0,2.2,0.7,4.1,2.2,5.6c1.5,1.5,3.3,2.3,5.5,2.3c1.1,0,2.1-0.2,2.8-0.5c0.4-0.2,0.9-0.4,1.4-0.7c0.5-0.3,1-0.7,1.5-1.1v3.8
		c-1.8,1-3.7,1.5-5.7,1.5c-3,0-5.6-1-7.7-3.1c-2.1-2.1-3.2-4.7-3.2-7.6c0-2.7,0.9-5.1,2.7-7.2c2.2-2.6,5-3.8,8.4-3.8
		C679.5-345.8,681.3-345.3,683.1-344.3z"/>
	<path class="st6" d="M702.8-342.4h-8.4v5h8.2v3h-8.2v7h8.4v3h-11.6v-21h11.6V-342.4z"/>
	<path class="st6" d="M718.3-333.3l6.5,8.9h-3.9l-6-8.6h-0.6v8.6h-3.2v-21h3.7c2.8,0,4.8,0.5,6,1.6c1.4,1.2,2,2.7,2,4.6
		c0,1.5-0.4,2.8-1.3,3.8C720.8-334.3,719.7-333.6,718.3-333.3z M714.3-335.7h1c3,0,4.5-1.1,4.5-3.4c0-2.1-1.5-3.2-4.4-3.2h-1.1
		V-335.7z"/>
	<path class="st6" d="M732.3-325.9c0-0.5,0.2-0.9,0.6-1.3c0.4-0.4,0.8-0.6,1.3-0.6c0.5,0,1,0.2,1.3,0.6c0.4,0.4,0.6,0.8,0.6,1.3
		c0,0.5-0.2,1-0.6,1.3c-0.4,0.4-0.8,0.5-1.3,0.5c-0.5,0-1-0.2-1.3-0.5C732.5-324.9,732.3-325.4,732.3-325.9z M732.7-329.1v-16.3h3.1
		v16.3H732.7z"/>
</g>
<g>
	<path class="st6" d="M527.5-206.9v18h6.2v3h-9.3v-21H527.5z"/>
	<path class="st6" d="M552.5-203.9h-8.4v5h8.2v3h-8.2v7h8.4v3h-11.6v-21h11.6V-203.9z"/>
	<path class="st6" d="M571.6-196.8h8.7v0.7c0,1.6-0.2,3-0.6,4.2c-0.4,1.1-1,2.2-1.8,3.2c-1.9,2.2-4.4,3.3-7.4,3.3
		c-2.9,0-5.5-1.1-7.5-3.2c-2.1-2.1-3.1-4.7-3.1-7.7c0-3,1.1-5.6,3.2-7.8c2.1-2.1,4.7-3.2,7.8-3.2c1.6,0,3.2,0.3,4.6,1
		c1.4,0.7,2.7,1.8,4,3.3l-2.3,2.2c-1.7-2.3-3.8-3.4-6.3-3.4c-2.2,0-4.1,0.8-5.6,2.3c-1.5,1.5-2.3,3.4-2.3,5.7c0,2.3,0.8,4.3,2.5,5.8
		c1.6,1.4,3.3,2.1,5.1,2.1c1.6,0,3-0.5,4.2-1.6c1.2-1.1,1.9-2.3,2.1-3.8h-5.2V-196.8z"/>
	<path class="st6" d="M599.8-191h-9l-2.3,5.1h-3.4l10.4-22.3l10,22.3H602L599.8-191z M598.5-194l-3.1-7.1l-3.3,7.1H598.5z"/>
	<path class="st6" d="M615.5-206.9v18h6.2v3h-9.3v-21H615.5z"/>
	<path class="st6" d="M632-206.9v21h-3.2v-21H632z"/>
	<path class="st6" d="M644.9-188.9h10.1v3h-15.3l10.3-18h-8.6v-3h13.8L644.9-188.9z"/>
	<path class="st6" d="M675.1-191h-9l-2.3,5.1h-3.4l10.4-22.3l10,22.3h-3.5L675.1-191z M673.8-194l-3.1-7.1l-3.3,7.1H673.8z"/>
	<path class="st6" d="M694.7-194.8l6.5,8.9h-3.9l-6-8.6h-0.6v8.6h-3.2v-21h3.7c2.8,0,4.8,0.5,6,1.6c1.4,1.2,2,2.7,2,4.6
		c0,1.5-0.4,2.8-1.3,3.8C697.2-195.8,696.1-195.1,694.7-194.8z M690.8-197.2h1c3,0,4.5-1.1,4.5-3.4c0-2.1-1.5-3.2-4.4-3.2h-1.1
		V-197.2z"/>
	<path class="st6" d="M708.8-187.4c0-0.5,0.2-0.9,0.6-1.3c0.4-0.4,0.8-0.6,1.3-0.6s1,0.2,1.3,0.6c0.4,0.4,0.6,0.8,0.6,1.3
		c0,0.5-0.2,1-0.6,1.3c-0.4,0.4-0.8,0.5-1.3,0.5c-0.5,0-1-0.2-1.3-0.5S708.8-186.9,708.8-187.4z M709.1-190.6v-16.3h3.1v16.3H709.1z
		"/>
</g>
<g>
	<path class="st6" d="M533.7-255.1v21h-3.2v-21H533.7z"/>
	<path class="st6" d="M543-234.1v-22.4l15.3,16v-14.6h3.2v22.3l-15.3-16v14.7H543z"/>
	<path class="st6" d="M576.4-252.1v18h-3.2v-18h-4.8v-3h12.8v3H576.4z"/>
	<path class="st6" d="M599.8-252.1h-8.4v5h8.2v3h-8.2v7h8.4v3h-11.6v-21h11.6V-252.1z"/>
	<path class="st6" d="M619-245h8.7v0.7c0,1.6-0.2,3-0.6,4.2c-0.4,1.1-1,2.2-1.8,3.2c-1.9,2.2-4.4,3.3-7.4,3.3
		c-2.9,0-5.5-1.1-7.5-3.2c-2.1-2.1-3.1-4.7-3.1-7.7c0-3,1.1-5.6,3.2-7.8c2.1-2.1,4.7-3.2,7.8-3.2c1.6,0,3.2,0.3,4.6,1
		c1.4,0.7,2.7,1.8,4,3.3l-2.3,2.2c-1.7-2.3-3.8-3.4-6.3-3.4c-2.2,0-4.1,0.8-5.6,2.3c-1.5,1.5-2.3,3.4-2.3,5.7c0,2.3,0.8,4.3,2.5,5.8
		c1.6,1.4,3.3,2.1,5.1,2.1c1.6,0,3-0.5,4.2-1.6c1.2-1.1,1.9-2.3,2.1-3.8H619V-245z"/>
	<path class="st6" d="M642.9-243l6.5,8.9h-3.9l-6-8.6H639v8.6h-3.2v-21h3.7c2.8,0,4.8,0.5,6,1.6c1.4,1.2,2,2.7,2,4.6
		c0,1.5-0.4,2.8-1.3,3.8S644.3-243.3,642.9-243z M639-245.5h1c3,0,4.5-1.1,4.5-3.4c0-2.1-1.5-3.2-4.4-3.2H639V-245.5z"/>
	<path class="st6" d="M669.1-239.2h-9l-2.3,5.1h-3.4l10.4-22.3l10,22.3h-3.5L669.1-239.2z M667.8-242.2l-3.1-7.1l-3.3,7.1H667.8z"/>
	<path class="st6" d="M688.7-243l6.5,8.9h-3.9l-6-8.6h-0.6v8.6h-3.2v-21h3.7c2.8,0,4.8,0.5,6,1.6c1.4,1.2,2,2.7,2,4.6
		c0,1.5-0.4,2.8-1.3,3.8S690.1-243.3,688.7-243z M684.7-245.5h1c3,0,4.5-1.1,4.5-3.4c0-2.1-1.5-3.2-4.4-3.2h-1.1V-245.5z"/>
	<path class="st6" d="M702.7-235.6c0-0.5,0.2-0.9,0.6-1.3c0.4-0.4,0.8-0.6,1.3-0.6s1,0.2,1.3,0.6c0.4,0.4,0.6,0.8,0.6,1.3
		c0,0.5-0.2,1-0.6,1.3c-0.4,0.4-0.8,0.5-1.3,0.5c-0.5,0-1-0.2-1.3-0.5C702.9-234.6,702.7-235.1,702.7-235.6z M703.1-238.8v-16.3h3.1
		v16.3H703.1z"/>
</g>
<g>
	<g>
		<path class="st7" d="M46.5,1.6v19.9h-3V1.6H46.5z"/>
		<path class="st7" d="M55.2,21.5V0.3l14.5,15.2V1.6h3v21.1L58.2,7.6v13.9H55.2z"/>
		<path class="st7" d="M86.9,4.4v17.1h-3V4.4h-4.6V1.6h12.1v2.8H86.9z"/>
		<path class="st7" d="M109,4.4h-8v4.8h7.7V12h-7.7v6.6h8v2.8h-11V1.6h11V4.4z"/>
		<path class="st7" d="M127.2,11.1h8.2v0.7c0,1.5-0.2,2.8-0.5,4c-0.3,1.1-0.9,2.1-1.7,3c-1.8,2.1-4.2,3.1-7,3.1c-2.8,0-5.2-1-7.1-3
			c-2-2-3-4.4-3-7.3c0-2.9,1-5.3,3-7.3c2-2,4.5-3,7.4-3c1.6,0,3,0.3,4.3,1c1.3,0.6,2.6,1.7,3.8,3.1l-2.1,2c-1.6-2.2-3.6-3.3-6-3.3
			c-2.1,0-3.9,0.7-5.3,2.2c-1.4,1.4-2.1,3.2-2.1,5.4c0,2.2,0.8,4,2.4,5.5c1.5,1.3,3.1,2,4.8,2c1.5,0,2.8-0.5,4-1.5
			c1.2-1,1.8-2.2,2-3.6h-5V11.1z"/>
		<path class="st7" d="M149.8,13l6.2,8.5h-3.7l-5.7-8.1h-0.5v8.1h-3V1.6h3.5c2.6,0,4.5,0.5,5.7,1.5c1.3,1.1,1.9,2.5,1.9,4.4
			c0,1.4-0.4,2.6-1.2,3.6C152.2,12.1,151.1,12.7,149.8,13z M146.1,10.7h1c2.8,0,4.3-1.1,4.3-3.3c0-2-1.4-3.1-4.1-3.1h-1.1V10.7z"/>
		<path class="st7" d="M174.6,16.7h-8.5l-2.2,4.8h-3.2l9.8-21.1l9.5,21.1h-3.3L174.6,16.7z M173.4,13.8l-2.9-6.8l-3.1,6.8H173.4z"/>
		<path class="st7" d="M193.1,13l6.2,8.5h-3.7l-5.7-8.1h-0.5v8.1h-3V1.6h3.5c2.6,0,4.5,0.5,5.7,1.5c1.3,1.1,1.9,2.5,1.9,4.4
			c0,1.4-0.4,2.6-1.2,3.6C195.5,12.1,194.4,12.7,193.1,13z M189.4,10.7h1c2.8,0,4.3-1.1,4.3-3.3c0-2-1.4-3.1-4.1-3.1h-1.1V10.7z"/>
		<path class="st7" d="M206.4,20c0-0.5,0.2-0.9,0.5-1.2c0.4-0.4,0.8-0.5,1.3-0.5s0.9,0.2,1.3,0.5c0.4,0.4,0.5,0.8,0.5,1.3
			c0,0.5-0.2,0.9-0.5,1.3c-0.3,0.3-0.8,0.5-1.3,0.5c-0.5,0-0.9-0.2-1.3-0.5C206.6,21,206.4,20.6,206.4,20z M206.8,17.1V1.6h2.9v15.4
			H206.8z"/>
	</g>
</g>
<g>
	<defs>
		<path id="SVGID_9_" d="M671.4,284.1c0-0.4,0.1-0.7,0.4-1s0.6-0.4,1-0.4s0.7,0.1,1,0.4s0.4,0.6,0.4,1c0,0.4-0.1,0.7-0.4,1
			c-0.3,0.3-0.6,0.4-1,0.4c-0.4,0-0.7-0.1-1-0.4S671.4,284.5,671.4,284.1z M671.7,281.7v-12.3h2.3v12.3H671.7z"/>
	</defs>
	<clipPath id="SVGID_10_">
		<use xlink:href="#SVGID_9_"  style="overflow:visible;"/>
	</clipPath>
	<path class="st8" d="M503,278.5l4.9,6.7h-2.9l-4.5-6.5H500v6.5h-2.4v-15.8h2.8c2.1,0,3.6,0.4,4.5,1.2c1,0.9,1.5,2,1.5,3.5
		c0,1.1-0.3,2.1-1,2.9S504,278.3,503,278.5z M500,276.7h0.8c2.3,0,3.4-0.9,3.4-2.6c0-1.6-1.1-2.4-3.3-2.4H500V276.7z"/>
	<path class="st8" d="M522.1,271.7h-6.3v3.8h6.2v2.2h-6.2v5.3h6.3v2.2h-8.7v-15.8h8.7V271.7z"/>
	<path class="st8" d="M540.1,270.3v2.8c-1.4-1.2-2.8-1.7-4.3-1.7c-1.6,0-3,0.6-4.1,1.8c-1.1,1.2-1.7,2.6-1.7,4.3
		c0,1.7,0.6,3.1,1.7,4.2c1.1,1.1,2.5,1.7,4.1,1.7c0.8,0,1.6-0.1,2.1-0.4c0.3-0.1,0.7-0.3,1-0.6c0.4-0.2,0.7-0.5,1.1-0.8v2.9
		c-1.4,0.8-2.8,1.2-4.3,1.2c-2.3,0-4.2-0.8-5.8-2.4c-1.6-1.6-2.4-3.5-2.4-5.8c0-2,0.7-3.8,2-5.4c1.6-1.9,3.8-2.9,6.4-2.9
		C537.4,269.1,538.8,269.5,540.1,270.3z"/>
	<path class="st8" d="M545.4,277.3c0-2.2,0.8-4.1,2.5-5.7c1.6-1.6,3.6-2.4,5.9-2.4c2.3,0,4.2,0.8,5.8,2.4c1.6,1.6,2.4,3.6,2.4,5.8
		c0,2.3-0.8,4.2-2.4,5.8c-1.6,1.6-3.6,2.4-5.9,2.4c-2,0-3.9-0.7-5.5-2.1C546.3,281.9,545.4,279.8,545.4,277.3z M547.8,277.3
		c0,1.8,0.6,3.2,1.8,4.3c1.2,1.1,2.5,1.7,4,1.7c1.7,0,3.1-0.6,4.2-1.7c1.1-1.2,1.7-2.6,1.7-4.2c0-1.7-0.6-3.1-1.7-4.2
		c-1.1-1.1-2.5-1.7-4.2-1.7c-1.6,0-3,0.6-4.2,1.7C548.4,274.2,547.8,275.6,547.8,277.3z"/>
	<path class="st8" d="M568.1,285.3v-16.9l11.5,12.1v-11h2.4v16.8l-11.5-12v11.1H568.1z"/>
	<path class="st8" d="M591.4,275.6h6.8v-6.2h2.4v15.8h-2.4v-7.4h-6.8v7.4H589v-15.8h2.4V275.6z"/>
	<path class="st8" d="M616.3,271.7h-6.3v3.8h6.2v2.2h-6.2v5.3h6.3v2.2h-8.7v-15.8h8.7V271.7z"/>
	<path class="st8" d="M634.2,270.3v2.8c-1.4-1.2-2.8-1.7-4.3-1.7c-1.6,0-3,0.6-4.1,1.8c-1.1,1.2-1.7,2.6-1.7,4.3
		c0,1.7,0.6,3.1,1.7,4.2c1.1,1.1,2.5,1.7,4.1,1.7c0.8,0,1.6-0.1,2.1-0.4c0.3-0.1,0.7-0.3,1-0.6c0.4-0.2,0.7-0.5,1.1-0.8v2.9
		c-1.4,0.8-2.8,1.2-4.3,1.2c-2.3,0-4.2-0.8-5.8-2.4c-1.6-1.6-2.4-3.5-2.4-5.8c0-2,0.7-3.8,2-5.4c1.6-1.9,3.8-2.9,6.4-2.9
		C631.5,269.1,632.9,269.5,634.2,270.3z"/>
	<path class="st8" d="M649.1,271.7h-6.3v3.8h6.2v2.2h-6.2v5.3h6.3v2.2h-8.7v-15.8h8.7V271.7z"/>
	<path class="st8" d="M660.8,278.5l4.9,6.7h-2.9l-4.5-6.5h-0.4v6.5h-2.4v-15.8h2.8c2.1,0,3.6,0.4,4.5,1.2c1,0.9,1.5,2,1.5,3.5
		c0,1.1-0.3,2.1-1,2.9S661.9,278.3,660.8,278.5z M657.8,276.7h0.8c2.3,0,3.4-0.9,3.4-2.6c0-1.6-1.1-2.4-3.3-2.4h-0.9V276.7z"/>
</g>
</svg>
