<?xml version="1.0" encoding="utf-8"?>
<!-- Generator: Adobe Illustrator 19.2.0, SVG Export Plug-In . SVG Version: 6.00 Build 0)  -->
<svg version="1.1" id="Layer_1" xmlns="http://www.w3.org/2000/svg" xmlns:xlink="http://www.w3.org/1999/xlink" x="0px" y="0px"
	 viewBox="0 0 617.6 42.6" style="enable-background:new 0 0 617.6 42.6;" xml:space="preserve">
<style type="text/css">
	.st0{clip-path:url(#SVGID_2_);}
	.st1{fill:#A9B35A;}
	.st2{clip-path:url(#SVGID_4_);}
	.st3{clip-path:url(#SVGID_6_);}
	.st4{display:none;}
	.st5{display:inline;stroke:#FFFFFF;stroke-width:2;stroke-miterlimit:10;}
	.st6{fill:#58595B;stroke:#FFFFFF;stroke-width:0.25;stroke-miterlimit:10;}
	.st7{fill:#58595B;}
</style>
<g>
	<defs>
		<path id="SVGID_1_" d="M243.6,6.4V20h4.7v2.2h-7V6.4H243.6z M262.4,8.6H256v3.8h6.2v2.2H256V20h6.3v2.2h-8.7V6.4h8.7V8.6z
			 M276.8,14h6.5v0.5c0,1.2-0.1,2.2-0.4,3.2c-0.3,0.8-0.7,1.6-1.4,2.4c-1.5,1.7-3.3,2.5-5.6,2.5c-2.2,0-4.1-0.8-5.7-2.4
			c-1.6-1.6-2.4-3.5-2.4-5.8c0-2.3,0.8-4.2,2.4-5.8c1.6-1.6,3.6-2.4,5.9-2.4c1.2,0,2.4,0.3,3.5,0.8c1,0.5,2,1.3,3,2.5l-1.7,1.6
			c-1.3-1.7-2.9-2.6-4.7-2.6c-1.7,0-3.1,0.6-4.2,1.7c-1.1,1.1-1.7,2.6-1.7,4.3c0,1.8,0.6,3.2,1.9,4.4c1.2,1.1,2.5,1.6,3.8,1.6
			c1.2,0,2.2-0.4,3.2-1.2c0.9-0.8,1.5-1.8,1.6-2.9h-3.9V14z M298.1,18.4h-6.8l-1.8,3.8H287l7.8-16.8l7.6,16.8h-2.6L298.1,18.4z
			 M297.1,16.1l-2.3-5.4l-2.5,5.4H297.1z M309.9,6.4V20h4.7v2.2h-7V6.4H309.9z M322.3,6.4v15.8h-2.4V6.4H322.3z M332,20h7.6v2.2
			h-11.5l7.8-13.6h-6.5V6.4h10.4L332,20z M354.9,18.4h-6.8l-1.8,3.8h-2.6l7.8-16.8l7.6,16.8h-2.6L354.9,18.4z M353.9,16.1l-2.3-5.4
			l-2.5,5.4H353.9z M369.6,15.5l4.9,6.7h-2.9l-4.5-6.5h-0.4v6.5h-2.4V6.4h2.8c2.1,0,3.6,0.4,4.5,1.2c1,0.9,1.5,2,1.5,3.5
			c0,1.1-0.3,2.1-1,2.9S370.7,15.2,369.6,15.5z M366.7,13.6h0.8c2.3,0,3.4-0.9,3.4-2.6c0-1.6-1.1-2.4-3.3-2.4h-0.9V13.6z"/>
	</defs>
	<clipPath id="SVGID_2_">
		<use xlink:href="#SVGID_1_"  style="overflow:visible;"/>
	</clipPath>
	<g class="st0">
		<g>
			
				<rect x="158.1" y="4.5" transform="matrix(0.7065 -0.7078 0.7078 0.7065 67.0461 171.4196)" class="st1" width="164.1" height="0.8"/>
		</g>
		<g>
			
				<rect x="159.9" y="4.5" transform="matrix(0.7065 -0.7078 0.7078 0.7065 67.5752 172.6951)" class="st1" width="164.1" height="0.8"/>
		</g>
		<g>
			
				<rect x="161.7" y="4.5" transform="matrix(0.7065 -0.7078 0.7078 0.7065 68.1042 173.9707)" class="st1" width="164.1" height="0.8"/>
		</g>
		<g>
			
				<rect x="163.5" y="4.5" transform="matrix(0.7065 -0.7078 0.7078 0.7065 68.6334 175.2466)" class="st1" width="164.1" height="0.8"/>
		</g>
		<g>
			
				<rect x="165.3" y="4.5" transform="matrix(0.7065 -0.7078 0.7078 0.7065 69.1626 176.5224)" class="st1" width="164.1" height="0.8"/>
		</g>
		<g>
			
				<rect x="167.1" y="4.5" transform="matrix(0.7065 -0.7078 0.7078 0.7065 69.6915 177.7977)" class="st1" width="164.1" height="0.8"/>
		</g>
		<g>
			
				<rect x="168.9" y="4.5" transform="matrix(0.7065 -0.7078 0.7078 0.7065 70.2206 179.0736)" class="st1" width="164.1" height="0.8"/>
		</g>
		<g>
			
				<rect x="170.7" y="4.5" transform="matrix(0.7065 -0.7078 0.7078 0.7065 70.7498 180.3495)" class="st1" width="164.1" height="0.8"/>
		</g>
		<g>
			
				<rect x="172.5" y="4.5" transform="matrix(0.7065 -0.7078 0.7078 0.7065 71.2789 181.625)" class="st1" width="164.1" height="0.8"/>
		</g>
		<g>
			
				<rect x="174.3" y="4.5" transform="matrix(0.7065 -0.7078 0.7078 0.7065 71.8079 182.9006)" class="st1" width="164.1" height="0.8"/>
		</g>
		<g>
			
				<rect x="176.1" y="4.5" transform="matrix(0.7065 -0.7078 0.7078 0.7065 72.3371 184.1765)" class="st1" width="164.1" height="0.8"/>
		</g>
		<g>
			
				<rect x="177.9" y="4.5" transform="matrix(0.7065 -0.7078 0.7078 0.7065 72.8663 185.4523)" class="st1" width="164.1" height="0.8"/>
		</g>
		<g>
			
				<rect x="179.7" y="4.5" transform="matrix(0.7065 -0.7078 0.7078 0.7065 73.3953 186.7279)" class="st1" width="164.1" height="0.8"/>
		</g>
		<g>
			
				<rect x="181.5" y="4.5" transform="matrix(0.7065 -0.7078 0.7078 0.7065 73.9244 188.0035)" class="st1" width="164.1" height="0.8"/>
		</g>
		<g>
			
				<rect x="183.4" y="4.5" transform="matrix(0.7065 -0.7078 0.7078 0.7065 74.4535 189.2794)" class="st1" width="164.1" height="0.8"/>
		</g>
		<g>
			
				<rect x="185.2" y="4.5" transform="matrix(0.7065 -0.7078 0.7078 0.7065 74.9827 190.5553)" class="st1" width="164.1" height="0.8"/>
		</g>
		<g>
			
				<rect x="187" y="4.5" transform="matrix(0.7065 -0.7078 0.7078 0.7065 75.5118 191.8308)" class="st1" width="164.1" height="0.8"/>
		</g>
		<g>
			
				<rect x="188.8" y="4.5" transform="matrix(0.7065 -0.7078 0.7078 0.7065 76.0408 193.1064)" class="st1" width="164.1" height="0.8"/>
		</g>
		<g>
			
				<rect x="190.6" y="4.5" transform="matrix(0.7065 -0.7078 0.7078 0.7065 76.57 194.3823)" class="st1" width="164.1" height="0.8"/>
		</g>
		<g>
			
				<rect x="192.4" y="4.5" transform="matrix(0.7065 -0.7078 0.7078 0.7065 77.0992 195.6582)" class="st1" width="164.1" height="0.8"/>
		</g>
		<g>
			
				<rect x="194.2" y="4.5" transform="matrix(0.7065 -0.7078 0.7078 0.7065 77.6281 196.9334)" class="st1" width="164.1" height="0.8"/>
		</g>
		<g>
			
				<rect x="196" y="4.5" transform="matrix(0.7065 -0.7078 0.7078 0.7065 78.1572 198.2093)" class="st1" width="164.1" height="0.8"/>
		</g>
		<g>
			
				<rect x="197.8" y="4.5" transform="matrix(0.7065 -0.7078 0.7078 0.7065 78.6864 199.4852)" class="st1" width="164.1" height="0.8"/>
		</g>
		<g>
			
				<rect x="199.6" y="4.5" transform="matrix(0.7065 -0.7078 0.7078 0.7065 79.2155 200.7607)" class="st1" width="164.1" height="0.8"/>
		</g>
		<g>
			
				<rect x="201.4" y="4.5" transform="matrix(0.7065 -0.7078 0.7078 0.7065 79.7445 202.0363)" class="st1" width="164.1" height="0.8"/>
		</g>
		<g>
			
				<rect x="203.2" y="4.5" transform="matrix(0.7065 -0.7078 0.7078 0.7065 80.2737 203.3122)" class="st1" width="164.1" height="0.8"/>
		</g>
		<g>
			
				<rect x="205" y="4.5" transform="matrix(0.7065 -0.7078 0.7078 0.7065 80.8029 204.5881)" class="st1" width="164.1" height="0.8"/>
		</g>
		<g>
			
				<rect x="206.8" y="4.5" transform="matrix(0.7065 -0.7078 0.7078 0.7065 81.3319 205.8636)" class="st1" width="164.1" height="0.8"/>
		</g>
		<g>
			
				<rect x="208.6" y="4.5" transform="matrix(0.7065 -0.7078 0.7078 0.7065 81.8609 207.1392)" class="st1" width="164.1" height="0.8"/>
		</g>
		<g>
			
				<rect x="210.4" y="4.5" transform="matrix(0.7065 -0.7078 0.7078 0.7065 82.3901 208.4151)" class="st1" width="164.1" height="0.8"/>
		</g>
		<g>
			
				<rect x="212.2" y="4.5" transform="matrix(0.7065 -0.7078 0.7078 0.7065 82.9193 209.691)" class="st1" width="164.1" height="0.8"/>
		</g>
		<g>
			
				<rect x="214" y="4.5" transform="matrix(0.7065 -0.7078 0.7078 0.7065 83.4483 210.9665)" class="st1" width="164.1" height="0.8"/>
		</g>
		<g>
			
				<rect x="215.8" y="4.5" transform="matrix(0.7065 -0.7078 0.7078 0.7065 83.9774 212.2421)" class="st1" width="164.1" height="0.8"/>
		</g>
		<g>
			
				<rect x="217.6" y="4.5" transform="matrix(0.7065 -0.7078 0.7078 0.7065 84.5066 213.518)" class="st1" width="164.1" height="0.8"/>
		</g>
		<g>
			
				<rect x="219.4" y="4.5" transform="matrix(0.7065 -0.7078 0.7078 0.7065 85.0357 214.7939)" class="st1" width="164.1" height="0.8"/>
		</g>
		<g>
			
				<rect x="221.2" y="4.5" transform="matrix(0.7065 -0.7078 0.7078 0.7065 85.5648 216.0694)" class="st1" width="164.1" height="0.8"/>
		</g>
		<g>
			
				<rect x="223" y="4.5" transform="matrix(0.7065 -0.7078 0.7078 0.7065 86.0938 217.345)" class="st1" width="164.1" height="0.8"/>
		</g>
		<g>
			
				<rect x="224.8" y="4.5" transform="matrix(0.7065 -0.7078 0.7078 0.7065 86.623 218.6209)" class="st1" width="164.1" height="0.8"/>
		</g>
		<g>
			
				<rect x="226.6" y="4.5" transform="matrix(0.7065 -0.7078 0.7078 0.7065 87.1522 219.8968)" class="st1" width="164.1" height="0.8"/>
		</g>
		<g>
			
				<rect x="228.4" y="4.5" transform="matrix(0.7065 -0.7078 0.7078 0.7065 87.6811 221.172)" class="st1" width="164.1" height="0.8"/>
		</g>
		<g>
			
				<rect x="230.2" y="4.5" transform="matrix(0.7065 -0.7078 0.7078 0.7065 88.2103 222.4479)" class="st1" width="164.1" height="0.8"/>
		</g>
		<g>
			
				<rect x="232" y="4.5" transform="matrix(0.7065 -0.7078 0.7078 0.7065 88.7394 223.7238)" class="st1" width="164.1" height="0.8"/>
		</g>
		<g>
			
				<rect x="233.8" y="4.5" transform="matrix(0.7065 -0.7078 0.7078 0.7065 89.2685 224.9993)" class="st1" width="164.1" height="0.8"/>
		</g>
		<g>
			
				<rect x="235.6" y="4.5" transform="matrix(0.7065 -0.7078 0.7078 0.7065 89.7975 226.2749)" class="st1" width="164.1" height="0.8"/>
		</g>
		<g>
			
				<rect x="237.4" y="4.5" transform="matrix(0.7065 -0.7078 0.7078 0.7065 90.3267 227.5508)" class="st1" width="164.1" height="0.8"/>
		</g>
		<g>
			
				<rect x="239.2" y="4.5" transform="matrix(0.7065 -0.7078 0.7078 0.7065 90.8559 228.8267)" class="st1" width="164.1" height="0.8"/>
		</g>
		<g>
			
				<rect x="241" y="4.5" transform="matrix(0.7065 -0.7078 0.7078 0.7065 91.3849 230.1022)" class="st1" width="164.1" height="0.8"/>
		</g>
		<g>
			
				<rect x="242.8" y="4.5" transform="matrix(0.7065 -0.7078 0.7078 0.7065 91.914 231.3778)" class="st1" width="164.1" height="0.8"/>
		</g>
		<g>
			
				<rect x="244.6" y="4.5" transform="matrix(0.7065 -0.7078 0.7078 0.7065 92.4431 232.6537)" class="st1" width="164.1" height="0.8"/>
		</g>
		<g>
			
				<rect x="246.4" y="4.5" transform="matrix(0.7065 -0.7078 0.7078 0.7065 92.9723 233.9296)" class="st1" width="164.1" height="0.8"/>
		</g>
		<g>
			
				<rect x="248.2" y="4.5" transform="matrix(0.7065 -0.7078 0.7078 0.7065 93.5014 235.2051)" class="st1" width="164.1" height="0.8"/>
		</g>
		<g>
			
				<rect x="250" y="4.5" transform="matrix(0.7065 -0.7078 0.7078 0.7065 94.0304 236.4807)" class="st1" width="164.1" height="0.8"/>
		</g>
		<g>
			
				<rect x="251.8" y="4.5" transform="matrix(0.7065 -0.7078 0.7078 0.7065 94.5596 237.7566)" class="st1" width="164.1" height="0.8"/>
		</g>
		<g>
			
				<rect x="253.6" y="4.5" transform="matrix(0.7065 -0.7078 0.7078 0.7065 95.0888 239.0325)" class="st1" width="164.1" height="0.8"/>
		</g>
		<g>
			
				<rect x="255.4" y="4.5" transform="matrix(0.7065 -0.7078 0.7078 0.7065 95.6177 240.3077)" class="st1" width="164.1" height="0.8"/>
		</g>
		<g>
			
				<rect x="257.3" y="4.5" transform="matrix(0.7065 -0.7078 0.7078 0.7065 96.1468 241.5836)" class="st1" width="164.1" height="0.8"/>
		</g>
		<g>
			
				<rect x="259.1" y="4.5" transform="matrix(0.7065 -0.7078 0.7078 0.7065 96.676 242.8595)" class="st1" width="164.1" height="0.8"/>
		</g>
		<g>
			
				<rect x="260.9" y="4.5" transform="matrix(0.7065 -0.7078 0.7078 0.7065 97.2051 244.135)" class="st1" width="164.1" height="0.8"/>
		</g>
		<g>
			
				<rect x="262.7" y="4.5" transform="matrix(0.7065 -0.7078 0.7078 0.7065 97.7341 245.4106)" class="st1" width="164.1" height="0.8"/>
		</g>
		<g>
			
				<rect x="264.5" y="4.5" transform="matrix(0.7065 -0.7078 0.7078 0.7065 98.2633 246.6865)" class="st1" width="164.1" height="0.8"/>
		</g>
		<g>
			
				<rect x="266.3" y="4.5" transform="matrix(0.7065 -0.7078 0.7078 0.7065 98.7925 247.9624)" class="st1" width="164.1" height="0.8"/>
		</g>
		<g>
			
				<rect x="268.1" y="4.5" transform="matrix(0.7065 -0.7078 0.7078 0.7065 99.3215 249.2379)" class="st1" width="164.1" height="0.8"/>
		</g>
		<g>
			
				<rect x="269.9" y="4.5" transform="matrix(0.7065 -0.7078 0.7078 0.7065 99.8505 250.5135)" class="st1" width="164.1" height="0.8"/>
		</g>
		<g>
			
				<rect x="271.7" y="4.5" transform="matrix(0.7065 -0.7078 0.7078 0.7065 100.3797 251.7894)" class="st1" width="164.1" height="0.8"/>
		</g>
		<g>
			
				<rect x="273.5" y="4.5" transform="matrix(0.7065 -0.7078 0.7078 0.7065 100.9089 253.0653)" class="st1" width="164.1" height="0.8"/>
		</g>
		<g>
			
				<rect x="275.3" y="4.5" transform="matrix(0.7065 -0.7078 0.7078 0.7065 101.4379 254.3408)" class="st1" width="164.1" height="0.8"/>
		</g>
		<g>
			
				<rect x="277.1" y="4.5" transform="matrix(0.7065 -0.7078 0.7078 0.7065 101.967 255.6164)" class="st1" width="164.1" height="0.8"/>
		</g>
		<g>
			
				<rect x="278.9" y="4.5" transform="matrix(0.7065 -0.7078 0.7078 0.7065 102.4962 256.8923)" class="st1" width="164.1" height="0.8"/>
		</g>
		<g>
			
				<rect x="280.7" y="4.5" transform="matrix(0.7065 -0.7078 0.7078 0.7065 103.0253 258.1682)" class="st1" width="164.1" height="0.8"/>
		</g>
		<g>
			
				<rect x="282.5" y="4.5" transform="matrix(0.7065 -0.7078 0.7078 0.7065 103.5542 259.4434)" class="st1" width="164.1" height="0.8"/>
		</g>
		<g>
			
				<rect x="284.3" y="4.5" transform="matrix(0.7065 -0.7078 0.7078 0.7065 104.0834 260.7193)" class="st1" width="164.1" height="0.8"/>
		</g>
		<g>
			
				<rect x="286.1" y="4.5" transform="matrix(0.7065 -0.7078 0.7078 0.7065 104.6126 261.9952)" class="st1" width="164.1" height="0.8"/>
		</g>
		<g>
			
				<rect x="287.9" y="4.5" transform="matrix(0.7065 -0.7078 0.7078 0.7065 105.1416 263.2707)" class="st1" width="164.1" height="0.8"/>
		</g>
		<g>
			
				<rect x="289.7" y="4.5" transform="matrix(0.7065 -0.7078 0.7078 0.7065 105.6707 264.5463)" class="st1" width="164.1" height="0.8"/>
		</g>
		<g>
			
				<rect x="291.5" y="4.5" transform="matrix(0.7065 -0.7078 0.7078 0.7065 106.1999 265.8222)" class="st1" width="164.1" height="0.8"/>
		</g>
		<g>
			
				<rect x="293.3" y="4.5" transform="matrix(0.7065 -0.7078 0.7078 0.7065 106.729 267.0981)" class="st1" width="164.1" height="0.8"/>
		</g>
		<g>
			
				<rect x="295.1" y="4.5" transform="matrix(0.7065 -0.7078 0.7078 0.7065 107.2581 268.3736)" class="st1" width="164.1" height="0.8"/>
		</g>
		<g>
			
				<rect x="296.9" y="4.5" transform="matrix(0.7065 -0.7078 0.7078 0.7065 107.7871 269.6492)" class="st1" width="164.1" height="0.8"/>
		</g>
		<g>
			
				<rect x="298.7" y="4.5" transform="matrix(0.7065 -0.7078 0.7078 0.7065 108.3163 270.9251)" class="st1" width="164.1" height="0.8"/>
		</g>
		<g>
			
				<rect x="300.5" y="4.5" transform="matrix(0.7065 -0.7078 0.7078 0.7065 108.8455 272.201)" class="st1" width="164.1" height="0.8"/>
		</g>
		<g>
			
				<rect x="302.3" y="4.5" transform="matrix(0.7065 -0.7078 0.7078 0.7065 109.3745 273.4765)" class="st1" width="164.1" height="0.8"/>
		</g>
		<g>
			
				<rect x="304.1" y="4.5" transform="matrix(0.7065 -0.7078 0.7078 0.7065 109.9036 274.7521)" class="st1" width="164.1" height="0.8"/>
		</g>
		<g>
			
				<rect x="305.9" y="4.5" transform="matrix(0.7065 -0.7078 0.7078 0.7065 110.4327 276.028)" class="st1" width="164.1" height="0.8"/>
		</g>
		<g>
			
				<rect x="307.7" y="4.5" transform="matrix(0.7065 -0.7078 0.7078 0.7065 110.9619 277.3039)" class="st1" width="164.1" height="0.8"/>
		</g>
		<g>
			
				<rect x="309.5" y="4.5" transform="matrix(0.7065 -0.7078 0.7078 0.7065 111.491 278.5794)" class="st1" width="164.1" height="0.8"/>
		</g>
		<g>
			
				<rect x="311.3" y="4.5" transform="matrix(0.7065 -0.7078 0.7078 0.7065 112.02 279.855)" class="st1" width="164.1" height="0.8"/>
		</g>
		<g>
			
				<rect x="313.1" y="4.5" transform="matrix(0.7065 -0.7078 0.7078 0.7065 112.5492 281.1309)" class="st1" width="164.1" height="0.8"/>
		</g>
		<g>
			
				<rect x="314.9" y="4.5" transform="matrix(0.7065 -0.7078 0.7078 0.7065 113.0784 282.4068)" class="st1" width="164.1" height="0.8"/>
		</g>
		<g>
			
				<rect x="316.7" y="4.5" transform="matrix(0.7065 -0.7078 0.7078 0.7065 113.6073 283.682)" class="st1" width="164.1" height="0.8"/>
		</g>
		<g>
			
				<rect x="318.5" y="4.5" transform="matrix(0.7065 -0.7078 0.7078 0.7065 114.1364 284.9579)" class="st1" width="164.1" height="0.8"/>
		</g>
		<g>
			
				<rect x="320.3" y="4.5" transform="matrix(0.7065 -0.7078 0.7078 0.7065 114.6656 286.2338)" class="st1" width="164.1" height="0.8"/>
		</g>
		<g>
			
				<rect x="322.1" y="4.5" transform="matrix(0.7065 -0.7078 0.7078 0.7065 115.1947 287.5093)" class="st1" width="164.1" height="0.8"/>
		</g>
		<g>
			
				<rect x="323.9" y="4.5" transform="matrix(0.7065 -0.7078 0.7078 0.7065 115.7237 288.7849)" class="st1" width="164.1" height="0.8"/>
		</g>
		<g>
			
				<rect x="325.7" y="4.5" transform="matrix(0.7065 -0.7078 0.7078 0.7065 116.2529 290.0608)" class="st1" width="164.1" height="0.8"/>
		</g>
		<g>
			
				<rect x="327.5" y="4.5" transform="matrix(0.7065 -0.7078 0.7078 0.7065 116.7821 291.3367)" class="st1" width="164.1" height="0.8"/>
		</g>
		<g>
			
				<rect x="329.4" y="4.5" transform="matrix(0.7065 -0.7078 0.7078 0.7065 117.3111 292.6122)" class="st1" width="164.1" height="0.8"/>
		</g>
		<g>
			
				<rect x="331.2" y="4.5" transform="matrix(0.7065 -0.7078 0.7078 0.7065 117.8401 293.8878)" class="st1" width="164.1" height="0.8"/>
		</g>
		<g>
			
				<rect x="333" y="4.5" transform="matrix(0.7065 -0.7078 0.7078 0.7065 118.3693 295.1637)" class="st1" width="164.1" height="0.8"/>
		</g>
		<g>
			
				<rect x="334.8" y="4.5" transform="matrix(0.7065 -0.7078 0.7078 0.7065 118.8985 296.4396)" class="st1" width="164.1" height="0.8"/>
		</g>
		<g>
			
				<rect x="336.6" y="4.5" transform="matrix(0.7065 -0.7078 0.7078 0.7065 119.4275 297.7151)" class="st1" width="164.1" height="0.8"/>
		</g>
		<g>
			
				<rect x="338.4" y="4.5" transform="matrix(0.7065 -0.7078 0.7078 0.7065 119.9566 298.9907)" class="st1" width="164.1" height="0.8"/>
		</g>
		<g>
			
				<rect x="340.2" y="4.5" transform="matrix(0.7065 -0.7078 0.7078 0.7065 120.4858 300.2666)" class="st1" width="164.1" height="0.8"/>
		</g>
	</g>
</g>
<g>
	<defs>
		<path id="SVGID_3_" d="M117.8-207.9h-6.3v3.8h6.2v2.2h-6.2v5.3h6.3v2.2h-8.7v-15.8h8.7V-207.9z M124.1-194.3v-15.8h3.3
			c1.6,0,2.8,0.2,3.8,0.5c1,0.3,1.9,0.8,2.7,1.6c1.6,1.5,2.5,3.4,2.5,5.9c0,2.4-0.9,4.4-2.6,5.9c-0.9,0.8-1.8,1.3-2.7,1.6
			c-0.9,0.3-2.1,0.4-3.7,0.4H124.1z M126.5-196.6h1.1c1.1,0,2-0.1,2.7-0.3c0.7-0.2,1.4-0.6,1.9-1.1c1.2-1.1,1.8-2.5,1.8-4.2
			c0-1.7-0.6-3.1-1.7-4.2c-1-1-2.6-1.4-4.6-1.4h-1.1V-196.6z M144.9-210.2v9.5c0,1.4,0.2,2.4,0.7,3c0.7,0.9,1.6,1.4,2.8,1.4
			c1.2,0,2.1-0.5,2.8-1.4c0.4-0.6,0.7-1.6,0.7-3v-9.5h2.4v10.2c0,1.7-0.5,3-1.6,4.1c-1.2,1.2-2.6,1.8-4.3,1.8s-3.1-0.6-4.3-1.8
			c-1-1.1-1.6-2.5-1.6-4.1v-10.2H144.9z M172.8-209.3v2.8c-1.4-1.2-2.8-1.7-4.3-1.7c-1.6,0-3,0.6-4.1,1.8c-1.1,1.2-1.7,2.6-1.7,4.3
			c0,1.7,0.6,3.1,1.7,4.2s2.5,1.7,4.1,1.7c0.8,0,1.6-0.1,2.1-0.4c0.3-0.1,0.7-0.3,1-0.6s0.7-0.5,1.1-0.8v2.9
			c-1.4,0.8-2.8,1.2-4.3,1.2c-2.3,0-4.2-0.8-5.8-2.4c-1.6-1.6-2.4-3.5-2.4-5.8c0-2,0.7-3.8,2-5.4c1.6-1.9,3.8-2.9,6.4-2.9
			C170.1-210.5,171.5-210.1,172.8-209.3z M188.7-198.2h-6.8l-1.8,3.8h-2.6l7.8-16.8l7.6,16.8h-2.6L188.7-198.2z M187.7-200.4
			l-2.3-5.4l-2.5,5.4H187.7z M203.5-201.1l4.9,6.7h-2.9l-4.5-6.5h-0.4v6.5h-2.4v-15.8h2.8c2.1,0,3.6,0.4,4.5,1.2
			c1,0.9,1.5,2,1.5,3.5c0,1.1-0.3,2.1-1,2.9S204.5-201.3,203.5-201.1z M200.5-202.9h0.8c2.3,0,3.4-0.9,3.4-2.6
			c0-1.6-1.1-2.4-3.3-2.4h-0.9V-202.9z"/>
	</defs>
	<clipPath id="SVGID_4_">
		<use xlink:href="#SVGID_3_"  style="overflow:visible;"/>
	</clipPath>
	<g class="st2">
		<g>
			
				<rect x="9.2" y="-223.7" transform="matrix(0.7065 -0.7078 0.7078 0.7065 184.8566 -1.0045)" class="st1" width="164.1" height="0.8"/>
		</g>
		<g>
			
				<rect x="11" y="-223.7" transform="matrix(0.7065 -0.7078 0.7078 0.7065 185.3856 0.271)" class="st1" width="164.1" height="0.8"/>
		</g>
		<g>
			
				<rect x="12.8" y="-223.7" transform="matrix(0.7065 -0.7078 0.7078 0.7065 185.9147 1.5466)" class="st1" width="164.1" height="0.8"/>
		</g>
		<g>
			
				<rect x="14.6" y="-223.7" transform="matrix(0.7065 -0.7078 0.7078 0.7065 186.4438 2.8225)" class="st1" width="164.1" height="0.8"/>
		</g>
		<g>
			
				<rect x="16.4" y="-223.7" transform="matrix(0.7065 -0.7078 0.7078 0.7065 186.973 4.0984)" class="st1" width="164.1" height="0.8"/>
		</g>
		<g>
			
				<rect x="18.2" y="-223.7" transform="matrix(0.7065 -0.7078 0.7078 0.7065 187.5019 5.3736)" class="st1" width="164.1" height="0.8"/>
		</g>
		<g>
			
				<rect x="20" y="-223.7" transform="matrix(0.7065 -0.7078 0.7078 0.7065 188.0311 6.6495)" class="st1" width="164.1" height="0.8"/>
		</g>
		<g>
			
				<rect x="21.8" y="-223.7" transform="matrix(0.7065 -0.7078 0.7078 0.7065 188.5603 7.9254)" class="st1" width="164.1" height="0.8"/>
		</g>
		<g>
			
				<rect x="23.6" y="-223.7" transform="matrix(0.7065 -0.7078 0.7078 0.7065 189.0893 9.2009)" class="st1" width="164.1" height="0.8"/>
		</g>
		<g>
			
				<rect x="25.4" y="-223.7" transform="matrix(0.7065 -0.7078 0.7078 0.7065 189.6184 10.4765)" class="st1" width="164.1" height="0.8"/>
		</g>
		<g>
			
				<rect x="27.2" y="-223.7" transform="matrix(0.7065 -0.7078 0.7078 0.7065 190.1476 11.7524)" class="st1" width="164.1" height="0.8"/>
		</g>
		<g>
			
				<rect x="29" y="-223.7" transform="matrix(0.7065 -0.7078 0.7078 0.7065 190.6767 13.0283)" class="st1" width="164.1" height="0.8"/>
		</g>
		<g>
			
				<rect x="30.8" y="-223.7" transform="matrix(0.7065 -0.7078 0.7078 0.7065 191.2058 14.3038)" class="st1" width="164.1" height="0.8"/>
		</g>
		<g>
			
				<rect x="32.6" y="-223.7" transform="matrix(0.7065 -0.7078 0.7078 0.7065 191.7348 15.5794)" class="st1" width="164.1" height="0.8"/>
		</g>
		<g>
			
				<rect x="34.4" y="-223.7" transform="matrix(0.7065 -0.7078 0.7078 0.7065 192.264 16.8553)" class="st1" width="164.1" height="0.8"/>
		</g>
		<g>
			
				<rect x="36.2" y="-223.7" transform="matrix(0.7065 -0.7078 0.7078 0.7065 192.7932 18.1312)" class="st1" width="164.1" height="0.8"/>
		</g>
		<g>
			
				<rect x="38" y="-223.7" transform="matrix(0.7065 -0.7078 0.7078 0.7065 193.3222 19.4067)" class="st1" width="164.1" height="0.8"/>
		</g>
		<g>
			
				<rect x="39.8" y="-223.7" transform="matrix(0.7065 -0.7078 0.7078 0.7065 193.8512 20.6823)" class="st1" width="164.1" height="0.8"/>
		</g>
		<g>
			
				<rect x="41.6" y="-223.7" transform="matrix(0.7065 -0.7078 0.7078 0.7065 194.3804 21.9582)" class="st1" width="164.1" height="0.8"/>
		</g>
		<g>
			
				<rect x="43.4" y="-223.7" transform="matrix(0.7065 -0.7078 0.7078 0.7065 194.9096 23.2341)" class="st1" width="164.1" height="0.8"/>
		</g>
		<g>
			
				<rect x="45.2" y="-223.7" transform="matrix(0.7065 -0.7078 0.7078 0.7065 195.4385 24.5093)" class="st1" width="164.1" height="0.8"/>
		</g>
		<g>
			
				<rect x="47" y="-223.7" transform="matrix(0.7065 -0.7078 0.7078 0.7065 195.9677 25.7852)" class="st1" width="164.1" height="0.8"/>
		</g>
		<g>
			
				<rect x="48.8" y="-223.7" transform="matrix(0.7065 -0.7078 0.7078 0.7065 196.4969 27.0611)" class="st1" width="164.1" height="0.8"/>
		</g>
		<g>
			
				<rect x="50.6" y="-223.7" transform="matrix(0.7065 -0.7078 0.7078 0.7065 197.0259 28.3366)" class="st1" width="164.1" height="0.8"/>
		</g>
		<g>
			
				<rect x="52.4" y="-223.7" transform="matrix(0.7065 -0.7078 0.7078 0.7065 197.5549 29.6122)" class="st1" width="164.1" height="0.8"/>
		</g>
		<g>
			
				<rect x="54.2" y="-223.7" transform="matrix(0.7065 -0.7078 0.7078 0.7065 198.0841 30.8881)" class="st1" width="164.1" height="0.8"/>
		</g>
		<g>
			
				<rect x="56" y="-223.7" transform="matrix(0.7065 -0.7078 0.7078 0.7065 198.6133 32.164)" class="st1" width="164.1" height="0.8"/>
		</g>
		<g>
			
				<rect x="57.8" y="-223.7" transform="matrix(0.7065 -0.7078 0.7078 0.7065 199.1423 33.4395)" class="st1" width="164.1" height="0.8"/>
		</g>
		<g>
			
				<rect x="59.6" y="-223.7" transform="matrix(0.7065 -0.7078 0.7078 0.7065 199.6714 34.7151)" class="st1" width="164.1" height="0.8"/>
		</g>
		<g>
			
				<rect x="61.4" y="-223.7" transform="matrix(0.7065 -0.7078 0.7078 0.7065 200.2006 35.991)" class="st1" width="164.1" height="0.8"/>
		</g>
		<g>
			
				<rect x="63.2" y="-223.7" transform="matrix(0.7065 -0.7078 0.7078 0.7065 200.7298 37.2669)" class="st1" width="164.1" height="0.8"/>
		</g>
		<g>
			
				<rect x="65" y="-223.7" transform="matrix(0.7065 -0.7078 0.7078 0.7065 201.2588 38.5424)" class="st1" width="164.1" height="0.8"/>
		</g>
		<g>
			
				<rect x="66.8" y="-223.7" transform="matrix(0.7065 -0.7078 0.7078 0.7065 201.7878 39.818)" class="st1" width="164.1" height="0.8"/>
		</g>
		<g>
			
				<rect x="68.6" y="-223.7" transform="matrix(0.7065 -0.7078 0.7078 0.7065 202.317 41.0939)" class="st1" width="164.1" height="0.8"/>
		</g>
		<g>
			
				<rect x="70.4" y="-223.7" transform="matrix(0.7065 -0.7078 0.7078 0.7065 202.8462 42.3698)" class="st1" width="164.1" height="0.8"/>
		</g>
		<g>
			
				<rect x="72.2" y="-223.7" transform="matrix(0.7065 -0.7078 0.7078 0.7065 203.3752 43.6453)" class="st1" width="164.1" height="0.8"/>
		</g>
		<g>
			
				<rect x="74" y="-223.7" transform="matrix(0.7065 -0.7078 0.7078 0.7065 203.9043 44.9209)" class="st1" width="164.1" height="0.8"/>
		</g>
		<g>
			
				<rect x="75.8" y="-223.7" transform="matrix(0.7065 -0.7078 0.7078 0.7065 204.4335 46.1968)" class="st1" width="164.1" height="0.8"/>
		</g>
		<g>
			
				<rect x="77.7" y="-223.7" transform="matrix(0.7065 -0.7078 0.7078 0.7065 204.9626 47.4727)" class="st1" width="164.1" height="0.8"/>
		</g>
		<g>
			
				<rect x="79.5" y="-223.7" transform="matrix(0.7065 -0.7078 0.7078 0.7065 205.4915 48.7479)" class="st1" width="164.1" height="0.8"/>
		</g>
		<g>
			
				<rect x="81.3" y="-223.7" transform="matrix(0.7065 -0.7078 0.7078 0.7065 206.0207 50.0238)" class="st1" width="164.1" height="0.8"/>
		</g>
		<g>
			
				<rect x="83.1" y="-223.7" transform="matrix(0.7065 -0.7078 0.7078 0.7065 206.5499 51.2997)" class="st1" width="164.1" height="0.8"/>
		</g>
		<g>
			
				<rect x="84.9" y="-223.7" transform="matrix(0.7065 -0.7078 0.7078 0.7065 207.0789 52.5752)" class="st1" width="164.1" height="0.8"/>
		</g>
		<g>
			
				<rect x="86.7" y="-223.7" transform="matrix(0.7065 -0.7078 0.7078 0.7065 207.608 53.8508)" class="st1" width="164.1" height="0.8"/>
		</g>
		<g>
			
				<rect x="88.5" y="-223.7" transform="matrix(0.7065 -0.7078 0.7078 0.7065 208.1372 55.1267)" class="st1" width="164.1" height="0.8"/>
		</g>
		<g>
			
				<rect x="90.3" y="-223.7" transform="matrix(0.7065 -0.7078 0.7078 0.7065 208.6663 56.4026)" class="st1" width="164.1" height="0.8"/>
		</g>
		<g>
			
				<rect x="92.1" y="-223.7" transform="matrix(0.7065 -0.7078 0.7078 0.7065 209.1954 57.6781)" class="st1" width="164.1" height="0.8"/>
		</g>
		<g>
			
				<rect x="93.9" y="-223.7" transform="matrix(0.7065 -0.7078 0.7078 0.7065 209.7244 58.9537)" class="st1" width="164.1" height="0.8"/>
		</g>
		<g>
			
				<rect x="95.7" y="-223.7" transform="matrix(0.7065 -0.7078 0.7078 0.7065 210.2536 60.2296)" class="st1" width="164.1" height="0.8"/>
		</g>
		<g>
			
				<rect x="97.5" y="-223.7" transform="matrix(0.7065 -0.7078 0.7078 0.7065 210.7828 61.5055)" class="st1" width="164.1" height="0.8"/>
		</g>
		<g>
			
				<rect x="99.3" y="-223.7" transform="matrix(0.7065 -0.7078 0.7078 0.7065 211.3118 62.781)" class="st1" width="164.1" height="0.8"/>
		</g>
		<g>
			
				<rect x="101.1" y="-223.7" transform="matrix(0.7065 -0.7078 0.7078 0.7065 211.8409 64.0566)" class="st1" width="164.1" height="0.8"/>
		</g>
		<g>
			
				<rect x="102.9" y="-223.7" transform="matrix(0.7065 -0.7078 0.7078 0.7065 212.37 65.3325)" class="st1" width="164.1" height="0.8"/>
		</g>
		<g>
			
				<rect x="104.7" y="-223.7" transform="matrix(0.7065 -0.7078 0.7078 0.7065 212.8992 66.6084)" class="st1" width="164.1" height="0.8"/>
		</g>
		<g>
			
				<rect x="106.5" y="-223.7" transform="matrix(0.7065 -0.7078 0.7078 0.7065 213.4281 67.8836)" class="st1" width="164.1" height="0.8"/>
		</g>
		<g>
			
				<rect x="108.3" y="-223.7" transform="matrix(0.7065 -0.7078 0.7078 0.7065 213.9573 69.1595)" class="st1" width="164.1" height="0.8"/>
		</g>
		<g>
			
				<rect x="110.1" y="-223.7" transform="matrix(0.7065 -0.7078 0.7078 0.7065 214.4865 70.4354)" class="st1" width="164.1" height="0.8"/>
		</g>
		<g>
			
				<rect x="111.9" y="-223.7" transform="matrix(0.7065 -0.7078 0.7078 0.7065 215.0155 71.7109)" class="st1" width="164.1" height="0.8"/>
		</g>
		<g>
			
				<rect x="113.7" y="-223.7" transform="matrix(0.7065 -0.7078 0.7078 0.7065 215.5446 72.9865)" class="st1" width="164.1" height="0.8"/>
		</g>
		<g>
			
				<rect x="115.5" y="-223.7" transform="matrix(0.7065 -0.7078 0.7078 0.7065 216.0737 74.2624)" class="st1" width="164.1" height="0.8"/>
		</g>
		<g>
			
				<rect x="117.3" y="-223.7" transform="matrix(0.7065 -0.7078 0.7078 0.7065 216.6029 75.5383)" class="st1" width="164.1" height="0.8"/>
		</g>
		<g>
			
				<rect x="119.1" y="-223.7" transform="matrix(0.7065 -0.7078 0.7078 0.7065 217.132 76.8138)" class="st1" width="164.1" height="0.8"/>
		</g>
		<g>
			
				<rect x="120.9" y="-223.7" transform="matrix(0.7065 -0.7078 0.7078 0.7065 217.661 78.0894)" class="st1" width="164.1" height="0.8"/>
		</g>
		<g>
			
				<rect x="122.7" y="-223.7" transform="matrix(0.7065 -0.7078 0.7078 0.7065 218.1902 79.3653)" class="st1" width="164.1" height="0.8"/>
		</g>
		<g>
			
				<rect x="124.5" y="-223.7" transform="matrix(0.7065 -0.7078 0.7078 0.7065 218.7194 80.6412)" class="st1" width="164.1" height="0.8"/>
		</g>
		<g>
			
				<rect x="126.3" y="-223.7" transform="matrix(0.7065 -0.7078 0.7078 0.7065 219.2484 81.9167)" class="st1" width="164.1" height="0.8"/>
		</g>
		<g>
			
				<rect x="128.1" y="-223.7" transform="matrix(0.7065 -0.7078 0.7078 0.7065 219.7774 83.1923)" class="st1" width="164.1" height="0.8"/>
		</g>
		<g>
			
				<rect x="129.9" y="-223.7" transform="matrix(0.7065 -0.7078 0.7078 0.7065 220.3066 84.4682)" class="st1" width="164.1" height="0.8"/>
		</g>
		<g>
			
				<rect x="131.7" y="-223.7" transform="matrix(0.7065 -0.7078 0.7078 0.7065 220.8358 85.7441)" class="st1" width="164.1" height="0.8"/>
		</g>
		<g>
			
				<rect x="133.5" y="-223.7" transform="matrix(0.7065 -0.7078 0.7078 0.7065 221.3647 87.0193)" class="st1" width="164.1" height="0.8"/>
		</g>
		<g>
			
				<rect x="135.3" y="-223.7" transform="matrix(0.7065 -0.7078 0.7078 0.7065 221.8939 88.2952)" class="st1" width="164.1" height="0.8"/>
		</g>
		<g>
			
				<rect x="137.1" y="-223.7" transform="matrix(0.7065 -0.7078 0.7078 0.7065 222.4231 89.5711)" class="st1" width="164.1" height="0.8"/>
		</g>
		<g>
			
				<rect x="138.9" y="-223.7" transform="matrix(0.7065 -0.7078 0.7078 0.7065 222.9521 90.8466)" class="st1" width="164.1" height="0.8"/>
		</g>
		<g>
			
				<rect x="140.7" y="-223.7" transform="matrix(0.7065 -0.7078 0.7078 0.7065 223.4811 92.1222)" class="st1" width="164.1" height="0.8"/>
		</g>
		<g>
			
				<rect x="142.5" y="-223.7" transform="matrix(0.7065 -0.7078 0.7078 0.7065 224.0103 93.3981)" class="st1" width="164.1" height="0.8"/>
		</g>
		<g>
			
				<rect x="144.3" y="-223.7" transform="matrix(0.7065 -0.7078 0.7078 0.7065 224.5395 94.674)" class="st1" width="164.1" height="0.8"/>
		</g>
		<g>
			
				<rect x="146.1" y="-223.7" transform="matrix(0.7065 -0.7078 0.7078 0.7065 225.0685 95.9495)" class="st1" width="164.1" height="0.8"/>
		</g>
		<g>
			
				<rect x="147.9" y="-223.7" transform="matrix(0.7065 -0.7078 0.7078 0.7065 225.5976 97.2251)" class="st1" width="164.1" height="0.8"/>
		</g>
		<g>
			
				<rect x="149.8" y="-223.7" transform="matrix(0.7065 -0.7078 0.7078 0.7065 226.1268 98.501)" class="st1" width="164.1" height="0.8"/>
		</g>
		<g>
			
				<rect x="151.6" y="-223.7" transform="matrix(0.7065 -0.7078 0.7078 0.7065 226.6559 99.7769)" class="st1" width="164.1" height="0.8"/>
		</g>
		<g>
			
				<rect x="153.4" y="-223.7" transform="matrix(0.7065 -0.7078 0.7078 0.7065 227.185 101.0524)" class="st1" width="164.1" height="0.8"/>
		</g>
		<g>
			
				<rect x="155.2" y="-223.7" transform="matrix(0.7065 -0.7078 0.7078 0.7065 227.714 102.328)" class="st1" width="164.1" height="0.8"/>
		</g>
		<g>
			
				<rect x="157" y="-223.7" transform="matrix(0.7065 -0.7078 0.7078 0.7065 228.2432 103.6039)" class="st1" width="164.1" height="0.8"/>
		</g>
		<g>
			
				<rect x="158.8" y="-223.7" transform="matrix(0.7065 -0.7078 0.7078 0.7065 228.7724 104.8798)" class="st1" width="164.1" height="0.8"/>
		</g>
		<g>
			
				<rect x="160.6" y="-223.7" transform="matrix(0.7065 -0.7078 0.7078 0.7065 229.3014 106.1553)" class="st1" width="164.1" height="0.8"/>
		</g>
		<g>
			
				<rect x="162.4" y="-223.7" transform="matrix(0.7065 -0.7078 0.7078 0.7065 229.8305 107.4309)" class="st1" width="164.1" height="0.8"/>
		</g>
		<g>
			
				<rect x="164.2" y="-223.7" transform="matrix(0.7065 -0.7078 0.7078 0.7065 230.3596 108.7068)" class="st1" width="164.1" height="0.8"/>
		</g>
		<g>
			
				<rect x="166" y="-223.7" transform="matrix(0.7065 -0.7078 0.7078 0.7065 230.8888 109.9827)" class="st1" width="164.1" height="0.8"/>
		</g>
		<g>
			
				<rect x="167.8" y="-223.7" transform="matrix(0.7065 -0.7078 0.7078 0.7065 231.4177 111.2579)" class="st1" width="164.1" height="0.8"/>
		</g>
		<g>
			
				<rect x="169.6" y="-223.7" transform="matrix(0.7065 -0.7078 0.7078 0.7065 231.9469 112.5338)" class="st1" width="164.1" height="0.8"/>
		</g>
		<g>
			
				<rect x="171.4" y="-223.7" transform="matrix(0.7065 -0.7078 0.7078 0.7065 232.4761 113.8097)" class="st1" width="164.1" height="0.8"/>
		</g>
		<g>
			
				<rect x="173.2" y="-223.7" transform="matrix(0.7065 -0.7078 0.7078 0.7065 233.0051 115.0852)" class="st1" width="164.1" height="0.8"/>
		</g>
		<g>
			
				<rect x="175" y="-223.7" transform="matrix(0.7065 -0.7078 0.7078 0.7065 233.5342 116.3608)" class="st1" width="164.1" height="0.8"/>
		</g>
		<g>
			
				<rect x="176.8" y="-223.7" transform="matrix(0.7065 -0.7078 0.7078 0.7065 234.0633 117.6367)" class="st1" width="164.1" height="0.8"/>
		</g>
		<g>
			
				<rect x="178.6" y="-223.7" transform="matrix(0.7065 -0.7078 0.7078 0.7065 234.5925 118.9126)" class="st1" width="164.1" height="0.8"/>
		</g>
		<g>
			
				<rect x="180.4" y="-223.7" transform="matrix(0.7065 -0.7078 0.7078 0.7065 235.1216 120.1881)" class="st1" width="164.1" height="0.8"/>
		</g>
		<g>
			
				<rect x="182.2" y="-223.7" transform="matrix(0.7065 -0.7078 0.7078 0.7065 235.6506 121.4637)" class="st1" width="164.1" height="0.8"/>
		</g>
		<g>
			
				<rect x="184" y="-223.7" transform="matrix(0.7065 -0.7078 0.7078 0.7065 236.1798 122.7396)" class="st1" width="164.1" height="0.8"/>
		</g>
		<g>
			
				<rect x="185.8" y="-223.7" transform="matrix(0.7065 -0.7078 0.7078 0.7065 236.709 124.0155)" class="st1" width="164.1" height="0.8"/>
		</g>
		<g>
			
				<rect x="187.6" y="-223.7" transform="matrix(0.7065 -0.7078 0.7078 0.7065 237.238 125.291)" class="st1" width="164.1" height="0.8"/>
		</g>
		<g>
			
				<rect x="189.4" y="-223.7" transform="matrix(0.7065 -0.7078 0.7078 0.7065 237.767 126.5666)" class="st1" width="164.1" height="0.8"/>
		</g>
		<g>
			
				<rect x="191.2" y="-223.7" transform="matrix(0.7065 -0.7078 0.7078 0.7065 238.2962 127.8425)" class="st1" width="164.1" height="0.8"/>
		</g>
	</g>
</g>
<g>
	<defs>
		<path id="SVGID_5_" d="M242.6,60.8v2.8c-1.4-1.2-2.8-1.7-4.3-1.7c-1.6,0-3,0.6-4.1,1.8c-1.1,1.2-1.7,2.6-1.7,4.3
			c0,1.7,0.6,3.1,1.7,4.2s2.5,1.7,4.1,1.7c0.8,0,1.6-0.1,2.1-0.4c0.3-0.1,0.7-0.3,1-0.6c0.4-0.2,0.7-0.5,1.1-0.8V75
			c-1.4,0.8-2.8,1.2-4.3,1.2c-2.3,0-4.2-0.8-5.8-2.4c-1.6-1.6-2.4-3.5-2.4-5.8c0-2,0.7-3.8,2-5.4c1.6-1.9,3.8-2.9,6.4-2.9
			C239.9,59.7,241.3,60.1,242.6,60.8z M247.9,67.8c0-2.2,0.8-4.1,2.5-5.7c1.6-1.6,3.6-2.4,5.9-2.4c2.3,0,4.2,0.8,5.8,2.4
			c1.6,1.6,2.4,3.6,2.4,5.8c0,2.3-0.8,4.2-2.4,5.8c-1.6,1.6-3.6,2.4-5.9,2.4c-2,0-3.9-0.7-5.5-2.1C248.8,72.4,247.9,70.4,247.9,67.8
			z M250.3,67.9c0,1.8,0.6,3.2,1.8,4.3c1.2,1.1,2.5,1.7,4,1.7c1.7,0,3.1-0.6,4.2-1.7c1.1-1.2,1.7-2.6,1.7-4.2c0-1.7-0.6-3.1-1.7-4.2
			c-1.1-1.1-2.5-1.7-4.2-1.7c-1.6,0-3,0.6-4.2,1.7C250.9,64.8,250.3,66.2,250.3,67.9z M273,60v13.6h4.7v2.2h-7V60H273z M291.8,62.2
			h-6.3V66h6.2v2.2h-6.2v5.3h6.3v2.2h-8.7V60h8.7V62.2z M302.5,62.2v13.6h-2.4V62.2h-3.6V60h9.7v2.2H302.5z M313.8,60v15.8h-2.4V60
			H313.8z M321.5,60l4.4,11l4.4-11h2.6l-7.1,17l-6.9-17H321.5z M340.5,60v15.8h-2.4V60H340.5z M350.2,73.6h7.6v2.2h-11.5l7.8-13.6
			h-6.5V60h10.4L350.2,73.6z M373,72h-6.8l-1.8,3.8h-2.6l7.8-16.8l7.6,16.8h-2.6L373,72z M372,69.7l-2.3-5.4l-2.5,5.4H372z
			 M387.8,69.1l4.9,6.7h-2.9l-4.5-6.5h-0.4v6.5h-2.4V60h2.8c2.1,0,3.6,0.4,4.5,1.2c1,0.9,1.5,2,1.5,3.5c0,1.1-0.3,2.1-1,2.9
			S388.8,68.9,387.8,69.1z M384.8,67.3h0.8c2.3,0,3.4-0.9,3.4-2.6c0-1.6-1.1-2.4-3.3-2.4h-0.9V67.3z"/>
	</defs>
	<clipPath id="SVGID_6_">
		<use xlink:href="#SVGID_5_"  style="overflow:visible;"/>
	</clipPath>
	<g class="st3">
		<g>
			
				<rect x="161.3" y="47.1" transform="matrix(0.7065 -0.7078 0.7078 0.7065 37.834 186.1876)" class="st1" width="164.1" height="0.8"/>
		</g>
		<g>
			
				<rect x="163.1" y="47.1" transform="matrix(0.7065 -0.7078 0.7078 0.7065 38.363 187.4632)" class="st1" width="164.1" height="0.8"/>
		</g>
		<g>
			
				<rect x="164.9" y="47.1" transform="matrix(0.7065 -0.7078 0.7078 0.7065 38.8921 188.7387)" class="st1" width="164.1" height="0.8"/>
		</g>
		<g>
			
				<rect x="166.7" y="47.1" transform="matrix(0.7065 -0.7078 0.7078 0.7065 39.4213 190.0146)" class="st1" width="164.1" height="0.8"/>
		</g>
		<g>
			
				<rect x="168.5" y="47.1" transform="matrix(0.7065 -0.7078 0.7078 0.7065 39.9505 191.2905)" class="st1" width="164.1" height="0.8"/>
		</g>
		<g>
			
				<rect x="170.3" y="47.1" transform="matrix(0.7065 -0.7078 0.7078 0.7065 40.4793 192.5658)" class="st1" width="164.1" height="0.8"/>
		</g>
		<g>
			
				<rect x="172.1" y="47.1" transform="matrix(0.7065 -0.7078 0.7078 0.7065 41.0085 193.8416)" class="st1" width="164.1" height="0.8"/>
		</g>
		<g>
			
				<rect x="173.9" y="47.1" transform="matrix(0.7065 -0.7078 0.7078 0.7065 41.5377 195.1175)" class="st1" width="164.1" height="0.8"/>
		</g>
		<g>
			
				<rect x="175.7" y="47.1" transform="matrix(0.7065 -0.7078 0.7078 0.7065 42.0667 196.3931)" class="st1" width="164.1" height="0.8"/>
		</g>
		<g>
			
				<rect x="177.5" y="47.1" transform="matrix(0.7065 -0.7078 0.7078 0.7065 42.5958 197.6687)" class="st1" width="164.1" height="0.8"/>
		</g>
		<g>
			
				<rect x="179.3" y="47.1" transform="matrix(0.7065 -0.7078 0.7078 0.7065 43.125 198.9445)" class="st1" width="164.1" height="0.8"/>
		</g>
		<g>
			
				<rect x="181.1" y="47.1" transform="matrix(0.7065 -0.7078 0.7078 0.7065 43.6542 200.2204)" class="st1" width="164.1" height="0.8"/>
		</g>
		<g>
			
				<rect x="182.9" y="47.1" transform="matrix(0.7065 -0.7078 0.7078 0.7065 44.1832 201.496)" class="st1" width="164.1" height="0.8"/>
		</g>
		<g>
			
				<rect x="184.7" y="47.1" transform="matrix(0.7065 -0.7078 0.7078 0.7065 44.7122 202.7715)" class="st1" width="164.1" height="0.8"/>
		</g>
		<g>
			
				<rect x="186.5" y="47.1" transform="matrix(0.7065 -0.7078 0.7078 0.7065 45.2414 204.0474)" class="st1" width="164.1" height="0.8"/>
		</g>
		<g>
			
				<rect x="188.4" y="47.1" transform="matrix(0.7065 -0.7078 0.7078 0.7065 45.7706 205.3233)" class="st1" width="164.1" height="0.8"/>
		</g>
		<g>
			
				<rect x="190.2" y="47.1" transform="matrix(0.7065 -0.7078 0.7078 0.7065 46.2996 206.5989)" class="st1" width="164.1" height="0.8"/>
		</g>
		<g>
			
				<rect x="192" y="47.1" transform="matrix(0.7065 -0.7078 0.7078 0.7065 46.8287 207.8745)" class="st1" width="164.1" height="0.8"/>
		</g>
		<g>
			
				<rect x="193.8" y="47.1" transform="matrix(0.7065 -0.7078 0.7078 0.7065 47.3579 209.1503)" class="st1" width="164.1" height="0.8"/>
		</g>
		<g>
			
				<rect x="195.6" y="47.1" transform="matrix(0.7065 -0.7078 0.7078 0.7065 47.887 210.4262)" class="st1" width="164.1" height="0.8"/>
		</g>
		<g>
			
				<rect x="197.4" y="47.1" transform="matrix(0.7065 -0.7078 0.7078 0.7065 48.4159 211.7014)" class="st1" width="164.1" height="0.8"/>
		</g>
		<g>
			
				<rect x="199.2" y="47.1" transform="matrix(0.7065 -0.7078 0.7078 0.7065 48.9451 212.9774)" class="st1" width="164.1" height="0.8"/>
		</g>
		<g>
			
				<rect x="201" y="47.1" transform="matrix(0.7065 -0.7078 0.7078 0.7065 49.4743 214.2533)" class="st1" width="164.1" height="0.8"/>
		</g>
		<g>
			
				<rect x="202.8" y="47.1" transform="matrix(0.7065 -0.7078 0.7078 0.7065 50.0033 215.5288)" class="st1" width="164.1" height="0.8"/>
		</g>
		<g>
			
				<rect x="204.6" y="47.1" transform="matrix(0.7065 -0.7078 0.7078 0.7065 50.5324 216.8044)" class="st1" width="164.1" height="0.8"/>
		</g>
		<g>
			
				<rect x="206.4" y="47.1" transform="matrix(0.7065 -0.7078 0.7078 0.7065 51.0616 218.0802)" class="st1" width="164.1" height="0.8"/>
		</g>
		<g>
			
				<rect x="208.2" y="47.1" transform="matrix(0.7065 -0.7078 0.7078 0.7065 51.5907 219.3561)" class="st1" width="164.1" height="0.8"/>
		</g>
		<g>
			
				<rect x="210" y="47.1" transform="matrix(0.7065 -0.7078 0.7078 0.7065 52.1198 220.6317)" class="st1" width="164.1" height="0.8"/>
		</g>
		<g>
			
				<rect x="211.8" y="47.1" transform="matrix(0.7065 -0.7078 0.7078 0.7065 52.6488 221.9073)" class="st1" width="164.1" height="0.8"/>
		</g>
		<g>
			
				<rect x="213.6" y="47.1" transform="matrix(0.7065 -0.7078 0.7078 0.7065 53.178 223.1832)" class="st1" width="164.1" height="0.8"/>
		</g>
		<g>
			
				<rect x="215.4" y="47.1" transform="matrix(0.7065 -0.7078 0.7078 0.7065 53.7072 224.459)" class="st1" width="164.1" height="0.8"/>
		</g>
		<g>
			
				<rect x="217.2" y="47.1" transform="matrix(0.7065 -0.7078 0.7078 0.7065 54.2362 225.7346)" class="st1" width="164.1" height="0.8"/>
		</g>
		<g>
			
				<rect x="219" y="47.1" transform="matrix(0.7065 -0.7078 0.7078 0.7065 54.7653 227.0101)" class="st1" width="164.1" height="0.8"/>
		</g>
		<g>
			
				<rect x="220.8" y="47.1" transform="matrix(0.7065 -0.7078 0.7078 0.7065 55.2944 228.2861)" class="st1" width="164.1" height="0.8"/>
		</g>
		<g>
			
				<rect x="222.6" y="47.1" transform="matrix(0.7065 -0.7078 0.7078 0.7065 55.8236 229.562)" class="st1" width="164.1" height="0.8"/>
		</g>
		<g>
			
				<rect x="224.4" y="47.1" transform="matrix(0.7065 -0.7078 0.7078 0.7065 56.3527 230.8375)" class="st1" width="164.1" height="0.8"/>
		</g>
		<g>
			
				<rect x="226.2" y="47.1" transform="matrix(0.7065 -0.7078 0.7078 0.7065 56.8817 232.1131)" class="st1" width="164.1" height="0.8"/>
		</g>
		<g>
			
				<rect x="228" y="47.1" transform="matrix(0.7065 -0.7078 0.7078 0.7065 57.4109 233.3889)" class="st1" width="164.1" height="0.8"/>
		</g>
		<g>
			
				<rect x="229.8" y="47.1" transform="matrix(0.7065 -0.7078 0.7078 0.7065 57.9401 234.6648)" class="st1" width="164.1" height="0.8"/>
		</g>
		<g>
			
				<rect x="231.6" y="47.1" transform="matrix(0.7065 -0.7078 0.7078 0.7065 58.469 235.94)" class="st1" width="164.1" height="0.8"/>
		</g>
		<g>
			
				<rect x="233.4" y="47.1" transform="matrix(0.7065 -0.7078 0.7078 0.7065 58.9981 237.216)" class="st1" width="164.1" height="0.8"/>
		</g>
		<g>
			
				<rect x="235.2" y="47.1" transform="matrix(0.7065 -0.7078 0.7078 0.7065 59.5273 238.4919)" class="st1" width="164.1" height="0.8"/>
		</g>
		<g>
			
				<rect x="237" y="47.1" transform="matrix(0.7065 -0.7078 0.7078 0.7065 60.0564 239.7674)" class="st1" width="164.1" height="0.8"/>
		</g>
		<g>
			
				<rect x="238.8" y="47.1" transform="matrix(0.7065 -0.7078 0.7078 0.7065 60.5854 241.043)" class="st1" width="164.1" height="0.8"/>
		</g>
		<g>
			
				<rect x="240.6" y="47.1" transform="matrix(0.7065 -0.7078 0.7078 0.7065 61.1146 242.3188)" class="st1" width="164.1" height="0.8"/>
		</g>
		<g>
			
				<rect x="242.4" y="47.1" transform="matrix(0.7065 -0.7078 0.7078 0.7065 61.6438 243.5948)" class="st1" width="164.1" height="0.8"/>
		</g>
		<g>
			
				<rect x="244.2" y="47.1" transform="matrix(0.7065 -0.7078 0.7078 0.7065 62.1728 244.8703)" class="st1" width="164.1" height="0.8"/>
		</g>
		<g>
			
				<rect x="246" y="47.1" transform="matrix(0.7065 -0.7078 0.7078 0.7065 62.7018 246.1459)" class="st1" width="164.1" height="0.8"/>
		</g>
		<g>
			
				<rect x="247.8" y="47.1" transform="matrix(0.7065 -0.7078 0.7078 0.7065 63.231 247.4218)" class="st1" width="164.1" height="0.8"/>
		</g>
		<g>
			
				<rect x="249.6" y="47.1" transform="matrix(0.7065 -0.7078 0.7078 0.7065 63.7602 248.6976)" class="st1" width="164.1" height="0.8"/>
		</g>
		<g>
			
				<rect x="251.4" y="47.1" transform="matrix(0.7065 -0.7078 0.7078 0.7065 64.2892 249.9732)" class="st1" width="164.1" height="0.8"/>
		</g>
		<g>
			
				<rect x="253.2" y="47.1" transform="matrix(0.7065 -0.7078 0.7078 0.7065 64.8183 251.2487)" class="st1" width="164.1" height="0.8"/>
		</g>
		<g>
			
				<rect x="255" y="47.1" transform="matrix(0.7065 -0.7078 0.7078 0.7065 65.3475 252.5247)" class="st1" width="164.1" height="0.8"/>
		</g>
		<g>
			
				<rect x="256.8" y="47.1" transform="matrix(0.7065 -0.7078 0.7078 0.7065 65.8766 253.8006)" class="st1" width="164.1" height="0.8"/>
		</g>
		<g>
			
				<rect x="258.6" y="47.1" transform="matrix(0.7065 -0.7078 0.7078 0.7065 66.4055 255.0758)" class="st1" width="164.1" height="0.8"/>
		</g>
		<g>
			
				<rect x="260.4" y="47.1" transform="matrix(0.7065 -0.7078 0.7078 0.7065 66.9347 256.3517)" class="st1" width="164.1" height="0.8"/>
		</g>
		<g>
			
				<rect x="262.3" y="47.1" transform="matrix(0.7065 -0.7078 0.7078 0.7065 67.4639 257.6276)" class="st1" width="164.1" height="0.8"/>
		</g>
		<g>
			
				<rect x="264.1" y="47.1" transform="matrix(0.7065 -0.7078 0.7078 0.7065 67.9929 258.9031)" class="st1" width="164.1" height="0.8"/>
		</g>
		<g>
			
				<rect x="265.9" y="47.1" transform="matrix(0.7065 -0.7078 0.7078 0.7065 68.522 260.1786)" class="st1" width="164.1" height="0.8"/>
		</g>
		<g>
			
				<rect x="267.7" y="47.1" transform="matrix(0.7065 -0.7078 0.7078 0.7065 69.0512 261.4546)" class="st1" width="164.1" height="0.8"/>
		</g>
		<g>
			
				<rect x="269.5" y="47.1" transform="matrix(0.7065 -0.7078 0.7078 0.7065 69.5803 262.7305)" class="st1" width="164.1" height="0.8"/>
		</g>
		<g>
			
				<rect x="271.3" y="47.1" transform="matrix(0.7065 -0.7078 0.7078 0.7065 70.1094 264.006)" class="st1" width="164.1" height="0.8"/>
		</g>
		<g>
			
				<rect x="273.1" y="47.1" transform="matrix(0.7065 -0.7078 0.7078 0.7065 70.6384 265.2816)" class="st1" width="164.1" height="0.8"/>
		</g>
		<g>
			
				<rect x="274.9" y="47.1" transform="matrix(0.7065 -0.7078 0.7078 0.7065 71.1676 266.5575)" class="st1" width="164.1" height="0.8"/>
		</g>
		<g>
			
				<rect x="276.7" y="47.1" transform="matrix(0.7065 -0.7078 0.7078 0.7065 71.6968 267.8333)" class="st1" width="164.1" height="0.8"/>
		</g>
		<g>
			
				<rect x="278.5" y="47.1" transform="matrix(0.7065 -0.7078 0.7078 0.7065 72.2258 269.1089)" class="st1" width="164.1" height="0.8"/>
		</g>
		<g>
			
				<rect x="280.3" y="47.1" transform="matrix(0.7065 -0.7078 0.7078 0.7065 72.7549 270.3845)" class="st1" width="164.1" height="0.8"/>
		</g>
		<g>
			
				<rect x="282.1" y="47.1" transform="matrix(0.7065 -0.7078 0.7078 0.7065 73.284 271.6604)" class="st1" width="164.1" height="0.8"/>
		</g>
		<g>
			
				<rect x="283.9" y="47.1" transform="matrix(0.7065 -0.7078 0.7078 0.7065 73.8132 272.9362)" class="st1" width="164.1" height="0.8"/>
		</g>
		<g>
			
				<rect x="285.7" y="47.1" transform="matrix(0.7065 -0.7078 0.7078 0.7065 74.3421 274.2115)" class="st1" width="164.1" height="0.8"/>
		</g>
		<g>
			
				<rect x="287.5" y="47.1" transform="matrix(0.7065 -0.7078 0.7078 0.7065 74.8713 275.4874)" class="st1" width="164.1" height="0.8"/>
		</g>
		<g>
			
				<rect x="289.3" y="47.1" transform="matrix(0.7065 -0.7078 0.7078 0.7065 75.4005 276.7632)" class="st1" width="164.1" height="0.8"/>
		</g>
		<g>
			
				<rect x="291.1" y="47.1" transform="matrix(0.7065 -0.7078 0.7078 0.7065 75.9295 278.0388)" class="st1" width="164.1" height="0.8"/>
		</g>
		<g>
			
				<rect x="292.9" y="47.1" transform="matrix(0.7065 -0.7078 0.7078 0.7065 76.4586 279.3144)" class="st1" width="164.1" height="0.8"/>
		</g>
		<g>
			
				<rect x="294.7" y="47.1" transform="matrix(0.7065 -0.7078 0.7078 0.7065 76.9877 280.5903)" class="st1" width="164.1" height="0.8"/>
		</g>
		<g>
			
				<rect x="296.5" y="47.1" transform="matrix(0.7065 -0.7078 0.7078 0.7065 77.5169 281.8661)" class="st1" width="164.1" height="0.8"/>
		</g>
		<g>
			
				<rect x="298.3" y="47.1" transform="matrix(0.7065 -0.7078 0.7078 0.7065 78.046 283.1417)" class="st1" width="164.1" height="0.8"/>
		</g>
		<g>
			
				<rect x="300.1" y="47.1" transform="matrix(0.7065 -0.7078 0.7078 0.7065 78.575 284.4173)" class="st1" width="164.1" height="0.8"/>
		</g>
		<g>
			
				<rect x="301.9" y="47.1" transform="matrix(0.7065 -0.7078 0.7078 0.7065 79.1042 285.6931)" class="st1" width="164.1" height="0.8"/>
		</g>
		<g>
			
				<rect x="303.7" y="47.1" transform="matrix(0.7065 -0.7078 0.7078 0.7065 79.6334 286.9691)" class="st1" width="164.1" height="0.8"/>
		</g>
		<g>
			
				<rect x="305.5" y="47.1" transform="matrix(0.7065 -0.7078 0.7078 0.7065 80.1624 288.2446)" class="st1" width="164.1" height="0.8"/>
		</g>
		<g>
			
				<rect x="307.3" y="47.1" transform="matrix(0.7065 -0.7078 0.7078 0.7065 80.6914 289.5202)" class="st1" width="164.1" height="0.8"/>
		</g>
		<g>
			
				<rect x="309.1" y="47.1" transform="matrix(0.7065 -0.7078 0.7078 0.7065 81.2206 290.7961)" class="st1" width="164.1" height="0.8"/>
		</g>
		<g>
			
				<rect x="310.9" y="47.1" transform="matrix(0.7065 -0.7078 0.7078 0.7065 81.7498 292.072)" class="st1" width="164.1" height="0.8"/>
		</g>
		<g>
			
				<rect x="312.7" y="47.1" transform="matrix(0.7065 -0.7078 0.7078 0.7065 82.2788 293.3475)" class="st1" width="164.1" height="0.8"/>
		</g>
		<g>
			
				<rect x="314.5" y="47.1" transform="matrix(0.7065 -0.7078 0.7078 0.7065 82.8079 294.6231)" class="st1" width="164.1" height="0.8"/>
		</g>
		<g>
			
				<rect x="316.3" y="47.1" transform="matrix(0.7065 -0.7078 0.7078 0.7065 83.3371 295.899)" class="st1" width="164.1" height="0.8"/>
		</g>
		<g>
			
				<rect x="318.1" y="47.1" transform="matrix(0.7065 -0.7078 0.7078 0.7065 83.8662 297.1749)" class="st1" width="164.1" height="0.8"/>
		</g>
		<g>
			
				<rect x="319.9" y="47.1" transform="matrix(0.7065 -0.7078 0.7078 0.7065 84.3951 298.4501)" class="st1" width="164.1" height="0.8"/>
		</g>
		<g>
			
				<rect x="321.7" y="47.1" transform="matrix(0.7065 -0.7078 0.7078 0.7065 84.9243 299.726)" class="st1" width="164.1" height="0.8"/>
		</g>
		<g>
			
				<rect x="323.5" y="47.1" transform="matrix(0.7065 -0.7078 0.7078 0.7065 85.4535 301.0019)" class="st1" width="164.1" height="0.8"/>
		</g>
		<g>
			
				<rect x="325.3" y="47.1" transform="matrix(0.7065 -0.7078 0.7078 0.7065 85.9825 302.2774)" class="st1" width="164.1" height="0.8"/>
		</g>
		<g>
			
				<rect x="327.1" y="47.1" transform="matrix(0.7065 -0.7078 0.7078 0.7065 86.5116 303.553)" class="st1" width="164.1" height="0.8"/>
		</g>
		<g>
			
				<rect x="328.9" y="47.1" transform="matrix(0.7065 -0.7078 0.7078 0.7065 87.0408 304.8289)" class="st1" width="164.1" height="0.8"/>
		</g>
		<g>
			
				<rect x="330.7" y="47.1" transform="matrix(0.7065 -0.7078 0.7078 0.7065 87.5699 306.1048)" class="st1" width="164.1" height="0.8"/>
		</g>
		<g>
			
				<rect x="332.5" y="47.1" transform="matrix(0.7065 -0.7078 0.7078 0.7065 88.099 307.3803)" class="st1" width="164.1" height="0.8"/>
		</g>
		<g>
			
				<rect x="334.4" y="47.1" transform="matrix(0.7065 -0.7078 0.7078 0.7065 88.628 308.6559)" class="st1" width="164.1" height="0.8"/>
		</g>
		<g>
			
				<rect x="336.2" y="47.1" transform="matrix(0.7065 -0.7078 0.7078 0.7065 89.1572 309.9318)" class="st1" width="164.1" height="0.8"/>
		</g>
		<g>
			
				<rect x="338" y="47.1" transform="matrix(0.7065 -0.7078 0.7078 0.7065 89.6864 311.2077)" class="st1" width="164.1" height="0.8"/>
		</g>
		<g>
			
				<rect x="339.8" y="47.1" transform="matrix(0.7065 -0.7078 0.7078 0.7065 90.2154 312.4832)" class="st1" width="164.1" height="0.8"/>
		</g>
		<g>
			
				<rect x="341.6" y="47.1" transform="matrix(0.7065 -0.7078 0.7078 0.7065 90.7445 313.7588)" class="st1" width="164.1" height="0.8"/>
		</g>
		<g>
			
				<rect x="343.4" y="47.1" transform="matrix(0.7065 -0.7078 0.7078 0.7065 91.2736 315.0347)" class="st1" width="164.1" height="0.8"/>
		</g>
	</g>
</g>
<g id="Layer_2" class="st4">
	<rect y="-607.2" class="st5" width="617.6" height="853.8"/>
</g>
<g id="Layer_3">
</g>
<g>
	<path class="st6" d="M244.6,59.9v2.8c-1.4-1.2-2.8-1.7-4.3-1.7c-1.6,0-3,0.6-4.1,1.8c-1.1,1.2-1.7,2.6-1.7,4.3
		c0,1.7,0.6,3.1,1.7,4.2s2.5,1.7,4.1,1.7c0.8,0,1.6-0.1,2.1-0.4c0.3-0.1,0.7-0.3,1-0.6c0.4-0.2,0.7-0.5,1.1-0.8v2.9
		c-1.4,0.8-2.8,1.2-4.3,1.2c-2.3,0-4.2-0.8-5.8-2.4c-1.6-1.6-2.4-3.5-2.4-5.8c0-2,0.7-3.8,2-5.4c1.6-1.9,3.8-2.9,6.4-2.9
		C241.9,58.8,243.3,59.2,244.6,59.9z"/>
	<path class="st6" d="M249.9,66.9c0-2.2,0.8-4.1,2.5-5.7c1.6-1.6,3.6-2.4,5.9-2.4c2.3,0,4.2,0.8,5.8,2.4c1.6,1.6,2.4,3.6,2.4,5.8
		c0,2.3-0.8,4.2-2.4,5.8c-1.6,1.6-3.6,2.4-5.9,2.4c-2,0-3.9-0.7-5.5-2.1C250.8,71.5,249.9,69.5,249.9,66.9z M252.3,67
		c0,1.8,0.6,3.2,1.8,4.3c1.2,1.1,2.5,1.7,4.1,1.7c1.7,0,3.1-0.6,4.2-1.7c1.1-1.2,1.7-2.6,1.7-4.2c0-1.7-0.6-3.1-1.7-4.2
		c-1.1-1.1-2.5-1.7-4.2-1.7c-1.6,0-3,0.6-4.2,1.7C252.9,63.9,252.3,65.3,252.3,67z"/>
	<path class="st6" d="M275,59.1v13.6h4.7v2.2h-7V59.1H275z"/>
	<path class="st6" d="M293.8,61.3h-6.3v3.8h6.2v2.2h-6.2v5.3h6.3v2.2h-8.7V59.1h8.7V61.3z"/>
	<path class="st6" d="M304.5,61.3v13.6h-2.4V61.3h-3.6v-2.2h9.7v2.2H304.5z"/>
	<path class="st6" d="M315.8,59.1v15.8h-2.4V59.1H315.8z"/>
	<path class="st6" d="M323.5,59.1l4.4,11l4.4-11h2.6l-7.1,17l-6.9-17H323.5z"/>
	<path class="st6" d="M342.4,59.1v15.8h-2.4V59.1H342.4z"/>
	<path class="st6" d="M352.1,72.7h7.6v2.2h-11.5l7.8-13.6h-6.5v-2.2h10.4L352.1,72.7z"/>
	<path class="st6" d="M375,71.1h-6.8l-1.8,3.8h-2.6l7.8-16.8l7.6,16.8h-2.6L375,71.1z M374,68.8l-2.3-5.4l-2.5,5.4H374z"/>
	<path class="st6" d="M389.7,68.2l4.9,6.7h-2.9l-4.5-6.5h-0.4v6.5h-2.4V59.1h2.8c2.1,0,3.6,0.4,4.5,1.2c1,0.9,1.5,2,1.5,3.5
		c0,1.1-0.3,2.1-1,2.9S390.8,68,389.7,68.2z M386.8,66.4h0.8c2.3,0,3.4-0.9,3.4-2.6c0-1.6-1.1-2.4-3.3-2.4h-0.9V66.4z"/>
</g>
<g>
	<path class="st6" d="M119.6-208.8h-6.3v3.8h6.2v2.2h-6.2v5.3h6.3v2.2h-8.7V-211h8.7V-208.8z"/>
	<path class="st6" d="M125.9-195.2V-211h3.3c1.6,0,2.9,0.2,3.8,0.5c1,0.3,1.9,0.8,2.7,1.6c1.6,1.5,2.5,3.4,2.5,5.9
		c0,2.4-0.9,4.4-2.6,5.9c-0.9,0.8-1.8,1.3-2.7,1.6c-0.9,0.3-2.1,0.4-3.7,0.4H125.9z M128.3-197.4h1.1c1.1,0,2-0.1,2.7-0.3
		c0.7-0.2,1.4-0.6,1.9-1.1c1.2-1.1,1.8-2.5,1.8-4.2c0-1.7-0.6-3.1-1.7-4.2c-1-1-2.6-1.4-4.6-1.4h-1.1V-197.4z"/>
	<path class="st6" d="M146.7-211v9.5c0,1.4,0.2,2.4,0.7,3c0.7,0.9,1.6,1.4,2.8,1.4c1.2,0,2.1-0.5,2.8-1.4c0.4-0.6,0.7-1.6,0.7-3
		v-9.5h2.4v10.2c0,1.7-0.5,3-1.6,4.1c-1.2,1.2-2.6,1.8-4.3,1.8s-3.1-0.6-4.3-1.8c-1-1.1-1.6-2.5-1.6-4.1V-211H146.7z"/>
	<path class="st6" d="M174.7-210.2v2.8c-1.4-1.2-2.8-1.7-4.3-1.7c-1.6,0-3,0.6-4.1,1.8c-1.1,1.2-1.7,2.6-1.7,4.3
		c0,1.7,0.6,3.1,1.7,4.2s2.5,1.7,4.1,1.7c0.8,0,1.6-0.1,2.1-0.4c0.3-0.1,0.7-0.3,1-0.6c0.4-0.2,0.7-0.5,1.1-0.8v2.9
		c-1.4,0.8-2.8,1.2-4.3,1.2c-2.3,0-4.2-0.8-5.8-2.4c-1.6-1.6-2.4-3.5-2.4-5.8c0-2,0.7-3.8,2-5.4c1.6-1.9,3.8-2.9,6.4-2.9
		C172-211.3,173.4-210.9,174.7-210.2z"/>
	<path class="st6" d="M190.5-199h-6.8l-1.8,3.8h-2.6l7.8-16.8l7.6,16.8h-2.6L190.5-199z M189.6-201.3l-2.3-5.4l-2.5,5.4H189.6z"/>
	<path class="st6" d="M205.3-201.9l4.9,6.7h-2.9l-4.5-6.5h-0.4v6.5h-2.4V-211h2.8c2.1,0,3.6,0.4,4.5,1.2c1,0.9,1.5,2,1.5,3.5
		c0,1.1-0.3,2.1-1,2.9S206.3-202.2,205.3-201.9z M202.3-203.7h0.8c2.3,0,3.4-0.9,3.4-2.6c0-1.6-1.1-2.4-3.3-2.4h-0.9V-203.7z"/>
</g>
<g>
	<path class="st6" d="M245.5,5.3v13.6h4.7v2.2h-7V5.3H245.5z"/>
	<path class="st6" d="M264.3,7.6h-6.3v3.8h6.2v2.2h-6.2v5.3h6.3v2.2h-8.7V5.3h8.7V7.6z"/>
	<path class="st6" d="M278.7,12.9h6.5v0.5c0,1.2-0.1,2.2-0.4,3.2c-0.3,0.8-0.7,1.6-1.4,2.4c-1.5,1.7-3.3,2.5-5.6,2.5
		c-2.2,0-4.1-0.8-5.7-2.4c-1.6-1.6-2.4-3.5-2.4-5.8c0-2.3,0.8-4.2,2.4-5.8c1.6-1.6,3.6-2.4,5.9-2.4c1.2,0,2.4,0.3,3.5,0.8
		c1,0.5,2,1.3,3,2.5l-1.7,1.6c-1.3-1.7-2.9-2.6-4.7-2.6c-1.7,0-3.1,0.6-4.2,1.7c-1.1,1.1-1.7,2.6-1.7,4.3c0,1.8,0.6,3.2,1.9,4.4
		c1.2,1.1,2.5,1.6,3.8,1.6c1.2,0,2.2-0.4,3.2-1.2c0.9-0.8,1.5-1.8,1.6-2.9h-3.9V12.9z"/>
	<path class="st6" d="M300,17.3h-6.8l-1.8,3.8h-2.6l7.8-16.8l7.6,16.8h-2.6L300,17.3z M299,15.1l-2.3-5.4l-2.5,5.4H299z"/>
	<path class="st6" d="M311.8,5.3v13.6h4.7v2.2h-7V5.3H311.8z"/>
	<path class="st6" d="M324.2,5.3v15.8h-2.4V5.3H324.2z"/>
	<path class="st6" d="M333.9,18.9h7.6v2.2H330l7.8-13.6h-6.5V5.3h10.4L333.9,18.9z"/>
	<path class="st6" d="M356.8,17.3H350l-1.8,3.8h-2.6l7.8-16.8l7.6,16.8h-2.6L356.8,17.3z M355.8,15.1l-2.3-5.4l-2.5,5.4H355.8z"/>
	<path class="st6" d="M371.5,14.4l4.9,6.7h-2.9l-4.5-6.5h-0.4v6.5h-2.4V5.3h2.8c2.1,0,3.6,0.4,4.5,1.2c1,0.9,1.5,2,1.5,3.5
		c0,1.1-0.3,2.1-1,2.9S372.6,14.2,371.5,14.4z M368.5,12.6h0.8c2.3,0,3.4-0.9,3.4-2.6c0-1.6-1.1-2.4-3.3-2.4h-0.9V12.6z"/>
</g>
<g>
	<path class="st7" d="M248.1,33.2l2.8,3.9h-1.7l-2.6-3.7h-0.2v3.7H245v-9h1.6c1.2,0,2.1,0.2,2.6,0.7c0.6,0.5,0.9,1.2,0.9,2
		c0,0.6-0.2,1.2-0.6,1.7S248.7,33.1,248.1,33.2z M246.4,32.2h0.4c1.3,0,1.9-0.5,1.9-1.5c0-0.9-0.6-1.4-1.9-1.4h-0.5V32.2z"/>
	<path class="st7" d="M257.2,34.5h-4.1c0,0.5,0.2,0.8,0.5,1.1c0.3,0.3,0.6,0.4,1,0.4c0.3,0,0.6-0.1,0.8-0.2c0.2-0.2,0.5-0.4,0.7-0.9
		l1.1,0.6c-0.2,0.3-0.4,0.5-0.5,0.8s-0.4,0.4-0.6,0.5s-0.5,0.2-0.7,0.3s-0.5,0.1-0.8,0.1c-0.9,0-1.5-0.3-2.1-0.8
		c-0.5-0.6-0.8-1.3-0.8-2.2c0-0.9,0.2-1.6,0.8-2.2c0.5-0.6,1.2-0.8,2-0.8c0.8,0,1.5,0.3,2,0.8c0.5,0.5,0.7,1.3,0.7,2.2L257.2,34.5z
		 M255.9,33.4c-0.2-0.7-0.6-1.1-1.3-1.1c-0.2,0-0.3,0-0.5,0.1s-0.3,0.1-0.4,0.2s-0.2,0.2-0.3,0.3s-0.1,0.3-0.2,0.4H255.9z"/>
	<path class="st7" d="M264.4,36.9c0,0.3,0,0.5,0,0.7s0,0.4-0.1,0.5c-0.1,0.4-0.3,0.8-0.6,1.1c-0.5,0.6-1.2,0.9-2.1,0.9
		c-0.8,0-1.4-0.2-1.9-0.6c-0.5-0.4-0.8-1-0.9-1.8h1.3c0.1,0.3,0.1,0.5,0.3,0.7c0.3,0.4,0.7,0.5,1.2,0.5c1,0,1.4-0.6,1.4-1.8v-0.8
		c-0.5,0.5-1.1,0.8-1.8,0.8c-0.8,0-1.4-0.3-1.9-0.8c-0.5-0.6-0.8-1.3-0.8-2.1c0-0.8,0.2-1.5,0.7-2.1c0.5-0.6,1.2-0.9,2-0.9
		c0.7,0,1.3,0.3,1.8,0.8v-0.6h1.3V36.9z M263.2,34.2c0-0.6-0.1-1-0.4-1.3c-0.3-0.3-0.7-0.5-1.2-0.5c-0.5,0-0.9,0.2-1.2,0.6
		c-0.3,0.3-0.4,0.8-0.4,1.3c0,0.5,0.1,0.9,0.4,1.3c0.3,0.4,0.7,0.5,1.2,0.5s0.9-0.2,1.2-0.6C263,35.2,263.2,34.7,263.2,34.2z"/>
	<path class="st7" d="M267.6,31.4v3.3c0,0.9,0.4,1.4,1.1,1.4s1.1-0.5,1.1-1.4v-3.3h1.3v3.3c0,0.5-0.1,0.9-0.2,1.2
		c-0.1,0.3-0.3,0.6-0.6,0.8c-0.4,0.4-1,0.6-1.7,0.6c-0.7,0-1.2-0.2-1.7-0.6c-0.3-0.2-0.5-0.5-0.6-0.8c-0.1-0.3-0.2-0.7-0.2-1.2v-3.3
		H267.6z"/>
	<path class="st7" d="M274.4,27.2v9.9h-1.3v-9.9H274.4z"/>
	<path class="st7" d="M280.5,31.4h1.3v5.7h-1.3v-0.6c-0.5,0.5-1.1,0.8-1.8,0.8c-0.8,0-1.4-0.3-2-0.9c-0.5-0.6-0.8-1.3-0.8-2.2
		c0-0.9,0.3-1.6,0.8-2.1s1.2-0.9,1.9-0.9c0.7,0,1.3,0.3,1.8,0.8V31.4z M277.4,34.2c0,0.5,0.1,1,0.4,1.3c0.3,0.3,0.7,0.5,1.1,0.5
		c0.5,0,0.9-0.2,1.2-0.5c0.3-0.3,0.5-0.8,0.5-1.3s-0.2-1-0.5-1.3c-0.3-0.3-0.7-0.5-1.2-0.5c-0.5,0-0.8,0.2-1.1,0.5
		C277.6,33.2,277.4,33.7,277.4,34.2z"/>
	<path class="st7" d="M283.8,31.4h1.3v0.5c0.2-0.3,0.5-0.4,0.6-0.5c0.2-0.1,0.4-0.1,0.7-0.1c0.3,0,0.7,0.1,1.1,0.3l-0.6,1.2
		c-0.2-0.2-0.5-0.3-0.7-0.3c-0.7,0-1.1,0.5-1.1,1.6v3h-1.3V31.4z"/>
	<path class="st7" d="M288.5,29c0-0.2,0.1-0.4,0.3-0.6s0.4-0.3,0.6-0.3c0.2,0,0.4,0.1,0.6,0.3c0.2,0.2,0.3,0.4,0.3,0.6
		s-0.1,0.4-0.3,0.6c-0.2,0.2-0.4,0.3-0.6,0.3s-0.4-0.1-0.6-0.3S288.5,29.2,288.5,29z M290,31.4v5.7h-1.3v-5.7H290z"/>
	<path class="st7" d="M293.8,35.8h3.4v1.2h-6l3.7-4.5H292v-1.2h5.5L293.8,35.8z"/>
	<path class="st7" d="M298.5,29c0-0.2,0.1-0.4,0.3-0.6s0.4-0.3,0.6-0.3c0.2,0,0.4,0.1,0.6,0.3c0.2,0.2,0.3,0.4,0.3,0.6
		s-0.1,0.4-0.3,0.6c-0.2,0.2-0.4,0.3-0.6,0.3s-0.4-0.1-0.6-0.3S298.5,29.2,298.5,29z M300,31.4v5.7h-1.3v-5.7H300z"/>
	<path class="st7" d="M301.9,31.4h1.3v0.5c0.5-0.5,1-0.7,1.6-0.7c0.7,0,1.2,0.2,1.6,0.6c0.3,0.4,0.5,0.9,0.5,1.7v3.5h-1.3v-3.2
		c0-0.6-0.1-1-0.2-1.2c-0.2-0.2-0.4-0.3-0.8-0.3c-0.4,0-0.7,0.1-0.9,0.4c-0.2,0.3-0.3,0.8-0.3,1.5v2.8h-1.3V31.4z"/>
	<path class="st7" d="M314.2,36.9c0,0.3,0,0.5,0,0.7s0,0.4-0.1,0.5c-0.1,0.4-0.3,0.8-0.6,1.1c-0.5,0.6-1.2,0.9-2.1,0.9
		c-0.8,0-1.4-0.2-1.9-0.6c-0.5-0.4-0.8-1-0.9-1.8h1.3c0.1,0.3,0.1,0.5,0.3,0.7c0.3,0.4,0.7,0.5,1.2,0.5c1,0,1.4-0.6,1.4-1.8v-0.8
		c-0.5,0.5-1.1,0.8-1.8,0.8c-0.8,0-1.4-0.3-1.9-0.8c-0.5-0.6-0.8-1.3-0.8-2.1c0-0.8,0.2-1.5,0.7-2.1c0.5-0.6,1.2-0.9,2-0.9
		c0.7,0,1.3,0.3,1.8,0.8v-0.6h1.3V36.9z M313,34.2c0-0.6-0.1-1-0.4-1.3c-0.3-0.3-0.7-0.5-1.2-0.5c-0.5,0-0.9,0.2-1.2,0.6
		c-0.3,0.3-0.4,0.8-0.4,1.3c0,0.5,0.1,0.9,0.4,1.3c0.3,0.4,0.7,0.5,1.2,0.5s0.9-0.2,1.2-0.6C312.8,35.2,313,34.7,313,34.2z"/>
	<path class="st1" d="M325.8,31.5l-5,8.7h-1.5l2.2-3.8l-2-4.8h1.4l1.4,3.5l2-3.5H325.8z"/>
	<path class="st1" d="M332.3,34.2c0,0.8-0.3,1.6-0.9,2.1c-0.6,0.6-1.3,0.9-2.2,0.9c-0.9,0-1.6-0.3-2.2-0.8c-0.6-0.5-0.9-1.2-0.9-2.1
		c0-0.9,0.3-1.6,0.9-2.1c0.6-0.6,1.3-0.9,2.2-0.9c0.9,0,1.6,0.3,2.1,0.8C332.1,32.7,332.3,33.4,332.3,34.2z M331,34.2
		c0-0.5-0.2-1-0.5-1.3c-0.3-0.3-0.7-0.5-1.2-0.5c-0.5,0-0.9,0.2-1.3,0.5c-0.3,0.4-0.5,0.8-0.5,1.4c0,0.5,0.2,1,0.5,1.3
		c0.3,0.3,0.7,0.5,1.2,0.5s0.9-0.2,1.3-0.6C330.9,35.2,331,34.8,331,34.2z"/>
	<path class="st1" d="M339.1,31.5l-0.4,3.2c0,0.3-0.1,0.5-0.1,0.7s-0.1,0.4-0.2,0.5c-0.1,0.3-0.3,0.5-0.6,0.7
		c-0.4,0.3-1,0.5-1.7,0.5c-0.7,0-1.2-0.2-1.6-0.5c-0.4-0.4-0.6-0.8-0.6-1.4c0-0.1,0-0.2,0-0.3s0-0.3,0-0.4l0.4-3h1.3l-0.4,3.1
		c0,0.1,0,0.2,0,0.3s0,0.2,0,0.2c0,0.6,0.3,0.9,1,0.9c0.4,0,0.6-0.1,0.8-0.3s0.3-0.5,0.4-1l0.4-3.3H339.1z"/>
	<path class="st1" d="M342.5,31.5l-0.1,0.5c0.4-0.4,0.9-0.6,1.3-0.6c0.4,0,0.7,0.1,1.1,0.4l-0.8,1.1c-0.2-0.2-0.5-0.3-0.7-0.3
		c-0.2,0-0.3,0-0.4,0.1s-0.2,0.2-0.3,0.3s-0.2,0.3-0.2,0.5s-0.1,0.5-0.1,0.8l-0.3,2.8h-1.3l0.7-5.5H342.5z"/>
	<path class="st7" d="M350.9,27.2v9.9h-1.3v-9.9H350.9z"/>
	<path class="st7" d="M357,31.4h1.3v5.7H357v-0.6c-0.5,0.5-1.1,0.8-1.8,0.8c-0.8,0-1.4-0.3-2-0.9c-0.5-0.6-0.8-1.3-0.8-2.2
		c0-0.9,0.3-1.6,0.8-2.1s1.2-0.9,1.9-0.9c0.7,0,1.3,0.3,1.8,0.8V31.4z M353.9,34.2c0,0.5,0.1,1,0.4,1.3c0.3,0.3,0.7,0.5,1.1,0.5
		c0.5,0,0.9-0.2,1.2-0.5c0.3-0.3,0.5-0.8,0.5-1.3s-0.2-1-0.5-1.3c-0.3-0.3-0.7-0.5-1.2-0.5c-0.5,0-0.8,0.2-1.1,0.5
		C354,33.2,353.9,33.7,353.9,34.2z"/>
	<path class="st7" d="M360.2,31.4h1.3v0.5c0.5-0.5,1-0.7,1.6-0.7c0.7,0,1.2,0.2,1.6,0.6c0.3,0.4,0.5,0.9,0.5,1.7v3.5h-1.3v-3.2
		c0-0.6-0.1-1-0.2-1.2c-0.2-0.2-0.4-0.3-0.8-0.3c-0.4,0-0.7,0.1-0.9,0.4c-0.2,0.3-0.3,0.8-0.3,1.5v2.8h-1.3V31.4z"/>
	<path class="st7" d="M371.3,27.2h1.3v9.9h-1.3v-0.6c-0.5,0.5-1.1,0.8-1.8,0.8c-0.8,0-1.4-0.3-1.9-0.9c-0.5-0.6-0.8-1.3-0.8-2.2
		c0-0.9,0.3-1.6,0.8-2.1c0.5-0.6,1.1-0.9,1.9-0.9c0.7,0,1.3,0.3,1.8,0.8V27.2z M368.1,34.2c0,0.5,0.1,1,0.4,1.3
		c0.3,0.3,0.7,0.5,1.1,0.5c0.5,0,0.9-0.2,1.2-0.5c0.3-0.3,0.5-0.8,0.5-1.3s-0.2-1-0.5-1.3c-0.3-0.3-0.7-0.5-1.2-0.5
		c-0.5,0-0.8,0.2-1.1,0.5C368.3,33.2,368.1,33.7,368.1,34.2z"/>
</g>
<g>
	<path class="st7" d="M31.1-189.9H28v2.2h3v1.3h-3v4.3h-1.4v-9h4.5V-189.9z"/>
	<path class="st7" d="M37.8-184.6h-4.1c0,0.5,0.2,0.8,0.5,1.1c0.3,0.3,0.6,0.4,1,0.4c0.3,0,0.6-0.1,0.8-0.2c0.2-0.2,0.5-0.4,0.7-0.9
		l1.1,0.6c-0.2,0.3-0.4,0.5-0.5,0.8s-0.4,0.4-0.6,0.5s-0.5,0.2-0.7,0.3s-0.5,0.1-0.8,0.1c-0.9,0-1.5-0.3-2.1-0.8
		c-0.5-0.6-0.8-1.3-0.8-2.2c0-0.9,0.2-1.6,0.8-2.2c0.5-0.6,1.2-0.8,2-0.8c0.8,0,1.5,0.3,2,0.8c0.5,0.5,0.7,1.3,0.7,2.2L37.8-184.6z
		 M36.5-185.7c-0.2-0.7-0.6-1.1-1.3-1.1c-0.2,0-0.3,0-0.5,0.1s-0.3,0.1-0.4,0.2s-0.2,0.2-0.3,0.3s-0.1,0.3-0.2,0.4H36.5z"/>
	<path class="st7" d="M43.7-192H45v9.9h-1.3v-0.6c-0.5,0.5-1.1,0.8-1.8,0.8c-0.8,0-1.4-0.3-1.9-0.9c-0.5-0.6-0.8-1.3-0.8-2.2
		c0-0.9,0.3-1.6,0.8-2.1c0.5-0.6,1.1-0.9,1.9-0.9c0.7,0,1.3,0.3,1.8,0.8V-192z M40.6-185c0,0.5,0.1,1,0.4,1.3
		c0.3,0.3,0.7,0.5,1.1,0.5c0.5,0,0.9-0.2,1.2-0.5c0.3-0.3,0.5-0.8,0.5-1.3s-0.2-1-0.5-1.3c-0.3-0.3-0.7-0.5-1.2-0.5
		c-0.5,0-0.8,0.2-1.1,0.5C40.7-185.9,40.6-185.5,40.6-185z"/>
	<path class="st7" d="M52.1-184.6H48c0,0.5,0.2,0.8,0.5,1.1c0.3,0.3,0.6,0.4,1,0.4c0.3,0,0.6-0.1,0.8-0.2c0.2-0.2,0.5-0.4,0.7-0.9
		l1.1,0.6c-0.2,0.3-0.4,0.5-0.5,0.8s-0.4,0.4-0.6,0.5s-0.5,0.2-0.7,0.3s-0.5,0.1-0.8,0.1c-0.9,0-1.5-0.3-2.1-0.8
		c-0.5-0.6-0.8-1.3-0.8-2.2c0-0.9,0.2-1.6,0.8-2.2c0.5-0.6,1.2-0.8,2-0.8c0.8,0,1.5,0.3,2,0.8c0.5,0.5,0.7,1.3,0.7,2.2L52.1-184.6z
		 M50.8-185.7c-0.2-0.7-0.6-1.1-1.3-1.1c-0.2,0-0.3,0-0.5,0.1s-0.3,0.1-0.4,0.2s-0.2,0.2-0.3,0.3s-0.1,0.3-0.2,0.4H50.8z"/>
	<path class="st7" d="M53.8-187.8h1.3v0.5c0.2-0.3,0.5-0.4,0.6-0.5c0.2-0.1,0.4-0.1,0.7-0.1c0.3,0,0.7,0.1,1.1,0.3l-0.6,1.2
		c-0.2-0.2-0.5-0.3-0.7-0.3c-0.7,0-1.1,0.5-1.1,1.6v3h-1.3V-187.8z"/>
	<path class="st7" d="M62.7-187.8H64v5.7h-1.3v-0.6c-0.5,0.5-1.1,0.8-1.8,0.8c-0.8,0-1.4-0.3-2-0.9c-0.5-0.6-0.8-1.3-0.8-2.2
		c0-0.9,0.3-1.6,0.8-2.1s1.2-0.9,1.9-0.9c0.7,0,1.3,0.3,1.8,0.8V-187.8z M59.5-185c0,0.5,0.1,1,0.4,1.3c0.3,0.3,0.7,0.5,1.1,0.5
		c0.5,0,0.9-0.2,1.2-0.5c0.3-0.3,0.5-0.8,0.5-1.3s-0.2-1-0.5-1.3c-0.3-0.3-0.7-0.5-1.2-0.5c-0.5,0-0.8,0.2-1.1,0.5
		C59.7-185.9,59.5-185.5,59.5-185z"/>
	<path class="st7" d="M67.2-192v9.9h-1.3v-9.9H67.2z"/>
	<path class="st7" d="M74.7-191.2v5.4c0,0.8,0.1,1.3,0.4,1.7c0.4,0.5,0.9,0.8,1.6,0.8c0.7,0,1.2-0.3,1.6-0.8
		c0.3-0.3,0.4-0.9,0.4-1.7v-5.4H80v5.8c0,1-0.3,1.7-0.9,2.4c-0.7,0.7-1.5,1-2.5,1s-1.8-0.3-2.5-1c-0.6-0.6-0.9-1.4-0.9-2.4v-5.8
		H74.7z"/>
	<path class="st7" d="M82.3-187.8h1.3v0.5c0.2-0.3,0.5-0.4,0.6-0.5c0.2-0.1,0.4-0.1,0.7-0.1c0.3,0,0.7,0.1,1.1,0.3l-0.6,1.2
		c-0.2-0.2-0.5-0.3-0.7-0.3c-0.7,0-1.1,0.5-1.1,1.6v3h-1.3V-187.8z"/>
	<path class="st7" d="M88.3-192v4.9c0.5-0.5,1.1-0.8,1.8-0.8c0.8,0,1.4,0.3,1.9,0.9c0.5,0.6,0.8,1.3,0.8,2.1c0,0.9-0.3,1.6-0.8,2.2
		c-0.5,0.6-1.2,0.9-1.9,0.9c-0.7,0-1.2-0.3-1.8-0.8v0.6H87v-9.9H88.3z M91.4-184.9c0-0.5-0.1-1-0.4-1.3c-0.3-0.4-0.7-0.5-1.1-0.5
		c-0.5,0-0.9,0.2-1.2,0.5c-0.3,0.3-0.5,0.8-0.5,1.3c0,0.6,0.1,1,0.4,1.3c0.3,0.3,0.7,0.5,1.2,0.5c0.5,0,0.8-0.2,1.1-0.5
		C91.3-184,91.4-184.4,91.4-184.9z"/>
	<path class="st7" d="M98.6-187.8h1.3v5.7h-1.3v-0.6c-0.5,0.5-1.1,0.8-1.8,0.8c-0.8,0-1.4-0.3-2-0.9c-0.5-0.6-0.8-1.3-0.8-2.2
		c0-0.9,0.3-1.6,0.8-2.1s1.2-0.9,1.9-0.9c0.7,0,1.3,0.3,1.8,0.8V-187.8z M95.5-185c0,0.5,0.1,1,0.4,1.3c0.3,0.3,0.7,0.5,1.1,0.5
		c0.5,0,0.9-0.2,1.2-0.5c0.3-0.3,0.5-0.8,0.5-1.3s-0.2-1-0.5-1.3c-0.3-0.3-0.7-0.5-1.2-0.5c-0.5,0-0.8,0.2-1.1,0.5
		C95.7-185.9,95.5-185.5,95.5-185z"/>
	<path class="st7" d="M101.9-187.8h1.3v0.5c0.5-0.5,1-0.7,1.6-0.7c0.7,0,1.2,0.2,1.6,0.6c0.3,0.4,0.5,0.9,0.5,1.7v3.5h-1.3v-3.2
		c0-0.6-0.1-1-0.2-1.2c-0.2-0.2-0.4-0.3-0.8-0.3c-0.4,0-0.7,0.1-0.9,0.4c-0.2,0.3-0.3,0.8-0.3,1.5v2.8h-1.3V-187.8z"/>
	<path class="st7" d="M114.2-185.8v3.7h-1.4v-9h1.5c0.8,0,1.3,0.1,1.7,0.2c0.4,0.1,0.7,0.3,1,0.6c0.5,0.5,0.8,1.1,0.8,1.9
		c0,0.8-0.3,1.5-0.8,2s-1.3,0.7-2.2,0.7H114.2z M114.2-187h0.5c1.3,0,1.9-0.5,1.9-1.4c0-0.9-0.6-1.4-1.9-1.4h-0.5V-187z"/>
	<path class="st7" d="M118.7-185c0-0.8,0.3-1.5,0.9-2.1s1.3-0.9,2.2-0.9c0.9,0,1.6,0.3,2.2,0.9c0.6,0.6,0.9,1.3,0.9,2.1
		c0,0.9-0.3,1.6-0.9,2.2c-0.6,0.6-1.3,0.9-2.2,0.9c-0.9,0-1.6-0.3-2.2-0.9C119-183.4,118.7-184.1,118.7-185z M120.1-185
		c0,0.6,0.2,1,0.5,1.4c0.3,0.3,0.7,0.5,1.2,0.5c0.5,0,0.9-0.2,1.2-0.5s0.5-0.8,0.5-1.3s-0.2-1-0.5-1.3c-0.3-0.3-0.7-0.5-1.2-0.5
		c-0.5,0-0.9,0.2-1.2,0.5S120.1-185.5,120.1-185z"/>
	<path class="st7" d="M127.8-192v9.9h-1.3v-9.9H127.8z"/>
	<path class="st7" d="M129.5-190.2c0-0.2,0.1-0.4,0.3-0.6s0.4-0.3,0.6-0.3c0.2,0,0.4,0.1,0.6,0.3c0.2,0.2,0.3,0.4,0.3,0.6
		s-0.1,0.4-0.3,0.6c-0.2,0.2-0.4,0.3-0.6,0.3s-0.4-0.1-0.6-0.3S129.5-189.9,129.5-190.2z M131-187.8v5.7h-1.3v-5.7H131z"/>
	<path class="st7" d="M137.4-187.6v1.8c-0.3-0.4-0.6-0.6-0.8-0.8c-0.2-0.1-0.5-0.2-0.8-0.2c-0.5,0-0.9,0.2-1.2,0.5s-0.5,0.8-0.5,1.3
		c0,0.5,0.2,1,0.5,1.3c0.3,0.3,0.7,0.5,1.2,0.5c0.3,0,0.6-0.1,0.8-0.2c0.2-0.1,0.5-0.4,0.8-0.8v1.7c-0.5,0.3-1.1,0.4-1.6,0.4
		c-0.9,0-1.6-0.3-2.2-0.9c-0.6-0.6-0.9-1.3-0.9-2.1s0.3-1.6,0.9-2.2s1.3-0.9,2.2-0.9C136.3-188,136.9-187.8,137.4-187.6z"/>
	<path class="st7" d="M140.7-183.2l-2.6-4.6h1.5l1.7,3.3l1.6-3.3h1.5l-4.5,8.8h-1.5L140.7-183.2z"/>
	<path class="st7" d="M153.8-187.8h1.3v5.7h-1.3v-0.6c-0.5,0.5-1.1,0.8-1.8,0.8c-0.8,0-1.4-0.3-2-0.9c-0.5-0.6-0.8-1.3-0.8-2.2
		c0-0.9,0.3-1.6,0.8-2.1s1.2-0.9,1.9-0.9c0.7,0,1.3,0.3,1.8,0.8V-187.8z M150.7-185c0,0.5,0.1,1,0.4,1.3c0.3,0.3,0.7,0.5,1.1,0.5
		c0.5,0,0.9-0.2,1.2-0.5c0.3-0.3,0.5-0.8,0.5-1.3s-0.2-1-0.5-1.3c-0.3-0.3-0.7-0.5-1.2-0.5c-0.5,0-0.8,0.2-1.1,0.5
		C150.8-185.9,150.7-185.5,150.7-185z"/>
	<path class="st7" d="M157-187.8h1.3v0.5c0.5-0.5,1-0.7,1.6-0.7c0.7,0,1.2,0.2,1.6,0.6c0.3,0.4,0.5,0.9,0.5,1.7v3.5h-1.3v-3.2
		c0-0.6-0.1-1-0.2-1.2c-0.2-0.2-0.4-0.3-0.8-0.3c-0.4,0-0.7,0.1-0.9,0.4c-0.2,0.3-0.3,0.8-0.3,1.5v2.8H157V-187.8z"/>
	<path class="st7" d="M168-192h1.3v9.9H168v-0.6c-0.5,0.5-1.1,0.8-1.8,0.8c-0.8,0-1.4-0.3-1.9-0.9c-0.5-0.6-0.8-1.3-0.8-2.2
		c0-0.9,0.3-1.6,0.8-2.1c0.5-0.6,1.1-0.9,1.9-0.9c0.7,0,1.3,0.3,1.8,0.8V-192z M164.9-185c0,0.5,0.1,1,0.4,1.3
		c0.3,0.3,0.7,0.5,1.1,0.5c0.5,0,0.9-0.2,1.2-0.5c0.3-0.3,0.5-0.8,0.5-1.3s-0.2-1-0.5-1.3c-0.3-0.3-0.7-0.5-1.2-0.5
		c-0.5,0-0.8,0.2-1.1,0.5C165.1-185.9,164.9-185.5,164.9-185z"/>
	<path class="st7" d="M175.2-192h1.3v4.7c0.5-0.4,1-0.6,1.6-0.6c0.6,0,1.2,0.2,1.5,0.6c0.3,0.4,0.5,0.9,0.5,1.7v3.5h-1.3v-3.4
		c0-0.5-0.1-0.8-0.2-1s-0.4-0.3-0.8-0.3c-0.5,0-0.8,0.1-1,0.4c-0.2,0.3-0.3,0.8-0.3,1.5v2.8h-1.3V-192z"/>
	<path class="st7" d="M181.8-185c0-0.8,0.3-1.5,0.9-2.1s1.3-0.9,2.2-0.9c0.9,0,1.6,0.3,2.2,0.9c0.6,0.6,0.9,1.3,0.9,2.1
		c0,0.9-0.3,1.6-0.9,2.2c-0.6,0.6-1.3,0.9-2.2,0.9c-0.9,0-1.6-0.3-2.2-0.9C182-183.4,181.8-184.1,181.8-185z M183.1-185
		c0,0.6,0.2,1,0.5,1.4c0.3,0.3,0.7,0.5,1.2,0.5c0.5,0,0.9-0.2,1.2-0.5s0.5-0.8,0.5-1.3s-0.2-1-0.5-1.3c-0.3-0.3-0.7-0.5-1.2-0.5
		c-0.5,0-0.9,0.2-1.2,0.5S183.1-185.5,183.1-185z"/>
	<path class="st7" d="M190-187.8l1.5,3.3l1.6-3.8l1.6,3.8l1.5-3.3h1.5l-3,6.1l-1.6-3.7l-1.6,3.7l-3-6.1H190z"/>
	<path class="st7" d="M202.5-190.2c0-0.2,0.1-0.4,0.3-0.6s0.4-0.3,0.6-0.3c0.2,0,0.4,0.1,0.6,0.3c0.2,0.2,0.3,0.4,0.3,0.6
		s-0.1,0.4-0.3,0.6c-0.2,0.2-0.4,0.3-0.6,0.3s-0.4-0.1-0.6-0.3S202.5-189.9,202.5-190.2z M204-187.8v5.7h-1.3v-5.7H204z"/>
	<path class="st7" d="M207.3-186.6v4.5H206v-4.5h-0.6v-1.2h0.6v-2.1h1.3v2.1h1v1.2H207.3z"/>
	<path class="st7" d="M213.4-187.8h1.3v0.5c0.2-0.3,0.5-0.4,0.6-0.5c0.2-0.1,0.4-0.1,0.7-0.1c0.3,0,0.7,0.1,1.1,0.3l-0.6,1.2
		c-0.2-0.2-0.5-0.3-0.7-0.3c-0.7,0-1.1,0.5-1.1,1.6v3h-1.3V-187.8z"/>
	<path class="st7" d="M223.3-184.6h-4.1c0,0.5,0.2,0.8,0.5,1.1c0.3,0.3,0.6,0.4,1,0.4c0.3,0,0.6-0.1,0.8-0.2
		c0.2-0.2,0.5-0.4,0.7-0.9l1.1,0.6c-0.2,0.3-0.4,0.5-0.5,0.8s-0.4,0.4-0.6,0.5s-0.5,0.2-0.7,0.3s-0.5,0.1-0.8,0.1
		c-0.9,0-1.5-0.3-2.1-0.8c-0.5-0.6-0.8-1.3-0.8-2.2c0-0.9,0.2-1.6,0.8-2.2c0.5-0.6,1.2-0.8,2-0.8c0.8,0,1.5,0.3,2,0.8
		c0.5,0.5,0.7,1.3,0.7,2.2L223.3-184.6z M221.9-185.7c-0.2-0.7-0.6-1.1-1.3-1.1c-0.2,0-0.3,0-0.5,0.1s-0.3,0.1-0.4,0.2
		s-0.2,0.2-0.3,0.3s-0.1,0.3-0.2,0.4H221.9z"/>
	<path class="st7" d="M226.3-192v9.9h-1.3v-9.9H226.3z"/>
	<path class="st7" d="M232.4-187.8h1.3v5.7h-1.3v-0.6c-0.5,0.5-1.1,0.8-1.8,0.8c-0.8,0-1.4-0.3-2-0.9c-0.5-0.6-0.8-1.3-0.8-2.2
		c0-0.9,0.3-1.6,0.8-2.1s1.2-0.9,1.9-0.9c0.7,0,1.3,0.3,1.8,0.8V-187.8z M229.2-185c0,0.5,0.1,1,0.4,1.3c0.3,0.3,0.7,0.5,1.1,0.5
		c0.5,0,0.9-0.2,1.2-0.5c0.3-0.3,0.5-0.8,0.5-1.3s-0.2-1-0.5-1.3c-0.3-0.3-0.7-0.5-1.2-0.5c-0.5,0-0.8,0.2-1.1,0.5
		C229.4-185.9,229.2-185.5,229.2-185z"/>
	<path class="st7" d="M237-186.6v4.5h-1.3v-4.5h-0.6v-1.2h0.6v-2.1h1.3v2.1h1v1.2H237z"/>
	<path class="st7" d="M244.4-184.6h-4.1c0,0.5,0.2,0.8,0.5,1.1c0.3,0.3,0.6,0.4,1,0.4c0.3,0,0.6-0.1,0.8-0.2
		c0.2-0.2,0.5-0.4,0.7-0.9l1.1,0.6c-0.2,0.3-0.4,0.5-0.5,0.8s-0.4,0.4-0.6,0.5s-0.5,0.2-0.7,0.3s-0.5,0.1-0.8,0.1
		c-0.9,0-1.5-0.3-2.1-0.8c-0.5-0.6-0.8-1.3-0.8-2.2c0-0.9,0.2-1.6,0.8-2.2c0.5-0.6,1.2-0.8,2-0.8c0.8,0,1.5,0.3,2,0.8
		c0.5,0.5,0.7,1.3,0.7,2.2L244.4-184.6z M243.1-185.7c-0.2-0.7-0.6-1.1-1.3-1.1c-0.2,0-0.3,0-0.5,0.1s-0.3,0.1-0.4,0.2
		s-0.2,0.2-0.3,0.3s-0.1,0.3-0.2,0.4H243.1z"/>
	<path class="st7" d="M249.4-186.8l-1.1,0.6c-0.2-0.4-0.4-0.5-0.6-0.5c-0.1,0-0.2,0-0.3,0.1s-0.1,0.2-0.1,0.3c0,0.2,0.3,0.4,0.8,0.7
		c0.7,0.3,1.2,0.6,1.4,0.8s0.4,0.6,0.4,1c0,0.6-0.2,1-0.6,1.4c-0.4,0.4-0.9,0.5-1.4,0.5c-1,0-1.6-0.5-2-1.4l1.1-0.5
		c0.2,0.3,0.3,0.4,0.4,0.5c0.2,0.1,0.4,0.2,0.6,0.2c0.4,0,0.7-0.2,0.7-0.6c0-0.2-0.2-0.5-0.5-0.7c-0.1-0.1-0.3-0.1-0.4-0.2
		s-0.3-0.1-0.4-0.2c-0.4-0.2-0.7-0.4-0.8-0.6c-0.2-0.2-0.3-0.5-0.3-0.9c0-0.5,0.2-0.9,0.5-1.2c0.3-0.3,0.8-0.5,1.3-0.5
		C248.5-188,249.1-187.6,249.4-186.8z"/>
	<path class="st7" d="M256.5-186.6v4.5h-1.3v-4.5h-0.6v-1.2h0.6v-2.1h1.3v2.1h1v1.2H256.5z"/>
	<path class="st7" d="M258.5-185c0-0.8,0.3-1.5,0.9-2.1s1.3-0.9,2.2-0.9c0.9,0,1.6,0.3,2.2,0.9c0.6,0.6,0.9,1.3,0.9,2.1
		c0,0.9-0.3,1.6-0.9,2.2c-0.6,0.6-1.3,0.9-2.2,0.9c-0.9,0-1.6-0.3-2.2-0.9C258.8-183.4,258.5-184.1,258.5-185z M259.8-185
		c0,0.6,0.2,1,0.5,1.4c0.3,0.3,0.7,0.5,1.2,0.5c0.5,0,0.9-0.2,1.2-0.5s0.5-0.8,0.5-1.3s-0.2-1-0.5-1.3c-0.3-0.3-0.7-0.5-1.2-0.5
		c-0.5,0-0.9,0.2-1.2,0.5S259.8-185.5,259.8-185z"/>
	<path class="st1" d="M275.8-187.6l-5,8.7h-1.5l2.2-3.8l-2-4.8h1.4l1.4,3.5l2-3.5H275.8z"/>
	<path class="st1" d="M282.4-184.9c0,0.8-0.3,1.6-0.9,2.1c-0.6,0.6-1.3,0.9-2.2,0.9c-0.9,0-1.6-0.3-2.2-0.8
		c-0.6-0.5-0.9-1.2-0.9-2.1c0-0.9,0.3-1.6,0.9-2.1c0.6-0.6,1.3-0.9,2.2-0.9c0.9,0,1.6,0.3,2.1,0.8
		C282.1-186.5,282.4-185.8,282.4-184.9z M281.1-185c0-0.5-0.2-1-0.5-1.3c-0.3-0.3-0.7-0.5-1.2-0.5c-0.5,0-0.9,0.2-1.3,0.5
		c-0.3,0.4-0.5,0.8-0.5,1.4c0,0.5,0.2,1,0.5,1.3c0.3,0.3,0.7,0.5,1.2,0.5s0.9-0.2,1.3-0.6C280.9-183.9,281.1-184.4,281.1-185z"/>
	<path class="st1" d="M289.2-187.6l-0.4,3.2c0,0.3-0.1,0.5-0.1,0.7s-0.1,0.4-0.2,0.5c-0.1,0.3-0.3,0.5-0.6,0.7
		c-0.4,0.3-1,0.5-1.7,0.5c-0.7,0-1.2-0.2-1.6-0.5c-0.4-0.4-0.6-0.8-0.6-1.4c0-0.1,0-0.2,0-0.3s0-0.3,0-0.4l0.4-3h1.3l-0.4,3.1
		c0,0.1,0,0.2,0,0.3s0,0.2,0,0.2c0,0.6,0.3,0.9,1,0.9c0.4,0,0.6-0.1,0.8-0.3s0.3-0.5,0.4-1l0.4-3.3H289.2z"/>
</g>
<g>
	<path class="st7" d="M221.1,82v1.6c-0.8-0.7-1.6-1-2.4-1c-0.9,0-1.7,0.3-2.3,1c-0.6,0.7-1,1.5-1,2.4c0,0.9,0.3,1.8,1,2.4
		s1.4,1,2.4,1c0.5,0,0.9-0.1,1.2-0.2c0.2-0.1,0.4-0.2,0.6-0.3s0.4-0.3,0.6-0.5v1.6c-0.8,0.4-1.6,0.7-2.5,0.7c-1.3,0-2.4-0.5-3.3-1.4
		c-0.9-0.9-1.4-2-1.4-3.3c0-1.2,0.4-2.2,1.1-3.1c0.9-1.1,2.2-1.7,3.6-1.7C219.6,81.3,220.4,81.6,221.1,82z"/>
	<path class="st7" d="M222.6,87.7c0-0.8,0.3-1.5,0.9-2.1s1.3-0.9,2.2-0.9c0.9,0,1.6,0.3,2.2,0.9c0.6,0.6,0.9,1.3,0.9,2.1
		c0,0.9-0.3,1.6-0.9,2.2c-0.6,0.6-1.3,0.9-2.2,0.9c-0.9,0-1.6-0.3-2.2-0.9C222.8,89.3,222.6,88.5,222.6,87.7z M223.9,87.7
		c0,0.6,0.2,1,0.5,1.4c0.3,0.3,0.7,0.5,1.2,0.5c0.5,0,0.9-0.2,1.2-0.5s0.5-0.8,0.5-1.3s-0.2-1-0.5-1.3c-0.3-0.3-0.7-0.5-1.2-0.5
		c-0.5,0-0.9,0.2-1.2,0.5S223.9,87.2,223.9,87.7z"/>
	<path class="st7" d="M231.6,80.7v9.9h-1.3v-9.9H231.6z"/>
	<path class="st7" d="M234.8,80.7v9.9h-1.3v-9.9H234.8z"/>
	<path class="st7" d="M241.9,88h-4.1c0,0.5,0.2,0.8,0.5,1.1c0.3,0.3,0.6,0.4,1,0.4c0.3,0,0.6-0.1,0.8-0.2c0.2-0.2,0.5-0.4,0.7-0.9
		l1.1,0.6c-0.2,0.3-0.4,0.5-0.5,0.8s-0.4,0.4-0.6,0.5s-0.5,0.2-0.7,0.3s-0.5,0.1-0.8,0.1c-0.9,0-1.5-0.3-2.1-0.8
		c-0.5-0.6-0.8-1.3-0.8-2.2c0-0.9,0.2-1.6,0.8-2.2c0.5-0.6,1.2-0.8,2-0.8c0.8,0,1.5,0.3,2,0.8c0.5,0.5,0.7,1.3,0.7,2.2L241.9,88z
		 M240.6,86.9c-0.2-0.7-0.6-1.1-1.3-1.1c-0.2,0-0.3,0-0.5,0.1s-0.3,0.1-0.4,0.2s-0.2,0.2-0.3,0.3s-0.1,0.3-0.2,0.4H240.6z"/>
	<path class="st7" d="M248,85.1v1.8c-0.3-0.4-0.6-0.6-0.8-0.8c-0.2-0.1-0.5-0.2-0.8-0.2c-0.5,0-0.9,0.2-1.2,0.5s-0.5,0.8-0.5,1.3
		c0,0.5,0.2,1,0.5,1.3c0.3,0.3,0.7,0.5,1.2,0.5c0.3,0,0.6-0.1,0.8-0.2c0.2-0.1,0.5-0.4,0.8-0.8v1.7c-0.5,0.3-1.1,0.4-1.6,0.4
		c-0.9,0-1.6-0.3-2.2-0.9c-0.6-0.6-0.9-1.3-0.9-2.1s0.3-1.6,0.9-2.2s1.3-0.9,2.2-0.9C247,84.7,247.5,84.8,248,85.1z"/>
	<path class="st7" d="M250.9,86.1v4.5h-1.3v-4.5H249v-1.2h0.6v-2.1h1.3v2.1h1v1.2H250.9z"/>
	<path class="st7" d="M252.9,82.5c0-0.2,0.1-0.4,0.3-0.6s0.4-0.3,0.6-0.3c0.2,0,0.4,0.1,0.6,0.3c0.2,0.2,0.3,0.4,0.3,0.6
		s-0.1,0.4-0.3,0.6c-0.2,0.2-0.4,0.3-0.6,0.3s-0.4-0.1-0.6-0.3S252.9,82.7,252.9,82.5z M254.4,84.8v5.7h-1.3v-5.7H254.4z"/>
	<path class="st7" d="M257,84.8l1.5,3.2l1.5-3.2h1.5l-3,6.1l-2.9-6.1H257z"/>
	<path class="st7" d="M267.6,88h-4.1c0,0.5,0.2,0.8,0.5,1.1c0.3,0.3,0.6,0.4,1,0.4c0.3,0,0.6-0.1,0.8-0.2c0.2-0.2,0.5-0.4,0.7-0.9
		l1.1,0.6c-0.2,0.3-0.4,0.5-0.5,0.8s-0.4,0.4-0.6,0.5s-0.5,0.2-0.7,0.3s-0.5,0.1-0.8,0.1c-0.9,0-1.5-0.3-2.1-0.8
		c-0.5-0.6-0.8-1.3-0.8-2.2c0-0.9,0.2-1.6,0.8-2.2c0.5-0.6,1.2-0.8,2-0.8c0.8,0,1.5,0.3,2,0.8c0.5,0.5,0.7,1.3,0.7,2.2L267.6,88z
		 M266.2,86.9c-0.2-0.7-0.6-1.1-1.3-1.1c-0.2,0-0.3,0-0.5,0.1s-0.3,0.1-0.4,0.2s-0.2,0.2-0.3,0.3s-0.1,0.3-0.2,0.4H266.2z"/>
	<path class="st7" d="M274.6,86.1v4.5h-1.3v-4.5h-0.6v-1.2h0.6v-2.1h1.3v2.1h1v1.2H274.6z"/>
	<path class="st7" d="M276.5,82.5c0-0.2,0.1-0.4,0.3-0.6s0.4-0.3,0.6-0.3c0.2,0,0.4,0.1,0.6,0.3c0.2,0.2,0.3,0.4,0.3,0.6
		s-0.1,0.4-0.3,0.6c-0.2,0.2-0.4,0.3-0.6,0.3s-0.4-0.1-0.6-0.3S276.5,82.7,276.5,82.5z M278,84.8v5.7h-1.3v-5.7H278z"/>
	<path class="st7" d="M281.3,86.1v4.5H280v-4.5h-0.6v-1.2h0.6v-2.1h1.3v2.1h1v1.2H281.3z"/>
	<path class="st7" d="M284.8,80.7v9.9h-1.3v-9.9H284.8z"/>
	<path class="st7" d="M286.5,82.5c0-0.2,0.1-0.4,0.3-0.6s0.4-0.3,0.6-0.3c0.2,0,0.4,0.1,0.6,0.3c0.2,0.2,0.3,0.4,0.3,0.6
		s-0.1,0.4-0.3,0.6c-0.2,0.2-0.4,0.3-0.6,0.3s-0.4-0.1-0.6-0.3S286.5,82.7,286.5,82.5z M288,84.8v5.7h-1.3v-5.7H288z"/>
	<path class="st7" d="M289.9,84.8h1.3v0.5c0.5-0.5,1-0.7,1.6-0.7c0.7,0,1.2,0.2,1.6,0.6c0.3,0.4,0.5,0.9,0.5,1.7v3.5h-1.3v-3.2
		c0-0.6-0.1-1-0.2-1.2c-0.2-0.2-0.4-0.3-0.8-0.3c-0.4,0-0.7,0.1-0.9,0.4c-0.2,0.3-0.3,0.8-0.3,1.5v2.8h-1.3V84.8z"/>
	<path class="st7" d="M302.3,90.4c0,0.3,0,0.5,0,0.7s0,0.4-0.1,0.5c-0.1,0.4-0.3,0.8-0.6,1.1c-0.5,0.6-1.2,0.9-2.1,0.9
		c-0.8,0-1.4-0.2-1.9-0.6c-0.5-0.4-0.8-1-0.9-1.8h1.3c0.1,0.3,0.1,0.5,0.3,0.7c0.3,0.4,0.7,0.5,1.2,0.5c1,0,1.4-0.6,1.4-1.8v-0.8
		c-0.5,0.5-1.1,0.8-1.8,0.8c-0.8,0-1.4-0.3-1.9-0.8c-0.5-0.6-0.8-1.3-0.8-2.1c0-0.8,0.2-1.5,0.7-2.1c0.5-0.6,1.2-0.9,2-0.9
		c0.7,0,1.3,0.3,1.8,0.8v-0.6h1.3V90.4z M301,87.7c0-0.6-0.1-1-0.4-1.3c-0.3-0.3-0.7-0.5-1.2-0.5c-0.5,0-0.9,0.2-1.2,0.6
		c-0.3,0.3-0.4,0.8-0.4,1.3c0,0.5,0.1,0.9,0.4,1.3c0.3,0.4,0.7,0.5,1.2,0.5s0.9-0.2,1.2-0.6C300.9,88.7,301,88.2,301,87.7z"/>
	<path class="st7" d="M307.9,82.5c0-0.2,0.1-0.4,0.3-0.6s0.4-0.3,0.6-0.3c0.2,0,0.4,0.1,0.6,0.3c0.2,0.2,0.3,0.4,0.3,0.6
		s-0.1,0.4-0.3,0.6c-0.2,0.2-0.4,0.3-0.6,0.3s-0.4-0.1-0.6-0.3S307.9,82.7,307.9,82.5z M309.4,84.8v5.7h-1.3v-5.7H309.4z"/>
	<path class="st7" d="M311.3,84.8h1.3v0.5c0.5-0.5,1-0.7,1.6-0.7c0.7,0,1.2,0.2,1.6,0.6c0.3,0.4,0.5,0.9,0.5,1.7v3.5h-1.3v-3.2
		c0-0.6-0.1-1-0.2-1.2c-0.2-0.2-0.4-0.3-0.8-0.3c-0.4,0-0.7,0.1-0.9,0.4c-0.2,0.3-0.3,0.8-0.3,1.5v2.8h-1.3V84.8z"/>
	<path class="st1" d="M327.8,85l-5,8.7h-1.5l2.2-3.8l-2-4.8h1.4l1.4,3.5l2-3.5H327.8z"/>
	<path class="st1" d="M334.3,87.7c0,0.8-0.3,1.6-0.9,2.1c-0.6,0.6-1.3,0.9-2.2,0.9c-0.9,0-1.6-0.3-2.2-0.8c-0.6-0.5-0.9-1.2-0.9-2.1
		c0-0.9,0.3-1.6,0.9-2.1c0.6-0.6,1.3-0.9,2.2-0.9c0.9,0,1.6,0.3,2.1,0.8C334.1,86.2,334.3,86.9,334.3,87.7z M333,87.7
		c0-0.5-0.2-1-0.5-1.3c-0.3-0.3-0.7-0.5-1.2-0.5c-0.5,0-0.9,0.2-1.3,0.5c-0.3,0.4-0.5,0.8-0.5,1.4c0,0.5,0.2,1,0.5,1.3
		c0.3,0.3,0.7,0.5,1.2,0.5s0.9-0.2,1.3-0.6C332.9,88.7,333,88.3,333,87.7z"/>
	<path class="st1" d="M341.1,85l-0.4,3.2c0,0.3-0.1,0.5-0.1,0.7s-0.1,0.4-0.2,0.5c-0.1,0.3-0.3,0.5-0.6,0.7c-0.4,0.3-1,0.5-1.7,0.5
		c-0.7,0-1.2-0.2-1.6-0.5c-0.4-0.4-0.6-0.8-0.6-1.4c0-0.1,0-0.2,0-0.3s0-0.3,0-0.4l0.4-3h1.3l-0.4,3.1c0,0.1,0,0.2,0,0.3
		s0,0.2,0,0.2c0,0.6,0.3,0.9,1,0.9c0.4,0,0.6-0.1,0.8-0.3s0.3-0.5,0.4-1l0.4-3.3H341.1z"/>
	<path class="st1" d="M344.5,85l-0.1,0.5c0.4-0.4,0.9-0.6,1.3-0.6c0.4,0,0.7,0.1,1.1,0.4l-0.8,1.1c-0.2-0.2-0.5-0.3-0.7-0.3
		c-0.2,0-0.3,0-0.4,0.1s-0.2,0.2-0.3,0.3s-0.2,0.3-0.2,0.5s-0.1,0.5-0.1,0.8l-0.3,2.8h-1.3l0.7-5.5H344.5z"/>
	<path class="st7" d="M356,85.1v1.8c-0.3-0.4-0.6-0.6-0.8-0.8c-0.2-0.1-0.5-0.2-0.8-0.2c-0.5,0-0.9,0.2-1.2,0.5s-0.5,0.8-0.5,1.3
		c0,0.5,0.2,1,0.5,1.3c0.3,0.3,0.7,0.5,1.2,0.5c0.3,0,0.6-0.1,0.8-0.2c0.2-0.1,0.5-0.4,0.8-0.8v1.7c-0.5,0.3-1.1,0.4-1.6,0.4
		c-0.9,0-1.6-0.3-2.2-0.9c-0.6-0.6-0.9-1.3-0.9-2.1s0.3-1.6,0.9-2.2s1.3-0.9,2.2-0.9C355,84.7,355.5,84.8,356,85.1z"/>
	<path class="st7" d="M357.3,87.7c0-0.8,0.3-1.5,0.9-2.1s1.3-0.9,2.2-0.9c0.9,0,1.6,0.3,2.2,0.9c0.6,0.6,0.9,1.3,0.9,2.1
		c0,0.9-0.3,1.6-0.9,2.2c-0.6,0.6-1.3,0.9-2.2,0.9c-0.9,0-1.6-0.3-2.2-0.9C357.6,89.3,357.3,88.5,357.3,87.7z M358.6,87.7
		c0,0.6,0.2,1,0.5,1.4c0.3,0.3,0.7,0.5,1.2,0.5c0.5,0,0.9-0.2,1.2-0.5s0.5-0.8,0.5-1.3s-0.2-1-0.5-1.3c-0.3-0.3-0.7-0.5-1.2-0.5
		c-0.5,0-0.9,0.2-1.2,0.5S358.6,87.2,358.6,87.7z"/>
	<path class="st7" d="M365,84.8h1.3v0.5c0.3-0.3,0.5-0.4,0.7-0.5c0.2-0.1,0.4-0.1,0.7-0.1c0.6,0,1.2,0.3,1.5,0.8
		c0.4-0.6,1-0.8,1.7-0.8c1.3,0,1.9,0.8,1.9,2.3v3.5h-1.3v-3.2c0-0.5-0.1-0.9-0.2-1.2c-0.1-0.2-0.4-0.3-0.7-0.3
		c-0.4,0-0.6,0.1-0.8,0.4s-0.2,0.7-0.2,1.3v2.9h-1.3v-3.2c0-1-0.3-1.5-0.9-1.5c-0.4,0-0.6,0.1-0.8,0.4s-0.3,0.7-0.3,1.3v2.9H365
		V84.8z"/>
	<path class="st7" d="M374.7,84.8h1.3v0.5c0.3-0.3,0.5-0.4,0.7-0.5c0.2-0.1,0.4-0.1,0.7-0.1c0.6,0,1.2,0.3,1.5,0.8
		c0.4-0.6,1-0.8,1.7-0.8c1.3,0,1.9,0.8,1.9,2.3v3.5h-1.3v-3.2c0-0.5-0.1-0.9-0.2-1.2c-0.1-0.2-0.4-0.3-0.7-0.3
		c-0.4,0-0.6,0.1-0.8,0.4s-0.2,0.7-0.2,1.3v2.9H378v-3.2c0-1-0.3-1.5-0.9-1.5c-0.4,0-0.6,0.1-0.8,0.4s-0.3,0.7-0.3,1.3v2.9h-1.3
		V84.8z"/>
	<path class="st7" d="M385.8,84.8v3.3c0,0.9,0.4,1.4,1.1,1.4s1.1-0.5,1.1-1.4v-3.3h1.3v3.3c0,0.5-0.1,0.9-0.2,1.2
		c-0.1,0.3-0.3,0.6-0.6,0.8c-0.4,0.4-1,0.6-1.7,0.6c-0.7,0-1.2-0.2-1.7-0.6c-0.3-0.2-0.5-0.5-0.6-0.8c-0.1-0.3-0.2-0.7-0.2-1.2v-3.3
		H385.8z"/>
	<path class="st7" d="M391.3,84.8h1.3v0.5c0.5-0.5,1-0.7,1.6-0.7c0.7,0,1.2,0.2,1.6,0.6c0.3,0.4,0.5,0.9,0.5,1.7v3.5h-1.3v-3.2
		c0-0.6-0.1-1-0.2-1.2c-0.2-0.2-0.4-0.3-0.8-0.3c-0.4,0-0.7,0.1-0.9,0.4c-0.2,0.3-0.3,0.8-0.3,1.5v2.8h-1.3V84.8z"/>
	<path class="st7" d="M397.9,82.5c0-0.2,0.1-0.4,0.3-0.6s0.4-0.3,0.6-0.3c0.2,0,0.4,0.1,0.6,0.3c0.2,0.2,0.3,0.4,0.3,0.6
		s-0.1,0.4-0.3,0.6c-0.2,0.2-0.4,0.3-0.6,0.3s-0.4-0.1-0.6-0.3S397.9,82.7,397.9,82.5z M399.4,84.8v5.7h-1.3v-5.7H399.4z"/>
	<path class="st7" d="M402.7,86.1v4.5h-1.3v-4.5h-0.6v-1.2h0.6v-2.1h1.3v2.1h1v1.2H402.7z"/>
	<path class="st7" d="M406.6,89.5l-2.6-4.6h1.5l1.7,3.3l1.6-3.3h1.5l-4.5,8.8h-1.5L406.6,89.5z"/>
</g>
</svg>
