<?xml version="1.0" encoding="utf-8"?>
<!-- Generator: Adobe Illustrator 19.2.0, SVG Export Plug-In . SVG Version: 6.00 Build 0)  -->
<svg version="1.1" id="Layer_1" xmlns="http://www.w3.org/2000/svg" xmlns:xlink="http://www.w3.org/1999/xlink" x="0px" y="0px"
	 viewBox="0 0 253.7 23" style="enable-background:new 0 0 253.7 23;" xml:space="preserve">
<style type="text/css">
	.st0{clip-path:url(#SVGID_2_);}
	.st1{fill:#A9B35A;}
	.st2{clip-path:url(#SVGID_4_);}
	.st3{clip-path:url(#SVGID_6_);}
	.st4{fill:#CDDC37;}
	.st5{clip-path:url(#SVGID_8_);}
	.st6{clip-path:url(#SVGID_10_);}
	.st7{fill:#CDDC37;stroke:#E1E1E1;stroke-width:0.5;stroke-miterlimit:10;}
	.st8{fill:#58595B;stroke:#E1E1E1;stroke-width:0.25;stroke-miterlimit:10;}
	.st9{clip-path:url(#SVGID_12_);}
	.st10{fill:none;}
</style>
<g>
	<defs>
		<path id="SVGID_1_" d="M94.7,114v19.9h-3V114H94.7z M103.4,133.9v-21.2l14.5,15.2V114h3v21.1L106.4,120v13.9H103.4z M135.1,116.8
			v17.1h-3v-17.1h-4.6V114h12.1v2.8H135.1z M157.2,116.8h-8v4.8h7.7v2.8h-7.7v6.6h8v2.8h-11V114h11V116.8z M175.4,123.5h8.2v0.7
			c0,1.5-0.2,2.8-0.5,4c-0.3,1.1-0.9,2.1-1.7,3c-1.8,2.1-4.2,3.1-7,3.1c-2.8,0-5.2-1-7.1-3c-2-2-3-4.4-3-7.3c0-2.9,1-5.3,3-7.3
			c2-2,4.5-3,7.4-3c1.6,0,3,0.3,4.3,1c1.3,0.6,2.6,1.7,3.8,3.1l-2.1,2c-1.6-2.2-3.6-3.3-6-3.3c-2.1,0-3.9,0.7-5.3,2.2
			c-1.4,1.4-2.1,3.2-2.1,5.4c0,2.2,0.8,4,2.4,5.5c1.5,1.3,3.1,2,4.8,2c1.5,0,2.8-0.5,4-1.5c1.2-1,1.8-2.2,2-3.6h-5V123.5z
			 M198,125.4l6.2,8.5h-3.7l-5.7-8.1h-0.5v8.1h-3V114h3.5c2.6,0,4.5,0.5,5.7,1.5c1.3,1.1,1.9,2.5,1.9,4.3c0,1.4-0.4,2.6-1.2,3.6
			C200.4,124.5,199.3,125.1,198,125.4z M194.3,123.1h1c2.8,0,4.3-1.1,4.3-3.3c0-2-1.4-3-4.1-3h-1.1V123.1z M222.8,129h-8.5l-2.2,4.8
			h-3.2l9.8-21.1l9.5,21.1h-3.3L222.8,129z M221.6,126.2l-2.9-6.8l-3.1,6.8H221.6z M241.3,125.4l6.2,8.5h-3.7l-5.7-8.1h-0.5v8.1h-3
			V114h3.5c2.6,0,4.5,0.5,5.7,1.5c1.3,1.1,1.9,2.5,1.9,4.3c0,1.4-0.4,2.6-1.2,3.6C243.7,124.5,242.6,125.1,241.3,125.4z
			 M237.6,123.1h1c2.8,0,4.3-1.1,4.3-3.3c0-2-1.4-3-4.1-3h-1.1V123.1z M254.6,132.4c0-0.5,0.2-0.9,0.5-1.2c0.4-0.4,0.8-0.5,1.3-0.5
			c0.5,0,0.9,0.2,1.3,0.5c0.4,0.4,0.5,0.8,0.5,1.3c0,0.5-0.2,0.9-0.5,1.3c-0.3,0.3-0.8,0.5-1.3,0.5c-0.5,0-0.9-0.2-1.3-0.5
			S254.6,132.9,254.6,132.4z M255,129.4V114h2.9v15.4H255z"/>
	</defs>
	<clipPath id="SVGID_2_">
		<use xlink:href="#SVGID_1_"  style="overflow:visible;"/>
	</clipPath>
	<g class="st0">
		<g>
			
				<rect x="6.2" y="111.8" transform="matrix(0.7071 -0.7071 0.7071 0.7071 -62.3801 73.6699)" class="st1" width="103.1" height="0.6"/>
		</g>
		<g>
			
				<rect x="8.2" y="111.8" transform="matrix(0.7071 -0.7071 0.7071 0.7071 -61.7749 75.1311)" class="st1" width="103.1" height="0.6"/>
		</g>
		<g>
			
				<rect x="10.3" y="111.8" transform="matrix(0.7071 -0.7071 0.7071 0.7071 -61.1692 76.5933)" class="st1" width="103.1" height="0.6"/>
		</g>
		<g>
			
				<rect x="12.4" y="111.8" transform="matrix(0.7071 -0.7071 0.7071 0.7071 -60.5639 78.0546)" class="st1" width="103.1" height="0.6"/>
		</g>
		<g>
			
				<rect x="14.4" y="111.8" transform="matrix(0.7071 -0.7071 0.7071 0.7071 -59.9586 79.5159)" class="st1" width="103.1" height="0.6"/>
		</g>
		<g>
			
				<rect x="16.5" y="111.8" transform="matrix(0.7071 -0.7071 0.7071 0.7071 -59.353 80.978)" class="st1" width="103.1" height="0.6"/>
		</g>
		<g>
			
				<rect x="18.6" y="111.8" transform="matrix(0.7071 -0.7071 0.7071 0.7071 -58.7477 82.4393)" class="st1" width="103.1" height="0.6"/>
		</g>
		<g>
			
				<rect x="20.6" y="111.8" transform="matrix(0.7071 -0.7071 0.7071 0.7071 -58.1421 83.9015)" class="st1" width="103.1" height="0.6"/>
		</g>
		<g>
			
				<rect x="22.7" y="111.8" transform="matrix(0.7071 -0.7071 0.7071 0.7071 -57.5368 85.3627)" class="st1" width="103.1" height="0.6"/>
		</g>
		<g>
			
				<rect x="24.8" y="111.8" transform="matrix(0.7071 -0.7071 0.7071 0.7071 -56.9315 86.824)" class="st1" width="103.1" height="0.6"/>
		</g>
		<g>
			
				<rect x="26.8" y="111.8" transform="matrix(0.7071 -0.7071 0.7071 0.7071 -56.3259 88.2862)" class="st1" width="103.1" height="0.6"/>
		</g>
		<g>
			
				<rect x="28.9" y="111.8" transform="matrix(0.7071 -0.7071 0.7071 0.7071 -55.7206 89.7475)" class="st1" width="103.1" height="0.6"/>
		</g>
		<g>
			
				<rect x="31" y="111.8" transform="matrix(0.7071 -0.7071 0.7071 0.7071 -55.1153 91.2088)" class="st1" width="103.1" height="0.6"/>
		</g>
		<g>
			
				<rect x="33" y="111.8" transform="matrix(0.7071 -0.7071 0.7071 0.7071 -54.5096 92.6709)" class="st1" width="103.1" height="0.6"/>
		</g>
		<g>
			
				<rect x="35.1" y="111.8" transform="matrix(0.7071 -0.7071 0.7071 0.7071 -53.9044 94.1322)" class="st1" width="103.1" height="0.6"/>
		</g>
		<g>
			
				<rect x="37.2" y="111.8" transform="matrix(0.7071 -0.7071 0.7071 0.7071 -53.2987 95.5944)" class="st1" width="103.1" height="0.6"/>
		</g>
		<g>
			
				<rect x="39.2" y="111.8" transform="matrix(0.7071 -0.7071 0.7071 0.7071 -52.6934 97.0556)" class="st1" width="103.1" height="0.6"/>
		</g>
		<g>
			
				<rect x="41.3" y="111.8" transform="matrix(0.7071 -0.7071 0.7071 0.7071 -52.0882 98.5169)" class="st1" width="103.1" height="0.6"/>
		</g>
		<g>
			
				<rect x="43.4" y="111.8" transform="matrix(0.7071 -0.7071 0.7071 0.7071 -51.4825 99.9791)" class="st1" width="103.1" height="0.6"/>
		</g>
		<g>
			
				<rect x="45.4" y="111.8" transform="matrix(0.7071 -0.7071 0.7071 0.7071 -50.8772 101.4404)" class="st1" width="103.1" height="0.6"/>
		</g>
		<g>
			
				<rect x="47.5" y="111.8" transform="matrix(0.7071 -0.7071 0.7071 0.7071 -50.2719 102.9017)" class="st1" width="103.1" height="0.6"/>
		</g>
		<g>
			
				<rect x="49.6" y="111.8" transform="matrix(0.7071 -0.7071 0.7071 0.7071 -49.6663 104.3638)" class="st1" width="103.1" height="0.6"/>
		</g>
		<g>
			
				<rect x="51.6" y="111.8" transform="matrix(0.7071 -0.7071 0.7071 0.7071 -49.061 105.8251)" class="st1" width="103.1" height="0.6"/>
		</g>
		<g>
			
				<rect x="53.7" y="111.8" transform="matrix(0.7071 -0.7071 0.7071 0.7071 -48.4554 107.2873)" class="st1" width="103.1" height="0.6"/>
		</g>
		<g>
			
				<rect x="55.8" y="111.8" transform="matrix(0.7071 -0.7071 0.7071 0.7071 -47.8501 108.7485)" class="st1" width="103.1" height="0.6"/>
		</g>
		<g>
			
				<rect x="57.8" y="111.8" transform="matrix(0.7071 -0.7071 0.7071 0.7071 -47.2448 110.2098)" class="st1" width="103.1" height="0.6"/>
		</g>
		<g>
			
				<rect x="59.9" y="111.8" transform="matrix(0.7071 -0.7071 0.7071 0.7071 -46.6392 111.672)" class="st1" width="103.1" height="0.6"/>
		</g>
		<g>
			
				<rect x="62" y="111.8" transform="matrix(0.7071 -0.7071 0.7071 0.7071 -46.0339 113.1333)" class="st1" width="103.1" height="0.6"/>
		</g>
		<g>
			
				<rect x="64.1" y="111.8" transform="matrix(0.7071 -0.7071 0.7071 0.7071 -45.4286 114.5946)" class="st1" width="103.1" height="0.6"/>
		</g>
		<g>
			
				<rect x="66.1" y="111.8" transform="matrix(0.7071 -0.7071 0.7071 0.7071 -44.8229 116.0567)" class="st1" width="103.1" height="0.6"/>
		</g>
		<g>
			
				<rect x="68.2" y="111.8" transform="matrix(0.7071 -0.7071 0.7071 0.7071 -44.2177 117.518)" class="st1" width="103.1" height="0.6"/>
		</g>
		<g>
			
				<rect x="70.3" y="111.8" transform="matrix(0.7071 -0.7071 0.7071 0.7071 -43.612 118.9801)" class="st1" width="103.1" height="0.6"/>
		</g>
		<g>
			
				<rect x="72.3" y="111.8" transform="matrix(0.7071 -0.7071 0.7071 0.7071 -43.0067 120.4414)" class="st1" width="103.1" height="0.6"/>
		</g>
		<g>
			
				<rect x="74.4" y="111.8" transform="matrix(0.7071 -0.7071 0.7071 0.7071 -42.4014 121.9027)" class="st1" width="103.1" height="0.6"/>
		</g>
		<g>
			
				<rect x="76.5" y="111.8" transform="matrix(0.7071 -0.7071 0.7071 0.7071 -41.7958 123.3649)" class="st1" width="103.1" height="0.6"/>
		</g>
		<g>
			
				<rect x="78.5" y="111.8" transform="matrix(0.7071 -0.7071 0.7071 0.7071 -41.1905 124.8262)" class="st1" width="103.1" height="0.6"/>
		</g>
		<g>
			
				<rect x="80.6" y="111.8" transform="matrix(0.7071 -0.7071 0.7071 0.7071 -40.5852 126.2874)" class="st1" width="103.1" height="0.6"/>
		</g>
		<g>
			
				<rect x="82.7" y="111.8" transform="matrix(0.7071 -0.7071 0.7071 0.7071 -39.9796 127.7496)" class="st1" width="103.1" height="0.6"/>
		</g>
		<g>
			
				<rect x="84.7" y="111.8" transform="matrix(0.7071 -0.7071 0.7071 0.7071 -39.3743 129.2109)" class="st1" width="103.1" height="0.6"/>
		</g>
		<g>
			
				<rect x="86.8" y="111.8" transform="matrix(0.7071 -0.7071 0.7071 0.7071 -38.7687 130.673)" class="st1" width="103.1" height="0.6"/>
		</g>
		<g>
			
				<rect x="88.9" y="111.8" transform="matrix(0.7071 -0.7071 0.7071 0.7071 -38.1634 132.1343)" class="st1" width="103.1" height="0.6"/>
		</g>
		<g>
			
				<rect x="90.9" y="111.8" transform="matrix(0.7071 -0.7071 0.7071 0.7071 -37.5581 133.5956)" class="st1" width="103.1" height="0.6"/>
		</g>
		<g>
			
				<rect x="93" y="111.8" transform="matrix(0.7071 -0.7071 0.7071 0.7071 -36.9524 135.0578)" class="st1" width="103.1" height="0.6"/>
		</g>
		<g>
			
				<rect x="95.1" y="111.8" transform="matrix(0.7071 -0.7071 0.7071 0.7071 -36.3472 136.5191)" class="st1" width="103.1" height="0.6"/>
		</g>
		<g>
			
				<rect x="97.1" y="111.8" transform="matrix(0.7071 -0.7071 0.7071 0.7071 -35.7419 137.9803)" class="st1" width="103.1" height="0.6"/>
		</g>
		<g>
			
				<rect x="99.2" y="111.8" transform="matrix(0.7071 -0.7071 0.7071 0.7071 -35.1362 139.4425)" class="st1" width="103.1" height="0.6"/>
		</g>
		<g>
			
				<rect x="101.3" y="111.8" transform="matrix(0.7071 -0.7071 0.7071 0.7071 -34.5309 140.9038)" class="st1" width="103.1" height="0.6"/>
		</g>
		<g>
			
				<rect x="103.3" y="111.8" transform="matrix(0.7071 -0.7071 0.7071 0.7071 -33.9257 142.3651)" class="st1" width="103.1" height="0.6"/>
		</g>
		<g>
			
				<rect x="105.4" y="111.8" transform="matrix(0.7071 -0.7071 0.7071 0.7071 -33.32 143.8272)" class="st1" width="103.1" height="0.6"/>
		</g>
		<g>
			
				<rect x="107.5" y="111.8" transform="matrix(0.7071 -0.7071 0.7071 0.7071 -32.7147 145.2885)" class="st1" width="103.1" height="0.6"/>
		</g>
		<g>
			
				<rect x="109.5" y="111.8" transform="matrix(0.7071 -0.7071 0.7071 0.7071 -32.1091 146.7507)" class="st1" width="103.1" height="0.6"/>
		</g>
		<g>
			
				<rect x="111.6" y="111.8" transform="matrix(0.7071 -0.7071 0.7071 0.7071 -31.5038 148.2119)" class="st1" width="103.1" height="0.6"/>
		</g>
		<g>
			
				<rect x="113.7" y="111.8" transform="matrix(0.7071 -0.7071 0.7071 0.7071 -30.8985 149.6732)" class="st1" width="103.1" height="0.6"/>
		</g>
		<g>
			
				<rect x="115.7" y="111.8" transform="matrix(0.7071 -0.7071 0.7071 0.7071 -30.2929 151.1354)" class="st1" width="103.1" height="0.6"/>
		</g>
		<g>
			
				<rect x="117.8" y="111.8" transform="matrix(0.7071 -0.7071 0.7071 0.7071 -29.6876 152.5967)" class="st1" width="103.1" height="0.6"/>
		</g>
		<g>
			
				<rect x="119.9" y="111.8" transform="matrix(0.7071 -0.7071 0.7071 0.7071 -29.0823 154.058)" class="st1" width="103.1" height="0.6"/>
		</g>
		<g>
			
				<rect x="121.9" y="111.8" transform="matrix(0.7071 -0.7071 0.7071 0.7071 -28.4767 155.5201)" class="st1" width="103.1" height="0.6"/>
		</g>
		<g>
			
				<rect x="124" y="111.8" transform="matrix(0.7071 -0.7071 0.7071 0.7071 -27.8714 156.9814)" class="st1" width="103.1" height="0.6"/>
		</g>
		<g>
			
				<rect x="126.1" y="111.8" transform="matrix(0.7071 -0.7071 0.7071 0.7071 -27.2657 158.4436)" class="st1" width="103.1" height="0.6"/>
		</g>
		<g>
			
				<rect x="128.1" y="111.8" transform="matrix(0.7071 -0.7071 0.7071 0.7071 -26.6604 159.9048)" class="st1" width="103.1" height="0.6"/>
		</g>
		<g>
			
				<rect x="130.2" y="111.8" transform="matrix(0.7071 -0.7071 0.7071 0.7071 -26.0552 161.3661)" class="st1" width="103.1" height="0.6"/>
		</g>
		<g>
			
				<rect x="132.3" y="111.8" transform="matrix(0.7071 -0.7071 0.7071 0.7071 -25.4495 162.8283)" class="st1" width="103.1" height="0.6"/>
		</g>
		<g>
			
				<rect x="134.3" y="111.8" transform="matrix(0.7071 -0.7071 0.7071 0.7071 -24.8442 164.2896)" class="st1" width="103.1" height="0.6"/>
		</g>
		<g>
			
				<rect x="136.4" y="111.8" transform="matrix(0.7071 -0.7071 0.7071 0.7071 -24.2389 165.7509)" class="st1" width="103.1" height="0.6"/>
		</g>
		<g>
			
				<rect x="138.5" y="111.8" transform="matrix(0.7071 -0.7071 0.7071 0.7071 -23.6333 167.213)" class="st1" width="103.1" height="0.6"/>
		</g>
		<g>
			
				<rect x="140.5" y="111.8" transform="matrix(0.7071 -0.7071 0.7071 0.7071 -23.028 168.6743)" class="st1" width="103.1" height="0.6"/>
		</g>
		<g>
			
				<rect x="142.6" y="111.8" transform="matrix(0.7071 -0.7071 0.7071 0.7071 -22.4224 170.1364)" class="st1" width="103.1" height="0.6"/>
		</g>
		<g>
			
				<rect x="144.7" y="111.8" transform="matrix(0.7071 -0.7071 0.7071 0.7071 -21.8171 171.5977)" class="st1" width="103.1" height="0.6"/>
		</g>
		<g>
			
				<rect x="146.7" y="111.8" transform="matrix(0.7071 -0.7071 0.7071 0.7071 -21.2118 173.059)" class="st1" width="103.1" height="0.6"/>
		</g>
		<g>
			
				<rect x="148.8" y="111.8" transform="matrix(0.7071 -0.7071 0.7071 0.7071 -20.6062 174.5212)" class="st1" width="103.1" height="0.6"/>
		</g>
		<g>
			
				<rect x="150.9" y="111.8" transform="matrix(0.7071 -0.7071 0.7071 0.7071 -20.0009 175.9825)" class="st1" width="103.1" height="0.6"/>
		</g>
		<g>
			
				<rect x="152.9" y="111.8" transform="matrix(0.7071 -0.7071 0.7071 0.7071 -19.3956 177.4437)" class="st1" width="103.1" height="0.6"/>
		</g>
		<g>
			
				<rect x="155" y="111.8" transform="matrix(0.7071 -0.7071 0.7071 0.7071 -18.7899 178.9059)" class="st1" width="103.1" height="0.6"/>
		</g>
		<g>
			
				<rect x="157.1" y="111.8" transform="matrix(0.7071 -0.7071 0.7071 0.7071 -18.1847 180.3672)" class="st1" width="103.1" height="0.6"/>
		</g>
		<g>
			
				<rect x="159.1" y="111.8" transform="matrix(0.7071 -0.7071 0.7071 0.7071 -17.579 181.8293)" class="st1" width="103.1" height="0.6"/>
		</g>
		<g>
			
				<rect x="161.2" y="111.8" transform="matrix(0.7071 -0.7071 0.7071 0.7071 -16.9737 183.2906)" class="st1" width="103.1" height="0.6"/>
		</g>
		<g>
			
				<rect x="163.3" y="111.8" transform="matrix(0.7071 -0.7071 0.7071 0.7071 -16.3685 184.7519)" class="st1" width="103.1" height="0.6"/>
		</g>
		<g>
			
				<rect x="165.3" y="111.8" transform="matrix(0.7071 -0.7071 0.7071 0.7071 -15.7628 186.2141)" class="st1" width="103.1" height="0.6"/>
		</g>
		<g>
			
				<rect x="167.4" y="111.8" transform="matrix(0.7071 -0.7071 0.7071 0.7071 -15.1575 187.6754)" class="st1" width="103.1" height="0.6"/>
		</g>
		<g>
			
				<rect x="169.5" y="111.8" transform="matrix(0.7071 -0.7071 0.7071 0.7071 -14.5522 189.1366)" class="st1" width="103.1" height="0.6"/>
		</g>
		<g>
			
				<rect x="171.5" y="111.8" transform="matrix(0.7071 -0.7071 0.7071 0.7071 -13.9466 190.5988)" class="st1" width="103.1" height="0.6"/>
		</g>
		<g>
			
				<rect x="173.6" y="111.8" transform="matrix(0.7071 -0.7071 0.7071 0.7071 -13.3413 192.0601)" class="st1" width="103.1" height="0.6"/>
		</g>
		<g>
			
				<rect x="175.7" y="111.8" transform="matrix(0.7071 -0.7071 0.7071 0.7071 -12.736 193.5214)" class="st1" width="103.1" height="0.6"/>
		</g>
		<g>
			
				<rect x="177.7" y="111.8" transform="matrix(0.7071 -0.7071 0.7071 0.7071 -12.1304 194.9835)" class="st1" width="103.1" height="0.6"/>
		</g>
		<g>
			
				<rect x="179.8" y="111.8" transform="matrix(0.7071 -0.7071 0.7071 0.7071 -11.5251 196.4448)" class="st1" width="103.1" height="0.6"/>
		</g>
		<g>
			
				<rect x="181.9" y="111.8" transform="matrix(0.7071 -0.7071 0.7071 0.7071 -10.9195 197.907)" class="st1" width="103.1" height="0.6"/>
		</g>
		<g>
			
				<rect x="183.9" y="111.8" transform="matrix(0.7071 -0.7071 0.7071 0.7071 -10.3142 199.3682)" class="st1" width="103.1" height="0.6"/>
		</g>
		<g>
			
				<rect x="186" y="111.8" transform="matrix(0.7071 -0.7071 0.7071 0.7071 -9.7089 200.8295)" class="st1" width="103.1" height="0.6"/>
		</g>
		<g>
			
				<rect x="188.1" y="111.8" transform="matrix(0.7071 -0.7071 0.7071 0.7071 -9.1032 202.2917)" class="st1" width="103.1" height="0.6"/>
		</g>
		<g>
			
				<rect x="190.1" y="111.8" transform="matrix(0.7071 -0.7071 0.7071 0.7071 -8.498 203.753)" class="st1" width="103.1" height="0.6"/>
		</g>
		<g>
			
				<rect x="192.2" y="111.8" transform="matrix(0.7071 -0.7071 0.7071 0.7071 -7.8927 205.2143)" class="st1" width="103.1" height="0.6"/>
		</g>
		<g>
			
				<rect x="194.3" y="111.8" transform="matrix(0.7071 -0.7071 0.7071 0.7071 -7.287 206.6764)" class="st1" width="103.1" height="0.6"/>
		</g>
		<g>
			
				<rect x="196.3" y="111.8" transform="matrix(0.7071 -0.7071 0.7071 0.7071 -6.6817 208.1377)" class="st1" width="103.1" height="0.6"/>
		</g>
		<g>
			
				<rect x="198.4" y="111.8" transform="matrix(0.7071 -0.7071 0.7071 0.7071 -6.0761 209.5999)" class="st1" width="103.1" height="0.6"/>
		</g>
		<g>
			
				<rect x="200.5" y="111.8" transform="matrix(0.7071 -0.7071 0.7071 0.7071 -5.4708 211.0611)" class="st1" width="103.1" height="0.6"/>
		</g>
		<g>
			
				<rect x="202.5" y="111.8" transform="matrix(0.7071 -0.7071 0.7071 0.7071 -4.8655 212.5224)" class="st1" width="103.1" height="0.6"/>
		</g>
		<g>
			
				<rect x="204.6" y="111.8" transform="matrix(0.7071 -0.7071 0.7071 0.7071 -4.2599 213.9846)" class="st1" width="103.1" height="0.6"/>
		</g>
		<g>
			
				<rect x="206.7" y="111.8" transform="matrix(0.7071 -0.7071 0.7071 0.7071 -3.6546 215.4459)" class="st1" width="103.1" height="0.6"/>
		</g>
		<g>
			
				<rect x="208.7" y="111.8" transform="matrix(0.7071 -0.7071 0.7071 0.7071 -3.0493 216.9072)" class="st1" width="103.1" height="0.6"/>
		</g>
		<g>
			
				<rect x="210.8" y="111.8" transform="matrix(0.7071 -0.7071 0.7071 0.7071 -2.4437 218.3693)" class="st1" width="103.1" height="0.6"/>
		</g>
		<g>
			
				<rect x="212.9" y="111.8" transform="matrix(0.7071 -0.7071 0.7071 0.7071 -1.8384 219.8306)" class="st1" width="103.1" height="0.6"/>
		</g>
		<g>
			
				<rect x="214.9" y="111.8" transform="matrix(0.7071 -0.7071 0.7071 0.7071 -1.2327 221.2927)" class="st1" width="103.1" height="0.6"/>
		</g>
		<g>
			
				<rect x="217" y="111.8" transform="matrix(0.7071 -0.7071 0.7071 0.7071 -0.6275 222.754)" class="st1" width="103.1" height="0.6"/>
		</g>
		<g>
			
				<rect x="219.1" y="111.8" transform="matrix(0.7071 -0.7071 0.7071 0.7071 -2.217387e-02 224.2153)" class="st1" width="103.1" height="0.6"/>
		</g>
		<g>
			
				<rect x="221.1" y="111.8" transform="matrix(0.7071 -0.7071 0.7071 0.7071 0.5835 225.6775)" class="st1" width="103.1" height="0.6"/>
		</g>
		<g>
			
				<rect x="223.2" y="111.8" transform="matrix(0.7071 -0.7071 0.7071 0.7071 1.1888 227.1388)" class="st1" width="103.1" height="0.6"/>
		</g>
		<g>
			
				<rect x="225.3" y="111.8" transform="matrix(0.7071 -0.7071 0.7071 0.7071 1.794 228.6001)" class="st1" width="103.1" height="0.6"/>
		</g>
		<g>
			
				<rect x="227.3" y="111.8" transform="matrix(0.7071 -0.7071 0.7071 0.7071 2.3997 230.0622)" class="st1" width="103.1" height="0.6"/>
		</g>
		<g>
			
				<rect x="229.4" y="111.8" transform="matrix(0.7071 -0.7071 0.7071 0.7071 3.005 231.5235)" class="st1" width="103.1" height="0.6"/>
		</g>
		<g>
			
				<rect x="231.5" y="111.8" transform="matrix(0.7071 -0.7071 0.7071 0.7071 3.6106 232.9856)" class="st1" width="103.1" height="0.6"/>
		</g>
		<g>
			
				<rect x="233.5" y="111.8" transform="matrix(0.7071 -0.7071 0.7071 0.7071 4.2159 234.4469)" class="st1" width="103.1" height="0.6"/>
		</g>
		<g>
			
				<rect x="235.6" y="111.8" transform="matrix(0.7071 -0.7071 0.7071 0.7071 4.8212 235.9082)" class="st1" width="103.1" height="0.6"/>
		</g>
		<g>
			
				<rect x="237.7" y="111.8" transform="matrix(0.7071 -0.7071 0.7071 0.7071 5.4268 237.3704)" class="st1" width="103.1" height="0.6"/>
		</g>
		<g>
			
				<rect x="239.7" y="111.8" transform="matrix(0.7071 -0.7071 0.7071 0.7071 6.0321 238.8316)" class="st1" width="103.1" height="0.6"/>
		</g>
		<g>
			
				<rect x="241.8" y="111.8" transform="matrix(0.7071 -0.7071 0.7071 0.7071 6.6374 240.2929)" class="st1" width="103.1" height="0.6"/>
		</g>
		<g>
			
				<rect x="243.9" y="111.8" transform="matrix(0.7071 -0.7071 0.7071 0.7071 7.243 241.7551)" class="st1" width="103.1" height="0.6"/>
		</g>
		<g>
			
				<rect x="245.9" y="111.8" transform="matrix(0.7071 -0.7071 0.7071 0.7071 7.8483 243.2164)" class="st1" width="103.1" height="0.6"/>
		</g>
		<g>
			
				<rect x="248" y="111.8" transform="matrix(0.7071 -0.7071 0.7071 0.7071 8.454 244.6785)" class="st1" width="103.1" height="0.6"/>
		</g>
		<g>
			
				<rect x="250.1" y="111.8" transform="matrix(0.7071 -0.7071 0.7071 0.7071 9.0593 246.1398)" class="st1" width="103.1" height="0.6"/>
		</g>
		<g>
			
				<rect x="252.2" y="111.8" transform="matrix(0.7071 -0.7071 0.7071 0.7071 9.6645 247.6011)" class="st1" width="103.1" height="0.6"/>
		</g>
		<g>
			
				<rect x="254.2" y="111.8" transform="matrix(0.7071 -0.7071 0.7071 0.7071 10.2702 249.0633)" class="st1" width="103.1" height="0.6"/>
		</g>
		<g>
			
				<rect x="256.3" y="111.8" transform="matrix(0.7071 -0.7071 0.7071 0.7071 10.8755 250.5246)" class="st1" width="103.1" height="0.6"/>
		</g>
	</g>
</g>
<g>
	<defs>
		<path id="SVGID_3_" d="M38.1,2.8v17.1h5.8v2.8h-8.8V2.8H38.1z M61.7,5.6h-8v4.8h7.7v2.8h-7.7v6.6h8v2.8h-11V2.8h11V5.6z
			 M79.8,12.3H88V13c0,1.5-0.2,2.8-0.5,4c-0.3,1.1-0.9,2.1-1.7,3c-1.8,2.1-4.2,3.1-7,3.1c-2.8,0-5.2-1-7.1-3c-2-2-3-4.4-3-7.3
			c0-2.9,1-5.3,3-7.3c2-2,4.5-3,7.4-3c1.6,0,3,0.3,4.3,1C84.6,4,85.8,5,87.1,6.5l-2.1,2c-1.6-2.2-3.6-3.3-6-3.3
			c-2.1,0-3.9,0.7-5.3,2.2c-1.4,1.4-2.1,3.2-2.1,5.4c0,2.2,0.8,4,2.4,5.5c1.5,1.3,3.1,2,4.8,2c1.5,0,2.8-0.5,4-1.5
			c1.2-1,1.8-2.2,2-3.6h-5V12.3z M106.5,17.9H98l-2.2,4.8h-3.2l9.8-21.1l9.5,21.1h-3.3L106.5,17.9z M105.3,15l-2.9-6.8L99.2,15
			H105.3z M121.3,2.8v17.1h5.8v2.8h-8.8V2.8H121.3z M136.9,2.8v19.9h-3V2.8H136.9z M149.1,19.9h9.5v2.8h-14.5l9.8-17.1h-8.2V2.8
			h13.1L149.1,19.9z M177.7,17.9h-8.5l-2.2,4.8h-3.2l9.8-21.1l9.5,21.1h-3.3L177.7,17.9z M176.5,15l-2.9-6.8l-3.1,6.8H176.5z
			 M196.3,14.2l6.2,8.5h-3.7l-5.7-8.1h-0.5v8.1h-3V2.8h3.5c2.6,0,4.5,0.5,5.7,1.5c1.3,1.1,1.9,2.5,1.9,4.3c0,1.4-0.4,2.6-1.2,3.6
			C198.7,13.3,197.6,13.9,196.3,14.2z M192.6,11.9h1c2.8,0,4.3-1.1,4.3-3.3c0-2-1.4-3-4.1-3h-1.1V11.9z M209.6,21.2
			c0-0.5,0.2-0.9,0.5-1.2c0.4-0.4,0.8-0.5,1.3-0.5c0.5,0,0.9,0.2,1.3,0.5c0.4,0.4,0.5,0.8,0.5,1.3c0,0.5-0.2,0.9-0.5,1.3
			c-0.3,0.3-0.8,0.5-1.3,0.5c-0.5,0-0.9-0.2-1.3-0.5C209.8,22.2,209.6,21.8,209.6,21.2z M209.9,18.3V2.8h2.9v15.4H209.9z"/>
	</defs>
	<clipPath id="SVGID_4_">
		<use xlink:href="#SVGID_3_"  style="overflow:visible;"/>
	</clipPath>
	<g class="st2">
		<g>
			
				<rect x="-48.9" y="12" transform="matrix(0.7071 -0.7071 0.7071 0.7071 -7.9221 5.4978)" class="st1" width="103.1" height="0.6"/>
		</g>
		<g>
			
				<rect x="-46.8" y="12" transform="matrix(0.7071 -0.7071 0.7071 0.7071 -7.3168 6.9591)" class="st1" width="103.1" height="0.6"/>
		</g>
		<g>
			
				<rect x="-44.8" y="12" transform="matrix(0.7071 -0.7071 0.7071 0.7071 -6.7112 8.4212)" class="st1" width="103.1" height="0.6"/>
		</g>
		<g>
			
				<rect x="-42.7" y="12" transform="matrix(0.7071 -0.7071 0.7071 0.7071 -6.1059 9.8825)" class="st1" width="103.1" height="0.6"/>
		</g>
		<g>
			
				<rect x="-40.6" y="12" transform="matrix(0.7071 -0.7071 0.7071 0.7071 -5.5006 11.3438)" class="st1" width="103.1" height="0.6"/>
		</g>
		<g>
			
				<rect x="-38.6" y="12" transform="matrix(0.7071 -0.7071 0.7071 0.7071 -4.895 12.806)" class="st1" width="103.1" height="0.6"/>
		</g>
		<g>
			
				<rect x="-36.5" y="12" transform="matrix(0.7071 -0.7071 0.7071 0.7071 -4.2897 14.2672)" class="st1" width="103.1" height="0.6"/>
		</g>
		<g>
			
				<rect x="-34.4" y="12" transform="matrix(0.7071 -0.7071 0.7071 0.7071 -3.684 15.7294)" class="st1" width="103.1" height="0.6"/>
		</g>
		<g>
			
				<rect x="-32.4" y="12" transform="matrix(0.7071 -0.7071 0.7071 0.7071 -3.0787 17.1907)" class="st1" width="103.1" height="0.6"/>
		</g>
		<g>
			
				<rect x="-30.3" y="12" transform="matrix(0.7071 -0.7071 0.7071 0.7071 -2.4735 18.652)" class="st1" width="103.1" height="0.6"/>
		</g>
		<g>
			
				<rect x="-28.2" y="12" transform="matrix(0.7071 -0.7071 0.7071 0.7071 -1.8678 20.1141)" class="st1" width="103.1" height="0.6"/>
		</g>
		<g>
			
				<rect x="-26.2" y="12" transform="matrix(0.7071 -0.7071 0.7071 0.7071 -1.2625 21.5754)" class="st1" width="103.1" height="0.6"/>
		</g>
		<g>
			
				<rect x="-24.1" y="12" transform="matrix(0.7071 -0.7071 0.7071 0.7071 -0.6572 23.0367)" class="st1" width="103.1" height="0.6"/>
		</g>
		<g>
			
				<rect x="-22" y="12" transform="matrix(0.7071 -0.7071 0.7071 0.7071 -5.160621e-02 24.4988)" class="st1" width="103.1" height="0.6"/>
		</g>
		<g>
			
				<rect x="-19.9" y="12" transform="matrix(0.7071 -0.7071 0.7071 0.7071 0.5537 25.9601)" class="st1" width="103.1" height="0.6"/>
		</g>
		<g>
			
				<rect x="-17.9" y="12" transform="matrix(0.7071 -0.7071 0.7071 0.7071 1.1593 27.4223)" class="st1" width="103.1" height="0.6"/>
		</g>
		<g>
			
				<rect x="-15.8" y="12" transform="matrix(0.7071 -0.7071 0.7071 0.7071 1.7646 28.8836)" class="st1" width="103.1" height="0.6"/>
		</g>
		<g>
			
				<rect x="-13.7" y="12" transform="matrix(0.7071 -0.7071 0.7071 0.7071 2.3699 30.3449)" class="st1" width="103.1" height="0.6"/>
		</g>
		<g>
			
				<rect x="-11.7" y="12" transform="matrix(0.7071 -0.7071 0.7071 0.7071 2.9755 31.807)" class="st1" width="103.1" height="0.6"/>
		</g>
		<g>
			
				<rect x="-9.6" y="12" transform="matrix(0.7071 -0.7071 0.7071 0.7071 3.5808 33.2683)" class="st1" width="103.1" height="0.6"/>
		</g>
		<g>
			
				<rect x="-7.5" y="12" transform="matrix(0.7071 -0.7071 0.7071 0.7071 4.1861 34.7296)" class="st1" width="103.1" height="0.6"/>
		</g>
		<g>
			
				<rect x="-5.5" y="12" transform="matrix(0.7071 -0.7071 0.7071 0.7071 4.7917 36.1917)" class="st1" width="103.1" height="0.6"/>
		</g>
		<g>
			<rect x="-3.4" y="12" transform="matrix(0.7071 -0.7071 0.7071 0.7071 5.397 37.653)" class="st1" width="103.1" height="0.6"/>
		</g>
		<g>
			
				<rect x="-1.3" y="12" transform="matrix(0.7071 -0.7071 0.7071 0.7071 6.0027 39.1152)" class="st1" width="103.1" height="0.6"/>
		</g>
		<g>
			<rect x="0.7" y="12" transform="matrix(0.7071 -0.7071 0.7071 0.7071 6.608 40.5765)" class="st1" width="103.1" height="0.6"/>
		</g>
		<g>
			<rect x="2.8" y="12" transform="matrix(0.7071 -0.7071 0.7071 0.7071 7.2132 42.0378)" class="st1" width="103.1" height="0.6"/>
		</g>
		<g>
			<rect x="4.9" y="12" transform="matrix(0.7071 -0.7071 0.7071 0.7071 7.8189 43.4999)" class="st1" width="103.1" height="0.6"/>
		</g>
		<g>
			<rect x="6.9" y="12" transform="matrix(0.7071 -0.7071 0.7071 0.7071 8.4242 44.9612)" class="st1" width="103.1" height="0.6"/>
		</g>
		<g>
			<rect x="9" y="12" transform="matrix(0.7071 -0.7071 0.7071 0.7071 9.0295 46.4225)" class="st1" width="103.1" height="0.6"/>
		</g>
		<g>
			
				<rect x="11.1" y="12" transform="matrix(0.7071 -0.7071 0.7071 0.7071 9.6351 47.8846)" class="st1" width="103.1" height="0.6"/>
		</g>
		<g>
			
				<rect x="13.1" y="12" transform="matrix(0.7071 -0.7071 0.7071 0.7071 10.2404 49.3459)" class="st1" width="103.1" height="0.6"/>
		</g>
		<g>
			
				<rect x="15.2" y="12" transform="matrix(0.7071 -0.7071 0.7071 0.7071 10.846 50.8081)" class="st1" width="103.1" height="0.6"/>
		</g>
		<g>
			
				<rect x="17.3" y="12" transform="matrix(0.7071 -0.7071 0.7071 0.7071 11.4513 52.2694)" class="st1" width="103.1" height="0.6"/>
		</g>
		<g>
			
				<rect x="19.3" y="12" transform="matrix(0.7071 -0.7071 0.7071 0.7071 12.0566 53.7306)" class="st1" width="103.1" height="0.6"/>
		</g>
		<g>
			
				<rect x="21.4" y="12" transform="matrix(0.7071 -0.7071 0.7071 0.7071 12.6622 55.1928)" class="st1" width="103.1" height="0.6"/>
		</g>
		<g>
			
				<rect x="23.5" y="12" transform="matrix(0.7071 -0.7071 0.7071 0.7071 13.2675 56.6541)" class="st1" width="103.1" height="0.6"/>
		</g>
		<g>
			
				<rect x="25.5" y="12" transform="matrix(0.7071 -0.7071 0.7071 0.7071 13.8728 58.1154)" class="st1" width="103.1" height="0.6"/>
		</g>
		<g>
			
				<rect x="27.6" y="12" transform="matrix(0.7071 -0.7071 0.7071 0.7071 14.4785 59.5775)" class="st1" width="103.1" height="0.6"/>
		</g>
		<g>
			
				<rect x="29.7" y="12" transform="matrix(0.7071 -0.7071 0.7071 0.7071 15.0837 61.0388)" class="st1" width="103.1" height="0.6"/>
		</g>
		<g>
			
				<rect x="31.7" y="12" transform="matrix(0.7071 -0.7071 0.7071 0.7071 15.6894 62.501)" class="st1" width="103.1" height="0.6"/>
		</g>
		<g>
			
				<rect x="33.8" y="12" transform="matrix(0.7071 -0.7071 0.7071 0.7071 16.2947 63.9623)" class="st1" width="103.1" height="0.6"/>
		</g>
		<g>
			<rect x="35.9" y="12" transform="matrix(0.7071 -0.7071 0.7071 0.7071 16.9 65.4235)" class="st1" width="103.1" height="0.6"/>
		</g>
		<g>
			
				<rect x="37.9" y="12" transform="matrix(0.7071 -0.7071 0.7071 0.7071 17.5056 66.8857)" class="st1" width="103.1" height="0.6"/>
		</g>
		<g>
			<rect x="40" y="12" transform="matrix(0.7071 -0.7071 0.7071 0.7071 18.1109 68.347)" class="st1" width="103.1" height="0.6"/>
		</g>
		<g>
			
				<rect x="42.1" y="12" transform="matrix(0.7071 -0.7071 0.7071 0.7071 18.7162 69.8083)" class="st1" width="103.1" height="0.6"/>
		</g>
		<g>
			
				<rect x="44.1" y="12" transform="matrix(0.7071 -0.7071 0.7071 0.7071 19.3218 71.2704)" class="st1" width="103.1" height="0.6"/>
		</g>
		<g>
			
				<rect x="46.2" y="12" transform="matrix(0.7071 -0.7071 0.7071 0.7071 19.9271 72.7317)" class="st1" width="103.1" height="0.6"/>
		</g>
		<g>
			
				<rect x="48.3" y="12" transform="matrix(0.7071 -0.7071 0.7071 0.7071 20.5324 74.193)" class="st1" width="103.1" height="0.6"/>
		</g>
		<g>
			
				<rect x="50.3" y="12" transform="matrix(0.7071 -0.7071 0.7071 0.7071 21.138 75.6552)" class="st1" width="103.1" height="0.6"/>
		</g>
		<g>
			
				<rect x="52.4" y="12" transform="matrix(0.7071 -0.7071 0.7071 0.7071 21.7433 77.1164)" class="st1" width="103.1" height="0.6"/>
		</g>
		<g>
			
				<rect x="54.5" y="12" transform="matrix(0.7071 -0.7071 0.7071 0.7071 22.349 78.5786)" class="st1" width="103.1" height="0.6"/>
		</g>
		<g>
			
				<rect x="56.5" y="12" transform="matrix(0.7071 -0.7071 0.7071 0.7071 22.9542 80.0399)" class="st1" width="103.1" height="0.6"/>
		</g>
		<g>
			
				<rect x="58.6" y="12" transform="matrix(0.7071 -0.7071 0.7071 0.7071 23.5595 81.5012)" class="st1" width="103.1" height="0.6"/>
		</g>
		<g>
			
				<rect x="60.7" y="12" transform="matrix(0.7071 -0.7071 0.7071 0.7071 24.1652 82.9633)" class="st1" width="103.1" height="0.6"/>
		</g>
		<g>
			
				<rect x="62.7" y="12" transform="matrix(0.7071 -0.7071 0.7071 0.7071 24.7705 84.4246)" class="st1" width="103.1" height="0.6"/>
		</g>
		<g>
			
				<rect x="64.8" y="12" transform="matrix(0.7071 -0.7071 0.7071 0.7071 25.3757 85.8859)" class="st1" width="103.1" height="0.6"/>
		</g>
		<g>
			
				<rect x="66.9" y="12" transform="matrix(0.7071 -0.7071 0.7071 0.7071 25.9814 87.348)" class="st1" width="103.1" height="0.6"/>
		</g>
		<g>
			
				<rect x="68.9" y="12" transform="matrix(0.7071 -0.7071 0.7071 0.7071 26.5867 88.8093)" class="st1" width="103.1" height="0.6"/>
		</g>
		<g>
			<rect x="71" y="12" transform="matrix(0.7071 -0.7071 0.7071 0.7071 27.1923 90.2715)" class="st1" width="103.1" height="0.6"/>
		</g>
		<g>
			
				<rect x="73.1" y="12" transform="matrix(0.7071 -0.7071 0.7071 0.7071 27.7976 91.7328)" class="st1" width="103.1" height="0.6"/>
		</g>
		<g>
			
				<rect x="75.1" y="12" transform="matrix(0.7071 -0.7071 0.7071 0.7071 28.4029 93.1941)" class="st1" width="103.1" height="0.6"/>
		</g>
		<g>
			
				<rect x="77.2" y="12" transform="matrix(0.7071 -0.7071 0.7071 0.7071 29.0085 94.6562)" class="st1" width="103.1" height="0.6"/>
		</g>
		<g>
			
				<rect x="79.3" y="12" transform="matrix(0.7071 -0.7071 0.7071 0.7071 29.6138 96.1175)" class="st1" width="103.1" height="0.6"/>
		</g>
		<g>
			
				<rect x="81.3" y="12" transform="matrix(0.7071 -0.7071 0.7071 0.7071 30.2191 97.5788)" class="st1" width="103.1" height="0.6"/>
		</g>
		<g>
			
				<rect x="83.4" y="12" transform="matrix(0.7071 -0.7071 0.7071 0.7071 30.8247 99.0409)" class="st1" width="103.1" height="0.6"/>
		</g>
		<g>
			
				<rect x="85.5" y="12" transform="matrix(0.7071 -0.7071 0.7071 0.7071 31.43 100.5022)" class="st1" width="103.1" height="0.6"/>
		</g>
		<g>
			
				<rect x="87.5" y="12" transform="matrix(0.7071 -0.7071 0.7071 0.7071 32.0357 101.9644)" class="st1" width="103.1" height="0.6"/>
		</g>
		<g>
			
				<rect x="89.6" y="12" transform="matrix(0.7071 -0.7071 0.7071 0.7071 32.6409 103.4257)" class="st1" width="103.1" height="0.6"/>
		</g>
		<g>
			
				<rect x="91.7" y="12" transform="matrix(0.7071 -0.7071 0.7071 0.7071 33.2462 104.8869)" class="st1" width="103.1" height="0.6"/>
		</g>
		<g>
			
				<rect x="93.7" y="12" transform="matrix(0.7071 -0.7071 0.7071 0.7071 33.8519 106.3491)" class="st1" width="103.1" height="0.6"/>
		</g>
		<g>
			
				<rect x="95.8" y="12" transform="matrix(0.7071 -0.7071 0.7071 0.7071 34.4572 107.8104)" class="st1" width="103.1" height="0.6"/>
		</g>
		<g>
			
				<rect x="97.9" y="12" transform="matrix(0.7071 -0.7071 0.7071 0.7071 35.0624 109.2717)" class="st1" width="103.1" height="0.6"/>
		</g>
		<g>
			
				<rect x="99.9" y="12" transform="matrix(0.7071 -0.7071 0.7071 0.7071 35.6681 110.7338)" class="st1" width="103.1" height="0.6"/>
		</g>
		<g>
			
				<rect x="102" y="12" transform="matrix(0.7071 -0.7071 0.7071 0.7071 36.2734 112.1951)" class="st1" width="103.1" height="0.6"/>
		</g>
		<g>
			
				<rect x="104.1" y="12" transform="matrix(0.7071 -0.7071 0.7071 0.7071 36.879 113.6573)" class="st1" width="103.1" height="0.6"/>
		</g>
		<g>
			
				<rect x="106.1" y="12" transform="matrix(0.7071 -0.7071 0.7071 0.7071 37.4843 115.1186)" class="st1" width="103.1" height="0.6"/>
		</g>
		<g>
			
				<rect x="108.2" y="12" transform="matrix(0.7071 -0.7071 0.7071 0.7071 38.0896 116.5798)" class="st1" width="103.1" height="0.6"/>
		</g>
		<g>
			
				<rect x="110.3" y="12" transform="matrix(0.7071 -0.7071 0.7071 0.7071 38.6952 118.042)" class="st1" width="103.1" height="0.6"/>
		</g>
		<g>
			
				<rect x="112.3" y="12" transform="matrix(0.7071 -0.7071 0.7071 0.7071 39.3005 119.5033)" class="st1" width="103.1" height="0.6"/>
		</g>
		<g>
			
				<rect x="114.4" y="12" transform="matrix(0.7071 -0.7071 0.7071 0.7071 39.9058 120.9646)" class="st1" width="103.1" height="0.6"/>
		</g>
		<g>
			
				<rect x="116.5" y="12" transform="matrix(0.7071 -0.7071 0.7071 0.7071 40.5114 122.4267)" class="st1" width="103.1" height="0.6"/>
		</g>
		<g>
			
				<rect x="118.5" y="12" transform="matrix(0.7071 -0.7071 0.7071 0.7071 41.1167 123.888)" class="st1" width="103.1" height="0.6"/>
		</g>
		<g>
			
				<rect x="120.6" y="12" transform="matrix(0.7071 -0.7071 0.7071 0.7071 41.722 125.3493)" class="st1" width="103.1" height="0.6"/>
		</g>
		<g>
			
				<rect x="122.7" y="12" transform="matrix(0.7071 -0.7071 0.7071 0.7071 42.3277 126.8114)" class="st1" width="103.1" height="0.6"/>
		</g>
		<g>
			
				<rect x="124.7" y="12" transform="matrix(0.7071 -0.7071 0.7071 0.7071 42.9329 128.2727)" class="st1" width="103.1" height="0.6"/>
		</g>
		<g>
			
				<rect x="126.8" y="12" transform="matrix(0.7071 -0.7071 0.7071 0.7071 43.5386 129.7349)" class="st1" width="103.1" height="0.6"/>
		</g>
		<g>
			
				<rect x="128.9" y="12" transform="matrix(0.7071 -0.7071 0.7071 0.7071 44.1439 131.1962)" class="st1" width="103.1" height="0.6"/>
		</g>
		<g>
			
				<rect x="130.9" y="12" transform="matrix(0.7071 -0.7071 0.7071 0.7071 44.7492 132.6575)" class="st1" width="103.1" height="0.6"/>
		</g>
		<g>
			
				<rect x="133" y="12" transform="matrix(0.7071 -0.7071 0.7071 0.7071 45.3548 134.1196)" class="st1" width="103.1" height="0.6"/>
		</g>
		<g>
			
				<rect x="135.1" y="12" transform="matrix(0.7071 -0.7071 0.7071 0.7071 45.9601 135.5809)" class="st1" width="103.1" height="0.6"/>
		</g>
		<g>
			
				<rect x="137.1" y="12" transform="matrix(0.7071 -0.7071 0.7071 0.7071 46.5654 137.0422)" class="st1" width="103.1" height="0.6"/>
		</g>
		<g>
			
				<rect x="139.2" y="12" transform="matrix(0.7071 -0.7071 0.7071 0.7071 47.171 138.5043)" class="st1" width="103.1" height="0.6"/>
		</g>
		<g>
			
				<rect x="141.3" y="12" transform="matrix(0.7071 -0.7071 0.7071 0.7071 47.7763 139.9656)" class="st1" width="103.1" height="0.6"/>
		</g>
		<g>
			
				<rect x="143.3" y="12" transform="matrix(0.7071 -0.7071 0.7071 0.7071 48.3819 141.4278)" class="st1" width="103.1" height="0.6"/>
		</g>
		<g>
			
				<rect x="145.4" y="12" transform="matrix(0.7071 -0.7071 0.7071 0.7071 48.9872 142.8891)" class="st1" width="103.1" height="0.6"/>
		</g>
		<g>
			
				<rect x="147.5" y="12" transform="matrix(0.7071 -0.7071 0.7071 0.7071 49.5925 144.3504)" class="st1" width="103.1" height="0.6"/>
		</g>
		<g>
			
				<rect x="149.5" y="12" transform="matrix(0.7071 -0.7071 0.7071 0.7071 50.1982 145.8125)" class="st1" width="103.1" height="0.6"/>
		</g>
		<g>
			
				<rect x="151.6" y="12" transform="matrix(0.7071 -0.7071 0.7071 0.7071 50.8034 147.2738)" class="st1" width="103.1" height="0.6"/>
		</g>
		<g>
			
				<rect x="153.7" y="12" transform="matrix(0.7071 -0.7071 0.7071 0.7071 51.4087 148.7351)" class="st1" width="103.1" height="0.6"/>
		</g>
		<g>
			
				<rect x="155.7" y="12" transform="matrix(0.7071 -0.7071 0.7071 0.7071 52.0144 150.1972)" class="st1" width="103.1" height="0.6"/>
		</g>
		<g>
			
				<rect x="157.8" y="12" transform="matrix(0.7071 -0.7071 0.7071 0.7071 52.6197 151.6585)" class="st1" width="103.1" height="0.6"/>
		</g>
		<g>
			
				<rect x="159.9" y="12" transform="matrix(0.7071 -0.7071 0.7071 0.7071 53.2253 153.1207)" class="st1" width="103.1" height="0.6"/>
		</g>
		<g>
			
				<rect x="161.9" y="12" transform="matrix(0.7071 -0.7071 0.7071 0.7071 53.8306 154.582)" class="st1" width="103.1" height="0.6"/>
		</g>
		<g>
			
				<rect x="164" y="12" transform="matrix(0.7071 -0.7071 0.7071 0.7071 54.4359 156.0432)" class="st1" width="103.1" height="0.6"/>
		</g>
		<g>
			
				<rect x="166.1" y="12" transform="matrix(0.7071 -0.7071 0.7071 0.7071 55.0415 157.5054)" class="st1" width="103.1" height="0.6"/>
		</g>
		<g>
			
				<rect x="168.2" y="12" transform="matrix(0.7071 -0.7071 0.7071 0.7071 55.6468 158.9667)" class="st1" width="103.1" height="0.6"/>
		</g>
		<g>
			
				<rect x="170.2" y="12" transform="matrix(0.7071 -0.7071 0.7071 0.7071 56.2521 160.428)" class="st1" width="103.1" height="0.6"/>
		</g>
		<g>
			
				<rect x="172.3" y="12" transform="matrix(0.7071 -0.7071 0.7071 0.7071 56.8577 161.8901)" class="st1" width="103.1" height="0.6"/>
		</g>
		<g>
			
				<rect x="174.4" y="12" transform="matrix(0.7071 -0.7071 0.7071 0.7071 57.463 163.3514)" class="st1" width="103.1" height="0.6"/>
		</g>
		<g>
			
				<rect x="176.4" y="12" transform="matrix(0.7071 -0.7071 0.7071 0.7071 58.0687 164.8136)" class="st1" width="103.1" height="0.6"/>
		</g>
		<g>
			
				<rect x="178.5" y="12" transform="matrix(0.7071 -0.7071 0.7071 0.7071 58.6739 166.2749)" class="st1" width="103.1" height="0.6"/>
		</g>
		<g>
			
				<rect x="180.6" y="12" transform="matrix(0.7071 -0.7071 0.7071 0.7071 59.2792 167.7361)" class="st1" width="103.1" height="0.6"/>
		</g>
		<g>
			
				<rect x="182.6" y="12" transform="matrix(0.7071 -0.7071 0.7071 0.7071 59.8849 169.1983)" class="st1" width="103.1" height="0.6"/>
		</g>
		<g>
			
				<rect x="184.7" y="12" transform="matrix(0.7071 -0.7071 0.7071 0.7071 60.4902 170.6596)" class="st1" width="103.1" height="0.6"/>
		</g>
		<g>
			
				<rect x="186.8" y="12" transform="matrix(0.7071 -0.7071 0.7071 0.7071 61.0954 172.1209)" class="st1" width="103.1" height="0.6"/>
		</g>
		<g>
			
				<rect x="188.8" y="12" transform="matrix(0.7071 -0.7071 0.7071 0.7071 61.7011 173.583)" class="st1" width="103.1" height="0.6"/>
		</g>
		<g>
			
				<rect x="190.9" y="12" transform="matrix(0.7071 -0.7071 0.7071 0.7071 62.3064 175.0443)" class="st1" width="103.1" height="0.6"/>
		</g>
		<g>
			
				<rect x="193" y="12" transform="matrix(0.7071 -0.7071 0.7071 0.7071 62.912 176.5065)" class="st1" width="103.1" height="0.6"/>
		</g>
		<g>
			
				<rect x="195" y="12" transform="matrix(0.7071 -0.7071 0.7071 0.7071 63.5173 177.9677)" class="st1" width="103.1" height="0.6"/>
		</g>
		<g>
			
				<rect x="197.1" y="12" transform="matrix(0.7071 -0.7071 0.7071 0.7071 64.1226 179.429)" class="st1" width="103.1" height="0.6"/>
		</g>
		<g>
			
				<rect x="199.2" y="12" transform="matrix(0.7071 -0.7071 0.7071 0.7071 64.7282 180.8912)" class="st1" width="103.1" height="0.6"/>
		</g>
		<g>
			
				<rect x="201.2" y="12" transform="matrix(0.7071 -0.7071 0.7071 0.7071 65.3335 182.3525)" class="st1" width="103.1" height="0.6"/>
		</g>
	</g>
</g>
<g>
	<defs>
		<path id="SVGID_5_" d="M525.2-205v18h6.2v3H522v-21H525.2z M550.2-202h-8.4v5h8.2v3h-8.2v7h8.4v3h-11.6v-21h11.6V-202z M569.3-195
			h8.7v0.7c0,1.6-0.2,3-0.6,4.2c-0.4,1.1-1,2.2-1.8,3.2c-1.9,2.2-4.4,3.3-7.4,3.3c-2.9,0-5.5-1.1-7.5-3.2c-2.1-2.1-3.1-4.7-3.1-7.7
			c0-3,1.1-5.6,3.2-7.8c2.1-2.1,4.7-3.2,7.8-3.2c1.6,0,3.2,0.3,4.6,1c1.4,0.7,2.7,1.8,4,3.3l-2.3,2.2c-1.7-2.3-3.8-3.4-6.3-3.4
			c-2.2,0-4.1,0.8-5.6,2.3c-1.5,1.5-2.3,3.4-2.3,5.7c0,2.3,0.8,4.3,2.5,5.8c1.6,1.4,3.3,2.1,5.1,2.1c1.6,0,3-0.5,4.2-1.6
			c1.2-1.1,1.9-2.3,2.1-3.8h-5.2V-195z M597.5-189.1h-9l-2.3,5.1h-3.4l10.4-22.3l10,22.3h-3.5L597.5-189.1z M596.2-192.1l-3.1-7.1
			l-3.3,7.1H596.2z M613.2-205v18h6.2v3H610v-21H613.2z M629.7-205v21h-3.2v-21H629.7z M642.5-187h10.1v3h-15.3l10.3-18H639v-3h13.8
			L642.5-187z M672.8-189.1h-9l-2.3,5.1h-3.4l10.4-22.3l10,22.3H675L672.8-189.1z M671.5-192.1l-3.1-7.1l-3.3,7.1H671.5z M692.4-193
			l6.5,8.9H695l-6-8.6h-0.6v8.6h-3.2v-21h3.7c2.8,0,4.8,0.5,6,1.6c1.4,1.2,2,2.7,2,4.6c0,1.5-0.4,2.8-1.3,3.8
			C694.9-194,693.8-193.3,692.4-193z M688.5-195.4h1c3,0,4.5-1.1,4.5-3.4c0-2.1-1.5-3.2-4.4-3.2h-1.1V-195.4z M706.4-185.5
			c0-0.5,0.2-0.9,0.6-1.3c0.4-0.4,0.8-0.6,1.3-0.6c0.5,0,1,0.2,1.3,0.6c0.4,0.4,0.6,0.8,0.6,1.3c0,0.5-0.2,1-0.6,1.3
			c-0.4,0.4-0.8,0.5-1.3,0.5c-0.5,0-1-0.2-1.3-0.5S706.4-185,706.4-185.5z M706.8-188.7V-205h3.1v16.3H706.8z"/>
	</defs>
	<clipPath id="SVGID_6_">
		<use xlink:href="#SVGID_5_"  style="overflow:visible;"/>
	</clipPath>
	<g class="st3">
		<g>
			
				<rect x="416.5" y="-199.6" transform="matrix(0.7071 -0.7071 0.7071 0.7071 281.7935 281.8395)" class="st4" width="129.1" height="0.7"/>
		</g>
		<g>
			
				<rect x="419.6" y="-199.6" transform="matrix(0.7071 -0.7071 0.7071 0.7071 282.6937 284.0128)" class="st4" width="129.1" height="0.7"/>
		</g>
		<g>
			
				<rect x="422.7" y="-199.6" transform="matrix(0.7071 -0.7071 0.7071 0.7071 283.5938 286.186)" class="st4" width="129.1" height="0.7"/>
		</g>
		<g>
			
				<rect x="425.8" y="-199.6" transform="matrix(0.7071 -0.7071 0.7071 0.7071 284.494 288.3592)" class="st4" width="129.1" height="0.7"/>
		</g>
		<g>
			
				<rect x="428.8" y="-199.6" transform="matrix(0.7071 -0.7071 0.7071 0.7071 285.3942 290.5324)" class="st4" width="129.1" height="0.7"/>
		</g>
		<g>
			
				<rect x="431.9" y="-199.6" transform="matrix(0.7071 -0.7071 0.7071 0.7071 286.2944 292.7057)" class="st4" width="129.1" height="0.7"/>
		</g>
		<g>
			
				<rect x="435" y="-199.6" transform="matrix(0.7071 -0.7071 0.7071 0.7071 287.1945 294.8787)" class="st4" width="129.1" height="0.7"/>
		</g>
		<g>
			
				<rect x="438" y="-199.6" transform="matrix(0.7071 -0.7071 0.7071 0.7071 288.0948 297.0521)" class="st4" width="129.1" height="0.7"/>
		</g>
		<g>
			
				<rect x="441.1" y="-199.6" transform="matrix(0.7071 -0.7071 0.7071 0.7071 288.9948 299.2251)" class="st4" width="129.1" height="0.7"/>
		</g>
		<g>
			
				<rect x="444.2" y="-199.6" transform="matrix(0.7071 -0.7071 0.7071 0.7071 289.8951 301.3986)" class="st4" width="129.1" height="0.7"/>
		</g>
		<g>
			
				<rect x="447.3" y="-199.6" transform="matrix(0.7071 -0.7071 0.7071 0.7071 290.7952 303.5716)" class="st4" width="129.1" height="0.7"/>
		</g>
		<g>
			
				<rect x="450.3" y="-199.6" transform="matrix(0.7071 -0.7071 0.7071 0.7071 291.6954 305.7448)" class="st4" width="129.1" height="0.7"/>
		</g>
		<g>
			
				<rect x="453.4" y="-199.6" transform="matrix(0.7071 -0.7071 0.7071 0.7071 292.5956 307.9181)" class="st4" width="129.1" height="0.7"/>
		</g>
		<g>
			
				<rect x="456.5" y="-199.6" transform="matrix(0.7071 -0.7071 0.7071 0.7071 293.4958 310.0913)" class="st4" width="129.1" height="0.7"/>
		</g>
		<g>
			
				<rect x="459.6" y="-199.6" transform="matrix(0.7071 -0.7071 0.7071 0.7071 294.3959 312.2645)" class="st4" width="129.1" height="0.7"/>
		</g>
		<g>
			
				<rect x="462.6" y="-199.6" transform="matrix(0.7071 -0.7071 0.7071 0.7071 295.2961 314.4377)" class="st4" width="129.1" height="0.7"/>
		</g>
		<g>
			
				<rect x="465.7" y="-199.6" transform="matrix(0.7071 -0.7071 0.7071 0.7071 296.1963 316.611)" class="st4" width="129.1" height="0.7"/>
		</g>
		<g>
			
				<rect x="468.8" y="-199.6" transform="matrix(0.7071 -0.7071 0.7071 0.7071 297.0965 318.7842)" class="st4" width="129.1" height="0.7"/>
		</g>
		<g>
			
				<rect x="471.9" y="-199.6" transform="matrix(0.7071 -0.7071 0.7071 0.7071 297.9966 320.9574)" class="st4" width="129.1" height="0.7"/>
		</g>
		<g>
			
				<rect x="474.9" y="-199.6" transform="matrix(0.7071 -0.7071 0.7071 0.7071 298.8968 323.1306)" class="st4" width="129.1" height="0.7"/>
		</g>
		<g>
			
				<rect x="478" y="-199.6" transform="matrix(0.7071 -0.7071 0.7071 0.7071 299.797 325.3039)" class="st4" width="129.1" height="0.7"/>
		</g>
		<g>
			
				<rect x="481.1" y="-199.6" transform="matrix(0.7071 -0.7071 0.7071 0.7071 300.6972 327.4771)" class="st4" width="129.1" height="0.7"/>
		</g>
		<g>
			
				<rect x="484.1" y="-199.6" transform="matrix(0.7071 -0.7071 0.7071 0.7071 301.5974 329.6503)" class="st4" width="129.1" height="0.7"/>
		</g>
		<g>
			
				<rect x="487.2" y="-199.6" transform="matrix(0.7071 -0.7071 0.7071 0.7071 302.4975 331.8233)" class="st4" width="129.1" height="0.7"/>
		</g>
		<g>
			
				<rect x="490.3" y="-199.6" transform="matrix(0.7071 -0.7071 0.7071 0.7071 303.3977 333.9968)" class="st4" width="129.1" height="0.7"/>
		</g>
		<g>
			
				<rect x="493.4" y="-199.6" transform="matrix(0.7071 -0.7071 0.7071 0.7071 304.2978 336.1698)" class="st4" width="129.1" height="0.7"/>
		</g>
		<g>
			
				<rect x="496.4" y="-199.6" transform="matrix(0.7071 -0.7071 0.7071 0.7071 305.1981 338.3433)" class="st4" width="129.1" height="0.7"/>
		</g>
		<g>
			
				<rect x="499.5" y="-199.6" transform="matrix(0.7071 -0.7071 0.7071 0.7071 306.0982 340.5162)" class="st4" width="129.1" height="0.7"/>
		</g>
		<g>
			
				<rect x="502.6" y="-199.6" transform="matrix(0.7071 -0.7071 0.7071 0.7071 306.9984 342.6895)" class="st4" width="129.1" height="0.7"/>
		</g>
		<g>
			
				<rect x="505.7" y="-199.6" transform="matrix(0.7071 -0.7071 0.7071 0.7071 307.8985 344.8627)" class="st4" width="129.1" height="0.7"/>
		</g>
		<g>
			
				<rect x="508.7" y="-199.6" transform="matrix(0.7071 -0.7071 0.7071 0.7071 308.7987 347.0359)" class="st4" width="129.1" height="0.7"/>
		</g>
		<g>
			
				<rect x="511.8" y="-199.6" transform="matrix(0.7071 -0.7071 0.7071 0.7071 309.6989 349.2092)" class="st4" width="129.1" height="0.7"/>
		</g>
		<g>
			
				<rect x="514.9" y="-199.6" transform="matrix(0.7071 -0.7071 0.7071 0.7071 310.599 351.3822)" class="st4" width="129.1" height="0.7"/>
		</g>
		<g>
			
				<rect x="518" y="-199.6" transform="matrix(0.7071 -0.7071 0.7071 0.7071 311.4994 353.5558)" class="st4" width="129.1" height="0.7"/>
		</g>
		<g>
			
				<rect x="521" y="-199.6" transform="matrix(0.7071 -0.7071 0.7071 0.7071 312.3994 355.7289)" class="st4" width="129.1" height="0.7"/>
		</g>
		<g>
			
				<rect x="524.1" y="-199.6" transform="matrix(0.7071 -0.7071 0.7071 0.7071 313.2996 357.9021)" class="st4" width="129.1" height="0.7"/>
		</g>
		<g>
			
				<rect x="527.2" y="-199.6" transform="matrix(0.7071 -0.7071 0.7071 0.7071 314.1997 360.0751)" class="st4" width="129.1" height="0.7"/>
		</g>
		<g>
			
				<rect x="530.2" y="-199.6" transform="matrix(0.7071 -0.7071 0.7071 0.7071 315.1001 362.2487)" class="st4" width="129.1" height="0.7"/>
		</g>
		<g>
			
				<rect x="533.3" y="-199.6" transform="matrix(0.7071 -0.7071 0.7071 0.7071 316.0002 364.4218)" class="st4" width="129.1" height="0.7"/>
		</g>
		<g>
			
				<rect x="536.4" y="-199.6" transform="matrix(0.7071 -0.7071 0.7071 0.7071 316.9004 366.595)" class="st4" width="129.1" height="0.7"/>
		</g>
		<g>
			
				<rect x="539.5" y="-199.6" transform="matrix(0.7071 -0.7071 0.7071 0.7071 317.8004 368.768)" class="st4" width="129.1" height="0.7"/>
		</g>
		<g>
			
				<rect x="542.5" y="-199.6" transform="matrix(0.7071 -0.7071 0.7071 0.7071 318.7006 370.9412)" class="st4" width="129.1" height="0.7"/>
		</g>
		<g>
			
				<rect x="545.6" y="-199.6" transform="matrix(0.7071 -0.7071 0.7071 0.7071 319.6009 373.1147)" class="st4" width="129.1" height="0.7"/>
		</g>
		<g>
			
				<rect x="548.7" y="-199.6" transform="matrix(0.7071 -0.7071 0.7071 0.7071 320.501 375.2877)" class="st4" width="129.1" height="0.7"/>
		</g>
		<g>
			
				<rect x="551.8" y="-199.6" transform="matrix(0.7071 -0.7071 0.7071 0.7071 321.4012 377.4609)" class="st4" width="129.1" height="0.7"/>
		</g>
		<g>
			
				<rect x="554.8" y="-199.6" transform="matrix(0.7071 -0.7071 0.7071 0.7071 322.3012 379.6339)" class="st4" width="129.1" height="0.7"/>
		</g>
		<g>
			
				<rect x="557.9" y="-199.6" transform="matrix(0.7071 -0.7071 0.7071 0.7071 323.2016 381.8076)" class="st4" width="129.1" height="0.7"/>
		</g>
		<g>
			
				<rect x="561" y="-199.6" transform="matrix(0.7071 -0.7071 0.7071 0.7071 324.1017 383.9806)" class="st4" width="129.1" height="0.7"/>
		</g>
		<g>
			
				<rect x="564.1" y="-199.6" transform="matrix(0.7071 -0.7071 0.7071 0.7071 325.0019 386.1538)" class="st4" width="129.1" height="0.7"/>
		</g>
		<g>
			
				<rect x="567.1" y="-199.6" transform="matrix(0.7071 -0.7071 0.7071 0.7071 325.902 388.3268)" class="st4" width="129.1" height="0.7"/>
		</g>
		<g>
			
				<rect x="570.2" y="-199.6" transform="matrix(0.7071 -0.7071 0.7071 0.7071 326.8023 390.5005)" class="st4" width="129.1" height="0.7"/>
		</g>
		<g>
			
				<rect x="573.3" y="-199.6" transform="matrix(0.7071 -0.7071 0.7071 0.7071 327.7024 392.6735)" class="st4" width="129.1" height="0.7"/>
		</g>
		<g>
			
				<rect x="576.4" y="-199.6" transform="matrix(0.7071 -0.7071 0.7071 0.7071 328.6026 394.8467)" class="st4" width="129.1" height="0.7"/>
		</g>
		<g>
			
				<rect x="579.4" y="-199.6" transform="matrix(0.7071 -0.7071 0.7071 0.7071 329.5027 397.0197)" class="st4" width="129.1" height="0.7"/>
		</g>
		<g>
			
				<rect x="582.5" y="-199.6" transform="matrix(0.7071 -0.7071 0.7071 0.7071 330.4029 399.193)" class="st4" width="129.1" height="0.7"/>
		</g>
		<g>
			
				<rect x="585.6" y="-199.6" transform="matrix(0.7071 -0.7071 0.7071 0.7071 331.3031 401.3664)" class="st4" width="129.1" height="0.7"/>
		</g>
		<g>
			
				<rect x="588.6" y="-199.6" transform="matrix(0.7071 -0.7071 0.7071 0.7071 332.2033 403.5396)" class="st4" width="129.1" height="0.7"/>
		</g>
		<g>
			
				<rect x="591.7" y="-199.6" transform="matrix(0.7071 -0.7071 0.7071 0.7071 333.1034 405.7126)" class="st4" width="129.1" height="0.7"/>
		</g>
		<g>
			
				<rect x="594.8" y="-199.6" transform="matrix(0.7071 -0.7071 0.7071 0.7071 334.0036 407.8859)" class="st4" width="129.1" height="0.7"/>
		</g>
		<g>
			
				<rect x="597.9" y="-199.6" transform="matrix(0.7071 -0.7071 0.7071 0.7071 334.9039 410.0593)" class="st4" width="129.1" height="0.7"/>
		</g>
		<g>
			
				<rect x="600.9" y="-199.6" transform="matrix(0.7071 -0.7071 0.7071 0.7071 335.804 412.2325)" class="st4" width="129.1" height="0.7"/>
		</g>
		<g>
			
				<rect x="604" y="-199.6" transform="matrix(0.7071 -0.7071 0.7071 0.7071 336.7041 414.4055)" class="st4" width="129.1" height="0.7"/>
		</g>
		<g>
			
				<rect x="607.1" y="-199.6" transform="matrix(0.7071 -0.7071 0.7071 0.7071 337.6042 416.5786)" class="st4" width="129.1" height="0.7"/>
		</g>
		<g>
			
				<rect x="610.2" y="-199.6" transform="matrix(0.7071 -0.7071 0.7071 0.7071 338.5045 418.752)" class="st4" width="129.1" height="0.7"/>
		</g>
		<g>
			
				<rect x="613.2" y="-199.6" transform="matrix(0.7071 -0.7071 0.7071 0.7071 339.4048 420.9255)" class="st4" width="129.1" height="0.7"/>
		</g>
		<g>
			
				<rect x="616.3" y="-199.6" transform="matrix(0.7071 -0.7071 0.7071 0.7071 340.3048 423.0984)" class="st4" width="129.1" height="0.7"/>
		</g>
		<g>
			
				<rect x="619.4" y="-199.6" transform="matrix(0.7071 -0.7071 0.7071 0.7071 341.2049 425.2715)" class="st4" width="129.1" height="0.7"/>
		</g>
		<g>
			
				<rect x="622.5" y="-199.6" transform="matrix(0.7071 -0.7071 0.7071 0.7071 342.1052 427.4449)" class="st4" width="129.1" height="0.7"/>
		</g>
		<g>
			
				<rect x="625.5" y="-199.6" transform="matrix(0.7071 -0.7071 0.7071 0.7071 343.0055 429.6184)" class="st4" width="129.1" height="0.7"/>
		</g>
		<g>
			
				<rect x="628.6" y="-199.6" transform="matrix(0.7071 -0.7071 0.7071 0.7071 343.9056 431.7914)" class="st4" width="129.1" height="0.7"/>
		</g>
		<g>
			
				<rect x="631.7" y="-199.6" transform="matrix(0.7071 -0.7071 0.7071 0.7071 344.8057 433.9644)" class="st4" width="129.1" height="0.7"/>
		</g>
		<g>
			
				<rect x="634.7" y="-199.6" transform="matrix(0.7071 -0.7071 0.7071 0.7071 345.7057 436.1374)" class="st4" width="129.1" height="0.7"/>
		</g>
		<g>
			
				<rect x="637.8" y="-199.6" transform="matrix(0.7071 -0.7071 0.7071 0.7071 346.6062 438.3113)" class="st4" width="129.1" height="0.7"/>
		</g>
		<g>
			
				<rect x="640.9" y="-199.6" transform="matrix(0.7071 -0.7071 0.7071 0.7071 347.5063 440.4843)" class="st4" width="129.1" height="0.7"/>
		</g>
		<g>
			
				<rect x="644" y="-199.6" transform="matrix(0.7071 -0.7071 0.7071 0.7071 348.4064 442.6573)" class="st4" width="129.1" height="0.7"/>
		</g>
		<g>
			
				<rect x="647" y="-199.6" transform="matrix(0.7071 -0.7071 0.7071 0.7071 349.3065 444.8303)" class="st4" width="129.1" height="0.7"/>
		</g>
		<g>
			
				<rect x="650.1" y="-199.6" transform="matrix(0.7071 -0.7071 0.7071 0.7071 350.2068 447.0038)" class="st4" width="129.1" height="0.7"/>
		</g>
		<g>
			
				<rect x="653.2" y="-199.6" transform="matrix(0.7071 -0.7071 0.7071 0.7071 351.107 449.1772)" class="st4" width="129.1" height="0.7"/>
		</g>
		<g>
			
				<rect x="656.3" y="-199.6" transform="matrix(0.7071 -0.7071 0.7071 0.7071 352.0071 451.3502)" class="st4" width="129.1" height="0.7"/>
		</g>
		<g>
			
				<rect x="659.3" y="-199.6" transform="matrix(0.7071 -0.7071 0.7071 0.7071 352.9072 453.5232)" class="st4" width="129.1" height="0.7"/>
		</g>
		<g>
			
				<rect x="662.4" y="-199.6" transform="matrix(0.7071 -0.7071 0.7071 0.7071 353.8075 455.6967)" class="st4" width="129.1" height="0.7"/>
		</g>
		<g>
			
				<rect x="665.5" y="-199.6" transform="matrix(0.7071 -0.7071 0.7071 0.7071 354.7077 457.8701)" class="st4" width="129.1" height="0.7"/>
		</g>
		<g>
			
				<rect x="668.6" y="-199.6" transform="matrix(0.7071 -0.7071 0.7071 0.7071 355.6078 460.0431)" class="st4" width="129.1" height="0.7"/>
		</g>
		<g>
			
				<rect x="671.6" y="-199.6" transform="matrix(0.7071 -0.7071 0.7071 0.7071 356.5079 462.2161)" class="st4" width="129.1" height="0.7"/>
		</g>
		<g>
			
				<rect x="674.7" y="-199.6" transform="matrix(0.7071 -0.7071 0.7071 0.7071 357.4082 464.3896)" class="st4" width="129.1" height="0.7"/>
		</g>
		<g>
			
				<rect x="677.8" y="-199.6" transform="matrix(0.7071 -0.7071 0.7071 0.7071 358.3085 466.563)" class="st4" width="129.1" height="0.7"/>
		</g>
		<g>
			
				<rect x="680.8" y="-199.6" transform="matrix(0.7071 -0.7071 0.7071 0.7071 359.2086 468.736)" class="st4" width="129.1" height="0.7"/>
		</g>
		<g>
			
				<rect x="683.9" y="-199.6" transform="matrix(0.7071 -0.7071 0.7071 0.7071 360.1086 470.909)" class="st4" width="129.1" height="0.7"/>
		</g>
		<g>
			
				<rect x="687" y="-199.6" transform="matrix(0.7071 -0.7071 0.7071 0.7071 361.0087 473.082)" class="st4" width="129.1" height="0.7"/>
		</g>
		<g>
			
				<rect x="690.1" y="-199.6" transform="matrix(0.7071 -0.7071 0.7071 0.7071 361.9092 475.256)" class="st4" width="129.1" height="0.7"/>
		</g>
		<g>
			
				<rect x="693.1" y="-199.6" transform="matrix(0.7071 -0.7071 0.7071 0.7071 362.8093 477.429)" class="st4" width="129.1" height="0.7"/>
		</g>
		<g>
			
				<rect x="696.2" y="-199.6" transform="matrix(0.7071 -0.7071 0.7071 0.7071 363.7094 479.6019)" class="st4" width="129.1" height="0.7"/>
		</g>
	</g>
</g>
<g>
	<defs>
		<path id="SVGID_7_" d="M531.4-253.6v21h-3.2v-21H531.4z M540.6-232.6V-255l15.3,16v-14.6h3.2v22.3l-15.3-16v14.7H540.6z
			 M574.1-250.6v18h-3.2v-18h-4.8v-3h12.8v3H574.1z M597.5-250.6h-8.4v5h8.2v3h-8.2v7h8.4v3h-11.6v-21h11.6V-250.6z M616.7-243.6
			h8.7v0.7c0,1.6-0.2,3-0.6,4.2c-0.4,1.1-1,2.2-1.8,3.2c-1.9,2.2-4.4,3.3-7.4,3.3c-2.9,0-5.5-1.1-7.5-3.2c-2.1-2.1-3.1-4.7-3.1-7.7
			c0-3,1.1-5.6,3.2-7.8c2.1-2.1,4.7-3.2,7.8-3.2c1.6,0,3.2,0.3,4.6,1c1.4,0.7,2.7,1.8,4,3.3l-2.3,2.2c-1.7-2.3-3.8-3.4-6.3-3.4
			c-2.2,0-4.1,0.8-5.6,2.3c-1.5,1.5-2.3,3.4-2.3,5.7c0,2.3,0.8,4.3,2.5,5.8c1.6,1.4,3.3,2.1,5.1,2.1c1.6,0,3-0.5,4.2-1.6
			c1.2-1.1,1.9-2.3,2.1-3.8h-5.2V-243.6z M640.6-241.6l6.5,8.9h-3.9l-6-8.6h-0.6v8.6h-3.2v-21h3.7c2.8,0,4.8,0.5,6,1.6
			c1.4,1.2,2,2.7,2,4.6c0,1.5-0.4,2.8-1.3,3.8S642-241.9,640.6-241.6z M636.7-244h1c3,0,4.5-1.1,4.5-3.4c0-2.1-1.5-3.2-4.4-3.2h-1.1
			V-244z M666.8-237.7h-9l-2.3,5.1H652l10.4-22.3l10,22.3H669L666.8-237.7z M665.5-240.7l-3.1-7.1l-3.3,7.1H665.5z M686.3-241.6
			l6.5,8.9H689l-6-8.6h-0.6v8.6h-3.2v-21h3.7c2.8,0,4.8,0.5,6,1.6c1.4,1.2,2,2.7,2,4.6c0,1.5-0.4,2.8-1.3,3.8
			S687.7-241.9,686.3-241.6z M682.4-244h1c3,0,4.5-1.1,4.5-3.4c0-2.1-1.5-3.2-4.4-3.2h-1.1V-244z M700.4-234.1
			c0-0.5,0.2-0.9,0.6-1.3c0.4-0.4,0.8-0.6,1.3-0.6s1,0.2,1.3,0.6c0.4,0.4,0.6,0.8,0.6,1.3c0,0.5-0.2,1-0.6,1.3
			c-0.4,0.4-0.8,0.5-1.3,0.5c-0.5,0-1-0.2-1.3-0.5C700.6-233.1,700.4-233.6,700.4-234.1z M700.7-237.3v-16.3h3.1v16.3H700.7z"/>
	</defs>
	<clipPath id="SVGID_8_">
		<use xlink:href="#SVGID_7_"  style="overflow:visible;"/>
	</clipPath>
	<g class="st5">
		<g>
			
				<rect x="416.6" y="-241" transform="matrix(0.7071 -0.7071 0.7071 0.7071 311.1329 269.7459)" class="st4" width="129.1" height="0.7"/>
		</g>
		<g>
			
				<rect x="419.7" y="-241" transform="matrix(0.7071 -0.7071 0.7071 0.7071 312.0331 271.9191)" class="st4" width="129.1" height="0.7"/>
		</g>
		<g>
			
				<rect x="422.8" y="-241" transform="matrix(0.7071 -0.7071 0.7071 0.7071 312.9333 274.0923)" class="st4" width="129.1" height="0.7"/>
		</g>
		<g>
			
				<rect x="425.8" y="-241" transform="matrix(0.7071 -0.7071 0.7071 0.7071 313.8334 276.2656)" class="st4" width="129.1" height="0.7"/>
		</g>
		<g>
			
				<rect x="428.9" y="-241" transform="matrix(0.7071 -0.7071 0.7071 0.7071 314.7336 278.4388)" class="st4" width="129.1" height="0.7"/>
		</g>
		<g>
			
				<rect x="432" y="-241" transform="matrix(0.7071 -0.7071 0.7071 0.7071 315.6338 280.612)" class="st4" width="129.1" height="0.7"/>
		</g>
		<g>
			
				<rect x="435" y="-241" transform="matrix(0.7071 -0.7071 0.7071 0.7071 316.5339 282.785)" class="st4" width="129.1" height="0.7"/>
		</g>
		<g>
			
				<rect x="438.1" y="-241" transform="matrix(0.7071 -0.7071 0.7071 0.7071 317.4342 284.9585)" class="st4" width="129.1" height="0.7"/>
		</g>
		<g>
			
				<rect x="441.2" y="-241" transform="matrix(0.7071 -0.7071 0.7071 0.7071 318.3343 287.1315)" class="st4" width="129.1" height="0.7"/>
		</g>
		<g>
			
				<rect x="444.3" y="-241" transform="matrix(0.7071 -0.7071 0.7071 0.7071 319.2345 289.3049)" class="st4" width="129.1" height="0.7"/>
		</g>
		<g>
			
				<rect x="447.3" y="-241" transform="matrix(0.7071 -0.7071 0.7071 0.7071 320.1346 291.4779)" class="st4" width="129.1" height="0.7"/>
		</g>
		<g>
			
				<rect x="450.4" y="-241" transform="matrix(0.7071 -0.7071 0.7071 0.7071 321.0348 293.6512)" class="st4" width="129.1" height="0.7"/>
		</g>
		<g>
			
				<rect x="453.5" y="-241" transform="matrix(0.7071 -0.7071 0.7071 0.7071 321.935 295.8244)" class="st4" width="129.1" height="0.7"/>
		</g>
		<g>
			
				<rect x="456.6" y="-241" transform="matrix(0.7071 -0.7071 0.7071 0.7071 322.8352 297.9976)" class="st4" width="129.1" height="0.7"/>
		</g>
		<g>
			
				<rect x="459.6" y="-241" transform="matrix(0.7071 -0.7071 0.7071 0.7071 323.7354 300.1708)" class="st4" width="129.1" height="0.7"/>
		</g>
		<g>
			
				<rect x="462.7" y="-241" transform="matrix(0.7071 -0.7071 0.7071 0.7071 324.6355 302.3441)" class="st4" width="129.1" height="0.7"/>
		</g>
		<g>
			
				<rect x="465.8" y="-241" transform="matrix(0.7071 -0.7071 0.7071 0.7071 325.5357 304.5173)" class="st4" width="129.1" height="0.7"/>
		</g>
		<g>
			
				<rect x="468.9" y="-241" transform="matrix(0.7071 -0.7071 0.7071 0.7071 326.4359 306.6905)" class="st4" width="129.1" height="0.7"/>
		</g>
		<g>
			
				<rect x="471.9" y="-241" transform="matrix(0.7071 -0.7071 0.7071 0.7071 327.3361 308.8637)" class="st4" width="129.1" height="0.7"/>
		</g>
		<g>
			
				<rect x="475" y="-241" transform="matrix(0.7071 -0.7071 0.7071 0.7071 328.2362 311.037)" class="st4" width="129.1" height="0.7"/>
		</g>
		<g>
			
				<rect x="478.1" y="-241" transform="matrix(0.7071 -0.7071 0.7071 0.7071 329.1364 313.2102)" class="st4" width="129.1" height="0.7"/>
		</g>
		<g>
			
				<rect x="481.1" y="-241" transform="matrix(0.7071 -0.7071 0.7071 0.7071 330.0366 315.3834)" class="st4" width="129.1" height="0.7"/>
		</g>
		<g>
			
				<rect x="484.2" y="-241" transform="matrix(0.7071 -0.7071 0.7071 0.7071 330.9368 317.5567)" class="st4" width="129.1" height="0.7"/>
		</g>
		<g>
			
				<rect x="487.3" y="-241" transform="matrix(0.7071 -0.7071 0.7071 0.7071 331.8369 319.7296)" class="st4" width="129.1" height="0.7"/>
		</g>
		<g>
			
				<rect x="490.4" y="-241" transform="matrix(0.7071 -0.7071 0.7071 0.7071 332.7372 321.9031)" class="st4" width="129.1" height="0.7"/>
		</g>
		<g>
			
				<rect x="493.4" y="-241" transform="matrix(0.7071 -0.7071 0.7071 0.7071 333.6372 324.0761)" class="st4" width="129.1" height="0.7"/>
		</g>
		<g>
			
				<rect x="496.5" y="-241" transform="matrix(0.7071 -0.7071 0.7071 0.7071 334.5375 326.2496)" class="st4" width="129.1" height="0.7"/>
		</g>
		<g>
			
				<rect x="499.6" y="-241" transform="matrix(0.7071 -0.7071 0.7071 0.7071 335.4376 328.4226)" class="st4" width="129.1" height="0.7"/>
		</g>
		<g>
			
				<rect x="502.7" y="-241" transform="matrix(0.7071 -0.7071 0.7071 0.7071 336.3378 330.5958)" class="st4" width="129.1" height="0.7"/>
		</g>
		<g>
			
				<rect x="505.7" y="-241" transform="matrix(0.7071 -0.7071 0.7071 0.7071 337.2379 332.769)" class="st4" width="129.1" height="0.7"/>
		</g>
		<g>
			
				<rect x="508.8" y="-241" transform="matrix(0.7071 -0.7071 0.7071 0.7071 338.1381 334.9423)" class="st4" width="129.1" height="0.7"/>
		</g>
		<g>
			
				<rect x="511.9" y="-241" transform="matrix(0.7071 -0.7071 0.7071 0.7071 339.0383 337.1155)" class="st4" width="129.1" height="0.7"/>
		</g>
		<g>
			
				<rect x="515" y="-241" transform="matrix(0.7071 -0.7071 0.7071 0.7071 339.9384 339.2885)" class="st4" width="129.1" height="0.7"/>
		</g>
		<g>
			
				<rect x="518" y="-241" transform="matrix(0.7071 -0.7071 0.7071 0.7071 340.8388 341.4622)" class="st4" width="129.1" height="0.7"/>
		</g>
		<g>
			
				<rect x="521.1" y="-241" transform="matrix(0.7071 -0.7071 0.7071 0.7071 341.7389 343.6352)" class="st4" width="129.1" height="0.7"/>
		</g>
		<g>
			
				<rect x="524.2" y="-241" transform="matrix(0.7071 -0.7071 0.7071 0.7071 342.639 345.8084)" class="st4" width="129.1" height="0.7"/>
		</g>
		<g>
			
				<rect x="527.2" y="-241" transform="matrix(0.7071 -0.7071 0.7071 0.7071 343.5391 347.9814)" class="st4" width="129.1" height="0.7"/>
		</g>
		<g>
			
				<rect x="530.3" y="-241" transform="matrix(0.7071 -0.7071 0.7071 0.7071 344.4395 350.1551)" class="st4" width="129.1" height="0.7"/>
		</g>
		<g>
			
				<rect x="533.4" y="-241" transform="matrix(0.7071 -0.7071 0.7071 0.7071 345.3396 352.3281)" class="st4" width="129.1" height="0.7"/>
		</g>
		<g>
			
				<rect x="536.5" y="-241" transform="matrix(0.7071 -0.7071 0.7071 0.7071 346.2398 354.5013)" class="st4" width="129.1" height="0.7"/>
		</g>
		<g>
			
				<rect x="539.5" y="-241" transform="matrix(0.7071 -0.7071 0.7071 0.7071 347.1399 356.6743)" class="st4" width="129.1" height="0.7"/>
		</g>
		<g>
			
				<rect x="542.6" y="-241" transform="matrix(0.7071 -0.7071 0.7071 0.7071 348.04 358.8475)" class="st4" width="129.1" height="0.7"/>
		</g>
		<g>
			
				<rect x="545.7" y="-241" transform="matrix(0.7071 -0.7071 0.7071 0.7071 348.9403 361.021)" class="st4" width="129.1" height="0.7"/>
		</g>
		<g>
			
				<rect x="548.8" y="-241" transform="matrix(0.7071 -0.7071 0.7071 0.7071 349.8404 363.194)" class="st4" width="129.1" height="0.7"/>
		</g>
		<g>
			
				<rect x="551.8" y="-241" transform="matrix(0.7071 -0.7071 0.7071 0.7071 350.7406 365.3672)" class="st4" width="129.1" height="0.7"/>
		</g>
		<g>
			
				<rect x="554.9" y="-241" transform="matrix(0.7071 -0.7071 0.7071 0.7071 351.6407 367.5402)" class="st4" width="129.1" height="0.7"/>
		</g>
		<g>
			
				<rect x="558" y="-241" transform="matrix(0.7071 -0.7071 0.7071 0.7071 352.541 369.7139)" class="st4" width="129.1" height="0.7"/>
		</g>
		<g>
			
				<rect x="561.1" y="-241" transform="matrix(0.7071 -0.7071 0.7071 0.7071 353.4411 371.8869)" class="st4" width="129.1" height="0.7"/>
		</g>
		<g>
			
				<rect x="564.1" y="-241" transform="matrix(0.7071 -0.7071 0.7071 0.7071 354.3413 374.0602)" class="st4" width="129.1" height="0.7"/>
		</g>
		<g>
			
				<rect x="567.2" y="-241" transform="matrix(0.7071 -0.7071 0.7071 0.7071 355.2414 376.2331)" class="st4" width="129.1" height="0.7"/>
		</g>
		<g>
			
				<rect x="570.3" y="-241" transform="matrix(0.7071 -0.7071 0.7071 0.7071 356.1418 378.4068)" class="st4" width="129.1" height="0.7"/>
		</g>
		<g>
			
				<rect x="573.3" y="-241" transform="matrix(0.7071 -0.7071 0.7071 0.7071 357.0418 380.5798)" class="st4" width="129.1" height="0.7"/>
		</g>
		<g>
			
				<rect x="576.4" y="-241" transform="matrix(0.7071 -0.7071 0.7071 0.7071 357.942 382.7531)" class="st4" width="129.1" height="0.7"/>
		</g>
		<g>
			
				<rect x="579.5" y="-241" transform="matrix(0.7071 -0.7071 0.7071 0.7071 358.8421 384.9261)" class="st4" width="129.1" height="0.7"/>
		</g>
		<g>
			
				<rect x="582.6" y="-241" transform="matrix(0.7071 -0.7071 0.7071 0.7071 359.7423 387.0993)" class="st4" width="129.1" height="0.7"/>
		</g>
		<g>
			
				<rect x="585.6" y="-241" transform="matrix(0.7071 -0.7071 0.7071 0.7071 360.6425 389.2727)" class="st4" width="129.1" height="0.7"/>
		</g>
		<g>
			
				<rect x="588.7" y="-241" transform="matrix(0.7071 -0.7071 0.7071 0.7071 361.5427 391.446)" class="st4" width="129.1" height="0.7"/>
		</g>
		<g>
			
				<rect x="591.8" y="-241" transform="matrix(0.7071 -0.7071 0.7071 0.7071 362.4428 393.619)" class="st4" width="129.1" height="0.7"/>
		</g>
		<g>
			
				<rect x="594.9" y="-241" transform="matrix(0.7071 -0.7071 0.7071 0.7071 363.343 395.7922)" class="st4" width="129.1" height="0.7"/>
		</g>
		<g>
			
				<rect x="597.9" y="-241" transform="matrix(0.7071 -0.7071 0.7071 0.7071 364.2433 397.9656)" class="st4" width="129.1" height="0.7"/>
		</g>
		<g>
			
				<rect x="601" y="-241" transform="matrix(0.7071 -0.7071 0.7071 0.7071 365.1435 400.1389)" class="st4" width="129.1" height="0.7"/>
		</g>
		<g>
			
				<rect x="604.1" y="-241" transform="matrix(0.7071 -0.7071 0.7071 0.7071 366.0435 402.3119)" class="st4" width="129.1" height="0.7"/>
		</g>
		<g>
			
				<rect x="607.2" y="-241" transform="matrix(0.7071 -0.7071 0.7071 0.7071 366.9436 404.4849)" class="st4" width="129.1" height="0.7"/>
		</g>
		<g>
			
				<rect x="610.2" y="-241" transform="matrix(0.7071 -0.7071 0.7071 0.7071 367.8439 406.6583)" class="st4" width="129.1" height="0.7"/>
		</g>
		<g>
			
				<rect x="613.3" y="-241" transform="matrix(0.7071 -0.7071 0.7071 0.7071 368.7442 408.8318)" class="st4" width="129.1" height="0.7"/>
		</g>
		<g>
			
				<rect x="616.4" y="-241" transform="matrix(0.7071 -0.7071 0.7071 0.7071 369.6443 411.0048)" class="st4" width="129.1" height="0.7"/>
		</g>
		<g>
			
				<rect x="619.4" y="-241" transform="matrix(0.7071 -0.7071 0.7071 0.7071 370.5443 413.1778)" class="st4" width="129.1" height="0.7"/>
		</g>
		<g>
			
				<rect x="622.5" y="-241" transform="matrix(0.7071 -0.7071 0.7071 0.7071 371.4446 415.3513)" class="st4" width="129.1" height="0.7"/>
		</g>
		<g>
			
				<rect x="625.6" y="-241" transform="matrix(0.7071 -0.7071 0.7071 0.7071 372.3449 417.5247)" class="st4" width="129.1" height="0.7"/>
		</g>
		<g>
			
				<rect x="628.7" y="-241" transform="matrix(0.7071 -0.7071 0.7071 0.7071 373.245 419.6977)" class="st4" width="129.1" height="0.7"/>
		</g>
		<g>
			
				<rect x="631.7" y="-241" transform="matrix(0.7071 -0.7071 0.7071 0.7071 374.1451 421.8707)" class="st4" width="129.1" height="0.7"/>
		</g>
		<g>
			
				<rect x="634.8" y="-241" transform="matrix(0.7071 -0.7071 0.7071 0.7071 375.0452 424.0437)" class="st4" width="129.1" height="0.7"/>
		</g>
		<g>
			
				<rect x="637.9" y="-241" transform="matrix(0.7071 -0.7071 0.7071 0.7071 375.9456 426.2176)" class="st4" width="129.1" height="0.7"/>
		</g>
		<g>
			
				<rect x="641" y="-241" transform="matrix(0.7071 -0.7071 0.7071 0.7071 376.8457 428.3906)" class="st4" width="129.1" height="0.7"/>
		</g>
		<g>
			
				<rect x="644" y="-241" transform="matrix(0.7071 -0.7071 0.7071 0.7071 377.7458 430.5636)" class="st4" width="129.1" height="0.7"/>
		</g>
		<g>
			
				<rect x="647.1" y="-241" transform="matrix(0.7071 -0.7071 0.7071 0.7071 378.6459 432.7366)" class="st4" width="129.1" height="0.7"/>
		</g>
		<g>
			
				<rect x="650.2" y="-241" transform="matrix(0.7071 -0.7071 0.7071 0.7071 379.5462 434.9101)" class="st4" width="129.1" height="0.7"/>
		</g>
		<g>
			
				<rect x="653.3" y="-241" transform="matrix(0.7071 -0.7071 0.7071 0.7071 380.4464 437.0835)" class="st4" width="129.1" height="0.7"/>
		</g>
		<g>
			
				<rect x="656.3" y="-241" transform="matrix(0.7071 -0.7071 0.7071 0.7071 381.3465 439.2565)" class="st4" width="129.1" height="0.7"/>
		</g>
		<g>
			
				<rect x="659.4" y="-241" transform="matrix(0.7071 -0.7071 0.7071 0.7071 382.2466 441.4295)" class="st4" width="129.1" height="0.7"/>
		</g>
		<g>
			
				<rect x="662.5" y="-241" transform="matrix(0.7071 -0.7071 0.7071 0.7071 383.1469 443.603)" class="st4" width="129.1" height="0.7"/>
		</g>
		<g>
			
				<rect x="665.6" y="-241" transform="matrix(0.7071 -0.7071 0.7071 0.7071 384.0471 445.7764)" class="st4" width="129.1" height="0.7"/>
		</g>
		<g>
			
				<rect x="668.6" y="-241" transform="matrix(0.7071 -0.7071 0.7071 0.7071 384.9472 447.9494)" class="st4" width="129.1" height="0.7"/>
		</g>
		<g>
			
				<rect x="671.7" y="-241" transform="matrix(0.7071 -0.7071 0.7071 0.7071 385.8473 450.1224)" class="st4" width="129.1" height="0.7"/>
		</g>
		<g>
			
				<rect x="674.8" y="-241" transform="matrix(0.7071 -0.7071 0.7071 0.7071 386.7476 452.2959)" class="st4" width="129.1" height="0.7"/>
		</g>
		<g>
			
				<rect x="677.8" y="-241" transform="matrix(0.7071 -0.7071 0.7071 0.7071 387.6479 454.4694)" class="st4" width="129.1" height="0.7"/>
		</g>
		<g>
			
				<rect x="680.9" y="-241" transform="matrix(0.7071 -0.7071 0.7071 0.7071 388.548 456.6424)" class="st4" width="129.1" height="0.7"/>
		</g>
		<g>
			
				<rect x="684" y="-241" transform="matrix(0.7071 -0.7071 0.7071 0.7071 389.4481 458.8154)" class="st4" width="129.1" height="0.7"/>
		</g>
		<g>
			
				<rect x="687.1" y="-241" transform="matrix(0.7071 -0.7071 0.7071 0.7071 390.3481 460.9883)" class="st4" width="129.1" height="0.7"/>
		</g>
		<g>
			
				<rect x="690.1" y="-241" transform="matrix(0.7071 -0.7071 0.7071 0.7071 391.2486 463.1623)" class="st4" width="129.1" height="0.7"/>
		</g>
		<g>
			
				<rect x="693.2" y="-241" transform="matrix(0.7071 -0.7071 0.7071 0.7071 392.1487 465.3353)" class="st4" width="129.1" height="0.7"/>
		</g>
		<g>
			
				<rect x="696.3" y="-241" transform="matrix(0.7071 -0.7071 0.7071 0.7071 393.0488 467.5083)" class="st4" width="129.1" height="0.7"/>
		</g>
	</g>
</g>
<g>
	<defs>
		<path id="SVGID_9_" d="M506.6-331.5l6.5,8.9h-3.9l-6-8.6h-0.6v8.6h-3.2v-21h3.7c2.8,0,4.8,0.5,6,1.6c1.4,1.2,2,2.7,2,4.6
			c0,1.5-0.4,2.8-1.3,3.8C509.2-332.5,508-331.8,506.6-331.5z M502.7-333.9h1c3,0,4.5-1.1,4.5-3.4c0-2.1-1.5-3.2-4.4-3.2h-1.1
			V-333.9z M532-340.6h-8.4v5h8.2v3h-8.2v7h8.4v3h-11.6v-21H532V-340.6z M555.9-342.4v3.8c-1.8-1.5-3.7-2.3-5.7-2.3
			c-2.2,0-4,0.8-5.5,2.3c-1.5,1.5-2.2,3.4-2.2,5.7c0,2.2,0.7,4.1,2.2,5.6c1.5,1.5,3.3,2.3,5.5,2.3c1.1,0,2.1-0.2,2.8-0.5
			c0.4-0.2,0.9-0.4,1.4-0.7c0.5-0.3,1-0.7,1.5-1.1v3.8c-1.8,1-3.7,1.5-5.7,1.5c-3,0-5.6-1-7.7-3.1c-2.1-2.1-3.2-4.7-3.2-7.6
			c0-2.7,0.9-5.1,2.7-7.2c2.2-2.6,5-3.8,8.4-3.8C552.3-344,554.1-343.5,555.9-342.4z M562.9-333.2c0-3,1.1-5.5,3.2-7.6
			c2.2-2.1,4.8-3.2,7.8-3.2c3,0,5.6,1.1,7.7,3.2c2.1,2.1,3.2,4.7,3.2,7.7c0,3-1.1,5.6-3.2,7.7c-2.2,2.1-4.8,3.2-7.8,3.2
			c-2.7,0-5.1-0.9-7.3-2.8C564.1-327.1,562.9-329.8,562.9-333.2z M566.1-333.1c0,2.3,0.8,4.2,2.3,5.7c1.6,1.5,3.3,2.2,5.4,2.2
			c2.2,0,4.1-0.8,5.6-2.3c1.5-1.5,2.3-3.4,2.3-5.6c0-2.2-0.7-4.1-2.2-5.6c-1.5-1.5-3.3-2.3-5.5-2.3c-2.2,0-4,0.8-5.5,2.3
			C566.8-337.2,566.1-335.3,566.1-333.1z M593-322.6V-345l15.3,16v-14.6h3.2v22.3l-15.3-16v14.7H593z M623.9-335.4h9.1v-8.2h3.2v21
			h-3.2v-9.8h-9.1v9.8h-3.2v-21h3.2V-335.4z M656.9-340.6h-8.4v5h8.2v3h-8.2v7h8.4v3h-11.6v-21h11.6V-340.6z M680.7-342.4v3.8
			c-1.8-1.5-3.7-2.3-5.7-2.3c-2.2,0-4,0.8-5.5,2.3c-1.5,1.5-2.2,3.4-2.2,5.7c0,2.2,0.7,4.1,2.2,5.6c1.5,1.5,3.3,2.3,5.5,2.3
			c1.1,0,2.1-0.2,2.8-0.5c0.4-0.2,0.9-0.4,1.4-0.7c0.5-0.3,1-0.7,1.5-1.1v3.8c-1.8,1-3.7,1.5-5.7,1.5c-3,0-5.6-1-7.7-3.1
			c-2.1-2.1-3.2-4.7-3.2-7.6c0-2.7,0.9-5.1,2.7-7.2c2.2-2.6,5-3.8,8.4-3.8C677.1-344,679-343.5,680.7-342.4z M700.5-340.6h-8.4v5
			h8.2v3h-8.2v7h8.4v3h-11.6v-21h11.6V-340.6z M715.9-331.5l6.5,8.9h-3.9l-6-8.6H712v8.6h-3.2v-21h3.7c2.8,0,4.8,0.5,6,1.6
			c1.4,1.2,2,2.7,2,4.6c0,1.5-0.4,2.8-1.3,3.8C718.5-332.5,717.3-331.8,715.9-331.5z M712-333.9h1c3,0,4.5-1.1,4.5-3.4
			c0-2.1-1.5-3.2-4.4-3.2H712V-333.9z M730-324.1c0-0.5,0.2-0.9,0.6-1.3c0.4-0.4,0.8-0.6,1.3-0.6s1,0.2,1.3,0.6
			c0.4,0.4,0.6,0.8,0.6,1.3c0,0.5-0.2,1-0.6,1.3c-0.4,0.4-0.8,0.5-1.3,0.5c-0.5,0-1-0.2-1.3-0.5S730-323.5,730-324.1z M730.3-327.2
			v-16.3h3.1v16.3H730.3z"/>
	</defs>
	<clipPath id="SVGID_10_">
		<use xlink:href="#SVGID_9_"  style="overflow:visible;"/>
	</clipPath>
	<g class="st6">
		<g>
			
				<rect x="417" y="-338.4" transform="matrix(0.7071 -0.7071 0.7071 0.7071 380.1033 241.5401)" class="st4" width="129.1" height="0.7"/>
		</g>
		<g>
			
				<rect x="420.1" y="-338.4" transform="matrix(0.7071 -0.7071 0.7071 0.7071 381.0035 243.7133)" class="st4" width="129.1" height="0.7"/>
		</g>
		<g>
			
				<rect x="423.2" y="-338.4" transform="matrix(0.7071 -0.7071 0.7071 0.7071 381.9037 245.8866)" class="st4" width="129.1" height="0.7"/>
		</g>
		<g>
			
				<rect x="426.3" y="-338.4" transform="matrix(0.7071 -0.7071 0.7071 0.7071 382.8038 248.0598)" class="st4" width="129.1" height="0.7"/>
		</g>
		<g>
			
				<rect x="429.3" y="-338.4" transform="matrix(0.7071 -0.7071 0.7071 0.7071 383.704 250.233)" class="st4" width="129.1" height="0.7"/>
		</g>
		<g>
			
				<rect x="432.4" y="-338.4" transform="matrix(0.7071 -0.7071 0.7071 0.7071 384.6042 252.4062)" class="st4" width="129.1" height="0.7"/>
		</g>
		<g>
			
				<rect x="435.5" y="-338.4" transform="matrix(0.7071 -0.7071 0.7071 0.7071 385.5043 254.5792)" class="st4" width="129.1" height="0.7"/>
		</g>
		<g>
			
				<rect x="438.6" y="-338.4" transform="matrix(0.7071 -0.7071 0.7071 0.7071 386.4046 256.7527)" class="st4" width="129.1" height="0.7"/>
		</g>
		<g>
			
				<rect x="441.6" y="-338.4" transform="matrix(0.7071 -0.7071 0.7071 0.7071 387.3047 258.9257)" class="st4" width="129.1" height="0.7"/>
		</g>
		<g>
			
				<rect x="444.7" y="-338.4" transform="matrix(0.7071 -0.7071 0.7071 0.7071 388.2049 261.0992)" class="st4" width="129.1" height="0.7"/>
		</g>
		<g>
			
				<rect x="447.8" y="-338.4" transform="matrix(0.7071 -0.7071 0.7071 0.7071 389.105 263.2722)" class="st4" width="129.1" height="0.7"/>
		</g>
		<g>
			
				<rect x="450.9" y="-338.4" transform="matrix(0.7071 -0.7071 0.7071 0.7071 390.0052 265.4454)" class="st4" width="129.1" height="0.7"/>
		</g>
		<g>
			
				<rect x="453.9" y="-338.4" transform="matrix(0.7071 -0.7071 0.7071 0.7071 390.9054 267.6186)" class="st4" width="129.1" height="0.7"/>
		</g>
		<g>
			
				<rect x="457" y="-338.4" transform="matrix(0.7071 -0.7071 0.7071 0.7071 391.8055 269.7918)" class="st4" width="129.1" height="0.7"/>
		</g>
		<g>
			
				<rect x="460.1" y="-338.4" transform="matrix(0.7071 -0.7071 0.7071 0.7071 392.7057 271.9651)" class="st4" width="129.1" height="0.7"/>
		</g>
		<g>
			
				<rect x="463.1" y="-338.4" transform="matrix(0.7071 -0.7071 0.7071 0.7071 393.6059 274.1383)" class="st4" width="129.1" height="0.7"/>
		</g>
		<g>
			
				<rect x="466.2" y="-338.4" transform="matrix(0.7071 -0.7071 0.7071 0.7071 394.5061 276.3115)" class="st4" width="129.1" height="0.7"/>
		</g>
		<g>
			
				<rect x="469.3" y="-338.4" transform="matrix(0.7071 -0.7071 0.7071 0.7071 395.4063 278.4847)" class="st4" width="129.1" height="0.7"/>
		</g>
		<g>
			
				<rect x="472.4" y="-338.4" transform="matrix(0.7071 -0.7071 0.7071 0.7071 396.3065 280.658)" class="st4" width="129.1" height="0.7"/>
		</g>
		<g>
			
				<rect x="475.4" y="-338.4" transform="matrix(0.7071 -0.7071 0.7071 0.7071 397.2066 282.8312)" class="st4" width="129.1" height="0.7"/>
		</g>
		<g>
			
				<rect x="478.5" y="-338.4" transform="matrix(0.7071 -0.7071 0.7071 0.7071 398.1068 285.0044)" class="st4" width="129.1" height="0.7"/>
		</g>
		<g>
			
				<rect x="481.6" y="-338.4" transform="matrix(0.7071 -0.7071 0.7071 0.7071 399.007 287.1777)" class="st4" width="129.1" height="0.7"/>
		</g>
		<g>
			
				<rect x="484.7" y="-338.4" transform="matrix(0.7071 -0.7071 0.7071 0.7071 399.9072 289.3509)" class="st4" width="129.1" height="0.7"/>
		</g>
		<g>
			
				<rect x="487.7" y="-338.4" transform="matrix(0.7071 -0.7071 0.7071 0.7071 400.8073 291.5239)" class="st4" width="129.1" height="0.7"/>
		</g>
		<g>
			
				<rect x="490.8" y="-338.4" transform="matrix(0.7071 -0.7071 0.7071 0.7071 401.7075 293.6974)" class="st4" width="129.1" height="0.7"/>
		</g>
		<g>
			
				<rect x="493.9" y="-338.4" transform="matrix(0.7071 -0.7071 0.7071 0.7071 402.6076 295.8704)" class="st4" width="129.1" height="0.7"/>
		</g>
		<g>
			
				<rect x="497" y="-338.4" transform="matrix(0.7071 -0.7071 0.7071 0.7071 403.5079 298.0438)" class="st4" width="129.1" height="0.7"/>
		</g>
		<g>
			
				<rect x="500" y="-338.4" transform="matrix(0.7071 -0.7071 0.7071 0.7071 404.408 300.2168)" class="st4" width="129.1" height="0.7"/>
		</g>
		<g>
			
				<rect x="503.1" y="-338.4" transform="matrix(0.7071 -0.7071 0.7071 0.7071 405.3082 302.39)" class="st4" width="129.1" height="0.7"/>
		</g>
		<g>
			
				<rect x="506.2" y="-338.4" transform="matrix(0.7071 -0.7071 0.7071 0.7071 406.2083 304.5633)" class="st4" width="129.1" height="0.7"/>
		</g>
		<g>
			
				<rect x="509.2" y="-338.4" transform="matrix(0.7071 -0.7071 0.7071 0.7071 407.1085 306.7365)" class="st4" width="129.1" height="0.7"/>
		</g>
		<g>
			
				<rect x="512.3" y="-338.4" transform="matrix(0.7071 -0.7071 0.7071 0.7071 408.0087 308.9097)" class="st4" width="129.1" height="0.7"/>
		</g>
		<g>
			
				<rect x="515.4" y="-338.4" transform="matrix(0.7071 -0.7071 0.7071 0.7071 408.9088 311.0827)" class="st4" width="129.1" height="0.7"/>
		</g>
		<g>
			
				<rect x="518.5" y="-338.4" transform="matrix(0.7071 -0.7071 0.7071 0.7071 409.8092 313.2564)" class="st4" width="129.1" height="0.7"/>
		</g>
		<g>
			
				<rect x="521.5" y="-338.4" transform="matrix(0.7071 -0.7071 0.7071 0.7071 410.7093 315.4294)" class="st4" width="129.1" height="0.7"/>
		</g>
		<g>
			
				<rect x="524.6" y="-338.4" transform="matrix(0.7071 -0.7071 0.7071 0.7071 411.6094 317.6026)" class="st4" width="129.1" height="0.7"/>
		</g>
		<g>
			
				<rect x="527.7" y="-338.4" transform="matrix(0.7071 -0.7071 0.7071 0.7071 412.5095 319.7756)" class="st4" width="129.1" height="0.7"/>
		</g>
		<g>
			
				<rect x="530.8" y="-338.4" transform="matrix(0.7071 -0.7071 0.7071 0.7071 413.4099 321.9493)" class="st4" width="129.1" height="0.7"/>
		</g>
		<g>
			
				<rect x="533.8" y="-338.4" transform="matrix(0.7071 -0.7071 0.7071 0.7071 414.31 324.1223)" class="st4" width="129.1" height="0.7"/>
		</g>
		<g>
			
				<rect x="536.9" y="-338.4" transform="matrix(0.7071 -0.7071 0.7071 0.7071 415.2101 326.2955)" class="st4" width="129.1" height="0.7"/>
		</g>
		<g>
			
				<rect x="540" y="-338.4" transform="matrix(0.7071 -0.7071 0.7071 0.7071 416.1102 328.4685)" class="st4" width="129.1" height="0.7"/>
		</g>
		<g>
			
				<rect x="543.1" y="-338.4" transform="matrix(0.7071 -0.7071 0.7071 0.7071 417.0104 330.6418)" class="st4" width="129.1" height="0.7"/>
		</g>
		<g>
			
				<rect x="546.1" y="-338.4" transform="matrix(0.7071 -0.7071 0.7071 0.7071 417.9107 332.8152)" class="st4" width="129.1" height="0.7"/>
		</g>
		<g>
			
				<rect x="549.2" y="-338.4" transform="matrix(0.7071 -0.7071 0.7071 0.7071 418.8108 334.9882)" class="st4" width="129.1" height="0.7"/>
		</g>
		<g>
			
				<rect x="552.3" y="-338.4" transform="matrix(0.7071 -0.7071 0.7071 0.7071 419.711 337.1615)" class="st4" width="129.1" height="0.7"/>
		</g>
		<g>
			
				<rect x="555.3" y="-338.4" transform="matrix(0.7071 -0.7071 0.7071 0.7071 420.6111 339.3345)" class="st4" width="129.1" height="0.7"/>
		</g>
		<g>
			
				<rect x="558.4" y="-338.4" transform="matrix(0.7071 -0.7071 0.7071 0.7071 421.5114 341.5081)" class="st4" width="129.1" height="0.7"/>
		</g>
		<g>
			
				<rect x="561.5" y="-338.4" transform="matrix(0.7071 -0.7071 0.7071 0.7071 422.4115 343.6812)" class="st4" width="129.1" height="0.7"/>
		</g>
		<g>
			
				<rect x="564.6" y="-338.4" transform="matrix(0.7071 -0.7071 0.7071 0.7071 423.3117 345.8544)" class="st4" width="129.1" height="0.7"/>
		</g>
		<g>
			
				<rect x="567.6" y="-338.4" transform="matrix(0.7071 -0.7071 0.7071 0.7071 424.2118 348.0274)" class="st4" width="129.1" height="0.7"/>
		</g>
		<g>
			
				<rect x="570.7" y="-338.4" transform="matrix(0.7071 -0.7071 0.7071 0.7071 425.1121 350.201)" class="st4" width="129.1" height="0.7"/>
		</g>
		<g>
			
				<rect x="573.8" y="-338.4" transform="matrix(0.7071 -0.7071 0.7071 0.7071 426.0122 352.3741)" class="st4" width="129.1" height="0.7"/>
		</g>
		<g>
			
				<rect x="576.9" y="-338.4" transform="matrix(0.7071 -0.7071 0.7071 0.7071 426.9124 354.5473)" class="st4" width="129.1" height="0.7"/>
		</g>
		<g>
			
				<rect x="579.9" y="-338.4" transform="matrix(0.7071 -0.7071 0.7071 0.7071 427.8125 356.7203)" class="st4" width="129.1" height="0.7"/>
		</g>
		<g>
			
				<rect x="583" y="-338.4" transform="matrix(0.7071 -0.7071 0.7071 0.7071 428.7127 358.8935)" class="st4" width="129.1" height="0.7"/>
		</g>
		<g>
			
				<rect x="586.1" y="-338.4" transform="matrix(0.7071 -0.7071 0.7071 0.7071 429.6129 361.067)" class="st4" width="129.1" height="0.7"/>
		</g>
		<g>
			
				<rect x="589.2" y="-338.4" transform="matrix(0.7071 -0.7071 0.7071 0.7071 430.5131 363.2402)" class="st4" width="129.1" height="0.7"/>
		</g>
		<g>
			
				<rect x="592.2" y="-338.4" transform="matrix(0.7071 -0.7071 0.7071 0.7071 431.4132 365.4132)" class="st4" width="129.1" height="0.7"/>
		</g>
		<g>
			
				<rect x="595.3" y="-338.4" transform="matrix(0.7071 -0.7071 0.7071 0.7071 432.3134 367.5864)" class="st4" width="129.1" height="0.7"/>
		</g>
		<g>
			
				<rect x="598.4" y="-338.4" transform="matrix(0.7071 -0.7071 0.7071 0.7071 433.2137 369.7599)" class="st4" width="129.1" height="0.7"/>
		</g>
		<g>
			
				<rect x="601.4" y="-338.4" transform="matrix(0.7071 -0.7071 0.7071 0.7071 434.1139 371.9331)" class="st4" width="129.1" height="0.7"/>
		</g>
		<g>
			
				<rect x="604.5" y="-338.4" transform="matrix(0.7071 -0.7071 0.7071 0.7071 435.0139 374.1061)" class="st4" width="129.1" height="0.7"/>
		</g>
		<g>
			
				<rect x="607.6" y="-338.4" transform="matrix(0.7071 -0.7071 0.7071 0.7071 435.914 376.2791)" class="st4" width="129.1" height="0.7"/>
		</g>
		<g>
			
				<rect x="610.7" y="-338.4" transform="matrix(0.7071 -0.7071 0.7071 0.7071 436.8143 378.4526)" class="st4" width="129.1" height="0.7"/>
		</g>
		<g>
			
				<rect x="613.7" y="-338.4" transform="matrix(0.7071 -0.7071 0.7071 0.7071 437.7146 380.626)" class="st4" width="129.1" height="0.7"/>
		</g>
		<g>
			
				<rect x="616.8" y="-338.4" transform="matrix(0.7071 -0.7071 0.7071 0.7071 438.6147 382.799)" class="st4" width="129.1" height="0.7"/>
		</g>
		<g>
			
				<rect x="619.9" y="-338.4" transform="matrix(0.7071 -0.7071 0.7071 0.7071 439.5147 384.972)" class="st4" width="129.1" height="0.7"/>
		</g>
		<g>
			
				<rect x="623" y="-338.4" transform="matrix(0.7071 -0.7071 0.7071 0.7071 440.415 387.1455)" class="st4" width="129.1" height="0.7"/>
		</g>
		<g>
			
				<rect x="626" y="-338.4" transform="matrix(0.7071 -0.7071 0.7071 0.7071 441.3153 389.3189)" class="st4" width="129.1" height="0.7"/>
		</g>
		<g>
			
				<rect x="629.1" y="-338.4" transform="matrix(0.7071 -0.7071 0.7071 0.7071 442.2154 391.4919)" class="st4" width="129.1" height="0.7"/>
		</g>
		<g>
			
				<rect x="632.2" y="-338.4" transform="matrix(0.7071 -0.7071 0.7071 0.7071 443.1155 393.6649)" class="st4" width="129.1" height="0.7"/>
		</g>
		<g>
			
				<rect x="635.3" y="-338.4" transform="matrix(0.7071 -0.7071 0.7071 0.7071 444.0156 395.838)" class="st4" width="129.1" height="0.7"/>
		</g>
		<g>
			
				<rect x="638.3" y="-338.4" transform="matrix(0.7071 -0.7071 0.7071 0.7071 444.916 398.0118)" class="st4" width="129.1" height="0.7"/>
		</g>
		<g>
			
				<rect x="641.4" y="-338.4" transform="matrix(0.7071 -0.7071 0.7071 0.7071 445.8161 400.1848)" class="st4" width="129.1" height="0.7"/>
		</g>
		<g>
			
				<rect x="644.5" y="-338.4" transform="matrix(0.7071 -0.7071 0.7071 0.7071 446.7162 402.3578)" class="st4" width="129.1" height="0.7"/>
		</g>
		<g>
			
				<rect x="647.5" y="-338.4" transform="matrix(0.7071 -0.7071 0.7071 0.7071 447.6163 404.5309)" class="st4" width="129.1" height="0.7"/>
		</g>
		<g>
			
				<rect x="650.6" y="-338.4" transform="matrix(0.7071 -0.7071 0.7071 0.7071 448.5165 406.7043)" class="st4" width="129.1" height="0.7"/>
		</g>
		<g>
			
				<rect x="653.7" y="-338.4" transform="matrix(0.7071 -0.7071 0.7071 0.7071 449.4168 408.8778)" class="st4" width="129.1" height="0.7"/>
		</g>
		<g>
			
				<rect x="656.8" y="-338.4" transform="matrix(0.7071 -0.7071 0.7071 0.7071 450.3169 411.0508)" class="st4" width="129.1" height="0.7"/>
		</g>
		<g>
			
				<rect x="659.8" y="-338.4" transform="matrix(0.7071 -0.7071 0.7071 0.7071 451.217 413.2238)" class="st4" width="129.1" height="0.7"/>
		</g>
		<g>
			
				<rect x="662.9" y="-338.4" transform="matrix(0.7071 -0.7071 0.7071 0.7071 452.1173 415.3972)" class="st4" width="129.1" height="0.7"/>
		</g>
		<g>
			
				<rect x="666" y="-338.4" transform="matrix(0.7071 -0.7071 0.7071 0.7071 453.0175 417.5707)" class="st4" width="129.1" height="0.7"/>
		</g>
		<g>
			
				<rect x="669.1" y="-338.4" transform="matrix(0.7071 -0.7071 0.7071 0.7071 453.9176 419.7437)" class="st4" width="129.1" height="0.7"/>
		</g>
		<g>
			
				<rect x="672.1" y="-338.4" transform="matrix(0.7071 -0.7071 0.7071 0.7071 454.8177 421.9167)" class="st4" width="129.1" height="0.7"/>
		</g>
		<g>
			
				<rect x="675.2" y="-338.4" transform="matrix(0.7071 -0.7071 0.7071 0.7071 455.718 424.0901)" class="st4" width="129.1" height="0.7"/>
		</g>
		<g>
			
				<rect x="678.3" y="-338.4" transform="matrix(0.7071 -0.7071 0.7071 0.7071 456.6183 426.2636)" class="st4" width="129.1" height="0.7"/>
		</g>
		<g>
			
				<rect x="681.4" y="-338.4" transform="matrix(0.7071 -0.7071 0.7071 0.7071 457.5183 428.4366)" class="st4" width="129.1" height="0.7"/>
		</g>
		<g>
			
				<rect x="684.4" y="-338.4" transform="matrix(0.7071 -0.7071 0.7071 0.7071 458.4184 430.6096)" class="st4" width="129.1" height="0.7"/>
		</g>
		<g>
			
				<rect x="687.5" y="-338.4" transform="matrix(0.7071 -0.7071 0.7071 0.7071 459.3185 432.7826)" class="st4" width="129.1" height="0.7"/>
		</g>
		<g>
			
				<rect x="690.6" y="-338.4" transform="matrix(0.7071 -0.7071 0.7071 0.7071 460.219 434.9565)" class="st4" width="129.1" height="0.7"/>
		</g>
		<g>
			
				<rect x="693.6" y="-338.4" transform="matrix(0.7071 -0.7071 0.7071 0.7071 461.1191 437.1295)" class="st4" width="129.1" height="0.7"/>
		</g>
		<g>
			
				<rect x="696.7" y="-338.4" transform="matrix(0.7071 -0.7071 0.7071 0.7071 462.0192 439.3025)" class="st4" width="129.1" height="0.7"/>
		</g>
	</g>
</g>
<g>
	<path class="st7" d="M509-333.3l6.5,8.9h-3.9l-6-8.6H505v8.6h-3.2v-21h3.7c2.8,0,4.8,0.5,6,1.6c1.4,1.2,2,2.7,2,4.6
		c0,1.5-0.4,2.8-1.3,3.8C511.5-334.3,510.4-333.6,509-333.3z M505-335.7h1c3,0,4.5-1.1,4.5-3.4c0-2.1-1.5-3.2-4.4-3.2H505V-335.7z"
		/>
	<path class="st7" d="M534.4-342.4H526v5h8.2v3H526v7h8.4v3h-11.6v-21h11.6V-342.4z"/>
	<path class="st7" d="M558.2-344.3v3.8c-1.8-1.5-3.7-2.3-5.7-2.3c-2.2,0-4,0.8-5.5,2.3c-1.5,1.5-2.2,3.4-2.2,5.7
		c0,2.2,0.7,4.1,2.2,5.6c1.5,1.5,3.3,2.3,5.5,2.3c1.1,0,2.1-0.2,2.8-0.5c0.4-0.2,0.9-0.4,1.4-0.7c0.5-0.3,1-0.7,1.5-1.1v3.8
		c-1.8,1-3.7,1.5-5.7,1.5c-3,0-5.6-1-7.7-3.1c-2.1-2.1-3.2-4.7-3.2-7.6c0-2.7,0.9-5.1,2.7-7.2c2.2-2.6,5-3.8,8.4-3.8
		C554.6-345.8,556.5-345.3,558.2-344.3z"/>
	<path class="st7" d="M565.2-335c0-3,1.1-5.5,3.2-7.6c2.2-2.1,4.8-3.2,7.8-3.2c3,0,5.6,1.1,7.7,3.2c2.1,2.1,3.2,4.7,3.2,7.7
		c0,3-1.1,5.6-3.2,7.7c-2.2,2.1-4.8,3.2-7.8,3.2c-2.7,0-5.1-0.9-7.3-2.8C566.4-328.9,565.2-331.6,565.2-335z M568.4-334.9
		c0,2.3,0.8,4.2,2.3,5.7c1.6,1.5,3.3,2.2,5.4,2.2c2.2,0,4.1-0.8,5.6-2.3c1.5-1.5,2.3-3.4,2.3-5.6c0-2.2-0.7-4.1-2.2-5.6
		c-1.5-1.5-3.3-2.3-5.5-2.3c-2.2,0-4,0.8-5.5,2.3C569.2-339,568.4-337.2,568.4-334.9z"/>
	<path class="st7" d="M595.3-324.4v-22.4l15.3,16v-14.6h3.2v22.3l-15.3-16v14.7H595.3z"/>
	<path class="st7" d="M626.2-337.2h9.1v-8.2h3.2v21h-3.2v-9.8h-9.1v9.8H623v-21h3.2V-337.2z"/>
	<path class="st7" d="M659.2-342.4h-8.4v5h8.2v3h-8.2v7h8.4v3h-11.6v-21h11.6V-342.4z"/>
	<path class="st7" d="M683.1-344.3v3.8c-1.8-1.5-3.7-2.3-5.7-2.3c-2.2,0-4,0.8-5.5,2.3c-1.5,1.5-2.2,3.4-2.2,5.7
		c0,2.2,0.7,4.1,2.2,5.6c1.5,1.5,3.3,2.3,5.5,2.3c1.1,0,2.1-0.2,2.8-0.5c0.4-0.2,0.9-0.4,1.4-0.7c0.5-0.3,1-0.7,1.5-1.1v3.8
		c-1.8,1-3.7,1.5-5.7,1.5c-3,0-5.6-1-7.7-3.1c-2.1-2.1-3.2-4.7-3.2-7.6c0-2.7,0.9-5.1,2.7-7.2c2.2-2.6,5-3.8,8.4-3.8
		C679.5-345.8,681.3-345.3,683.1-344.3z"/>
	<path class="st7" d="M702.8-342.4h-8.4v5h8.2v3h-8.2v7h8.4v3h-11.6v-21h11.6V-342.4z"/>
	<path class="st7" d="M718.3-333.3l6.5,8.9h-3.9l-6-8.6h-0.6v8.6h-3.2v-21h3.7c2.8,0,4.8,0.5,6,1.6c1.4,1.2,2,2.7,2,4.6
		c0,1.5-0.4,2.8-1.3,3.8C720.8-334.3,719.7-333.6,718.3-333.3z M714.3-335.7h1c3,0,4.5-1.1,4.5-3.4c0-2.1-1.5-3.2-4.4-3.2h-1.1
		V-335.7z"/>
	<path class="st7" d="M732.3-325.9c0-0.5,0.2-0.9,0.6-1.3c0.4-0.4,0.8-0.6,1.3-0.6c0.5,0,1,0.2,1.3,0.6c0.4,0.4,0.6,0.8,0.6,1.3
		c0,0.5-0.2,1-0.6,1.3c-0.4,0.4-0.8,0.5-1.3,0.5c-0.5,0-1-0.2-1.3-0.5C732.5-324.9,732.3-325.4,732.3-325.9z M732.7-329.1v-16.3h3.1
		v16.3H732.7z"/>
</g>
<g>
	<path class="st7" d="M527.5-206.9v18h6.2v3h-9.3v-21H527.5z"/>
	<path class="st7" d="M552.5-203.9h-8.4v5h8.2v3h-8.2v7h8.4v3h-11.6v-21h11.6V-203.9z"/>
	<path class="st7" d="M571.6-196.8h8.7v0.7c0,1.6-0.2,3-0.6,4.2c-0.4,1.1-1,2.2-1.8,3.2c-1.9,2.2-4.4,3.3-7.4,3.3
		c-2.9,0-5.5-1.1-7.5-3.2c-2.1-2.1-3.1-4.7-3.1-7.7c0-3,1.1-5.6,3.2-7.8c2.1-2.1,4.7-3.2,7.8-3.2c1.6,0,3.2,0.3,4.6,1
		c1.4,0.7,2.7,1.8,4,3.3l-2.3,2.2c-1.7-2.3-3.8-3.4-6.3-3.4c-2.2,0-4.1,0.8-5.6,2.3c-1.5,1.5-2.3,3.4-2.3,5.7c0,2.3,0.8,4.3,2.5,5.8
		c1.6,1.4,3.3,2.1,5.1,2.1c1.6,0,3-0.5,4.2-1.6c1.2-1.1,1.9-2.3,2.1-3.8h-5.2V-196.8z"/>
	<path class="st7" d="M599.8-191h-9l-2.3,5.1h-3.4l10.4-22.3l10,22.3H602L599.8-191z M598.5-194l-3.1-7.1l-3.3,7.1H598.5z"/>
	<path class="st7" d="M615.5-206.9v18h6.2v3h-9.3v-21H615.5z"/>
	<path class="st7" d="M632-206.9v21h-3.2v-21H632z"/>
	<path class="st7" d="M644.9-188.9h10.1v3h-15.3l10.3-18h-8.6v-3h13.8L644.9-188.9z"/>
	<path class="st7" d="M675.1-191h-9l-2.3,5.1h-3.4l10.4-22.3l10,22.3h-3.5L675.1-191z M673.8-194l-3.1-7.1l-3.3,7.1H673.8z"/>
	<path class="st7" d="M694.7-194.8l6.5,8.9h-3.9l-6-8.6h-0.6v8.6h-3.2v-21h3.7c2.8,0,4.8,0.5,6,1.6c1.4,1.2,2,2.7,2,4.6
		c0,1.5-0.4,2.8-1.3,3.8C697.2-195.8,696.1-195.1,694.7-194.8z M690.8-197.2h1c3,0,4.5-1.1,4.5-3.4c0-2.1-1.5-3.2-4.4-3.2h-1.1
		V-197.2z"/>
	<path class="st7" d="M708.8-187.4c0-0.5,0.2-0.9,0.6-1.3c0.4-0.4,0.8-0.6,1.3-0.6s1,0.2,1.3,0.6c0.4,0.4,0.6,0.8,0.6,1.3
		c0,0.5-0.2,1-0.6,1.3c-0.4,0.4-0.8,0.5-1.3,0.5c-0.5,0-1-0.2-1.3-0.5S708.8-186.9,708.8-187.4z M709.1-190.6v-16.3h3.1v16.3H709.1z
		"/>
</g>
<g>
	<path class="st7" d="M533.7-255.1v21h-3.2v-21H533.7z"/>
	<path class="st7" d="M543-234.1v-22.4l15.3,16v-14.6h3.2v22.3l-15.3-16v14.7H543z"/>
	<path class="st7" d="M576.4-252.1v18h-3.2v-18h-4.8v-3h12.8v3H576.4z"/>
	<path class="st7" d="M599.8-252.1h-8.4v5h8.2v3h-8.2v7h8.4v3h-11.6v-21h11.6V-252.1z"/>
	<path class="st7" d="M619-245h8.7v0.7c0,1.6-0.2,3-0.6,4.2c-0.4,1.1-1,2.2-1.8,3.2c-1.9,2.2-4.4,3.3-7.4,3.3
		c-2.9,0-5.5-1.1-7.5-3.2c-2.1-2.1-3.1-4.7-3.1-7.7c0-3,1.1-5.6,3.2-7.8c2.1-2.1,4.7-3.2,7.8-3.2c1.6,0,3.2,0.3,4.6,1
		c1.4,0.7,2.7,1.8,4,3.3l-2.3,2.2c-1.7-2.3-3.8-3.4-6.3-3.4c-2.2,0-4.1,0.8-5.6,2.3c-1.5,1.5-2.3,3.4-2.3,5.7c0,2.3,0.8,4.3,2.5,5.8
		c1.6,1.4,3.3,2.1,5.1,2.1c1.6,0,3-0.5,4.2-1.6c1.2-1.1,1.9-2.3,2.1-3.8H619V-245z"/>
	<path class="st7" d="M642.9-243l6.5,8.9h-3.9l-6-8.6H639v8.6h-3.2v-21h3.7c2.8,0,4.8,0.5,6,1.6c1.4,1.2,2,2.7,2,4.6
		c0,1.5-0.4,2.8-1.3,3.8S644.3-243.3,642.9-243z M639-245.5h1c3,0,4.5-1.1,4.5-3.4c0-2.1-1.5-3.2-4.4-3.2H639V-245.5z"/>
	<path class="st7" d="M669.1-239.2h-9l-2.3,5.1h-3.4l10.4-22.3l10,22.3h-3.5L669.1-239.2z M667.8-242.2l-3.1-7.1l-3.3,7.1H667.8z"/>
	<path class="st7" d="M688.7-243l6.5,8.9h-3.9l-6-8.6h-0.6v8.6h-3.2v-21h3.7c2.8,0,4.8,0.5,6,1.6c1.4,1.2,2,2.7,2,4.6
		c0,1.5-0.4,2.8-1.3,3.8S690.1-243.3,688.7-243z M684.7-245.5h1c3,0,4.5-1.1,4.5-3.4c0-2.1-1.5-3.2-4.4-3.2h-1.1V-245.5z"/>
	<path class="st7" d="M702.7-235.6c0-0.5,0.2-0.9,0.6-1.3c0.4-0.4,0.8-0.6,1.3-0.6s1,0.2,1.3,0.6c0.4,0.4,0.6,0.8,0.6,1.3
		c0,0.5-0.2,1-0.6,1.3c-0.4,0.4-0.8,0.5-1.3,0.5c-0.5,0-1-0.2-1.3-0.5C702.9-234.6,702.7-235.1,702.7-235.6z M703.1-238.8v-16.3h3.1
		v16.3H703.1z"/>
</g>
<g>
	<g>
		<path class="st8" d="M40.5,1.6v17.1h5.8v2.8h-8.8V1.6H40.5z"/>
		<path class="st8" d="M64.1,4.4h-8v4.8h7.7V12h-7.7v6.6h8v2.8h-11V1.6h11V4.4z"/>
		<path class="st8" d="M82.2,11.1h8.2v0.7c0,1.5-0.2,2.8-0.5,4c-0.3,1.1-0.9,2.1-1.7,3c-1.8,2.1-4.2,3.1-7,3.1c-2.8,0-5.2-1-7.1-3
			c-2-2-3-4.4-3-7.3c0-2.9,1-5.3,3-7.3c2-2,4.5-3,7.4-3c1.6,0,3,0.3,4.3,1c1.3,0.6,2.6,1.7,3.8,3.1l-2.1,2c-1.6-2.2-3.6-3.3-6-3.3
			c-2.1,0-3.9,0.7-5.3,2.2C74.7,7.7,74,9.4,74,11.6c0,2.2,0.8,4,2.4,5.5c1.5,1.3,3.1,2,4.8,2c1.5,0,2.8-0.5,4-1.5
			c1.2-1,1.8-2.2,2-3.6h-5V11.1z"/>
		<path class="st8" d="M108.9,16.7h-8.5l-2.2,4.8H95l9.8-21.1l9.5,21.1H111L108.9,16.7z M107.7,13.8l-2.9-6.8l-3.1,6.8H107.7z"/>
		<path class="st8" d="M123.7,1.6v17.1h5.8v2.8h-8.8V1.6H123.7z"/>
		<path class="st8" d="M139.4,1.6v19.9h-3V1.6H139.4z"/>
		<path class="st8" d="M151.5,18.7h9.5v2.8h-14.5l9.8-17.1h-8.2V1.6h13.1L151.5,18.7z"/>
		<path class="st8" d="M180.2,16.7h-8.5l-2.2,4.8h-3.2l9.8-21.1l9.5,21.1h-3.3L180.2,16.7z M179,13.8L176,7.1l-3.1,6.8H179z"/>
		<path class="st8" d="M198.7,13l6.2,8.5h-3.7l-5.7-8.1H195v8.1h-3V1.6h3.5c2.6,0,4.5,0.5,5.7,1.5c1.3,1.1,1.9,2.5,1.9,4.4
			c0,1.4-0.4,2.6-1.2,3.6C201.1,12.1,200.1,12.7,198.7,13z M195,10.7h1c2.8,0,4.3-1.1,4.3-3.3c0-2-1.4-3.1-4.1-3.1H195V10.7z"/>
		<path class="st8" d="M212,20c0-0.5,0.2-0.9,0.5-1.2c0.4-0.4,0.8-0.5,1.3-0.5s0.9,0.2,1.3,0.5c0.4,0.4,0.5,0.8,0.5,1.3
			c0,0.5-0.2,0.9-0.5,1.3c-0.3,0.3-0.8,0.5-1.3,0.5c-0.5,0-0.9-0.2-1.3-0.5C212.2,21,212,20.6,212,20z M212.4,17.1V1.6h2.9v15.4
			H212.4z"/>
	</g>
</g>
<g>
	<rect x="-123.8" y="111.1" class="st10" width="602.4" height="29.8"/>
	
		<text transform="matrix(1 0 0 1 91.7101 132.8008)" class="st8" style="font-family:'Futura-Medium'; font-size:26.358px; letter-spacing:3;">INTEGRAR!</text>
</g>
<g>
	<defs>
		<path id="SVGID_11_" d="M671.4,284.1c0-0.4,0.1-0.7,0.4-1s0.6-0.4,1-0.4s0.7,0.1,1,0.4s0.4,0.6,0.4,1c0,0.4-0.1,0.7-0.4,1
			c-0.3,0.3-0.6,0.4-1,0.4c-0.4,0-0.7-0.1-1-0.4S671.4,284.5,671.4,284.1z M671.7,281.7v-12.3h2.3v12.3H671.7z"/>
	</defs>
	<clipPath id="SVGID_12_">
		<use xlink:href="#SVGID_11_"  style="overflow:visible;"/>
	</clipPath>
	<path class="st9" d="M503,278.5l4.9,6.7h-2.9l-4.5-6.5H500v6.5h-2.4v-15.8h2.8c2.1,0,3.6,0.4,4.5,1.2c1,0.9,1.5,2,1.5,3.5
		c0,1.1-0.3,2.1-1,2.9S504,278.3,503,278.5z M500,276.7h0.8c2.3,0,3.4-0.9,3.4-2.6c0-1.6-1.1-2.4-3.3-2.4H500V276.7z"/>
	<path class="st9" d="M522.1,271.7h-6.3v3.8h6.2v2.2h-6.2v5.3h6.3v2.2h-8.7v-15.8h8.7V271.7z"/>
	<path class="st9" d="M540.1,270.3v2.8c-1.4-1.2-2.8-1.7-4.3-1.7c-1.6,0-3,0.6-4.1,1.8c-1.1,1.2-1.7,2.6-1.7,4.3
		c0,1.7,0.6,3.1,1.7,4.2c1.1,1.1,2.5,1.7,4.1,1.7c0.8,0,1.6-0.1,2.1-0.4c0.3-0.1,0.7-0.3,1-0.6c0.4-0.2,0.7-0.5,1.1-0.8v2.9
		c-1.4,0.8-2.8,1.2-4.3,1.2c-2.3,0-4.2-0.8-5.8-2.4c-1.6-1.6-2.4-3.5-2.4-5.8c0-2,0.7-3.8,2-5.4c1.6-1.9,3.8-2.9,6.4-2.9
		C537.4,269.1,538.8,269.5,540.1,270.3z"/>
	<path class="st9" d="M545.4,277.3c0-2.2,0.8-4.1,2.5-5.7c1.6-1.6,3.6-2.4,5.9-2.4c2.3,0,4.2,0.8,5.8,2.4c1.6,1.6,2.4,3.6,2.4,5.8
		c0,2.3-0.8,4.2-2.4,5.8c-1.6,1.6-3.6,2.4-5.9,2.4c-2,0-3.9-0.7-5.5-2.1C546.3,281.9,545.4,279.8,545.4,277.3z M547.8,277.3
		c0,1.8,0.6,3.2,1.8,4.3c1.2,1.1,2.5,1.7,4,1.7c1.7,0,3.1-0.6,4.2-1.7c1.1-1.2,1.7-2.6,1.7-4.2c0-1.7-0.6-3.1-1.7-4.2
		c-1.1-1.1-2.5-1.7-4.2-1.7c-1.6,0-3,0.6-4.2,1.7C548.4,274.2,547.8,275.6,547.8,277.3z"/>
	<path class="st9" d="M568.1,285.3v-16.9l11.5,12.1v-11h2.4v16.8l-11.5-12v11.1H568.1z"/>
	<path class="st9" d="M591.4,275.6h6.8v-6.2h2.4v15.8h-2.4v-7.4h-6.8v7.4H589v-15.8h2.4V275.6z"/>
	<path class="st9" d="M616.3,271.7h-6.3v3.8h6.2v2.2h-6.2v5.3h6.3v2.2h-8.7v-15.8h8.7V271.7z"/>
	<path class="st9" d="M634.2,270.3v2.8c-1.4-1.2-2.8-1.7-4.3-1.7c-1.6,0-3,0.6-4.1,1.8c-1.1,1.2-1.7,2.6-1.7,4.3
		c0,1.7,0.6,3.1,1.7,4.2c1.1,1.1,2.5,1.7,4.1,1.7c0.8,0,1.6-0.1,2.1-0.4c0.3-0.1,0.7-0.3,1-0.6c0.4-0.2,0.7-0.5,1.1-0.8v2.9
		c-1.4,0.8-2.8,1.2-4.3,1.2c-2.3,0-4.2-0.8-5.8-2.4c-1.6-1.6-2.4-3.5-2.4-5.8c0-2,0.7-3.8,2-5.4c1.6-1.9,3.8-2.9,6.4-2.9
		C631.5,269.1,632.9,269.5,634.2,270.3z"/>
	<path class="st9" d="M649.1,271.7h-6.3v3.8h6.2v2.2h-6.2v5.3h6.3v2.2h-8.7v-15.8h8.7V271.7z"/>
	<path class="st9" d="M660.8,278.5l4.9,6.7h-2.9l-4.5-6.5h-0.4v6.5h-2.4v-15.8h2.8c2.1,0,3.6,0.4,4.5,1.2c1,0.9,1.5,2,1.5,3.5
		c0,1.1-0.3,2.1-1,2.9S661.9,278.3,660.8,278.5z M657.8,276.7h0.8c2.3,0,3.4-0.9,3.4-2.6c0-1.6-1.1-2.4-3.3-2.4h-0.9V276.7z"/>
</g>
<rect y="-46.1" class="st10" width="253.7" height="16"/>
</svg>
