<?xml version="1.0" encoding="utf-8"?>
<!-- Generator: Adobe Illustrator 19.2.0, SVG Export Plug-In . SVG Version: 6.00 Build 0)  -->
<svg version="1.1" id="Layer_1" xmlns="http://www.w3.org/2000/svg" xmlns:xlink="http://www.w3.org/1999/xlink" x="0px" y="0px"
	 viewBox="0 0 617.6 105.9" style="enable-background:new 0 0 617.6 105.9;" xml:space="preserve">
<style type="text/css">
	.st0{display:none;}
	.st1{display:inline;stroke:#FFFFFF;stroke-width:2;stroke-miterlimit:10;}
	.st2{fill:#FFFFFF;stroke:#FFFFFF;stroke-width:2;stroke-miterlimit:10;}
	.st3{clip-path:url(#SVGID_2_);}
	.st4{fill:#FFFFFF;}
</style>
<g id="Layer_2_1_">
</g>
<g id="Layer_2" class="st0">
	<rect y="-223.2" class="st1" width="617.6" height="853.8"/>
</g>
<g>
	<g>
		<path class="st2" d="M167.5,49.6v3.7c-1.8-1.5-3.7-2.3-5.6-2.3c-2.1,0-3.9,0.8-5.4,2.3c-1.5,1.5-2.2,3.4-2.2,5.6s0.7,4.1,2.2,5.5
			c1.5,1.5,3.3,2.2,5.4,2.2c1.1,0,2-0.2,2.8-0.5c0.4-0.2,0.9-0.4,1.3-0.7c0.4-0.3,0.9-0.7,1.5-1.1v3.8c-1.8,1-3.7,1.5-5.6,1.5
			c-3,0-5.5-1-7.6-3.1c-2.1-2.1-3.1-4.6-3.1-7.6c0-2.6,0.9-5,2.6-7.1c2.1-2.5,4.9-3.8,8.4-3.8C163.9,48.1,165.7,48.6,167.5,49.6z"/>
		<path class="st2" d="M174.4,58.8c0-2.9,1.1-5.4,3.2-7.6c2.1-2.1,4.7-3.2,7.7-3.2c3,0,5.5,1,7.6,3.2c2.1,2.1,3.2,4.7,3.2,7.7
			s-1.1,5.5-3.2,7.6c-2.1,2.1-4.8,3.1-7.8,3.1c-2.7,0-5.1-0.9-7.2-2.8C175.6,64.8,174.4,62.1,174.4,58.8z M177.6,58.8
			c0,2.3,0.8,4.2,2.3,5.7c1.5,1.5,3.3,2.2,5.3,2.2c2.2,0,4.1-0.8,5.5-2.2c1.5-1.5,2.2-3.4,2.2-5.6c0-2.2-0.8-4.1-2.2-5.6
			c-1.5-1.5-3.3-2.2-5.5-2.2s-4,0.8-5.5,2.2C178.3,54.8,177.6,56.6,177.6,58.8z"/>
		<path class="st2" d="M207.4,48.5v17.8h6.1v3h-9.3V48.5C204.2,48.5,207.4,48.5,207.4,48.5z"/>
		<path class="st2" d="M232.1,51.4h-8.3v5h8.1v3h-8.1v7h8.3v3h-11.5V48.5h11.5V51.4z"/>
		<path class="st2" d="M246.1,51.4v17.8H243V51.4h-4.8v-3h12.7v3H246.1z"/>
		<path class="st2" d="M260.9,48.5v20.8h-3.1V48.5C257.8,48.5,260.9,48.5,260.9,48.5z"/>
		<path class="st2" d="M271.1,48.5l5.7,14.4l5.8-14.4h3.4l-9.4,22.4l-9.1-22.4C267.6,48.5,271.1,48.5,271.1,48.5z"/>
		<path class="st2" d="M290.9,58.8c0-2.9,1.1-5.4,3.2-7.6c2.1-2.1,4.7-3.2,7.7-3.2c3,0,5.5,1,7.6,3.2c2.1,2.1,3.2,4.7,3.2,7.7
			s-1.1,5.5-3.2,7.6c-2.1,2.1-4.8,3.1-7.8,3.1c-2.7,0-5.1-0.9-7.2-2.8C292.1,64.8,290.9,62.1,290.9,58.8z M294.1,58.8
			c0,2.3,0.8,4.2,2.3,5.7c1.5,1.5,3.3,2.2,5.3,2.2c2.2,0,4.1-0.8,5.5-2.2c1.5-1.5,2.2-3.4,2.2-5.6c0-2.2-0.8-4.1-2.2-5.6
			s-3.3-2.2-5.5-2.2c-2.2,0-4,0.8-5.5,2.2C294.8,54.8,294.1,56.6,294.1,58.8z"/>
		<path class="st2" d="M343.8,51.4h-7.2v5h7v3h-7v9.9h-3.1V48.5h10.4L343.8,51.4L343.8,51.4z"/>
		<path class="st2" d="M362.4,64.2h-8.9l-2.3,5h-3.4l10.3-22.1l9.9,22.1h-3.4L362.4,64.2z M361.1,61.3l-3.1-7.1l-3.2,7.1H361.1z"/>
		<path class="st2" d="M374.2,48.5l5.7,14.4l5.9-14.4h3.4l-9.4,22.4l-9.1-22.4C370.7,48.5,374.2,48.5,374.2,48.5z"/>
		<path class="st2" d="M407.4,51.4h-8.3v5h8.1v3h-8.1v7h8.3v3h-11.5V48.5h11.5V51.4z"/>
		<path class="st2" d="M418.8,48.5v17.8h6.1v3h-9.3V48.5C415.7,48.5,418.8,48.5,418.8,48.5z"/>
		<path class="st2" d="M445.4,64.2h-8.9l-2.3,5h-3.4l10.3-22.1l9.9,22.1h-3.4L445.4,64.2z M444.1,61.3l-3.1-7.1l-3.2,7.1H444.1z"/>
	</g>
	<g>
		<g>
			<g>
				<defs>
					<path id="SVGID_1_" d="M164.5,51.2v3.7c-1.8-1.5-3.7-2.3-5.6-2.3c-2.1,0-3.9,0.8-5.4,2.3c-1.5,1.5-2.2,3.4-2.2,5.6
						c0,2.2,0.7,4.1,2.2,5.5c1.5,1.5,3.3,2.2,5.4,2.2c1.1,0,2-0.2,2.8-0.5c0.4-0.2,0.9-0.4,1.3-0.7c0.4-0.3,0.9-0.7,1.5-1.1v3.8
						c-1.8,1-3.6,1.6-5.6,1.6c-3,0-5.5-1-7.6-3.1c-2.1-2.1-3.2-4.7-3.2-7.6c0-2.6,0.9-5,2.6-7.1c2.1-2.5,4.9-3.8,8.4-3.8
						C160.9,49.6,162.7,50.2,164.5,51.2z M171.4,60.4c0-2.9,1.1-5.4,3.2-7.6c2.1-2.1,4.7-3.2,7.7-3.2c3,0,5.5,1,7.6,3.2
						c2.1,2.1,3.2,4.7,3.2,7.7s-1.1,5.5-3.2,7.6c-2.1,2.1-4.7,3.2-7.8,3.2c-2.7,0-5.1-0.9-7.2-2.8C172.6,66.4,171.4,63.7,171.4,60.4
						z M174.6,60.4c0,2.3,0.8,4.2,2.3,5.7c1.5,1.5,3.3,2.2,5.3,2.2c2.2,0,4.1-0.8,5.5-2.2c1.5-1.5,2.2-3.4,2.2-5.6
						c0-2.2-0.8-4.1-2.2-5.6c-1.5-1.5-3.3-2.2-5.5-2.2s-4,0.8-5.5,2.2C175.3,56.4,174.6,58.2,174.6,60.4z M204.4,50.1v17.8h6.1v3
						h-9.3V50.1H204.4z M229,53h-8.3v5h8.1v3h-8.1v7h8.3v3h-11.5V50.1H229V53z M243.1,53v17.8h-3.1V53h-4.8v-3h12.7v3H243.1z
						 M257.9,50.1v20.8h-3.1V50.1H257.9z M268.1,50.1l5.7,14.4l5.9-14.4h3.4l-9.4,22.4l-9.1-22.4H268.1z M287.9,60.4
						c0-2.9,1.1-5.4,3.2-7.6c2.1-2.1,4.7-3.2,7.7-3.2c3,0,5.5,1,7.6,3.2c2.1,2.1,3.2,4.7,3.2,7.7s-1.1,5.5-3.2,7.6
						c-2.1,2.1-4.8,3.1-7.8,3.1c-2.7,0-5.1-0.9-7.2-2.8C289.1,66.4,287.9,63.7,287.9,60.4z M291.1,60.4c0,2.3,0.8,4.2,2.3,5.7
						c1.5,1.5,3.3,2.2,5.3,2.2c2.2,0,4.1-0.8,5.5-2.2c1.5-1.5,2.2-3.4,2.2-5.6c0-2.2-0.8-4.1-2.2-5.6c-1.5-1.5-3.3-2.2-5.5-2.2
						c-2.2,0-4,0.8-5.5,2.2C291.8,56.4,291.1,58.2,291.1,60.4z M340.8,53h-7.2v5h7v3h-7v9.9h-3.1V50.1h10.4L340.8,53L340.8,53z
						 M359.4,65.8h-8.9l-2.3,5h-3.4l10.3-22.1l9.9,22.1h-3.4L359.4,65.8z M358.1,62.8l-3.1-7.1l-3.2,7.1H358.1z M371.2,50.1
						l5.7,14.4l5.9-14.4h3.4l-9.4,22.3L367.7,50L371.2,50.1L371.2,50.1L371.2,50.1z M404.4,53h-8.3v5h8.1v3h-8.1v7h8.3v3h-11.5V50.1
						h11.5V53z M415.8,50.1v17.8h6.1v3h-9.3V50.1H415.8z M442.4,65.8h-8.9l-2.3,5h-3.4l10.3-22.1l9.9,22.2h-3.4L442.4,65.8z
						 M441.1,62.8l-3.1-7.1l-3.2,7.1H441.1z"/>
				</defs>
				<clipPath id="SVGID_2_">
					<use xlink:href="#SVGID_1_"  style="overflow:visible;"/>
				</clipPath>
				<g class="st3">
					<g>
						
							<rect x="65.1" y="65.7" transform="matrix(0.7078 -0.7065 0.7065 0.7078 -8.1727 112.0563)" class="st4" width="132.5" height="0.4"/>
					</g>
					<g>
						
							<rect x="67" y="65.7" transform="matrix(0.7078 -0.7065 0.7065 0.7078 -7.6301 113.3707)" class="st4" width="132.5" height="0.4"/>
					</g>
					<g>
						
							<rect x="68.8" y="65.7" transform="matrix(0.7078 -0.7065 0.7065 0.7078 -7.0875 114.6851)" class="st4" width="132.5" height="0.4"/>
					</g>
					<g>
						
							<rect x="70.7" y="65.7" transform="matrix(0.7078 -0.7065 0.7065 0.7078 -6.545 115.9995)" class="st4" width="132.5" height="0.4"/>
					</g>
					<g>
						
							<rect x="72.6" y="65.7" transform="matrix(0.7078 -0.7065 0.7065 0.7078 -6.0024 117.3139)" class="st4" width="132.5" height="0.4"/>
					</g>
					<g>
						
							<rect x="74.4" y="65.7" transform="matrix(0.7078 -0.7065 0.7065 0.7078 -5.4598 118.6283)" class="st4" width="132.5" height="0.4"/>
					</g>
					<g>
						
							<rect x="76.3" y="65.7" transform="matrix(0.7078 -0.7065 0.7065 0.7078 -4.9172 119.9427)" class="st4" width="132.5" height="0.4"/>
					</g>
					<g>
						
							<rect x="78.1" y="65.7" transform="matrix(0.7078 -0.7065 0.7065 0.7078 -4.3747 121.2571)" class="st4" width="132.5" height="0.4"/>
					</g>
					<g>
						
							<rect x="80" y="65.7" transform="matrix(0.7078 -0.7065 0.7065 0.7078 -3.8321 122.5715)" class="st4" width="132.5" height="0.4"/>
					</g>
					<g>
						
							<rect x="81.9" y="65.7" transform="matrix(0.7078 -0.7065 0.7065 0.7078 -3.2895 123.8858)" class="st4" width="132.5" height="0.4"/>
					</g>
					<g>
						
							<rect x="83.7" y="65.7" transform="matrix(0.7078 -0.7065 0.7065 0.7078 -2.747 125.2002)" class="st4" width="132.5" height="0.4"/>
					</g>
					<g>
						
							<rect x="85.6" y="65.7" transform="matrix(0.7078 -0.7065 0.7065 0.7078 -2.2044 126.5146)" class="st4" width="132.5" height="0.4"/>
					</g>
					<g>
						
							<rect x="87.4" y="65.7" transform="matrix(0.7078 -0.7065 0.7065 0.7078 -1.6618 127.829)" class="st4" width="132.5" height="0.4"/>
					</g>
					<g>
						
							<rect x="89.3" y="65.7" transform="matrix(0.7078 -0.7065 0.7065 0.7078 -1.1192 129.1435)" class="st4" width="132.5" height="0.4"/>
					</g>
					<g>
						
							<rect x="91.2" y="65.7" transform="matrix(0.7078 -0.7065 0.7065 0.7078 -0.5767 130.4578)" class="st4" width="132.5" height="0.4"/>
					</g>
					<g>
						
							<rect x="93" y="65.7" transform="matrix(0.7078 -0.7065 0.7065 0.7078 -3.405053e-02 131.7722)" class="st4" width="132.5" height="0.4"/>
					</g>
					<g>
						
							<rect x="94.9" y="65.7" transform="matrix(0.7078 -0.7065 0.7065 0.7078 0.5471 133.1347)" class="st4" width="132.5" height="0.4"/>
					</g>
					<g>
						
							<rect x="96.8" y="65.7" transform="matrix(0.7078 -0.7065 0.7065 0.7078 1.0897 134.4491)" class="st4" width="132.5" height="0.4"/>
					</g>
					<g>
						
							<rect x="98.7" y="65.7" transform="matrix(0.7078 -0.7065 0.7065 0.7078 1.6323 135.7635)" class="st4" width="132.5" height="0.4"/>
					</g>
					<g>
						
							<rect x="100.5" y="65.7" transform="matrix(0.7078 -0.7065 0.7065 0.7078 2.1748 137.0779)" class="st4" width="132.5" height="0.4"/>
					</g>
					<g>
						
							<rect x="102.4" y="65.7" transform="matrix(0.7078 -0.7065 0.7065 0.7078 2.7174 138.3923)" class="st4" width="132.5" height="0.4"/>
					</g>
					<g>
						
							<rect x="104.2" y="65.7" transform="matrix(0.7078 -0.7065 0.7065 0.7078 3.26 139.7067)" class="st4" width="132.5" height="0.4"/>
					</g>
					<g>
						
							<rect x="106.1" y="65.7" transform="matrix(0.7078 -0.7065 0.7065 0.7078 3.8026 141.0211)" class="st4" width="132.5" height="0.4"/>
					</g>
					<g>
						
							<rect x="108" y="65.7" transform="matrix(0.7078 -0.7065 0.7065 0.7078 4.3451 142.3355)" class="st4" width="132.5" height="0.4"/>
					</g>
					<g>
						
							<rect x="109.8" y="65.7" transform="matrix(0.7078 -0.7065 0.7065 0.7078 4.8877 143.6499)" class="st4" width="132.5" height="0.4"/>
					</g>
					<g>
						
							<rect x="111.7" y="65.7" transform="matrix(0.7078 -0.7065 0.7065 0.7078 5.4303 144.9642)" class="st4" width="132.5" height="0.4"/>
					</g>
					<g>
						
							<rect x="113.5" y="65.7" transform="matrix(0.7078 -0.7065 0.7065 0.7078 5.9729 146.2787)" class="st4" width="132.5" height="0.4"/>
					</g>
					<g>
						
							<rect x="115.4" y="65.7" transform="matrix(0.7078 -0.7065 0.7065 0.7078 6.5155 147.5931)" class="st4" width="132.5" height="0.4"/>
					</g>
					<g>
						
							<rect x="117.3" y="65.7" transform="matrix(0.7078 -0.7065 0.7065 0.7078 7.0581 148.9074)" class="st4" width="132.5" height="0.4"/>
					</g>
					<g>
						
							<rect x="119.1" y="65.7" transform="matrix(0.7078 -0.7065 0.7065 0.7078 7.6005 150.2218)" class="st4" width="132.5" height="0.4"/>
					</g>
					<g>
						
							<rect x="121" y="65.7" transform="matrix(0.7078 -0.7065 0.7065 0.7078 8.1432 151.5362)" class="st4" width="132.5" height="0.4"/>
					</g>
					<g>
						
							<rect x="122.8" y="65.7" transform="matrix(0.7078 -0.7065 0.7065 0.7078 8.6858 152.8506)" class="st4" width="132.5" height="0.4"/>
					</g>
					<g>
						
							<rect x="124.7" y="65.7" transform="matrix(0.7078 -0.7065 0.7065 0.7078 9.283 154.1744)" class="st4" width="132.5" height="0.4"/>
					</g>
					<g>
						
							<rect x="126.6" y="65.7" transform="matrix(0.7078 -0.7065 0.7065 0.7078 9.8095 155.5275)" class="st4" width="132.5" height="0.4"/>
					</g>
					<g>
						
							<rect x="128.5" y="65.7" transform="matrix(0.7078 -0.7065 0.7065 0.7078 10.3521 156.8419)" class="st4" width="132.5" height="0.4"/>
					</g>
					<g>
						
							<rect x="130.4" y="65.7" transform="matrix(0.7078 -0.7065 0.7065 0.7078 10.8947 158.1563)" class="st4" width="132.5" height="0.4"/>
					</g>
					<g>
						
							<rect x="132.2" y="65.7" transform="matrix(0.7078 -0.7065 0.7065 0.7078 11.4373 159.4707)" class="st4" width="132.5" height="0.4"/>
					</g>
					<g>
						
							<rect x="134.1" y="65.7" transform="matrix(0.7078 -0.7065 0.7065 0.7078 11.9798 160.785)" class="st4" width="132.5" height="0.4"/>
					</g>
					<g>
						
							<rect x="135.9" y="65.7" transform="matrix(0.7078 -0.7065 0.7065 0.7078 12.5224 162.0995)" class="st4" width="132.5" height="0.4"/>
					</g>
					<g>
						
							<rect x="137.8" y="65.7" transform="matrix(0.7078 -0.7065 0.7065 0.7078 13.065 163.4139)" class="st4" width="132.5" height="0.4"/>
					</g>
					<g>
						
							<rect x="139.7" y="65.7" transform="matrix(0.7078 -0.7065 0.7065 0.7078 13.6075 164.7282)" class="st4" width="132.5" height="0.4"/>
					</g>
					<g>
						
							<rect x="141.5" y="65.7" transform="matrix(0.7078 -0.7065 0.7065 0.7078 14.1501 166.0427)" class="st4" width="132.5" height="0.4"/>
					</g>
					<g>
						
							<rect x="143.4" y="65.7" transform="matrix(0.7078 -0.7065 0.7065 0.7078 14.6927 167.357)" class="st4" width="132.5" height="0.4"/>
					</g>
					<g>
						
							<rect x="145.2" y="65.7" transform="matrix(0.7078 -0.7065 0.7065 0.7078 15.2353 168.6715)" class="st4" width="132.5" height="0.4"/>
					</g>
					<g>
						
							<rect x="147.1" y="65.7" transform="matrix(0.7078 -0.7065 0.7065 0.7078 15.7778 169.9858)" class="st4" width="132.5" height="0.4"/>
					</g>
					<g>
						
							<rect x="149" y="65.7" transform="matrix(0.7078 -0.7065 0.7065 0.7078 16.3204 171.3002)" class="st4" width="132.5" height="0.4"/>
					</g>
					<g>
						
							<rect x="150.8" y="65.7" transform="matrix(0.7078 -0.7065 0.7065 0.7078 16.863 172.6147)" class="st4" width="132.5" height="0.4"/>
					</g>
					<g>
						
							<rect x="152.7" y="65.7" transform="matrix(0.7078 -0.7065 0.7065 0.7078 17.4602 173.9385)" class="st4" width="132.5" height="0.4"/>
					</g>
					<g>
						
							<rect x="154.6" y="65.7" transform="matrix(0.7078 -0.7065 0.7065 0.7078 18.0028 175.2528)" class="st4" width="132.5" height="0.4"/>
					</g>
					<g>
						
							<rect x="156.5" y="65.7" transform="matrix(0.7078 -0.7065 0.7065 0.7078 18.5293 176.6059)" class="st4" width="132.5" height="0.4"/>
					</g>
					<g>
						
							<rect x="158.3" y="65.7" transform="matrix(0.7078 -0.7065 0.7065 0.7078 19.0719 177.9203)" class="st4" width="132.5" height="0.4"/>
					</g>
					<g>
						
							<rect x="160.2" y="65.7" transform="matrix(0.7078 -0.7065 0.7065 0.7078 19.6145 179.2347)" class="st4" width="132.5" height="0.4"/>
					</g>
					<g>
						
							<rect x="162.1" y="65.7" transform="matrix(0.7078 -0.7065 0.7065 0.7078 20.157 180.5491)" class="st4" width="132.5" height="0.4"/>
					</g>
					<g>
						
							<rect x="163.9" y="65.7" transform="matrix(0.7078 -0.7065 0.7065 0.7078 20.6996 181.8635)" class="st4" width="132.5" height="0.4"/>
					</g>
					<g>
						
							<rect x="165.8" y="65.7" transform="matrix(0.7078 -0.7065 0.7065 0.7078 21.2422 183.1778)" class="st4" width="132.5" height="0.4"/>
					</g>
					<g>
						
							<rect x="167.6" y="65.7" transform="matrix(0.7078 -0.7065 0.7065 0.7078 21.7848 184.4922)" class="st4" width="132.5" height="0.4"/>
					</g>
					<g>
						
							<rect x="169.5" y="65.7" transform="matrix(0.7078 -0.7065 0.7065 0.7078 22.3273 185.8067)" class="st4" width="132.5" height="0.4"/>
					</g>
					<g>
						
							<rect x="171.4" y="65.7" transform="matrix(0.7078 -0.7065 0.7065 0.7078 22.8699 187.1211)" class="st4" width="132.5" height="0.4"/>
					</g>
					<g>
						
							<rect x="173.2" y="65.7" transform="matrix(0.7078 -0.7065 0.7065 0.7078 23.4125 188.4354)" class="st4" width="132.5" height="0.4"/>
					</g>
					<g>
						
							<rect x="175.1" y="65.7" transform="matrix(0.7078 -0.7065 0.7065 0.7078 23.955 189.7498)" class="st4" width="132.5" height="0.4"/>
					</g>
					<g>
						
							<rect x="176.9" y="65.7" transform="matrix(0.7078 -0.7065 0.7065 0.7078 24.4976 191.0642)" class="st4" width="132.5" height="0.4"/>
					</g>
					<g>
						
							<rect x="178.8" y="65.7" transform="matrix(0.7078 -0.7065 0.7065 0.7078 25.0402 192.3786)" class="st4" width="132.5" height="0.4"/>
					</g>
					<g>
						
							<rect x="180.7" y="65.7" transform="matrix(0.7078 -0.7065 0.7065 0.7078 25.5828 193.693)" class="st4" width="132.5" height="0.4"/>
					</g>
					<g>
						
							<rect x="182.6" y="65.7" transform="matrix(0.7078 -0.7065 0.7065 0.7078 26.18 195.0168)" class="st4" width="132.5" height="0.4"/>
					</g>
					<g>
						
							<rect x="184.4" y="65.7" transform="matrix(0.7078 -0.7065 0.7065 0.7078 26.7226 196.3312)" class="st4" width="132.5" height="0.4"/>
					</g>
					<g>
						
							<rect x="186.3" y="65.7" transform="matrix(0.7078 -0.7065 0.7065 0.7078 27.2491 197.6843)" class="st4" width="132.5" height="0.4"/>
					</g>
					<g>
						
							<rect x="188.2" y="65.7" transform="matrix(0.7078 -0.7065 0.7065 0.7078 27.7918 198.9987)" class="st4" width="132.5" height="0.4"/>
					</g>
					<g>
						
							<rect x="190" y="65.7" transform="matrix(0.7078 -0.7065 0.7065 0.7078 28.3343 200.313)" class="st4" width="132.5" height="0.4"/>
					</g>
					<g>
						
							<rect x="191.9" y="65.7" transform="matrix(0.7078 -0.7065 0.7065 0.7078 28.8769 201.6275)" class="st4" width="132.5" height="0.4"/>
					</g>
					<g>
						
							<rect x="193.8" y="65.7" transform="matrix(0.7078 -0.7065 0.7065 0.7078 29.4195 202.9419)" class="st4" width="132.5" height="0.4"/>
					</g>
					<g>
						
							<rect x="195.6" y="65.7" transform="matrix(0.7078 -0.7065 0.7065 0.7078 29.962 204.2562)" class="st4" width="132.5" height="0.4"/>
					</g>
					<g>
						
							<rect x="197.5" y="65.7" transform="matrix(0.7078 -0.7065 0.7065 0.7078 30.5046 205.5706)" class="st4" width="132.5" height="0.4"/>
					</g>
					<g>
						
							<rect x="199.3" y="65.7" transform="matrix(0.7078 -0.7065 0.7065 0.7078 31.0472 206.8851)" class="st4" width="132.5" height="0.4"/>
					</g>
					<g>
						
							<rect x="201.2" y="65.7" transform="matrix(0.7078 -0.7065 0.7065 0.7078 31.5897 208.1994)" class="st4" width="132.5" height="0.4"/>
					</g>
					<g>
						
							<rect x="203.1" y="65.7" transform="matrix(0.7078 -0.7065 0.7065 0.7078 32.1323 209.5138)" class="st4" width="132.5" height="0.4"/>
					</g>
					<g>
						
							<rect x="204.9" y="65.7" transform="matrix(0.7078 -0.7065 0.7065 0.7078 32.6749 210.8282)" class="st4" width="132.5" height="0.4"/>
					</g>
					<g>
						
							<rect x="206.8" y="65.7" transform="matrix(0.7078 -0.7065 0.7065 0.7078 33.2174 212.1426)" class="st4" width="132.5" height="0.4"/>
					</g>
					<g>
						
							<rect x="208.6" y="65.7" transform="matrix(0.7078 -0.7065 0.7065 0.7078 33.7601 213.457)" class="st4" width="132.5" height="0.4"/>
					</g>
					<g>
						
							<rect x="210.5" y="65.7" transform="matrix(0.7078 -0.7065 0.7065 0.7078 34.3026 214.7714)" class="st4" width="132.5" height="0.4"/>
					</g>
					<g>
						
							<rect x="212.4" y="65.7" transform="matrix(0.7078 -0.7065 0.7065 0.7078 34.8998 216.0952)" class="st4" width="132.5" height="0.4"/>
					</g>
					<g>
						
							<rect x="214.3" y="65.7" transform="matrix(0.7078 -0.7065 0.7065 0.7078 35.4424 217.4096)" class="st4" width="132.5" height="0.4"/>
					</g>
					<g>
						
							<rect x="216.2" y="65.7" transform="matrix(0.7078 -0.7065 0.7065 0.7078 35.969 218.7627)" class="st4" width="132.5" height="0.4"/>
					</g>
					<g>
						
							<rect x="218" y="65.7" transform="matrix(0.7078 -0.7065 0.7065 0.7078 36.5114 220.077)" class="st4" width="132.5" height="0.4"/>
					</g>
					<g>
						
							<rect x="219.9" y="65.7" transform="matrix(0.7078 -0.7065 0.7065 0.7078 37.0541 221.3914)" class="st4" width="132.5" height="0.4"/>
					</g>
					<g>
						
							<rect x="221.7" y="65.7" transform="matrix(0.7078 -0.7065 0.7065 0.7078 37.5967 222.7059)" class="st4" width="132.5" height="0.4"/>
					</g>
					<g>
						
							<rect x="223.6" y="65.7" transform="matrix(0.7078 -0.7065 0.7065 0.7078 38.1393 224.0202)" class="st4" width="132.5" height="0.4"/>
					</g>
					<g>
						
							<rect x="225.5" y="65.7" transform="matrix(0.7078 -0.7065 0.7065 0.7078 38.6818 225.3346)" class="st4" width="132.5" height="0.4"/>
					</g>
					<g>
						
							<rect x="227.3" y="65.7" transform="matrix(0.7078 -0.7065 0.7065 0.7078 39.2244 226.649)" class="st4" width="132.5" height="0.4"/>
					</g>
					<g>
						
							<rect x="229.2" y="65.7" transform="matrix(0.7078 -0.7065 0.7065 0.7078 39.767 227.9635)" class="st4" width="132.5" height="0.4"/>
					</g>
					<g>
						
							<rect x="231" y="65.7" transform="matrix(0.7078 -0.7065 0.7065 0.7078 40.3095 229.2778)" class="st4" width="132.5" height="0.4"/>
					</g>
					<g>
						
							<rect x="232.9" y="65.7" transform="matrix(0.7078 -0.7065 0.7065 0.7078 40.8521 230.5923)" class="st4" width="132.5" height="0.4"/>
					</g>
					<g>
						
							<rect x="234.8" y="65.7" transform="matrix(0.7078 -0.7065 0.7065 0.7078 41.3948 231.9066)" class="st4" width="132.5" height="0.4"/>
					</g>
					<g>
						
							<rect x="236.6" y="65.7" transform="matrix(0.7078 -0.7065 0.7065 0.7078 41.9373 233.221)" class="st4" width="132.5" height="0.4"/>
					</g>
					<g>
						
							<rect x="238.5" y="65.7" transform="matrix(0.7078 -0.7065 0.7065 0.7078 42.4798 234.5354)" class="st4" width="132.5" height="0.4"/>
					</g>
					<g>
						
							<rect x="240.4" y="65.7" transform="matrix(0.7078 -0.7065 0.7065 0.7078 43.0772 235.8593)" class="st4" width="132.5" height="0.4"/>
					</g>
					<g>
						
							<rect x="242.2" y="65.7" transform="matrix(0.7078 -0.7065 0.7065 0.7078 43.6196 237.1736)" class="st4" width="132.5" height="0.4"/>
					</g>
					<g>
						
							<rect x="244.1" y="65.7" transform="matrix(0.7078 -0.7065 0.7065 0.7078 44.1623 238.488)" class="st4" width="132.5" height="0.4"/>
					</g>
					<g>
						
							<rect x="246" y="65.7" transform="matrix(0.7078 -0.7065 0.7065 0.7078 44.6888 239.8411)" class="st4" width="132.5" height="0.4"/>
					</g>
					<g>
						
							<rect x="247.9" y="65.7" transform="matrix(0.7078 -0.7065 0.7065 0.7078 45.2313 241.1554)" class="st4" width="132.5" height="0.4"/>
					</g>
					<g>
						
							<rect x="249.7" y="65.7" transform="matrix(0.7078 -0.7065 0.7065 0.7078 45.7739 242.4698)" class="st4" width="132.5" height="0.4"/>
					</g>
					<g>
						
							<rect x="251.6" y="65.7" transform="matrix(0.7078 -0.7065 0.7065 0.7078 46.3165 243.7843)" class="st4" width="132.5" height="0.4"/>
					</g>
					<g>
						
							<rect x="253.4" y="65.7" transform="matrix(0.7078 -0.7065 0.7065 0.7078 46.859 245.0986)" class="st4" width="132.5" height="0.4"/>
					</g>
					<g>
						
							<rect x="255.3" y="65.7" transform="matrix(0.7078 -0.7065 0.7065 0.7078 47.4016 246.413)" class="st4" width="132.5" height="0.4"/>
					</g>
					<g>
						
							<rect x="257.2" y="65.7" transform="matrix(0.7078 -0.7065 0.7065 0.7078 47.9442 247.7274)" class="st4" width="132.5" height="0.4"/>
					</g>
					<g>
						
							<rect x="259" y="65.7" transform="matrix(0.7078 -0.7065 0.7065 0.7078 48.4869 249.0419)" class="st4" width="132.5" height="0.4"/>
					</g>
					<g>
						
							<rect x="260.9" y="65.7" transform="matrix(0.7078 -0.7065 0.7065 0.7078 49.0294 250.3562)" class="st4" width="132.5" height="0.4"/>
					</g>
					<g>
						
							<rect x="262.7" y="65.7" transform="matrix(0.7078 -0.7065 0.7065 0.7078 49.5719 251.6706)" class="st4" width="132.5" height="0.4"/>
					</g>
					<g>
						
							<rect x="264.6" y="65.7" transform="matrix(0.7078 -0.7065 0.7065 0.7078 50.1146 252.985)" class="st4" width="132.5" height="0.4"/>
					</g>
					<g>
						
							<rect x="266.5" y="65.7" transform="matrix(0.7078 -0.7065 0.7065 0.7078 50.657 254.2994)" class="st4" width="132.5" height="0.4"/>
					</g>
					<g>
						
							<rect x="268.3" y="65.7" transform="matrix(0.7078 -0.7065 0.7065 0.7078 51.1997 255.6138)" class="st4" width="132.5" height="0.4"/>
					</g>
					<g>
						
							<rect x="270.2" y="65.7" transform="matrix(0.7078 -0.7065 0.7065 0.7078 51.797 256.9377)" class="st4" width="132.5" height="0.4"/>
					</g>
					<g>
						
							<rect x="272.1" y="65.7" transform="matrix(0.7078 -0.7065 0.7065 0.7078 52.3395 258.252)" class="st4" width="132.5" height="0.4"/>
					</g>
					<g>
						
							<rect x="273.9" y="65.7" transform="matrix(0.7078 -0.7065 0.7065 0.7078 52.882 259.5664)" class="st4" width="132.5" height="0.4"/>
					</g>
					<g>
						
							<rect x="275.8" y="65.7" transform="matrix(0.7078 -0.7065 0.7065 0.7078 53.4086 260.9195)" class="st4" width="132.5" height="0.4"/>
					</g>
					<g>
						
							<rect x="277.7" y="65.7" transform="matrix(0.7078 -0.7065 0.7065 0.7078 53.9511 262.2338)" class="st4" width="132.5" height="0.4"/>
					</g>
					<g>
						
							<rect x="279.5" y="65.7" transform="matrix(0.7071 -0.7071 0.7071 0.7071 54.6662 263.8011)" class="st4" width="132.5" height="0.4"/>
					</g>
					<g>
						
							<rect x="281.4" y="65.7" transform="matrix(0.7071 -0.7071 0.7071 0.7071 55.21 265.1166)" class="st4" width="132.5" height="0.4"/>
					</g>
					<g>
						
							<rect x="283.3" y="65.7" transform="matrix(0.7071 -0.7071 0.7071 0.7071 55.7536 266.4321)" class="st4" width="132.5" height="0.4"/>
					</g>
					<g>
						
							<rect x="285.1" y="65.7" transform="matrix(0.7071 -0.7071 0.7071 0.7071 56.2973 267.7476)" class="st4" width="132.5" height="0.4"/>
					</g>
					<g>
						
							<rect x="287" y="65.7" transform="matrix(0.7071 -0.7071 0.7071 0.7071 56.841 269.0631)" class="st4" width="132.5" height="0.4"/>
					</g>
					<g>
						
							<rect x="288.8" y="65.7" transform="matrix(0.7071 -0.7071 0.7071 0.7071 57.3847 270.3785)" class="st4" width="132.5" height="0.4"/>
					</g>
					<g>
						
							<rect x="290.7" y="65.7" transform="matrix(0.7071 -0.7071 0.7071 0.7071 57.9283 271.694)" class="st4" width="132.5" height="0.4"/>
					</g>
					<g>
						
							<rect x="292.5" y="65.7" transform="matrix(0.7071 -0.7071 0.7071 0.7071 58.4721 273.0095)" class="st4" width="132.5" height="0.4"/>
					</g>
					<g>
						
							<rect x="294.4" y="65.7" transform="matrix(0.7071 -0.7071 0.7071 0.7071 59.0158 274.3251)" class="st4" width="132.5" height="0.4"/>
					</g>
					<g>
						
							<rect x="296.3" y="65.7" transform="matrix(0.7071 -0.7071 0.7071 0.7071 59.5594 275.6405)" class="st4" width="132.5" height="0.4"/>
					</g>
					<g>
						
							<rect x="298.1" y="65.7" transform="matrix(0.7071 -0.7071 0.7071 0.7071 60.1031 276.956)" class="st4" width="132.5" height="0.4"/>
					</g>
					<g>
						
							<rect x="300.1" y="65.7" transform="matrix(0.7071 -0.7071 0.7071 0.7071 60.6856 278.3196)" class="st4" width="132.5" height="0.4"/>
					</g>
					<g>
						
							<rect x="301.9" y="65.7" transform="matrix(0.7071 -0.7071 0.7071 0.7071 61.2291 279.6351)" class="st4" width="132.5" height="0.4"/>
					</g>
					<g>
						
							<rect x="303.8" y="65.7" transform="matrix(0.7071 -0.7071 0.7071 0.7071 61.7729 280.9506)" class="st4" width="132.5" height="0.4"/>
					</g>
					<g>
						
							<rect x="305.6" y="65.7" transform="matrix(0.7071 -0.7071 0.7071 0.7071 62.3166 282.2661)" class="st4" width="132.5" height="0.4"/>
					</g>
					<g>
						
							<rect x="307.5" y="65.7" transform="matrix(0.7071 -0.7071 0.7071 0.7071 62.8603 283.5815)" class="st4" width="132.5" height="0.4"/>
					</g>
					<g>
						
							<rect x="309.4" y="65.7" transform="matrix(0.7071 -0.7071 0.7071 0.7071 63.4039 284.897)" class="st4" width="132.5" height="0.4"/>
					</g>
					<g>
						
							<rect x="311.2" y="65.7" transform="matrix(0.7071 -0.7071 0.7071 0.7071 63.9477 286.2125)" class="st4" width="132.5" height="0.4"/>
					</g>
					<g>
						
							<rect x="313.1" y="65.7" transform="matrix(0.7071 -0.7071 0.7071 0.7071 64.4914 287.528)" class="st4" width="132.5" height="0.4"/>
					</g>
					<g>
						
							<rect x="314.9" y="65.7" transform="matrix(0.7071 -0.7071 0.7071 0.7071 65.035 288.8435)" class="st4" width="132.5" height="0.4"/>
					</g>
					<g>
						
							<rect x="316.8" y="65.7" transform="matrix(0.7071 -0.7071 0.7071 0.7071 65.5787 290.159)" class="st4" width="132.5" height="0.4"/>
					</g>
					<g>
						
							<rect x="318.7" y="65.7" transform="matrix(0.7071 -0.7071 0.7071 0.7071 66.1224 291.4745)" class="st4" width="132.5" height="0.4"/>
					</g>
					<g>
						
							<rect x="320.5" y="65.7" transform="matrix(0.7071 -0.7071 0.7071 0.7071 66.666 292.7899)" class="st4" width="132.5" height="0.4"/>
					</g>
					<g>
						
							<rect x="322.4" y="65.7" transform="matrix(0.7071 -0.7071 0.7071 0.7071 67.2098 294.1055)" class="st4" width="132.5" height="0.4"/>
					</g>
					<g>
						
							<rect x="324.2" y="65.7" transform="matrix(0.7071 -0.7071 0.7071 0.7071 67.7534 295.4209)" class="st4" width="132.5" height="0.4"/>
					</g>
					<g>
						
							<rect x="326.1" y="65.7" transform="matrix(0.7071 -0.7071 0.7071 0.7071 68.2971 296.7365)" class="st4" width="132.5" height="0.4"/>
					</g>
					<g>
						
							<rect x="328" y="65.7" transform="matrix(0.7071 -0.7071 0.7071 0.7071 68.8795 298.1)" class="st4" width="132.5" height="0.4"/>
					</g>
					<g>
						
							<rect x="329.9" y="65.7" transform="matrix(0.7071 -0.7071 0.7071 0.7071 69.4232 299.4155)" class="st4" width="132.5" height="0.4"/>
					</g>
					<g>
						
							<rect x="331.8" y="65.7" transform="matrix(0.7071 -0.7071 0.7071 0.7071 69.9668 300.731)" class="st4" width="132.5" height="0.4"/>
					</g>
					<g>
						
							<rect x="333.6" y="65.7" transform="matrix(0.7071 -0.7071 0.7071 0.7071 70.5106 302.0465)" class="st4" width="132.5" height="0.4"/>
					</g>
					<g>
						
							<rect x="335.5" y="65.7" transform="matrix(0.7071 -0.7071 0.7071 0.7071 71.0543 303.362)" class="st4" width="132.5" height="0.4"/>
					</g>
					<g>
						
							<rect x="337.3" y="65.7" transform="matrix(0.7071 -0.7071 0.7071 0.7071 71.5979 304.6774)" class="st4" width="132.5" height="0.4"/>
					</g>
					<g>
						
							<rect x="339.2" y="65.7" transform="matrix(0.7071 -0.7071 0.7071 0.7071 72.1416 305.993)" class="st4" width="132.5" height="0.4"/>
					</g>
					<g>
						
							<rect x="341.1" y="65.7" transform="matrix(0.7071 -0.7071 0.7071 0.7071 72.6854 307.3085)" class="st4" width="132.5" height="0.4"/>
					</g>
					<g>
						
							<rect x="342.9" y="65.7" transform="matrix(0.7071 -0.7071 0.7071 0.7071 73.229 308.624)" class="st4" width="132.5" height="0.4"/>
					</g>
					<g>
						
							<rect x="344.8" y="65.7" transform="matrix(0.7071 -0.7071 0.7071 0.7071 73.7727 309.9394)" class="st4" width="132.5" height="0.4"/>
					</g>
					<g>
						
							<rect x="346.6" y="65.7" transform="matrix(0.7071 -0.7071 0.7071 0.7071 74.3164 311.2549)" class="st4" width="132.5" height="0.4"/>
					</g>
					<g>
						
							<rect x="348.5" y="65.7" transform="matrix(0.7071 -0.7071 0.7071 0.7071 74.8601 312.5704)" class="st4" width="132.5" height="0.4"/>
					</g>
					<g>
						
							<rect x="350.4" y="65.7" transform="matrix(0.7071 -0.7071 0.7071 0.7071 75.4037 313.8859)" class="st4" width="132.5" height="0.4"/>
					</g>
					<g>
						
							<rect x="352.2" y="65.7" transform="matrix(0.7071 -0.7071 0.7071 0.7071 75.9475 315.2014)" class="st4" width="132.5" height="0.4"/>
					</g>
					<g>
						
							<rect x="354.1" y="65.7" transform="matrix(0.7071 -0.7071 0.7071 0.7071 76.4911 316.5169)" class="st4" width="132.5" height="0.4"/>
					</g>
					<g>
						
							<rect x="355.9" y="65.7" transform="matrix(0.7071 -0.7071 0.7071 0.7071 77.0347 317.8323)" class="st4" width="132.5" height="0.4"/>
					</g>
					<g>
						
							<rect x="357.9" y="65.7" transform="matrix(0.7071 -0.7071 0.7071 0.7071 77.6172 319.196)" class="st4" width="132.5" height="0.4"/>
					</g>
					<g>
						
							<rect x="359.7" y="65.7" transform="matrix(0.7071 -0.7071 0.7071 0.7071 78.1609 320.5114)" class="st4" width="132.5" height="0.4"/>
					</g>
					<g>
						
							<rect x="361.6" y="65.7" transform="matrix(0.7071 -0.7071 0.7071 0.7071 78.7045 321.8269)" class="st4" width="132.5" height="0.4"/>
					</g>
					<g>
						
							<rect x="363.5" y="65.7" transform="matrix(0.7071 -0.7071 0.7071 0.7071 79.2483 323.1424)" class="st4" width="132.5" height="0.4"/>
					</g>
					<g>
						
							<rect x="365.3" y="65.7" transform="matrix(0.7071 -0.7071 0.7071 0.7071 79.7919 324.4579)" class="st4" width="132.5" height="0.4"/>
					</g>
					<g>
						
							<rect x="367.2" y="65.7" transform="matrix(0.7071 -0.7071 0.7071 0.7071 80.3355 325.7733)" class="st4" width="132.5" height="0.4"/>
					</g>
					<g>
						
							<rect x="369" y="65.7" transform="matrix(0.7071 -0.7071 0.7071 0.7071 80.8793 327.0889)" class="st4" width="132.5" height="0.4"/>
					</g>
					<g>
						
							<rect x="370.9" y="65.7" transform="matrix(0.7071 -0.7071 0.7071 0.7071 81.4231 328.4044)" class="st4" width="132.5" height="0.4"/>
					</g>
					<g>
						
							<rect x="372.8" y="65.7" transform="matrix(0.7071 -0.7071 0.7071 0.7071 81.9666 329.7198)" class="st4" width="132.5" height="0.4"/>
					</g>
					<g>
						
							<rect x="374.6" y="65.7" transform="matrix(0.7071 -0.7071 0.7071 0.7071 82.5103 331.0354)" class="st4" width="132.5" height="0.4"/>
					</g>
					<g>
						
							<rect x="376.5" y="65.7" transform="matrix(0.7071 -0.7071 0.7071 0.7071 83.0541 332.3509)" class="st4" width="132.5" height="0.4"/>
					</g>
					<g>
						
							<rect x="378.3" y="65.7" transform="matrix(0.7071 -0.7071 0.7071 0.7071 83.5978 333.6664)" class="st4" width="132.5" height="0.4"/>
					</g>
					<g>
						
							<rect x="380.2" y="65.7" transform="matrix(0.7071 -0.7071 0.7071 0.7071 84.1414 334.9818)" class="st4" width="132.5" height="0.4"/>
					</g>
					<g>
						
							<rect x="382.1" y="65.7" transform="matrix(0.7071 -0.7071 0.7071 0.7071 84.6852 336.2973)" class="st4" width="132.5" height="0.4"/>
					</g>
					<g>
						
							<rect x="383.9" y="65.7" transform="matrix(0.7071 -0.7071 0.7071 0.7071 85.2288 337.6128)" class="st4" width="132.5" height="0.4"/>
					</g>
					<g>
						
							<rect x="385.8" y="65.7" transform="matrix(0.7071 -0.7071 0.7071 0.7071 85.8112 338.9764)" class="st4" width="132.5" height="0.4"/>
					</g>
					<g>
						
							<rect x="387.7" y="65.7" transform="matrix(0.7071 -0.7071 0.7071 0.7071 86.3549 340.2919)" class="st4" width="132.5" height="0.4"/>
					</g>
					<g>
						
							<rect x="389.6" y="65.7" transform="matrix(0.7071 -0.7071 0.7071 0.7071 86.8986 341.6074)" class="st4" width="132.5" height="0.4"/>
					</g>
					<g>
						
							<rect x="391.4" y="65.7" transform="matrix(0.7071 -0.7071 0.7071 0.7071 87.4422 342.9229)" class="st4" width="132.5" height="0.4"/>
					</g>
					<g>
						
							<rect x="393.3" y="65.7" transform="matrix(0.7071 -0.7071 0.7071 0.7071 87.9859 344.2383)" class="st4" width="132.5" height="0.4"/>
					</g>
				</g>
			</g>
		</g>
	</g>
	<g id="Layer_3">
		<g>
			<path class="st4" d="M175.5,86.3l1.9,2.6h-1.1l-1.8-2.5h-0.2v2.5h-0.9v-6.2h1.1c0.8,0,1.4,0.2,1.8,0.4c0.4,0.3,0.6,0.8,0.6,1.4
				c0,0.4-0.1,0.8-0.4,1.1S175.8,86.2,175.5,86.3z M174.3,85.6h0.3c0.9,0,1.3-0.3,1.3-1c0-0.7-0.4-0.9-1.3-0.9h-0.3L174.3,85.6
				L174.3,85.6z"/>
			<path class="st4" d="M183.3,83.6h-2.5v1.5h2.4V86h-2.4v2.1h2.5v0.9h-3.4v-6.2h3.4V83.6z"/>
			<path class="st4" d="M190.8,83.1v1.1c-0.5-0.4-1.1-0.7-1.7-0.7c-0.7,0-1.1,0.2-1.6,0.7c-0.4,0.4-0.7,1-0.7,1.6s0.2,1.2,0.7,1.6
				s1,0.7,1.6,0.7c0.3,0,0.6-0.1,0.8-0.2c0.1-0.1,0.3-0.1,0.4-0.2s0.3-0.2,0.4-0.3v1.1c-0.5,0.3-1.1,0.4-1.7,0.4
				c-0.9,0-1.6-0.3-2.2-0.9c-0.6-0.6-0.9-1.4-0.9-2.2c0-0.8,0.3-1.5,0.8-2.1c0.7-0.8,1.5-1.1,2.5-1.1
				C189.7,82.6,190.3,82.7,190.8,83.1z"/>
			<path class="st4" d="M193.2,85.8c0-0.9,0.3-1.6,1-2.2c0.7-0.6,1.4-0.9,2.3-0.9s1.6,0.3,2.2,0.9c0.7,0.7,0.9,1.4,0.9,2.3
				c0,0.9-0.3,1.6-0.9,2.2c-0.7,0.6-1.4,0.9-2.3,0.9c-0.8,0-1.5-0.3-2.1-0.8C193.6,87.6,193.2,86.8,193.2,85.8z M194.2,85.8
				c0,0.7,0.2,1.3,0.7,1.7c0.4,0.4,1,0.7,1.6,0.7c0.7,0,1.2-0.2,1.6-0.7c0.4-0.4,0.7-1,0.7-1.6c0-0.7-0.2-1.2-0.7-1.6
				s-1-0.7-1.6-0.7c-0.7,0-1.2,0.2-1.6,0.7C194.4,84.6,194.2,85.2,194.2,85.8z"/>
			<path class="st4" d="M202.6,88.9v-6.6L207,87v-4.3h0.9v6.6l-4.5-4.7v4.3H202.6z"/>
			<path class="st4" d="M212.1,85.2h2.7v-2.4h0.9v6.2h-0.9V86h-2.7v2.9h-0.9v-6.2h0.9V85.2z"/>
			<path class="st4" d="M222.2,83.6h-2.5v1.5h2.4V86h-2.4v2.1h2.5v0.9h-3.4v-6.2h3.4V83.6z"/>
			<path class="st4" d="M229.6,83.1v1.1c-0.5-0.4-1.1-0.7-1.7-0.7c-0.7,0-1.1,0.2-1.6,0.7c-0.4,0.4-0.7,1-0.7,1.6s0.2,1.2,0.7,1.6
				c0.4,0.4,1,0.7,1.6,0.7c0.3,0,0.6-0.1,0.8-0.2c0.1-0.1,0.3-0.1,0.4-0.2s0.3-0.2,0.4-0.3v1.1c-0.5,0.3-1.1,0.4-1.7,0.4
				c-0.9,0-1.6-0.3-2.2-0.9c-0.6-0.6-0.9-1.4-0.9-2.2c0-0.8,0.3-1.5,0.8-2.1c0.7-0.8,1.5-1.1,2.5-1.1
				C228.6,82.6,229.1,82.7,229.6,83.1z"/>
			<path class="st4" d="M235.9,83.6h-2.5v1.5h2.4V86h-2.4v2.1h2.5v0.9h-3.4v-6.2h3.4V83.6z"/>
			<path class="st4" d="M240.9,86.3l1.9,2.6h-1.1l-1.8-2.5h-0.2v2.5h-0.9v-6.2h1.1c0.8,0,1.4,0.2,1.8,0.4c0.4,0.3,0.6,0.8,0.6,1.4
				c0,0.4-0.1,0.8-0.4,1.1S241.3,86.2,240.9,86.3z M239.7,85.6h0.3c0.9,0,1.3-0.3,1.3-1c0-0.7-0.4-0.9-1.3-0.9h-0.3L239.7,85.6
				L239.7,85.6z"/>
			<path class="st4" d="M245.4,88.5c0-0.2,0.1-0.3,0.2-0.4s0.2-0.2,0.4-0.2s0.3,0.1,0.4,0.2c0.1,0.1,0.2,0.2,0.2,0.4
				c0,0.2-0.1,0.3-0.2,0.4c-0.1,0.1-0.2,0.2-0.4,0.2s-0.3-0.1-0.4-0.2S245.4,88.6,245.4,88.5z M245.5,87.6v-4.8h0.9v4.8H245.5z"/>
			<path class="st4" d="M279.8,82.7v5.3h1.8v0.9h-2.7v-6.2H279.8z"/>
			<path class="st4" d="M287.6,83.6h-2.5v1.5h2.4V86h-2.4v2.1h2.5v0.9h-3.4v-6.2h3.4V83.6z"/>
			<path class="st4" d="M293.7,85.7h2.6v0.2c0,0.4-0.1,0.9-0.2,1.3c-0.1,0.3-0.3,0.7-0.5,0.9c-0.5,0.7-1.3,1-2.2,1s-1.6-0.3-2.2-0.9
				c-0.6-0.6-0.9-1.4-0.9-2.2c0-0.9,0.3-1.6,0.9-2.3c0.6-0.6,1.4-0.9,2.3-0.9c0.5,0,0.9,0.1,1.4,0.3c0.4,0.2,0.8,0.5,1.2,1l-0.7,0.7
				c-0.5-0.7-1.1-1-1.9-1c-0.7,0-1.2,0.2-1.6,0.7c-0.4,0.4-0.7,1-0.7,1.6c0,0.7,0.3,1.3,0.8,1.7c0.4,0.4,1,0.6,1.5,0.6
				c0.4,0,0.9-0.2,1.3-0.4c0.4-0.3,0.5-0.7,0.6-1.1h-1.5L293.7,85.7C293.8,85.7,293.7,85.7,293.7,85.7z"/>
			<path class="st4" d="M302.4,87.4h-2.6l-0.7,1.5h-1l3.1-6.6l3,6.6h-1L302.4,87.4z M302,86.5l-0.9-2.1l-1,2.1H302z"/>
			<path class="st4" d="M307.4,82.7v5.3h1.8v0.9h-2.7v-6.2H307.4z"/>
			<path class="st4" d="M312.7,82.7v6.2h-0.9v-6.2H312.7z"/>
			<path class="st4" d="M316.9,88.1h3v0.9h-4.5l3.1-5.3h-2.5v-0.9h4.1L316.9,88.1z"/>
			<path class="st4" d="M326.3,87.4h-2.6l-0.7,1.5h-1l3.1-6.6l3,6.6h-1L326.3,87.4z M325.9,86.5l-0.9-2.1l-1,2.1H325.9z"/>
			<path class="st4" d="M332.5,86.3l1.9,2.6h-1.1l-1.8-2.5h-0.2v2.5h-0.9v-6.2h1.1c0.8,0,1.4,0.2,1.8,0.4c0.4,0.3,0.6,0.8,0.6,1.4
				c0,0.4-0.1,0.8-0.4,1.1S332.8,86.2,332.5,86.3z M331.3,85.6h0.3c0.9,0,1.3-0.3,1.3-1c0-0.7-0.4-0.9-1.3-0.9h-0.3L331.3,85.6
				L331.3,85.6z"/>
			<path class="st4" d="M337,88.5c0-0.2,0.1-0.3,0.2-0.4c0.1-0.1,0.2-0.2,0.4-0.2c0.2,0,0.3,0.1,0.4,0.2c0.1,0.1,0.2,0.2,0.2,0.4
				c0,0.2-0.1,0.3-0.2,0.4c-0.1,0.1-0.2,0.2-0.4,0.2c-0.2,0-0.3-0.1-0.4-0.2C337.1,88.8,337,88.6,337,88.5z M337.1,87.6v-4.8h0.9
				v4.8H337.1z"/>
			<path class="st4" d="M371.5,82.7v6.2h-0.9v-6.2H371.5z"/>
			<path class="st4" d="M374.6,88.9v-6.6l4.5,4.7v-4.3h0.9v6.6l-4.5-4.7v4.3H374.6z"/>
			<path class="st4" d="M384.9,83.6v5.3H384v-5.3h-1.4v-0.9h3.8v0.9H384.9z"/>
			<path class="st4" d="M392.2,83.6h-2.5v1.5h2.4V86h-2.4v2.1h2.5v0.9h-3.4v-6.2h3.4V83.6z"/>
			<path class="st4" d="M398.3,85.7h2.6v0.2c0,0.4-0.1,0.9-0.2,1.3c-0.1,0.3-0.3,0.7-0.5,0.9c-0.5,0.7-1.3,1-2.2,1s-1.6-0.3-2.2-0.9
				c-0.6-0.6-0.9-1.4-0.9-2.2c0-0.9,0.3-1.6,0.9-2.3c0.6-0.6,1.4-0.9,2.3-0.9c0.5,0,0.9,0.1,1.4,0.3c0.4,0.2,0.8,0.5,1.2,1l-0.7,0.7
				c-0.5-0.7-1.1-1-1.9-1c-0.7,0-1.2,0.2-1.6,0.7c-0.4,0.4-0.7,1-0.7,1.6c0,0.7,0.3,1.3,0.8,1.7c0.4,0.4,1,0.6,1.5,0.6
				c0.4,0,0.9-0.2,1.3-0.4c0.4-0.3,0.5-0.7,0.6-1.1h-1.5L398.3,85.7C398.3,85.7,398.3,85.7,398.3,85.7z"/>
			<path class="st4" d="M405.7,86.3l1.9,2.6h-1.1l-1.8-2.5h-0.2v2.5h-0.9v-6.2h1.1c0.8,0,1.4,0.2,1.8,0.4c0.4,0.3,0.6,0.8,0.6,1.4
				c0,0.4-0.1,0.8-0.4,1.1S406.1,86.2,405.7,86.3z M404.6,85.6h0.3c0.9,0,1.3-0.3,1.3-1c0-0.7-0.4-0.9-1.3-0.9h-0.3L404.6,85.6
				L404.6,85.6z"/>
			<path class="st4" d="M413.9,87.4h-2.6l-0.7,1.5h-1l3.1-6.6l3,6.6h-1L413.9,87.4z M413.5,86.5l-0.9-2.1l-1,2.1H413.5z"/>
			<path class="st4" d="M420,86.3l1.9,2.6h-1.1l-1.8-2.5h-0.2v2.5h-1v-6.2h1.1c0.8,0,1.4,0.2,1.8,0.4c0.4,0.3,0.6,0.8,0.6,1.4
				c0,0.4-0.1,0.8-0.4,1.1C420.7,86,420.4,86.2,420,86.3z M418.8,85.6h0.3c0.9,0,1.3-0.3,1.3-1c0-0.7-0.4-0.9-1.3-0.9h-0.3
				L418.8,85.6L418.8,85.6z"/>
			<path class="st4" d="M424.6,88.5c0-0.2,0.1-0.3,0.2-0.4s0.2-0.2,0.4-0.2s0.3,0.1,0.4,0.2s0.2,0.2,0.2,0.4c0,0.2-0.1,0.3-0.2,0.4
				s-0.2,0.2-0.4,0.2s-0.3-0.1-0.4-0.2S424.6,88.6,424.6,88.5z M424.7,87.6v-4.8h0.9v4.8H424.7z"/>
		</g>
	</g>
</g>
</svg>
