<?xml version="1.0" encoding="utf-8"?>
<!-- Generator: Adobe Illustrator 19.2.0, SVG Export Plug-In . SVG Version: 6.00 Build 0)  -->
<svg version="1.1" xmlns="http://www.w3.org/2000/svg" xmlns:xlink="http://www.w3.org/1999/xlink" x="0px" y="0px"
	 viewBox="0 0 617.6 105.9" style="enable-background:new 0 0 617.6 105.9;" xml:space="preserve">
<style type="text/css">
	.st0{display:none;}
	.st1{display:inline;stroke:#FFFFFF;stroke-width:2;stroke-miterlimit:10;}
	.st2{fill:#FFFFFF;stroke:#FFFFFF;stroke-width:2;stroke-miterlimit:10;}
	.st3{clip-path:url(#SVGID_2_);}
	.st4{fill:#FFFFFF;}
</style>
<g id="Layer_2_1_">
</g>
<g id="Layer_1">
	<g id="Layer_2" class="st0">
		<rect y="-223.2" class="st1" width="617.6" height="853.8"/>
	</g>
	<g>
		<path class="st2" d="M67.5,19.4v6.8c-3.3-2.8-6.7-4.2-10.3-4.2c-3.9,0-7.2,1.4-9.9,4.2c-2.7,2.8-4,6.2-4,10.2s1.3,7.4,4,10.1
			c2.7,2.7,6,4.1,9.9,4.1c2,0,3.7-0.3,5.1-1c0.8-0.3,1.6-0.8,2.4-1.3c0.8-0.6,1.7-1.2,2.7-2v6.9c-3.3,1.9-6.7,2.8-10.3,2.8
			c-5.4,0-10.1-1.9-13.9-5.7c-3.8-3.8-5.7-8.4-5.7-13.8c0-4.8,1.6-9.2,4.8-12.9c3.9-4.6,9-7,15.3-7C61,16.7,64.3,17.6,67.5,19.4z"/>
		<path class="st2" d="M80.2,36.2c0-5.3,2-9.9,5.9-13.8c3.9-3.8,8.6-5.8,14.1-5.8c5.4,0,10.1,1.9,13.9,5.8c3.9,3.9,5.8,8.5,5.8,14
			s-2,10.1-5.9,13.9c-3.9,3.8-8.7,5.7-14.2,5.7c-4.9,0-9.3-1.7-13.2-5.1C82.3,47.2,80.2,42.3,80.2,36.2z M86,36.3
			c0,4.2,1.4,7.7,4.2,10.4c2.8,2.7,6,4.1,9.7,4.1c4,0,7.4-1.4,10.1-4.1c2.7-2.8,4.1-6.2,4.1-10.2c0-4.1-1.4-7.4-4.1-10.2
			s-6-4.1-10-4.1s-7.3,1.4-10,4.1C87.3,28.9,86,32.3,86,36.3z"/>
		<path class="st2" d="M140.4,17.4V50h11.2v5.4h-16.9v-38C134.7,17.4,140.4,17.4,140.4,17.4z"/>
		<path class="st2" d="M185.5,22.8h-15.2v9.1h14.8v5.4h-14.8V50h15.2v5.4h-21v-38h21V22.8z"/>
		<path class="st2" d="M211.1,22.8v32.6h-5.7V22.8h-8.7v-5.4h23.2v5.4H211.1z"/>
		<path class="st2" d="M238.2,17.4v38h-5.7v-38C232.5,17.4,238.2,17.4,238.2,17.4z"/>
		<path class="st2" d="M256.9,17.4l10.5,26.3L278,17.4h6.3l-17.1,40.9l-16.7-40.9C250.5,17.4,256.9,17.4,256.9,17.4z"/>
		<path class="st2" d="M293,36.2c0-5.3,2-9.9,5.9-13.8c3.9-3.8,8.6-5.8,14.1-5.8c5.4,0,10.1,1.9,13.9,5.8c3.9,3.9,5.8,8.5,5.8,14
			s-2,10.1-5.9,13.9c-3.9,3.8-8.7,5.7-14.2,5.7c-4.9,0-9.3-1.7-13.2-5.1C295.2,47.2,293,42.3,293,36.2z M298.8,36.3
			c0,4.2,1.4,7.7,4.2,10.4c2.8,2.7,6,4.1,9.7,4.1c4,0,7.4-1.4,10.1-4.1c2.7-2.8,4.1-6.2,4.1-10.2c0-4.1-1.4-7.4-4.1-10.2
			s-6-4.1-10-4.1s-7.3,1.4-10,4.1C300.2,28.9,298.8,32.3,298.8,36.3z"/>
		<path class="st2" d="M389.6,22.8h-13.2v9.1h12.8v5.4h-12.8v18.1h-5.7v-38h19L389.6,22.8L389.6,22.8z"/>
		<path class="st2" d="M423.6,46.2h-16.3l-4.2,9.2h-6.2L415.7,15l18.1,40.4h-6.3L423.6,46.2z M421.3,40.8l-5.6-12.9l-5.9,12.9H421.3
			z"/>
		<path class="st2" d="M445.1,17.4l10.5,26.3l10.7-26.3h6.3l-17.1,40.9l-16.7-40.9C438.8,17.4,445.1,17.4,445.1,17.4z"/>
		<path class="st2" d="M505.8,22.8h-15.2v9.1h14.8v5.4h-14.8V50h15.2v5.4h-21v-38h21V22.8z"/>
		<path class="st2" d="M526.6,17.4V50h11.2v5.4h-16.9v-38C520.9,17.4,526.6,17.4,526.6,17.4z"/>
		<path class="st2" d="M575.3,46.2H559l-4.2,9.2h-6.2L567.4,15l18.1,40.4h-6.3L575.3,46.2z M572.9,40.8l-5.6-12.9l-5.9,12.9H572.9z"
			/>
	</g>
	<g>
		<g>
			<defs>
				<path id="SVGID_1_" d="M62,22.3v6.8c-3.3-2.8-6.7-4.2-10.3-4.2c-3.9,0-7.2,1.4-9.9,4.2c-2.7,2.8-4,6.2-4,10.2s1.3,7.4,4,10.1
					s6,4.1,9.9,4.1c2,0,3.7-0.3,5.1-1c0.8-0.3,1.6-0.8,2.4-1.3c0.8-0.6,1.7-1.2,2.7-2v6.9C58.7,58,55.3,59,51.7,59
					c-5.4,0-10.1-1.9-13.9-5.7C34,49.4,32,44.8,32,39.4c0-4.8,1.6-9.2,4.8-12.9c3.9-4.6,9-7,15.3-7C55.5,19.5,58.8,20.5,62,22.3z
					 M74.7,39.1c0-5.3,2-9.9,5.9-13.8c3.9-3.8,8.6-5.8,14.1-5.8c5.4,0,10.1,1.9,13.9,5.8c3.9,3.9,5.8,8.5,5.8,14s-2,10.1-5.9,13.9
					C104.6,57,99.9,59,94.3,59c-4.9,0-9.3-1.7-13.2-5.1C76.8,50.1,74.7,45.2,74.7,39.1z M80.5,39.2c0,4.2,1.4,7.7,4.2,10.4
					c2.8,2.7,6,4.1,9.7,4.1c4,0,7.4-1.4,10.1-4.1c2.7-2.8,4.1-6.2,4.1-10.2c0-4.1-1.4-7.4-4.1-10.2s-6-4.1-10-4.1s-7.3,1.4-10,4.1
					C81.8,31.8,80.5,35.2,80.5,39.2z M134.9,20.3v32.6h11.2v5.4h-16.9v-38H134.9z M180,25.7h-15.2v9.1h14.8v5.4h-14.8v12.7H180v5.4
					h-21v-38h21V25.7z M205.6,25.7v32.6h-5.7V25.7h-8.7v-5.4h23.2v5.4H205.6z M232.7,20.3v38H227v-38H232.7z M251.4,20.3l10.5,26.3
					l10.7-26.3h6.3l-17.1,40.9l-16.7-40.9H251.4z M287.5,39.1c0-5.3,2-9.9,5.9-13.8c3.9-3.8,8.6-5.8,14.1-5.8
					c5.4,0,10.1,1.9,13.9,5.8c3.9,3.9,5.8,8.5,5.8,14s-2,10.1-5.9,13.9c-3.9,3.8-8.7,5.7-14.2,5.7c-4.9,0-9.3-1.7-13.2-5.1
					C289.7,50.1,287.5,45.2,287.5,39.1z M293.3,39.2c0,4.2,1.4,7.7,4.2,10.4c2.8,2.7,6,4.1,9.7,4.1c4,0,7.4-1.4,10.1-4.1
					c2.7-2.8,4.1-6.2,4.1-10.2c0-4.1-1.4-7.4-4.1-10.2s-6-4.1-10-4.1s-7.3,1.4-10,4.1C294.7,31.8,293.3,35.2,293.3,39.2z
					 M384.1,25.7h-13.2v9.1h12.8v5.4h-12.8v18.1h-5.7v-38h19L384.1,25.7L384.1,25.7z M418.1,49h-16.3l-4.2,9.2h-6.2l18.8-40.4
					l18.1,40.4H422L418.1,49z M415.8,43.6l-5.6-12.9l-5.9,12.9H415.8z M439.6,20.3l10.5,26.3l10.7-26.3h6.3L450,61.1l-16.7-40.9h6.3
					V20.3z M500.3,25.7h-15.2v9.1h14.8v5.4h-14.8v12.7h15.2v5.4h-21v-38h21V25.7z M521.1,20.3v32.6h11.2v5.4h-16.9v-38H521.1z
					 M569.8,49h-16.3l-4.2,9.2h-6.2l18.8-40.4L580,58.3h-6.3L569.8,49z M567.4,43.6l-5.6-12.9l-5.9,12.9H567.4z"/>
			</defs>
			<clipPath id="SVGID_2_">
				<use xlink:href="#SVGID_1_"  style="overflow:visible;"/>
			</clipPath>
			<g class="st3">
				<g>
					
						<rect x="-119.5" y="48.9" transform="matrix(0.7078 -0.7065 0.7065 0.7078 -34.3168 15.4463)" class="st4" width="242" height="0.7"/>
				</g>
				<g>
					
						<rect x="-116.1" y="48.9" transform="matrix(0.7078 -0.7065 0.7065 0.7078 -33.3256 17.851)" class="st4" width="242" height="0.7"/>
				</g>
				<g>
					
						<rect x="-112.7" y="48.9" transform="matrix(0.7078 -0.7065 0.7065 0.7078 -32.3345 20.2556)" class="st4" width="242" height="0.7"/>
				</g>
				<g>
					
						<rect x="-109.3" y="48.9" transform="matrix(0.7078 -0.7065 0.7065 0.7078 -31.3434 22.6603)" class="st4" width="242" height="0.7"/>
				</g>
				<g>
					
						<rect x="-105.9" y="48.9" transform="matrix(0.7078 -0.7065 0.7065 0.7078 -30.3523 25.065)" class="st4" width="242" height="0.7"/>
				</g>
				<g>
					
						<rect x="-102.5" y="48.9" transform="matrix(0.7078 -0.7065 0.7065 0.7078 -29.3611 27.4696)" class="st4" width="242" height="0.7"/>
				</g>
				<g>
					
						<rect x="-99.1" y="48.9" transform="matrix(0.7078 -0.7065 0.7065 0.7078 -28.37 29.8742)" class="st4" width="242" height="0.7"/>
				</g>
				<g>
					
						<rect x="-95.7" y="48.9" transform="matrix(0.7078 -0.7065 0.7065 0.7078 -27.3789 32.2789)" class="st4" width="242" height="0.7"/>
				</g>
				<g>
					
						<rect x="-92.3" y="48.9" transform="matrix(0.7078 -0.7065 0.7065 0.7078 -26.3877 34.6836)" class="st4" width="242" height="0.7"/>
				</g>
				<g>
					
						<rect x="-88.9" y="48.9" transform="matrix(0.7078 -0.7065 0.7065 0.7078 -25.3966 37.0881)" class="st4" width="242" height="0.7"/>
				</g>
				<g>
					
						<rect x="-85.5" y="48.9" transform="matrix(0.7078 -0.7065 0.7065 0.7078 -24.4056 39.4929)" class="st4" width="242" height="0.7"/>
				</g>
				<g>
					
						<rect x="-82.1" y="48.9" transform="matrix(0.7078 -0.7065 0.7065 0.7078 -23.4144 41.8975)" class="st4" width="242" height="0.7"/>
				</g>
				<g>
					
						<rect x="-78.7" y="48.9" transform="matrix(0.7078 -0.7065 0.7065 0.7078 -22.4232 44.3021)" class="st4" width="242" height="0.7"/>
				</g>
				<g>
					
						<rect x="-75.3" y="48.9" transform="matrix(0.7078 -0.7065 0.7065 0.7078 -21.432 46.7067)" class="st4" width="242" height="0.7"/>
				</g>
				<g>
					
						<rect x="-71.9" y="48.9" transform="matrix(0.7078 -0.7065 0.7065 0.7078 -20.441 49.1115)" class="st4" width="242" height="0.7"/>
				</g>
				<g>
					
						<rect x="-68.5" y="48.9" transform="matrix(0.7078 -0.7065 0.7065 0.7078 -19.4498 51.5161)" class="st4" width="242" height="0.7"/>
				</g>
				<g>
					
						<rect x="-65" y="48.9" transform="matrix(0.7078 -0.7065 0.7065 0.7078 -18.3881 53.9501)" class="st4" width="242" height="0.7"/>
				</g>
				<g>
					
						<rect x="-61.6" y="48.9" transform="matrix(0.7078 -0.7065 0.7065 0.7078 -17.3969 56.3547)" class="st4" width="242" height="0.7"/>
				</g>
				<g>
					
						<rect x="-58.2" y="48.9" transform="matrix(0.7078 -0.7065 0.7065 0.7078 -16.4059 58.7594)" class="st4" width="242" height="0.7"/>
				</g>
				<g>
					
						<rect x="-54.8" y="48.9" transform="matrix(0.7078 -0.7065 0.7065 0.7078 -15.4147 61.1641)" class="st4" width="242" height="0.7"/>
				</g>
				<g>
					
						<rect x="-51.4" y="48.9" transform="matrix(0.7078 -0.7065 0.7065 0.7078 -14.4235 63.5687)" class="st4" width="242" height="0.7"/>
				</g>
				<g>
					
						<rect x="-48" y="48.9" transform="matrix(0.7078 -0.7065 0.7065 0.7078 -13.4324 65.9734)" class="st4" width="242" height="0.7"/>
				</g>
				<g>
					
						<rect x="-44.6" y="48.9" transform="matrix(0.7078 -0.7065 0.7065 0.7078 -12.4413 68.378)" class="st4" width="242" height="0.7"/>
				</g>
				<g>
					
						<rect x="-41.2" y="48.9" transform="matrix(0.7078 -0.7065 0.7065 0.7078 -11.4502 70.7827)" class="st4" width="242" height="0.7"/>
				</g>
				<g>
					
						<rect x="-37.8" y="48.9" transform="matrix(0.7078 -0.7065 0.7065 0.7078 -10.459 73.1873)" class="st4" width="242" height="0.7"/>
				</g>
				<g>
					
						<rect x="-34.4" y="48.9" transform="matrix(0.7078 -0.7065 0.7065 0.7078 -9.468 75.592)" class="st4" width="242" height="0.7"/>
				</g>
				<g>
					
						<rect x="-31" y="48.9" transform="matrix(0.7078 -0.7065 0.7065 0.7078 -8.4768 77.9967)" class="st4" width="242" height="0.7"/>
				</g>
				<g>
					
						<rect x="-27.6" y="48.9" transform="matrix(0.7078 -0.7065 0.7065 0.7078 -7.4856 80.4013)" class="st4" width="242" height="0.7"/>
				</g>
				<g>
					
						<rect x="-24.2" y="48.9" transform="matrix(0.7078 -0.7065 0.7065 0.7078 -6.4945 82.8059)" class="st4" width="242" height="0.7"/>
				</g>
				<g>
					
						<rect x="-20.8" y="48.9" transform="matrix(0.7078 -0.7065 0.7065 0.7078 -5.5035 85.2107)" class="st4" width="242" height="0.7"/>
				</g>
				<g>
					
						<rect x="-17.4" y="48.9" transform="matrix(0.7078 -0.7065 0.7065 0.7078 -4.5123 87.6153)" class="st4" width="242" height="0.7"/>
				</g>
				<g>
					
						<rect x="-14" y="48.9" transform="matrix(0.7078 -0.7065 0.7065 0.7078 -3.5211 90.0199)" class="st4" width="242" height="0.7"/>
				</g>
				<g>
					
						<rect x="-10.5" y="48.8" transform="matrix(0.7078 -0.7065 0.7065 0.7078 -2.4594 92.4538)" class="st4" width="242" height="0.7"/>
				</g>
				<g>
					
						<rect x="-7.1" y="48.9" transform="matrix(0.7078 -0.7065 0.7065 0.7078 -1.4683 94.8586)" class="st4" width="242" height="0.7"/>
				</g>
				<g>
					
						<rect x="-3.7" y="48.9" transform="matrix(0.7078 -0.7065 0.7065 0.7078 -0.4772 97.2632)" class="st4" width="242" height="0.7"/>
				</g>
				<g>
					
						<rect x="-0.3" y="48.9" transform="matrix(0.7078 -0.7065 0.7065 0.7078 0.514 99.6678)" class="st4" width="242" height="0.7"/>
				</g>
				<g>
					
						<rect x="3.1" y="48.9" transform="matrix(0.7078 -0.7065 0.7065 0.7078 1.5052 102.0725)" class="st4" width="242" height="0.7"/>
				</g>
				<g>
					
						<rect x="6.5" y="48.9" transform="matrix(0.7078 -0.7065 0.7065 0.7078 2.4962 104.4772)" class="st4" width="242" height="0.7"/>
				</g>
				<g>
					
						<rect x="9.9" y="48.9" transform="matrix(0.7078 -0.7065 0.7065 0.7078 3.4874 106.8818)" class="st4" width="242" height="0.7"/>
				</g>
				<g>
					
						<rect x="13.3" y="48.9" transform="matrix(0.7078 -0.7065 0.7065 0.7078 4.4786 109.2865)" class="st4" width="242" height="0.7"/>
				</g>
				<g>
					
						<rect x="16.7" y="48.9" transform="matrix(0.7078 -0.7065 0.7065 0.7078 5.4696 111.6911)" class="st4" width="242" height="0.7"/>
				</g>
				<g>
					
						<rect x="20.1" y="48.9" transform="matrix(0.7078 -0.7065 0.7065 0.7078 6.4608 114.0958)" class="st4" width="242" height="0.7"/>
				</g>
				<g>
					
						<rect x="23.5" y="48.9" transform="matrix(0.7078 -0.7065 0.7065 0.7078 7.4519 116.5004)" class="st4" width="242" height="0.7"/>
				</g>
				<g>
					
						<rect x="26.9" y="48.9" transform="matrix(0.7078 -0.7065 0.7065 0.7078 8.4431 118.9051)" class="st4" width="242" height="0.7"/>
				</g>
				<g>
					
						<rect x="30.3" y="48.9" transform="matrix(0.7078 -0.7065 0.7065 0.7078 9.4341 121.3098)" class="st4" width="242" height="0.7"/>
				</g>
				<g>
					
						<rect x="33.7" y="48.9" transform="matrix(0.7078 -0.7065 0.7065 0.7078 10.4253 123.7144)" class="st4" width="242" height="0.7"/>
				</g>
				<g>
					
						<rect x="37.1" y="48.9" transform="matrix(0.7078 -0.7065 0.7065 0.7078 11.4165 126.119)" class="st4" width="242" height="0.7"/>
				</g>
				<g>
					
						<rect x="40.6" y="48.8" transform="matrix(0.7078 -0.7065 0.7065 0.7078 12.4782 128.5531)" class="st4" width="242" height="0.7"/>
				</g>
				<g>
					
						<rect x="44" y="48.8" transform="matrix(0.7078 -0.7065 0.7065 0.7078 13.4692 130.9578)" class="st4" width="242" height="0.7"/>
				</g>
				<g>
					
						<rect x="47.4" y="48.9" transform="matrix(0.7078 -0.7065 0.7065 0.7078 14.4604 133.3624)" class="st4" width="242" height="0.7"/>
				</g>
				<g>
					
						<rect x="50.8" y="48.9" transform="matrix(0.7078 -0.7065 0.7065 0.7078 15.4516 135.767)" class="st4" width="242" height="0.7"/>
				</g>
				<g>
					
						<rect x="54.2" y="48.9" transform="matrix(0.7078 -0.7065 0.7065 0.7078 16.4427 138.1716)" class="st4" width="242" height="0.7"/>
				</g>
				<g>
					
						<rect x="57.6" y="48.9" transform="matrix(0.7078 -0.7065 0.7065 0.7078 17.4338 140.5764)" class="st4" width="242" height="0.7"/>
				</g>
				<g>
					
						<rect x="61" y="48.9" transform="matrix(0.7078 -0.7065 0.7065 0.7078 18.425 142.981)" class="st4" width="242" height="0.7"/>
				</g>
				<g>
					
						<rect x="64.4" y="48.9" transform="matrix(0.7078 -0.7065 0.7065 0.7078 19.416 145.3856)" class="st4" width="242" height="0.7"/>
				</g>
				<g>
					
						<rect x="67.8" y="48.9" transform="matrix(0.7078 -0.7065 0.7065 0.7078 20.4072 147.7902)" class="st4" width="242" height="0.7"/>
				</g>
				<g>
					
						<rect x="71.2" y="48.9" transform="matrix(0.7078 -0.7065 0.7065 0.7078 21.3983 150.195)" class="st4" width="242" height="0.7"/>
				</g>
				<g>
					
						<rect x="74.6" y="48.9" transform="matrix(0.7078 -0.7065 0.7065 0.7078 22.3895 152.5996)" class="st4" width="242" height="0.7"/>
				</g>
				<g>
					
						<rect x="78" y="48.9" transform="matrix(0.7078 -0.7065 0.7065 0.7078 23.3806 155.0042)" class="st4" width="242" height="0.7"/>
				</g>
				<g>
					
						<rect x="81.4" y="48.9" transform="matrix(0.7078 -0.7065 0.7065 0.7078 24.3717 157.409)" class="st4" width="242" height="0.7"/>
				</g>
				<g>
					
						<rect x="84.8" y="48.9" transform="matrix(0.7078 -0.7065 0.7065 0.7078 25.3628 159.8136)" class="st4" width="242" height="0.7"/>
				</g>
				<g>
					
						<rect x="88.2" y="48.9" transform="matrix(0.7078 -0.7065 0.7065 0.7078 26.354 162.2182)" class="st4" width="242" height="0.7"/>
				</g>
				<g>
					
						<rect x="91.6" y="48.9" transform="matrix(0.7078 -0.7065 0.7065 0.7078 27.3451 164.6228)" class="st4" width="242" height="0.7"/>
				</g>
				<g>
					
						<rect x="95.1" y="48.8" transform="matrix(0.7078 -0.7065 0.7065 0.7078 28.4068 167.0569)" class="st4" width="242" height="0.7"/>
				</g>
				<g>
					
						<rect x="98.5" y="48.8" transform="matrix(0.7078 -0.7065 0.7065 0.7078 29.398 169.4615)" class="st4" width="242" height="0.7"/>
				</g>
				<g>
					
						<rect x="101.9" y="48.9" transform="matrix(0.7078 -0.7065 0.7065 0.7078 30.3891 171.8662)" class="st4" width="242" height="0.7"/>
				</g>
				<g>
					
						<rect x="105.3" y="48.9" transform="matrix(0.7078 -0.7065 0.7065 0.7078 31.3804 174.2707)" class="st4" width="242" height="0.7"/>
				</g>
				<g>
					
						<rect x="108.7" y="48.9" transform="matrix(0.7078 -0.7065 0.7065 0.7078 32.3713 176.6755)" class="st4" width="242" height="0.7"/>
				</g>
				<g>
					
						<rect x="112.1" y="48.9" transform="matrix(0.7078 -0.7065 0.7065 0.7078 33.3625 179.0801)" class="st4" width="242" height="0.7"/>
				</g>
				<g>
					
						<rect x="115.5" y="48.9" transform="matrix(0.7078 -0.7065 0.7065 0.7078 34.3537 181.4847)" class="st4" width="242" height="0.7"/>
				</g>
				<g>
					
						<rect x="118.9" y="48.9" transform="matrix(0.7078 -0.7065 0.7065 0.7078 35.3447 183.8895)" class="st4" width="242" height="0.7"/>
				</g>
				<g>
					
						<rect x="122.3" y="48.9" transform="matrix(0.7078 -0.7065 0.7065 0.7078 36.3359 186.2941)" class="st4" width="242" height="0.7"/>
				</g>
				<g>
					
						<rect x="125.7" y="48.9" transform="matrix(0.7078 -0.7065 0.7065 0.7078 37.3271 188.6987)" class="st4" width="242" height="0.7"/>
				</g>
				<g>
					
						<rect x="129.1" y="48.9" transform="matrix(0.7078 -0.7065 0.7065 0.7078 38.3181 191.1034)" class="st4" width="242" height="0.7"/>
				</g>
				<g>
					
						<rect x="132.5" y="48.9" transform="matrix(0.7078 -0.7065 0.7065 0.7078 39.3093 193.508)" class="st4" width="242" height="0.7"/>
				</g>
				<g>
					
						<rect x="135.9" y="48.9" transform="matrix(0.7078 -0.7065 0.7065 0.7078 40.3005 195.9126)" class="st4" width="242" height="0.7"/>
				</g>
				<g>
					
						<rect x="139.3" y="48.9" transform="matrix(0.7078 -0.7065 0.7065 0.7078 41.2914 198.3174)" class="st4" width="242" height="0.7"/>
				</g>
				<g>
					
						<rect x="142.7" y="48.9" transform="matrix(0.7078 -0.7065 0.7065 0.7078 42.2827 200.7219)" class="st4" width="242" height="0.7"/>
				</g>
				<g>
					
						<rect x="146.1" y="48.9" transform="matrix(0.7078 -0.7065 0.7065 0.7078 43.2738 203.1266)" class="st4" width="242" height="0.7"/>
				</g>
				<g>
					
						<rect x="149.6" y="48.8" transform="matrix(0.7078 -0.7065 0.7065 0.7078 44.3354 205.5608)" class="st4" width="242" height="0.7"/>
				</g>
				<g>
					
						<rect x="153" y="48.8" transform="matrix(0.7078 -0.7065 0.7065 0.7078 45.3266 207.9653)" class="st4" width="242" height="0.7"/>
				</g>
				<g>
					
						<rect x="156.4" y="48.9" transform="matrix(0.7078 -0.7065 0.7065 0.7078 46.3178 210.3699)" class="st4" width="242" height="0.7"/>
				</g>
				<g>
					
						<rect x="159.8" y="48.9" transform="matrix(0.7078 -0.7065 0.7065 0.7078 47.3087 212.7747)" class="st4" width="242" height="0.7"/>
				</g>
				<g>
					
						<rect x="163.2" y="48.9" transform="matrix(0.7078 -0.7065 0.7065 0.7078 48.3 215.1793)" class="st4" width="242" height="0.7"/>
				</g>
				<g>
					
						<rect x="166.6" y="48.9" transform="matrix(0.7078 -0.7065 0.7065 0.7078 49.2912 217.5839)" class="st4" width="242" height="0.7"/>
				</g>
				<g>
					
						<rect x="170" y="48.9" transform="matrix(0.7078 -0.7065 0.7065 0.7078 50.2824 219.9884)" class="st4" width="242" height="0.7"/>
				</g>
				<g>
					
						<rect x="173.4" y="48.9" transform="matrix(0.7078 -0.7065 0.7065 0.7078 51.2734 222.3932)" class="st4" width="242" height="0.7"/>
				</g>
				<g>
					
						<rect x="176.8" y="48.9" transform="matrix(0.7078 -0.7065 0.7065 0.7078 52.2645 224.7979)" class="st4" width="242" height="0.7"/>
				</g>
				<g>
					
						<rect x="180.2" y="48.9" transform="matrix(0.7078 -0.7065 0.7065 0.7078 53.2558 227.2024)" class="st4" width="242" height="0.7"/>
				</g>
				<g>
					
						<rect x="183.6" y="48.9" transform="matrix(0.7078 -0.7065 0.7065 0.7078 54.2468 229.6072)" class="st4" width="242" height="0.7"/>
				</g>
				<g>
					
						<rect x="187" y="48.9" transform="matrix(0.7078 -0.7065 0.7065 0.7078 55.238 232.0119)" class="st4" width="242" height="0.7"/>
				</g>
				<g>
					
						<rect x="190.4" y="48.9" transform="matrix(0.7078 -0.7065 0.7065 0.7078 56.2292 234.4164)" class="st4" width="242" height="0.7"/>
				</g>
				<g>
					
						<rect x="193.8" y="48.9" transform="matrix(0.7078 -0.7065 0.7065 0.7078 57.2202 236.8212)" class="st4" width="242" height="0.7"/>
				</g>
				<g>
					
						<rect x="197.2" y="48.9" transform="matrix(0.7078 -0.7065 0.7065 0.7078 58.2113 239.2258)" class="st4" width="242" height="0.7"/>
				</g>
				<g>
					
						<rect x="200.7" y="48.8" transform="matrix(0.7078 -0.7065 0.7065 0.7078 59.2732 241.6597)" class="st4" width="242" height="0.7"/>
				</g>
				<g>
					
						<rect x="204.1" y="48.8" transform="matrix(0.7078 -0.7065 0.7065 0.7078 60.2641 244.0645)" class="st4" width="242" height="0.7"/>
				</g>
				<g>
					
						<rect x="207.5" y="48.8" transform="matrix(0.7078 -0.7065 0.7065 0.7078 61.2554 246.469)" class="st4" width="242" height="0.7"/>
				</g>
				<g>
					
						<rect x="210.9" y="48.9" transform="matrix(0.7078 -0.7065 0.7065 0.7078 62.2465 248.8737)" class="st4" width="242" height="0.7"/>
				</g>
				<g>
					
						<rect x="214.3" y="48.9" transform="matrix(0.7078 -0.7065 0.7065 0.7078 63.2375 251.2785)" class="st4" width="242" height="0.7"/>
				</g>
				<g>
					
						<rect x="217.7" y="48.9" transform="matrix(0.7078 -0.7065 0.7065 0.7078 64.2287 253.683)" class="st4" width="242" height="0.7"/>
				</g>
				<g>
					
						<rect x="221.1" y="48.9" transform="matrix(0.7078 -0.7065 0.7065 0.7078 65.2199 256.0877)" class="st4" width="242" height="0.7"/>
				</g>
				<g>
					
						<rect x="224.5" y="48.9" transform="matrix(0.7078 -0.7065 0.7065 0.7078 66.2108 258.4925)" class="st4" width="242" height="0.7"/>
				</g>
				<g>
					
						<rect x="227.9" y="48.9" transform="matrix(0.7078 -0.7065 0.7065 0.7078 67.2021 260.897)" class="st4" width="242" height="0.7"/>
				</g>
				<g>
					
						<rect x="231.3" y="48.9" transform="matrix(0.7078 -0.7065 0.7065 0.7078 68.1933 263.3016)" class="st4" width="242" height="0.7"/>
				</g>
				<g>
					
						<rect x="234.7" y="48.9" transform="matrix(0.7078 -0.7065 0.7065 0.7078 69.1845 265.7062)" class="st4" width="242" height="0.7"/>
				</g>
				<g>
					
						<rect x="238.1" y="48.9" transform="matrix(0.7078 -0.7065 0.7065 0.7078 70.1755 268.111)" class="st4" width="242" height="0.7"/>
				</g>
				<g>
					
						<rect x="241.5" y="48.9" transform="matrix(0.7078 -0.7065 0.7065 0.7078 71.1666 270.5156)" class="st4" width="242" height="0.7"/>
				</g>
				<g>
					
						<rect x="244.9" y="48.9" transform="matrix(0.7078 -0.7065 0.7065 0.7078 72.1578 272.9202)" class="st4" width="242" height="0.7"/>
				</g>
				<g>
					
						<rect x="248.3" y="48.9" transform="matrix(0.7078 -0.7065 0.7065 0.7078 73.1488 275.325)" class="st4" width="242" height="0.7"/>
				</g>
				<g>
					
						<rect x="251.7" y="48.9" transform="matrix(0.7078 -0.7065 0.7065 0.7078 74.14 277.7296)" class="st4" width="242" height="0.7"/>
				</g>
				<g>
					
						<rect x="255.2" y="48.8" transform="matrix(0.7078 -0.7065 0.7065 0.7078 75.2019 280.1635)" class="st4" width="242" height="0.7"/>
				</g>
				<g>
					
						<rect x="258.6" y="48.8" transform="matrix(0.7078 -0.7065 0.7065 0.7078 76.1929 282.5683)" class="st4" width="242" height="0.7"/>
				</g>
				<g>
					
						<rect x="262" y="48.8" transform="matrix(0.7078 -0.7065 0.7065 0.7078 77.184 284.973)" class="st4" width="242" height="0.7"/>
				</g>
				<g>
					
						<rect x="265.4" y="48.9" transform="matrix(0.7078 -0.7065 0.7065 0.7078 78.1752 287.3775)" class="st4" width="242" height="0.7"/>
				</g>
				<g>
					
						<rect x="268.8" y="48.9" transform="matrix(0.7078 -0.7065 0.7065 0.7078 79.1662 289.7823)" class="st4" width="242" height="0.7"/>
				</g>
				<g>
					
						<rect x="272.2" y="48.9" transform="matrix(0.7071 -0.7071 0.7071 0.7071 80.362 292.4642)" class="st4" width="242" height="0.7"/>
				</g>
				<g>
					
						<rect x="275.6" y="48.9" transform="matrix(0.7071 -0.7071 0.7071 0.7071 81.3553 294.8708)" class="st4" width="242" height="0.7"/>
				</g>
				<g>
					
						<rect x="279" y="48.9" transform="matrix(0.7071 -0.7071 0.7071 0.7071 82.3484 297.2777)" class="st4" width="242" height="0.7"/>
				</g>
				<g>
					
						<rect x="282.4" y="48.9" transform="matrix(0.7071 -0.7071 0.7071 0.7071 83.3415 299.6846)" class="st4" width="242" height="0.7"/>
				</g>
				<g>
					
						<rect x="285.8" y="48.9" transform="matrix(0.7071 -0.7071 0.7071 0.7071 84.3347 302.0913)" class="st4" width="242" height="0.7"/>
				</g>
				<g>
					
						<rect x="289.2" y="48.9" transform="matrix(0.7071 -0.7071 0.7071 0.7071 85.3278 304.4981)" class="st4" width="242" height="0.7"/>
				</g>
				<g>
					
						<rect x="292.6" y="48.9" transform="matrix(0.7071 -0.7071 0.7071 0.7071 86.3209 306.905)" class="st4" width="242" height="0.7"/>
				</g>
				<g>
					
						<rect x="296" y="48.9" transform="matrix(0.7071 -0.7071 0.7071 0.7071 87.3142 309.3117)" class="st4" width="242" height="0.7"/>
				</g>
				<g>
					
						<rect x="299.4" y="48.9" transform="matrix(0.7071 -0.7071 0.7071 0.7071 88.3075 311.7184)" class="st4" width="242" height="0.7"/>
				</g>
				<g>
					
						<rect x="302.8" y="48.9" transform="matrix(0.7071 -0.7071 0.7071 0.7071 89.3004 314.1254)" class="st4" width="242" height="0.7"/>
				</g>
				<g>
					
						<rect x="306.2" y="48.9" transform="matrix(0.7071 -0.7071 0.7071 0.7071 90.2937 316.5321)" class="st4" width="242" height="0.7"/>
				</g>
				<g>
					
						<rect x="309.7" y="48.9" transform="matrix(0.7071 -0.7071 0.7071 0.7071 91.3577 318.9681)" class="st4" width="242" height="0.7"/>
				</g>
				<g>
					
						<rect x="313.1" y="48.9" transform="matrix(0.7071 -0.7071 0.7071 0.7071 92.3506 321.3752)" class="st4" width="242" height="0.7"/>
				</g>
				<g>
					
						<rect x="316.5" y="48.9" transform="matrix(0.7071 -0.7071 0.7071 0.7071 93.3438 323.7819)" class="st4" width="242" height="0.7"/>
				</g>
				<g>
					
						<rect x="319.9" y="48.9" transform="matrix(0.7071 -0.7071 0.7071 0.7071 94.3371 326.1885)" class="st4" width="242" height="0.7"/>
				</g>
				<g>
					
						<rect x="323.3" y="48.9" transform="matrix(0.7071 -0.7071 0.7071 0.7071 95.3302 328.5954)" class="st4" width="242" height="0.7"/>
				</g>
				<g>
					
						<rect x="326.7" y="48.9" transform="matrix(0.7071 -0.7071 0.7071 0.7071 96.3233 331.0023)" class="st4" width="242" height="0.7"/>
				</g>
				<g>
					
						<rect x="330.1" y="48.9" transform="matrix(0.7071 -0.7071 0.7071 0.7071 97.3166 333.409)" class="st4" width="242" height="0.7"/>
				</g>
				<g>
					
						<rect x="333.5" y="48.9" transform="matrix(0.7071 -0.7071 0.7071 0.7071 98.3098 335.8158)" class="st4" width="242" height="0.7"/>
				</g>
				<g>
					
						<rect x="336.9" y="48.9" transform="matrix(0.7071 -0.7071 0.7071 0.7071 99.3028 338.2227)" class="st4" width="242" height="0.7"/>
				</g>
				<g>
					
						<rect x="340.3" y="48.9" transform="matrix(0.7071 -0.7071 0.7071 0.7071 100.2961 340.6294)" class="st4" width="242" height="0.7"/>
				</g>
				<g>
					
						<rect x="343.7" y="48.9" transform="matrix(0.7071 -0.7071 0.7071 0.7071 101.2892 343.0363)" class="st4" width="242" height="0.7"/>
				</g>
				<g>
					
						<rect x="347.1" y="48.9" transform="matrix(0.7071 -0.7071 0.7071 0.7071 102.2822 345.4431)" class="st4" width="242" height="0.7"/>
				</g>
				<g>
					
						<rect x="350.5" y="48.9" transform="matrix(0.7071 -0.7071 0.7071 0.7071 103.2756 347.8498)" class="st4" width="242" height="0.7"/>
				</g>
				<g>
					
						<rect x="353.9" y="48.9" transform="matrix(0.7071 -0.7071 0.7071 0.7071 104.2686 350.2567)" class="st4" width="242" height="0.7"/>
				</g>
				<g>
					
						<rect x="357.3" y="48.9" transform="matrix(0.7071 -0.7071 0.7071 0.7071 105.2618 352.6636)" class="st4" width="242" height="0.7"/>
				</g>
				<g>
					
						<rect x="360.8" y="48.9" transform="matrix(0.7071 -0.7071 0.7071 0.7071 106.3258 355.0995)" class="st4" width="242" height="0.7"/>
				</g>
				<g>
					
						<rect x="364.2" y="48.9" transform="matrix(0.7071 -0.7071 0.7071 0.7071 107.3189 357.5064)" class="st4" width="242" height="0.7"/>
				</g>
				<g>
					
						<rect x="367.6" y="48.9" transform="matrix(0.7071 -0.7071 0.7071 0.7071 108.3119 359.9133)" class="st4" width="242" height="0.7"/>
				</g>
				<g>
					
						<rect x="371" y="48.9" transform="matrix(0.7071 -0.7071 0.7071 0.7071 109.3052 362.3199)" class="st4" width="242" height="0.7"/>
				</g>
				<g>
					
						<rect x="374.4" y="48.9" transform="matrix(0.7071 -0.7071 0.7071 0.7071 110.2985 364.7267)" class="st4" width="242" height="0.7"/>
				</g>
				<g>
					
						<rect x="377.8" y="48.9" transform="matrix(0.7071 -0.7071 0.7071 0.7071 111.2914 367.1337)" class="st4" width="242" height="0.7"/>
				</g>
				<g>
					
						<rect x="381.2" y="48.9" transform="matrix(0.7071 -0.7071 0.7071 0.7071 112.2847 369.5404)" class="st4" width="242" height="0.7"/>
				</g>
				<g>
					
						<rect x="384.6" y="48.9" transform="matrix(0.7071 -0.7071 0.7071 0.7071 113.278 371.9471)" class="st4" width="242" height="0.7"/>
				</g>
				<g>
					
						<rect x="388" y="48.9" transform="matrix(0.7071 -0.7071 0.7071 0.7071 114.2711 374.354)" class="st4" width="242" height="0.7"/>
				</g>
				<g>
					
						<rect x="391.4" y="48.9" transform="matrix(0.7071 -0.7071 0.7071 0.7071 115.2642 376.7608)" class="st4" width="242" height="0.7"/>
				</g>
				<g>
					
						<rect x="394.8" y="48.9" transform="matrix(0.7071 -0.7071 0.7071 0.7071 116.2574 379.1675)" class="st4" width="242" height="0.7"/>
				</g>
				<g>
					
						<rect x="398.2" y="48.9" transform="matrix(0.7071 -0.7071 0.7071 0.7071 117.2505 381.5744)" class="st4" width="242" height="0.7"/>
				</g>
				<g>
					
						<rect x="401.6" y="48.9" transform="matrix(0.7071 -0.7071 0.7071 0.7071 118.2436 383.9813)" class="st4" width="242" height="0.7"/>
				</g>
				<g>
					
						<rect x="405" y="48.9" transform="matrix(0.7071 -0.7071 0.7071 0.7071 119.2369 386.3879)" class="st4" width="242" height="0.7"/>
				</g>
				<g>
					
						<rect x="408.4" y="48.9" transform="matrix(0.7071 -0.7071 0.7071 0.7071 120.23 388.7948)" class="st4" width="242" height="0.7"/>
				</g>
				<g>
					
						<rect x="411.8" y="48.9" transform="matrix(0.7071 -0.7071 0.7071 0.7071 121.2231 391.2017)" class="st4" width="242" height="0.7"/>
				</g>
				<g>
					
						<rect x="415.3" y="48.9" transform="matrix(0.7071 -0.7071 0.7071 0.7071 122.2871 393.6376)" class="st4" width="242" height="0.7"/>
				</g>
				<g>
					
						<rect x="418.7" y="48.9" transform="matrix(0.7071 -0.7071 0.7071 0.7071 123.2802 396.0445)" class="st4" width="242" height="0.7"/>
				</g>
				<g>
					
						<rect x="422.1" y="48.9" transform="matrix(0.7071 -0.7071 0.7071 0.7071 124.2733 398.4514)" class="st4" width="242" height="0.7"/>
				</g>
				<g>
					
						<rect x="425.5" y="48.9" transform="matrix(0.7071 -0.7071 0.7071 0.7071 125.2666 400.8581)" class="st4" width="242" height="0.7"/>
				</g>
				<g>
					
						<rect x="428.9" y="48.9" transform="matrix(0.7071 -0.7071 0.7071 0.7071 126.2597 403.2649)" class="st4" width="242" height="0.7"/>
				</g>
				<g>
					
						<rect x="432.3" y="48.9" transform="matrix(0.7071 -0.7071 0.7071 0.7071 127.2527 405.6718)" class="st4" width="242" height="0.7"/>
				</g>
				<g>
					
						<rect x="435.7" y="48.9" transform="matrix(0.7071 -0.7071 0.7071 0.7071 128.2461 408.0785)" class="st4" width="242" height="0.7"/>
				</g>
				<g>
					
						<rect x="439.1" y="48.9" transform="matrix(0.7071 -0.7071 0.7071 0.7071 129.2393 410.4851)" class="st4" width="242" height="0.7"/>
				</g>
				<g>
					
						<rect x="442.5" y="48.9" transform="matrix(0.7071 -0.7071 0.7071 0.7071 130.2323 412.8922)" class="st4" width="242" height="0.7"/>
				</g>
				<g>
					
						<rect x="445.9" y="48.9" transform="matrix(0.7071 -0.7071 0.7071 0.7071 131.2256 415.299)" class="st4" width="242" height="0.7"/>
				</g>
				<g>
					
						<rect x="449.3" y="48.9" transform="matrix(0.7071 -0.7071 0.7071 0.7071 132.2188 417.7056)" class="st4" width="242" height="0.7"/>
				</g>
				<g>
					
						<rect x="452.7" y="48.9" transform="matrix(0.7071 -0.7071 0.7071 0.7071 133.2119 420.1125)" class="st4" width="242" height="0.7"/>
				</g>
				<g>
					
						<rect x="456.1" y="48.9" transform="matrix(0.7071 -0.7071 0.7071 0.7071 134.205 422.5193)" class="st4" width="242" height="0.7"/>
				</g>
				<g>
					
						<rect x="459.5" y="48.9" transform="matrix(0.7071 -0.7071 0.7071 0.7071 135.1983 424.926)" class="st4" width="242" height="0.7"/>
				</g>
				<g>
					
						<rect x="462.9" y="48.9" transform="matrix(0.7071 -0.7071 0.7071 0.7071 136.1914 427.3329)" class="st4" width="242" height="0.7"/>
				</g>
				<g>
					
						<rect x="466.4" y="48.9" transform="matrix(0.7071 -0.7071 0.7071 0.7071 137.2552 429.7691)" class="st4" width="242" height="0.7"/>
				</g>
				<g>
					
						<rect x="469.8" y="48.9" transform="matrix(0.7071 -0.7071 0.7071 0.7071 138.2485 432.1758)" class="st4" width="242" height="0.7"/>
				</g>
				<g>
					
						<rect x="473.2" y="48.9" transform="matrix(0.7071 -0.7071 0.7071 0.7071 139.2416 434.5826)" class="st4" width="242" height="0.7"/>
				</g>
				<g>
					
						<rect x="476.6" y="48.9" transform="matrix(0.7071 -0.7071 0.7071 0.7071 140.2347 436.9895)" class="st4" width="242" height="0.7"/>
				</g>
				<g>
					
						<rect x="480" y="48.9" transform="matrix(0.7071 -0.7071 0.7071 0.7071 141.2279 439.3962)" class="st4" width="242" height="0.7"/>
				</g>
			</g>
		</g>
	</g>
	<g id="Layer_3">
		<g>
			<path class="st4" d="M82.1,86.5l3.5,4.8h-2.1l-3.2-4.6H80v4.6h-1.7V80h2c1.5,0,2.6,0.3,3.2,0.8c0.7,0.6,1.1,1.5,1.1,2.5
				c0,0.8-0.2,1.5-0.7,2.1S82.8,86.3,82.1,86.5z M79.9,85.2h0.5c1.6,0,2.4-0.6,2.4-1.9c0-1.2-0.8-1.7-2.4-1.7h-0.6L79.9,85.2
				L79.9,85.2z"/>
			<path class="st4" d="M96.5,81.6H92v2.7h4.4v1.6H92v3.8h4.5v1.6h-6.2V80h6.2V81.6z"/>
			<path class="st4" d="M110.1,80.6v2c-1-0.8-2-1.2-3.1-1.2c-1.2,0-2.1,0.4-2.9,1.3c-0.8,0.8-1.2,1.8-1.2,3s0.4,2.2,1.2,3
				s1.8,1.2,2.9,1.2c0.6,0,1.1-0.1,1.5-0.3c0.2-0.1,0.5-0.2,0.7-0.4s0.5-0.4,0.8-0.6v2.1c-1,0.6-2,0.8-3.1,0.8c-1.6,0-3-0.6-4.1-1.7
				s-1.7-2.5-1.7-4.1c0-1.4,0.5-2.7,1.4-3.9c1.2-1.4,2.7-2.1,4.5-2.1C108.2,79.7,109.2,80,110.1,80.6z"/>
			<path class="st4" d="M114.6,85.6c0-1.6,0.6-3,1.8-4.1c1.2-1.1,2.6-1.7,4.2-1.7s3,0.6,4.1,1.7c1.2,1.2,1.7,2.5,1.7,4.2
				c0,1.6-0.6,3-1.7,4.1c-1.2,1.1-2.6,1.7-4.2,1.7c-1.5,0-2.8-0.5-3.9-1.5C115.3,88.8,114.6,87.4,114.6,85.6z M116.3,85.6
				c0,1.2,0.4,2.3,1.3,3.1c0.8,0.8,1.8,1.2,2.9,1.2c1.2,0,2.2-0.4,3-1.2c0.8-0.8,1.2-1.8,1.2-3s-0.4-2.2-1.2-3
				c-0.8-0.8-1.8-1.2-3-1.2s-2.2,0.4-3,1.2C116.7,83.4,116.3,84.4,116.3,85.6z"/>
			<path class="st4" d="M131.6,91.3V79.2l8.2,8.6V80h1.7v12l-8.2-8.6v7.9H131.6z"/>
			<path class="st4" d="M149,84.4h4.9V80h1.7v11.3h-1.7V86H149v5.3h-1.7V80h1.7V84.4z"/>
			<path class="st4" d="M167.5,81.6H163v2.7h4.4v1.6H163v3.8h4.5v1.6h-6.2V80h6.2V81.6z"/>
			<path class="st4" d="M181.1,80.6v2c-1-0.8-2-1.2-3.1-1.2c-1.2,0-2.1,0.4-2.9,1.3c-0.8,0.8-1.2,1.8-1.2,3s0.4,2.2,1.2,3
				s1.8,1.2,2.9,1.2c0.6,0,1.1-0.1,1.5-0.3c0.2-0.1,0.5-0.2,0.7-0.4s0.5-0.4,0.8-0.6v2.1c-1,0.6-2,0.8-3.1,0.8c-1.6,0-3-0.6-4.1-1.7
				s-1.7-2.5-1.7-4.1c0-1.4,0.5-2.7,1.4-3.9c1.2-1.4,2.7-2.1,4.5-2.1C179.2,79.7,180.1,80,181.1,80.6z"/>
			<path class="st4" d="M192.5,81.6H188v2.7h4.4v1.6H188v3.8h4.5v1.6h-6.2V80h6.2V81.6z"/>
			<path class="st4" d="M201.6,86.5l3.5,4.8H203l-3.2-4.6h-0.3v4.6h-1.7V80h2c1.5,0,2.6,0.3,3.2,0.8c0.7,0.6,1.1,1.5,1.1,2.5
				c0,0.8-0.2,1.5-0.7,2.1S202.3,86.3,201.6,86.5z M199.4,85.2h0.5c1.6,0,2.4-0.6,2.4-1.9c0-1.2-0.8-1.7-2.4-1.7h-0.6v3.6H199.4z"/>
			<path class="st4" d="M209.9,90.5c0-0.3,0.1-0.5,0.3-0.7s0.4-0.3,0.7-0.3s0.5,0.1,0.7,0.3s0.3,0.4,0.3,0.7c0,0.3-0.1,0.5-0.3,0.7
				s-0.4,0.3-0.7,0.3s-0.5-0.1-0.7-0.3S209.9,90.7,209.9,90.5z M210.1,88.8V80h1.7v8.8H210.1z"/>
			<path class="st4" d="M272.8,80v9.7h3.3v1.6h-5V80H272.8z"/>
			<path class="st4" d="M287,81.6h-4.5v2.7h4.4v1.6h-4.4v3.8h4.5v1.6h-6.2V80h6.2V81.6z"/>
			<path class="st4" d="M298.1,85.4h4.7v0.4c0,0.8-0.1,1.6-0.3,2.3c-0.2,0.6-0.5,1.2-1,1.7c-1,1.2-2.4,1.8-4,1.8s-2.9-0.6-4.1-1.7
				c-1.1-1.1-1.7-2.5-1.7-4.1s0.6-3,1.7-4.2c1.1-1.1,2.5-1.7,4.2-1.7c0.9,0,1.7,0.2,2.5,0.5c0.7,0.4,1.5,0.9,2.2,1.8l-1.2,1.2
				c-0.9-1.2-2.1-1.9-3.4-1.9c-1.2,0-2.2,0.4-3,1.2c-0.8,0.8-1.2,1.8-1.2,3c0,1.3,0.5,2.3,1.4,3.1c0.8,0.8,1.8,1.1,2.7,1.1
				c0.8,0,1.6-0.3,2.3-0.8c0.7-0.6,1-1.3,1.1-2.1h-2.8v-1.6H298.1z"/>
			<path class="st4" d="M314,88.5h-4.8l-1.3,2.7h-1.8l5.6-12l5.4,12h-1.9L314,88.5z M313.3,86.9l-1.7-3.8l-1.8,3.8H313.3z"/>
			<path class="st4" d="M323.2,80v9.7h3.3v1.6h-5V80H323.2z"/>
			<path class="st4" d="M332.8,80v11.3h-1.7V80H332.8z"/>
			<path class="st4" d="M340.5,89.7h5.4v1.6h-8.2l5.6-9.7h-4.6V80h7.4L340.5,89.7z"/>
			<path class="st4" d="M357.6,88.5h-4.8l-1.3,2.7h-1.8l5.6-12l5.4,12h-1.9L357.6,88.5z M356.9,86.9l-1.7-3.8l-1.8,3.8H356.9z"/>
			<path class="st4" d="M368.9,86.5l3.5,4.8h-2.1l-3.2-4.6h-0.3v4.6h-1.7V80h2c1.5,0,2.6,0.3,3.2,0.8c0.7,0.6,1.1,1.5,1.1,2.5
				c0,0.8-0.2,1.5-0.7,2.1S369.6,86.3,368.9,86.5z M366.8,85.2h0.5c1.6,0,2.4-0.6,2.4-1.9c0-1.2-0.8-1.7-2.4-1.7h-0.6v3.6H366.8z"/>
			<path class="st4" d="M377.2,90.5c0-0.3,0.1-0.5,0.3-0.7s0.4-0.3,0.7-0.3s0.5,0.1,0.7,0.3s0.3,0.4,0.3,0.7c0,0.3-0.1,0.5-0.3,0.7
				c-0.2,0.2-0.4,0.3-0.7,0.3c-0.3,0-0.5-0.1-0.7-0.3S377.2,90.7,377.2,90.5z M377.4,88.8V80h1.7v8.8H377.4z"/>
			<path class="st4" d="M440.2,80v11.3h-1.7V80H440.2z"/>
			<path class="st4" d="M445.9,91.3V79.2l8.2,8.6V80h1.7v12l-8.2-8.6v7.9H445.9z"/>
			<path class="st4" d="M464.7,81.6v9.7H463v-9.7h-2.6V80h6.9v1.6H464.7z"/>
			<path class="st4" d="M478,81.6h-4.5v2.7h4.4v1.6h-4.4v3.8h4.5v1.6h-6.2V80h6.2V81.6z"/>
			<path class="st4" d="M489.1,85.4h4.7v0.4c0,0.8-0.1,1.6-0.3,2.3c-0.2,0.6-0.5,1.2-1,1.7c-1,1.2-2.4,1.8-4,1.8s-2.9-0.6-4.1-1.7
				c-1.1-1.1-1.7-2.5-1.7-4.1s0.6-3,1.7-4.2c1.1-1.1,2.5-1.7,4.2-1.7c0.9,0,1.7,0.2,2.5,0.5c0.7,0.4,1.5,0.9,2.2,1.8l-1.2,1.2
				c-0.9-1.2-2.1-1.9-3.4-1.9c-1.2,0-2.2,0.4-3,1.2c-0.8,0.8-1.2,1.8-1.2,3c0,1.3,0.5,2.3,1.4,3.1c0.8,0.8,1.8,1.1,2.7,1.1
				c0.8,0,1.6-0.3,2.3-0.8c0.7-0.6,1-1.3,1.1-2.1h-2.8v-1.6H489.1z"/>
			<path class="st4" d="M502.7,86.5l3.5,4.8h-2.1l-3.2-4.6h-0.3v4.6h-1.7V80h2c1.5,0,2.6,0.3,3.2,0.8c0.7,0.6,1.1,1.5,1.1,2.5
				c0,0.8-0.2,1.5-0.7,2.1S503.5,86.3,502.7,86.5z M500.6,85.2h0.5c1.6,0,2.4-0.6,2.4-1.9c0-1.2-0.8-1.7-2.4-1.7h-0.6v3.6H500.6z"/>
			<path class="st4" d="M517.6,88.5h-4.8l-1.3,2.7h-1.8l5.6-12l5.4,12h-1.9L517.6,88.5z M516.9,86.9l-1.7-3.8l-1.8,3.8H516.9z"/>
			<path class="st4" d="M528.9,86.5l3.5,4.8h-2.1l-3.2-4.6h-0.3v4.6H525V80h2c1.5,0,2.6,0.3,3.2,0.8c0.7,0.6,1.1,1.5,1.1,2.5
				c0,0.8-0.2,1.5-0.7,2.1S529.6,86.3,528.9,86.5z M526.7,85.2h0.5c1.6,0,2.4-0.6,2.4-1.9c0-1.2-0.8-1.7-2.4-1.7h-0.6L526.7,85.2
				L526.7,85.2z"/>
			<path class="st4" d="M537.2,90.5c0-0.3,0.1-0.5,0.3-0.7s0.4-0.3,0.7-0.3s0.5,0.1,0.7,0.3s0.3,0.4,0.3,0.7c0,0.3-0.1,0.5-0.3,0.7
				s-0.4,0.3-0.7,0.3s-0.5-0.1-0.7-0.3S537.2,90.7,537.2,90.5z M537.4,88.8V80h1.7v8.8H537.4z"/>
		</g>
	</g>
</g>
</svg>
